<?xml version="1.0" encoding="utf-8"?>
<!-- Generator: Adobe Illustrator 16.0.0, SVG Export Plug-In . SVG Version: 6.00 Build 0)  -->
<!DOCTYPE svg PUBLIC "-//W3C//DTD SVG 1.1//EN" "http://www.w3.org/Graphics/SVG/1.1/DTD/svg11.dtd">
<svg version="1.1" id="Layer_1" xmlns="http://www.w3.org/2000/svg" xmlns:xlink="http://www.w3.org/1999/xlink" x="0px" y="0px"
	 width="32px" height="32px" viewBox="0 0 32 32" enable-background="new 0 0 32 32" xml:space="preserve">
<path fill="none" stroke="#FFFFFF" stroke-width="0.5" stroke-linejoin="round" d="M23.867,9.536
	c-0.113-2.35-0.967-4.21-2.549-5.054"/>
<path fill="none" stroke="#FFFFFF" stroke-width="0.5" stroke-linejoin="round" d="M10.124,25.459
	c1.518,0.81,3.439,0.542,5.373-0.553"/>
<path fill="none" stroke="#FFFFFF" stroke-width="0.5" stroke-linejoin="round" d="M8.418,9.388c0.142-2.28,0.992-4.081,2.541-4.907
	"/>
<path fill="none" stroke="#FFFFFF" stroke-width="0.5" stroke-linejoin="round" d="M22.152,25.459
	c-1.597,0.852-3.641,0.512-5.674-0.73"/>
<path fill="none" stroke="#FFFFFF" stroke-width="0.5" stroke-linejoin="round" d="M24.189,10.206
	c2.278,1.268,3.699,3.058,3.699,5.042"/>
<path fill="none" stroke="#FFFFFF" stroke-width="0.5" stroke-linejoin="round" d="M4.11,15.249c0-1.965,1.394-3.74,3.633-5.005"/>
<linearGradient id="SVGID_1_" gradientUnits="userSpaceOnUse" x1="12.3574" y1="-10.4658" x2="21.0123" y2="20.7762">
	<stop  offset="0" style="stop-color:#FFFFFF"/>
	<stop  offset="1" style="stop-color:#333333"/>
</linearGradient>
<polygon fill="url(#SVGID_1_)" stroke="#FFFFFF" stroke-width="0.5" stroke-linejoin="round" points="23.559,18.838 15.999,25.171 
	15.999,15.249 24.191,9.76 "/>
<linearGradient id="SVGID_2_" gradientUnits="userSpaceOnUse" x1="-440.7969" y1="-1.8569" x2="-453.885" y2="27.0638" gradientTransform="matrix(-1 0 0 1 -437.1318 0)">
	<stop  offset="0" style="stop-color:#FFFFFF"/>
	<stop  offset="1" style="stop-color:#333333"/>
</linearGradient>
<polygon fill="url(#SVGID_2_)" stroke="#FFFFFF" stroke-width="0.5" stroke-linejoin="round" points="8.44,18.838 15.999,25.171 
	15.999,15.249 7.807,9.76 "/>
<linearGradient id="SVGID_3_" gradientUnits="userSpaceOnUse" x1="8.1772" y1="7.6772" x2="42.5896" y2="20.5555">
	<stop  offset="0" style="stop-color:#FFFFFF"/>
	<stop  offset="1" style="stop-color:#333333"/>
</linearGradient>
<polygon fill="url(#SVGID_3_)" stroke="#FFFFFF" stroke-width="0.5" stroke-linejoin="round" points="7.807,9.76 15.999,5.96 
	24.191,9.76 15.999,15.249 "/>
<path fill="none" stroke="#FFFFFF" stroke-width="0.5" stroke-linejoin="round" d="M27.889,15.249c0,3.841-5.323,6.956-11.89,6.956
	S4.11,19.09,4.11,15.249"/>
<path fill="none" stroke="#FFFFFF" stroke-width="0.5" stroke-linejoin="round" d="M10.959,4.481
	c3.278-1.749,8.442,1.528,11.533,7.321c3.091,5.793,2.939,11.907-0.34,13.656"/>
<path fill="none" stroke="#FFFFFF" stroke-width="0.5" stroke-linejoin="round" d="M21.318,4.481
	c-3.279-1.749-8.442,1.528-11.533,7.321c-3.092,5.793-2.939,11.907,0.339,13.656"/>
</svg>
