<?xml version="1.0" encoding="utf-8"?>
<!-- Generator: Adobe Illustrator 16.0.0, SVG Export Plug-In . SVG Version: 6.00 Build 0)  -->
<!DOCTYPE svg PUBLIC "-//W3C//DTD SVG 1.1//EN" "http://www.w3.org/Graphics/SVG/1.1/DTD/svg11.dtd">
<svg version="1.1" id="Layer_1" xmlns="http://www.w3.org/2000/svg" xmlns:xlink="http://www.w3.org/1999/xlink" x="0px" y="0px"
	 width="32px" height="32px" viewBox="0 0 32 32" enable-background="new 0 0 32 32" xml:space="preserve">
<g>
	<linearGradient id="SVGID_1_" gradientUnits="userSpaceOnUse" x1="21.9844" y1="17.0313" x2="21.9844" y2="51.5633">
		<stop  offset="0" style="stop-color:#C1C1C1"/>
		<stop  offset="1" style="stop-color:#333333"/>
	</linearGradient>
	
		<polygon fill="url(#SVGID_1_)" stroke="#FFFFFF" stroke-width="0.5" stroke-linecap="round" stroke-linejoin="round" stroke-miterlimit="10" points="
		16.645,17.416 27.31,12.715 27.324,23.602 16.658,28.303 	"/>
	<polygon fill="#D6D6D6" stroke="#FFFFFF" stroke-width="0.5" stroke-linecap="round" stroke-linejoin="round" points="
		15.241,3.408 17.056,2.599 17.059,7.943 15.244,8.752 	"/>
	<polygon fill="#FDFDFD" stroke="#FFFFFF" stroke-width="0.5" stroke-linecap="round" stroke-linejoin="round" points="
		13.057,2.809 14.872,2 17.056,2.599 15.241,3.408 	"/>
	<polygon fill="#999999" stroke="#FFFFFF" stroke-width="0.5" stroke-linecap="round" stroke-linejoin="round" points="
		15.241,3.408 15.244,8.752 13.06,8.153 13.057,2.809 	"/>
	<polygon fill="#717171" stroke="#FFFFFF" stroke-width="0.5" stroke-linecap="round" stroke-linejoin="round" points="
		24.676,18.12 20.169,20.106 20.174,24.521 24.681,22.534 	"/>
	<linearGradient id="SVGID_2_" gradientUnits="userSpaceOnUse" x1="16.2031" y1="3.6245" x2="39.5761" y2="42.8577">
		<stop  offset="0" style="stop-color:#C1C1C1"/>
		<stop  offset="1" style="stop-color:#333333"/>
	</linearGradient>
	
		<polygon fill="url(#SVGID_2_)" stroke="#FFFFFF" stroke-width="0.5" stroke-linecap="round" stroke-linejoin="round" stroke-miterlimit="10" points="
		10.675,6.474 21.341,1.773 29.145,13.217 18.479,17.918 	"/>
	<linearGradient id="SVGID_3_" gradientUnits="userSpaceOnUse" x1="12.9121" y1="-3.6904" x2="8.4601" y2="35.2644">
		<stop  offset="0" style="stop-color:#C1C1C1"/>
		<stop  offset="1" style="stop-color:#333333"/>
	</linearGradient>
	
		<polygon fill="url(#SVGID_3_)" stroke="#FFFFFF" stroke-width="0.5" stroke-linecap="round" stroke-linejoin="round" stroke-miterlimit="10" points="
		10.675,6.474 18.479,17.918 16.645,17.416 16.658,28.303 4.741,25.043 4.727,14.157 2.893,13.656 	"/>
	<polygon fill="#333333" stroke="#FFFFFF" stroke-width="0.5" stroke-linecap="round" stroke-linejoin="round" points="
		8.503,26.088 12.254,27.113 12.245,20.248 8.503,19.225 	"/>
	<polygon fill="#333333" stroke="#FFFFFF" stroke-width="0.5" stroke-linecap="round" stroke-linejoin="round" points="
		12.254,15.622 12.248,11.527 8.499,10.502 8.499,14.595 	"/>
</g>
</svg>
