<?xml version="1.0" encoding="utf-8"?>
<!-- Generator: Adobe Illustrator 16.0.0, SVG Export Plug-In . SVG Version: 6.00 Build 0)  -->
<!DOCTYPE svg PUBLIC "-//W3C//DTD SVG 1.1//EN" "http://www.w3.org/Graphics/SVG/1.1/DTD/svg11.dtd">
<svg version="1.1" id="Ebene_1" xmlns="http://www.w3.org/2000/svg" xmlns:xlink="http://www.w3.org/1999/xlink" x="0px" y="0px"
	 width="150px" height="50px" viewBox="0 0 150 50" enable-background="new 0 0 150 50" xml:space="preserve">
<g>
	<g>
		<path fill="#FFFFFF" d="M51.797,28.722c-1.288,0-2.522-0.229-3.634-0.706c-1.111-0.476-2.046-1.11-2.857-1.922
			s-1.463-1.816-1.922-2.928c-0.476-1.111-0.705-2.346-0.705-3.633c0-1.34,0.229-2.522,0.705-3.633
			c0.477-1.111,1.111-2.046,1.922-2.804c0.811-0.759,1.746-1.341,2.857-1.817c1.111-0.406,2.346-0.635,3.634-0.635h9.594v3.157
			h-9.594c-0.812,0-1.641,0.124-2.346,0.406c-0.706,0.3-1.341,0.706-1.817,1.235c-0.529,0.529-0.935,1.111-1.235,1.816
			c-0.3,0.705-0.405,1.517-0.405,2.346s0.123,1.64,0.405,2.346c0.3,0.705,0.706,1.34,1.235,1.869s1.111,0.935,1.817,1.234
			c0.705,0.301,1.464,0.477,2.346,0.477h9.594v3.157h-9.594V28.722z"/>
		<path fill="#FFFFFF" d="M80.086,28.722l-4.727-5.026h-6.438v-2.805h7.248c1.164,0,2.046-0.3,2.682-0.935
			c0.582-0.635,0.882-1.517,0.882-2.681s-0.3-2.046-0.936-2.628c-0.635-0.582-1.517-0.882-2.628-0.882h-9.171v14.903H63.79V10.714
			h12.398c1.059,0,1.993,0.176,2.857,0.476c0.812,0.3,1.57,0.759,2.099,1.288c0.582,0.582,1.059,1.288,1.341,2.046
			c0.3,0.811,0.477,1.693,0.477,2.751c0,1.517-0.354,2.751-0.988,3.792c-0.705,0.987-1.64,1.746-2.857,2.222l5.609,5.503h-4.621
			v-0.07H80.086z"/>
		<path fill="#FFFFFF" d="M101.655,10.714v10.053c0,0.935-0.123,1.693-0.353,2.346c-0.229,0.635-0.582,1.164-1.111,1.569
			s-1.234,0.706-2.099,0.882c-0.812,0.177-1.869,0.3-3.104,0.3c-1.234,0-2.222-0.123-3.104-0.3
			c-0.882-0.176-1.569-0.477-2.099-0.882s-0.882-0.935-1.111-1.569c-0.229-0.635-0.353-1.411-0.353-2.346V10.714h-3.387v10.053
			c0,1.411,0.177,2.575,0.582,3.633c0.353,1.059,0.988,1.869,1.746,2.575c0.812,0.705,1.87,1.164,3.104,1.517
			c1.164,0.3,2.628,0.477,4.268,0.477l0,0c0.053,0,0.124,0,0.177,0s0.123,0,0.176,0l0,0c1.693,0,3.104-0.177,4.321-0.477
			c1.287-0.353,2.346-0.812,3.104-1.517c0.811-0.706,1.41-1.517,1.746-2.575c0.405-1.058,0.582-2.222,0.582-3.633V10.714H101.655z"
			/>
		<path fill="#FFFFFF" d="M107.211,28.722v-3.157h13.333c0.882,0,1.517-0.229,1.993-0.635c0.477-0.406,0.705-0.988,0.705-1.693
			c0-0.758-0.229-1.34-0.705-1.746c-0.477-0.405-1.111-0.582-1.993-0.582h-7.884c-0.882,0-1.692-0.123-2.398-0.405
			c-0.705-0.229-1.287-0.582-1.816-1.059c-0.476-0.476-0.882-0.987-1.111-1.64c-0.3-0.635-0.405-1.341-0.405-2.046
			c0-0.706,0.123-1.411,0.353-2.046c0.229-0.635,0.635-1.164,1.111-1.57c0.477-0.476,1.111-0.811,1.816-1.058
			c0.706-0.229,1.517-0.406,2.451-0.406h12.752v3.157H112.66c-0.758,0-1.34,0.177-1.745,0.582c-0.406,0.406-0.636,0.935-0.636,1.641
			c0,0.705,0.229,1.234,0.636,1.64c0.405,0.353,0.987,0.582,1.692,0.582h7.954c1.87,0,3.334,0.406,4.321,1.288
			s1.464,2.169,1.464,3.915c0,0.758-0.123,1.464-0.353,2.099s-0.582,1.234-1.059,1.693c-0.476,0.477-1.111,0.812-1.816,1.111
			s-1.569,0.405-2.575,0.405h-13.333V28.722z"/>
		<path fill="#FFFFFF" d="M128.904,28.722V10.714h17.602v3.157h-14.321v11.746h14.374v3.157h-17.654V28.722z M134.054,20.891v-2.628
			h11.693v2.628H134.054z"/>
	</g>
	<polygon fill="#FFFFFF" points="3.913,19.533 15.659,10.362 27.423,19.533 15.659,28.722 	"/>
	<polygon fill="#FFFFFF" points="16.188,10.062 28.005,0.891 39.751,10.062 28.005,19.198 	"/>
	<polygon fill="#FFFFFF" points="16.188,29.004 28.005,19.833 39.751,29.004 28.005,38.192 	"/>
	<g id="Ball_1_">
		<g>
			<g>
				<g>
					<defs>
						<path id="SVGID_1_" d="M21.444,19.533c0,3.563,2.928,6.491,6.49,6.491c3.563,0,6.49-2.91,6.49-6.491
							c0-3.58-2.927-6.49-6.49-6.49C24.372,13.042,21.444,15.917,21.444,19.533"/>
					</defs>
					<clipPath id="SVGID_2_">
						<use xlink:href="#SVGID_1_"  overflow="visible"/>
					</clipPath>
					<rect x="21.444" y="13.042" clip-path="url(#SVGID_2_)" fill="#FF0000" width="12.98" height="12.981"/>
				</g>
			</g>
		</g>
		<g>
			<g>
				<g>
					<defs>
						<path id="SVGID_3_" d="M21.444,19.533c0,3.563,2.928,6.491,6.49,6.491c3.563,0,6.49-2.91,6.49-6.491
							c0-3.58-2.927-6.49-6.49-6.49C24.372,13.042,21.444,15.917,21.444,19.533"/>
					</defs>
					<clipPath id="SVGID_4_">
						<use xlink:href="#SVGID_3_"  overflow="visible"/>
					</clipPath>
					
						<radialGradient id="SVGID_5_" cx="147.1582" cy="329.8291" r="3.0575" gradientTransform="matrix(0.8332 0 0 -0.8332 -97.0264 291.085)" gradientUnits="userSpaceOnUse">
						<stop  offset="0" style="stop-color:#FFFFFF"/>
						<stop  offset="1" style="stop-color:#FF0000"/>
					</radialGradient>
					<path clip-path="url(#SVGID_4_)" fill="url(#SVGID_5_)" d="M23.031,16.27c0,1.411,1.164,2.575,2.575,2.575
						c1.411,0,2.575-1.111,2.575-2.575s-1.164-2.575-2.575-2.575C24.195,13.695,23.031,14.859,23.031,16.27"/>
				</g>
			</g>
		</g>
	</g>
	<g>
		<path fill="#FF0000" d="M57.281,32.284c0.3,0,0.582,0,0.882,0.053s0.529,0.177,0.759,0.405c0.229,0.177,0.405,0.477,0.529,0.883
			c0.123,0.353,0.176,0.881,0.176,1.569c0,0.528-0.053,0.935-0.123,1.341c-0.053,0.352-0.229,0.705-0.406,0.934
			c-0.176,0.229-0.476,0.406-0.758,0.529c-0.3,0.124-0.706,0.177-1.111,0.177h-0.987c-0.053,0-0.124-0.053-0.124-0.124v-5.731
			c0-0.053,0.053-0.123,0.124-0.123L57.281,32.284L57.281,32.284z M57.281,37.54c0.3,0,0.582-0.054,0.759-0.177
			c0.176-0.123,0.353-0.3,0.476-0.477c0.124-0.229,0.176-0.476,0.229-0.758c0.053-0.3,0.053-0.635,0.053-0.987
			c0-0.477-0.053-0.882-0.124-1.164c-0.053-0.3-0.176-0.529-0.3-0.706c-0.124-0.176-0.3-0.3-0.476-0.353s-0.406-0.053-0.635-0.053
			h-0.44v4.674H57.281L57.281,37.54z"/>
		<path fill="#FF0000" d="M61.62,38.068c0,0.054-0.053,0.124-0.123,0.124h-0.477c-0.053,0-0.124-0.053-0.124-0.124V34.56h-0.706
			c-0.053,0-0.123-0.054-0.123-0.124v-0.353c0-0.053,0.053-0.124,0.123-0.124h1.235c0.053,0,0.053,0,0.124,0.054
			c0,0,0,0.053,0,0.123L61.62,38.068L61.62,38.068z M61.726,32.514c0,0.123-0.053,0.3-0.176,0.353
			c-0.124,0.123-0.229,0.177-0.353,0.177c-0.124,0-0.3-0.054-0.353-0.177c-0.124-0.124-0.176-0.229-0.176-0.353
			c0-0.177,0.053-0.3,0.176-0.354c0.124-0.123,0.229-0.176,0.353-0.176c0.176,0,0.3,0.053,0.353,0.176
			C61.673,32.231,61.726,32.337,61.726,32.514z"/>
		<path fill="#FF0000" d="M65.642,36.499c0,0.124,0,0.3,0,0.477s0,0.353,0,0.529c0,0.176,0,0.353,0,0.528c0,0.177,0,0.301,0,0.406
			c0,0.176,0,0.405-0.053,0.582c-0.053,0.176-0.124,0.353-0.229,0.477c-0.124,0.123-0.3,0.229-0.477,0.353
			c-0.176,0.053-0.405,0.123-0.705,0.123c-0.177,0-0.353,0-0.529-0.053c-0.177-0.053-0.353-0.053-0.477-0.124
			c-0.123-0.053-0.229-0.123-0.353-0.176c-0.123-0.053-0.123-0.123-0.123-0.123s0-0.054,0.053-0.124l0.123-0.3
			c0-0.053,0.053-0.053,0.053-0.053s0.053,0,0.124,0.053c0.053,0.053,0.176,0.053,0.229,0.123c0.123,0.053,0.229,0.053,0.353,0.124
			c0.123,0.053,0.3,0.053,0.405,0.053c0.177,0,0.353,0,0.477-0.053c0.123-0.053,0.229-0.124,0.3-0.229
			c0.053-0.053,0.123-0.176,0.123-0.3c0-0.123,0-0.229,0-0.353c0-0.229,0-0.406,0-0.582c0-0.177,0-0.3,0-0.3
			c-0.053,0.053-0.123,0.053-0.176,0.123c-0.053,0.054-0.177,0.124-0.229,0.177c-0.124,0.053-0.229,0.123-0.353,0.123
			c-0.124,0.053-0.229,0.053-0.406,0.053c-0.406,0-0.706-0.176-0.935-0.476c-0.229-0.353-0.353-0.812-0.353-1.411
			c0-0.353,0.053-0.635,0.124-0.935c0.053-0.3,0.176-0.529,0.3-0.706c0.124-0.176,0.3-0.353,0.529-0.476
			c0.177-0.124,0.477-0.177,0.706-0.177c0.123,0,0.3,0,0.405,0.053c0.124,0,0.229,0.053,0.3,0.124
			c0.053,0.053,0.177,0.053,0.229,0.123c0.053,0.054,0.123,0.054,0.123,0.124c0.053-0.124,0.053-0.177,0.124-0.3
			c0.053-0.054,0.053-0.124,0.123-0.124c0.053,0,0.053,0,0.053,0l0.406,0.229l0.053,0.053c0,0.054,0,0.054-0.053,0.124
			c-0.053,0.053-0.053,0.123-0.124,0.229c-0.053,0.124-0.053,0.177-0.053,0.301c0,0.053,0,0.176,0,0.353L65.642,36.499
			L65.642,36.499z M65.006,34.683c-0.053-0.053-0.176-0.053-0.353-0.123c-0.124-0.054-0.3-0.124-0.476-0.124
			c-0.353,0-0.582,0.124-0.759,0.406c-0.176,0.3-0.229,0.635-0.229,1.111c0,0.476,0.053,0.811,0.176,1.11s0.3,0.405,0.582,0.405
			c0.124,0,0.229,0,0.3-0.053c0.053-0.053,0.176-0.053,0.3-0.123c0.124-0.053,0.177-0.123,0.229-0.123
			c0.053-0.053,0.123-0.124,0.176-0.124L65.006,34.683L65.006,34.683z"/>
		<path fill="#FF0000" d="M67.987,38.068c0,0.054-0.053,0.124-0.124,0.124h-0.458c-0.053,0-0.124-0.053-0.124-0.124V34.56h-0.635
			c-0.053,0-0.123-0.054-0.123-0.124v-0.353c0-0.053,0.053-0.124,0.123-0.124h1.234c0.053,0,0.053,0,0.124,0.054
			c0,0,0,0.053,0,0.123v3.933H67.987z M68.11,32.514c0,0.123-0.053,0.3-0.176,0.353c-0.124,0.123-0.229,0.177-0.353,0.177
			c-0.176,0-0.3-0.054-0.353-0.177c-0.123-0.124-0.176-0.229-0.176-0.353c0-0.177,0.053-0.3,0.176-0.354
			c0.124-0.123,0.229-0.176,0.353-0.176c0.177,0,0.3,0.053,0.353,0.176C68.11,32.231,68.11,32.337,68.11,32.514z"/>
		<path fill="#FF0000" d="M71.673,37.84c0,0.053,0,0.053,0,0.053c0,0.053-0.053,0.053-0.123,0.123
			c-0.053,0.053-0.177,0.053-0.3,0.124c-0.124,0.053-0.229,0.053-0.353,0.123c-0.124,0-0.229,0.054-0.353,0.054
			c-0.176,0-0.353-0.054-0.529-0.124c-0.176-0.053-0.229-0.124-0.3-0.229c-0.053-0.053-0.124-0.123-0.176-0.229
			c-0.053-0.054-0.053-0.177-0.053-0.229c0-0.054,0-0.177,0-0.229s0-0.177,0-0.229v-2.451h-0.635c0,0-0.053,0-0.053-0.054v-0.053
			v-0.353c0-0.053,0-0.053,0-0.053s0-0.053,0.053-0.053h0.635v-1.217c0-0.054,0.053-0.054,0.123-0.124l0.477-0.123c0,0,0,0,0.053,0
			c0,0,0,0,0.053,0c0.053,0,0.053,0.053,0.053,0.123v1.341h1.288c0.053,0,0.123,0,0.123,0.053c0,0,0,0,0,0.053l0,0l-0.123,0.353
			c0,0.053-0.053,0.053-0.124,0.053h-1.111v2.452c0,0.053,0,0.177,0,0.229s0,0.176,0.053,0.229c0.053,0.054,0.053,0.124,0.176,0.177
			c0.053,0.053,0.177,0.053,0.3,0.053c0.124,0,0.177,0,0.3-0.053c0.053,0,0.176-0.053,0.229-0.053
			c0.053-0.053,0.124-0.053,0.177-0.053c0.053,0,0.053-0.054,0.123-0.054c0.053,0,0.053,0,0.053,0.054L71.673,37.84z"/>
		<path fill="#FF0000" d="M74.883,36.781c0,0.124,0,0.229,0,0.354c0,0.053,0,0.176,0,0.229s0,0.123,0.053,0.177
			c0,0.053,0.053,0.123,0.053,0.177c0,0.053,0.053,0.123,0.124,0.176c0.053,0.053,0.053,0.123,0.053,0.123v0.053
			c0,0-0.053,0-0.053,0.054l-0.353,0.229c-0.053,0-0.053,0-0.053,0c-0.053,0-0.053,0-0.124-0.053
			c-0.053-0.054-0.053-0.124-0.123-0.177c-0.053-0.054-0.053-0.124-0.053-0.177s-0.053-0.123-0.053-0.123
			c-0.053,0-0.053,0.053-0.123,0.123c-0.053,0.053-0.124,0.123-0.229,0.177c-0.105,0.053-0.229,0.123-0.353,0.177
			c-0.124,0.053-0.3,0.053-0.477,0.053c-0.353,0-0.635-0.124-0.811-0.301c-0.176-0.229-0.3-0.528-0.3-0.881
			c0-0.229,0.053-0.477,0.124-0.582c0.053-0.177,0.176-0.301,0.353-0.406c0.124-0.123,0.3-0.176,0.477-0.229
			c0.176-0.054,0.353-0.124,0.529-0.124s0.353-0.053,0.476-0.053c0.124,0,0.3,0,0.353,0v-0.529c0-0.229-0.053-0.476-0.176-0.582
			c-0.124-0.124-0.3-0.177-0.582-0.177c-0.124,0-0.3,0-0.406,0.053c-0.106,0.054-0.229,0.054-0.3,0.124
			c-0.124,0.053-0.176,0.053-0.229,0.124c-0.053,0.053-0.124,0.053-0.124,0.053s-0.053,0-0.053-0.053l-0.123-0.301
			c0-0.053,0-0.053,0-0.123c0-0.053,0.053-0.053,0.123-0.123c0.124-0.053,0.177-0.124,0.353-0.124
			c0.124-0.053,0.3-0.053,0.477-0.123c0.176,0,0.3-0.054,0.476-0.054c0.229,0,0.476,0,0.635,0.054
			c0.176,0.053,0.3,0.123,0.405,0.229c0.124,0.123,0.177,0.229,0.229,0.405s0.053,0.3,0.053,0.476L74.883,36.781L74.883,36.781z
			 M74.248,36.076c-0.124,0-0.229,0-0.405,0c-0.177,0-0.353,0.053-0.529,0.123c-0.177,0.053-0.353,0.124-0.477,0.3
			c-0.123,0.124-0.176,0.3-0.176,0.529c0,0.053,0,0.177,0.053,0.229c0,0.053,0.053,0.176,0.123,0.229
			c0.053,0.054,0.124,0.124,0.177,0.177c0.053,0.054,0.176,0.054,0.3,0.054c0.123,0,0.229,0,0.3-0.054
			c0.123-0.053,0.176-0.123,0.3-0.177c0.053-0.053,0.176-0.123,0.229-0.176c0.053-0.053,0.123-0.123,0.176-0.123L74.248,36.076
			L74.248,36.076z"/>
		<path fill="#FF0000" d="M77.811,38.016v0.053c0,0,0,0.054-0.053,0.054s-0.124,0.053-0.177,0.053s-0.176,0.053-0.229,0.053
			c-0.053,0-0.176,0-0.229,0c-0.229,0-0.406-0.053-0.529-0.123c-0.124-0.054-0.229-0.177-0.3-0.3c0-0.053-0.053-0.177-0.053-0.3
			c0-0.124-0.054-0.229-0.054-0.353c0-0.124,0-0.229,0-0.354c0-0.123,0-0.229,0-0.3v-4.497c0-0.053,0-0.123,0.054-0.123l0.405-0.124
			c0.053,0,0.053,0,0.053,0s0,0,0.053,0c0.054,0,0.054,0,0.054,0.053v0.054v4.62c0,0.054,0,0.177,0,0.229s0,0.176,0,0.229
			c0,0.053,0,0.177,0,0.229s0,0.123,0,0.123c0,0.053,0.053,0.123,0.053,0.176c0.053,0.054,0.123,0.124,0.229,0.124
			c0.105,0,0.229,0,0.3-0.053c0.053-0.054,0.123-0.054,0.176-0.054s0.053,0,0.053,0s0,0,0,0.054L77.811,38.016z"/>
		<path fill="#FF0000" d="M82.961,38.068c0,0.054-0.054,0.124-0.124,0.124h-2.275c-0.053,0-0.123-0.053-0.123-0.124v-0.352
			c0-0.054,0.053-0.124,0.123-0.124h0.759v-4.779h-0.759c-0.053,0-0.123-0.054-0.123-0.124v-0.353c0-0.053,0.053-0.123,0.123-0.123
			h2.275c0.053,0,0.124,0.053,0.124,0.123v0.353c0,0.053-0.054,0.124-0.124,0.124h-0.758v4.797h0.758
			c0.053,0,0.124,0.053,0.124,0.124V38.068z"/>
		<path fill="#FF0000" d="M83.948,35.088c0-0.123,0-0.176,0-0.299c0-0.124,0-0.177-0.053-0.301c0-0.123-0.053-0.176-0.053-0.176
			c-0.054-0.053-0.054-0.053-0.054-0.123c0,0,0-0.054,0.054-0.054l0.353-0.229c0,0,0,0,0.053,0c0,0,0,0,0.053,0s0.053,0,0.123,0.053
			c0,0.054,0.054,0.124,0.054,0.177c0,0.054,0.053,0.124,0.053,0.177s0,0.123,0,0.123c0.053-0.053,0.123-0.123,0.229-0.176
			c0.105-0.053,0.176-0.124,0.3-0.177c0.123-0.053,0.229-0.124,0.3-0.124c0.123-0.053,0.229-0.053,0.3-0.053
			c0.3,0,0.476,0.053,0.635,0.124c0.123,0.053,0.229,0.229,0.3,0.405c0.053-0.053,0.123-0.123,0.229-0.176
			c0.105-0.053,0.176-0.124,0.3-0.177c0.123-0.053,0.176-0.124,0.3-0.124c0.123-0.053,0.229-0.053,0.3-0.053
			c0.229,0,0.405,0.053,0.582,0.124c0.123,0.053,0.229,0.177,0.3,0.3c0.053,0.123,0.123,0.229,0.123,0.405c0,0.177,0,0.3,0,0.477
			v2.856c0,0.054-0.053,0.124-0.123,0.124h-0.477c-0.053,0-0.123-0.053-0.123-0.124v-2.856c0-0.124,0-0.177,0-0.3
			c0-0.053-0.054-0.177-0.054-0.229c-0.053-0.053-0.123-0.123-0.176-0.177c-0.053-0.053-0.177-0.053-0.3-0.053
			c-0.229,0-0.353,0.053-0.529,0.124c-0.123,0.053-0.229,0.176-0.353,0.229v3.209c0,0.053-0.053,0.124-0.124,0.124h-0.476
			c-0.053,0-0.124-0.053-0.124-0.124v-2.856c0-0.124,0-0.177,0-0.3c0-0.053-0.053-0.177-0.053-0.229
			c-0.053-0.053-0.123-0.124-0.176-0.177c-0.054-0.053-0.177-0.053-0.3-0.053c-0.124,0-0.177,0-0.3,0.053
			c-0.054,0-0.177,0.053-0.229,0.124c-0.053,0.053-0.124,0.053-0.177,0.123c-0.053,0.053-0.123,0.053-0.123,0.124v3.209
			c0,0.054-0.053,0.124-0.124,0.124h-0.476c-0.053,0-0.124-0.053-0.124-0.124L83.948,35.088L83.948,35.088z"/>
		<path fill="#FF0000" d="M92.537,36.781c0,0.124,0,0.229,0,0.354c0,0.053,0,0.176,0,0.229s0,0.123,0.053,0.177
			c0,0.053,0.053,0.123,0.053,0.177c0,0.053,0.054,0.123,0.124,0.176c0.053,0.053,0.053,0.123,0.053,0.123v0.053
			c0,0-0.053,0-0.053,0.054l-0.353,0.229c-0.054,0-0.054,0-0.054,0c-0.053,0-0.053,0-0.123-0.053
			c-0.053-0.054-0.053-0.124-0.123-0.177c0-0.054-0.054-0.124-0.054-0.177s-0.053-0.123-0.053-0.123s-0.053,0.053-0.123,0.123
			c-0.053,0.053-0.177,0.123-0.229,0.177c-0.123,0.053-0.229,0.123-0.353,0.177c-0.124,0.053-0.3,0.053-0.477,0.053
			c-0.353,0-0.635-0.124-0.812-0.301c-0.176-0.229-0.3-0.528-0.3-0.881c0-0.229,0.054-0.477,0.124-0.582
			c0.053-0.177,0.176-0.301,0.353-0.406c0.124-0.123,0.3-0.176,0.477-0.229c0.176-0.054,0.353-0.124,0.529-0.124
			c0.176-0.053,0.353-0.053,0.476-0.053c0.124,0,0.229,0,0.353,0v-0.529c0-0.229-0.053-0.476-0.176-0.582
			c-0.124-0.124-0.3-0.177-0.635-0.177c-0.124,0-0.3,0-0.406,0.053c-0.123,0.054-0.229,0.054-0.3,0.124
			c-0.123,0.053-0.176,0.053-0.229,0.124c-0.053,0.053-0.123,0.053-0.123,0.053c-0.053,0-0.053,0-0.053-0.053l-0.124-0.301
			c0-0.053,0-0.053,0-0.123c0-0.053,0.054-0.053,0.124-0.123c0.123-0.053,0.176-0.124,0.353-0.124
			c0.123-0.053,0.3-0.053,0.405-0.123c0.177,0,0.3-0.054,0.477-0.054c0.229,0,0.477,0,0.635,0.054
			c0.177,0.053,0.3,0.123,0.406,0.229c0.123,0.123,0.176,0.229,0.229,0.405s0.053,0.3,0.053,0.476L92.537,36.781L92.537,36.781z
			 M91.902,36.076c-0.124,0-0.229,0-0.405,0c-0.177,0-0.354,0.053-0.529,0.123c-0.177,0.053-0.353,0.124-0.477,0.3
			c-0.123,0.124-0.176,0.3-0.176,0.529c0,0.053,0,0.177,0.053,0.229c0,0.053,0.053,0.176,0.123,0.229
			c0.053,0.054,0.124,0.124,0.177,0.177c0.053,0.054,0.176,0.054,0.3,0.054c0.123,0,0.229,0,0.353-0.054
			c0.123-0.053,0.177-0.123,0.3-0.177c0.053-0.053,0.177-0.123,0.229-0.176s0.123-0.123,0.176-0.123L91.902,36.076z"/>
		<path fill="#FF0000" d="M96.682,36.499c0,0.124,0,0.3,0,0.477s0,0.353,0,0.529c0,0.176,0,0.353,0,0.528c0,0.177,0,0.301,0,0.406
			c0,0.176,0,0.405-0.053,0.582c-0.053,0.176-0.123,0.353-0.229,0.477c-0.123,0.123-0.3,0.229-0.476,0.353
			c-0.177,0.053-0.406,0.123-0.706,0.123c-0.176,0-0.353,0-0.529-0.053c-0.176-0.053-0.353-0.053-0.476-0.124
			c-0.124-0.053-0.229-0.123-0.353-0.176c-0.124-0.053-0.124-0.123-0.124-0.123s0-0.054,0.053-0.124l0.124-0.3
			c0-0.053,0.053-0.053,0.053-0.053s0.053,0,0.123,0.053c0.054,0.053,0.177,0.053,0.3,0.123c0.124,0.053,0.229,0.053,0.354,0.124
			c0.123,0.053,0.3,0.053,0.405,0.053c0.177,0,0.353,0,0.477-0.053c0.123-0.053,0.229-0.124,0.3-0.229
			c0.053-0.053,0.123-0.176,0.123-0.3c0-0.123,0-0.229,0-0.353c0-0.229,0-0.406,0-0.582c0-0.177,0-0.3,0-0.3
			c-0.053,0.053-0.123,0.053-0.177,0.123c-0.053,0.054-0.176,0.124-0.229,0.177c-0.124,0.053-0.229,0.123-0.354,0.123
			c-0.123,0.053-0.229,0.053-0.405,0.053c-0.405,0-0.705-0.176-0.935-0.476c-0.229-0.353-0.353-0.812-0.353-1.411
			c0-0.353,0.053-0.635,0.123-0.935s0.177-0.529,0.3-0.706c0.124-0.176,0.3-0.353,0.529-0.476c0.177-0.124,0.477-0.177,0.705-0.177
			c0.124,0,0.3,0,0.406,0.053c0.123,0,0.229,0.053,0.3,0.124c0.053,0.053,0.176,0.053,0.229,0.123
			c0.054,0.054,0.124,0.054,0.124,0.124c0.053-0.124,0.053-0.177,0.123-0.3c0.054-0.054,0.054-0.124,0.124-0.124
			c0.053,0,0.053,0,0.053,0l0.405,0.229l0.053,0.053c0,0.054,0,0.054-0.053,0.124c-0.053,0.053-0.053,0.123-0.123,0.229
			c-0.053,0.124-0.053,0.177-0.053,0.301c0,0.053,0,0.176,0,0.353L96.682,36.499L96.682,36.499z M96.047,34.683
			c-0.053-0.053-0.177-0.053-0.353-0.123c-0.124-0.054-0.3-0.124-0.477-0.124c-0.353,0-0.582,0.124-0.705,0.406
			c-0.177,0.3-0.229,0.635-0.229,1.111c0,0.476,0.053,0.811,0.177,1.11c0.123,0.3,0.3,0.405,0.582,0.405c0.123,0,0.229,0,0.3-0.053
			c0.123-0.053,0.176-0.053,0.3-0.123c0.053-0.053,0.176-0.123,0.229-0.123c0.054-0.053,0.124-0.124,0.177-0.124V34.683
			L96.047,34.683z"/>
		<path fill="#FF0000" d="M98.975,38.068c0,0.054-0.053,0.124-0.123,0.124h-0.477c-0.053,0-0.124-0.053-0.124-0.124V34.56h-0.705
			c-0.053,0-0.123-0.054-0.123-0.124v-0.353c0-0.053,0.053-0.124,0.123-0.124h1.234c0.053,0,0.053,0,0.124,0.054
			c0,0,0,0.053,0,0.123L98.975,38.068z M99.151,32.514c0,0.123-0.054,0.3-0.177,0.353c-0.123,0.123-0.229,0.177-0.353,0.177
			c-0.177,0-0.3-0.054-0.353-0.177c-0.124-0.124-0.177-0.229-0.177-0.353c0-0.177,0.053-0.3,0.177-0.354
			c0.123-0.123,0.229-0.176,0.353-0.176c0.176,0,0.3,0.053,0.353,0.176C99.08,32.231,99.151,32.337,99.151,32.514z"/>
		<path fill="#FF0000" d="M103.419,38.068c0,0.054-0.053,0.124-0.123,0.124h-0.477c-0.053,0-0.123-0.053-0.123-0.124v-2.856
			c0-0.124,0-0.177,0-0.3c0-0.053-0.054-0.177-0.054-0.229c-0.053-0.053-0.123-0.123-0.176-0.177
			c-0.053-0.053-0.177-0.053-0.3-0.053c-0.124,0-0.3,0-0.406,0.053c-0.123,0.054-0.229,0.054-0.3,0.124
			c-0.123,0.053-0.176,0.123-0.229,0.177c-0.054,0.053-0.124,0.123-0.177,0.176v3.033c0,0.053-0.053,0.124-0.123,0.124h-0.477
			c-0.053,0-0.123-0.053-0.123-0.124v-2.98c0-0.123,0-0.229,0-0.3c0-0.07,0-0.123-0.054-0.176c-0.053-0.124-0.053-0.229-0.123-0.229
			c0-0.053-0.053-0.053-0.053-0.123c0-0.054,0-0.054,0.053-0.054l0.405-0.229c0,0,0,0,0.054,0c0,0,0,0,0.053,0s0.053,0,0.123,0.054
			c0.053,0.053,0.053,0.123,0.053,0.176c0,0.054,0.053,0.124,0.053,0.177s0,0.123,0,0.123c0.054-0.053,0.177-0.123,0.229-0.176
			c0.124-0.053,0.177-0.124,0.3-0.177c0.124-0.053,0.229-0.123,0.406-0.177c0.123-0.053,0.3-0.053,0.476-0.053
			c0.229,0,0.406,0.053,0.582,0.124c0.124,0.053,0.229,0.176,0.3,0.3c0.053,0.123,0.124,0.229,0.124,0.405s0,0.3,0,0.477
			L103.419,38.068z"/>
		<path fill="#FF0000" d="M107.44,36.499c0,0.124,0,0.3,0,0.477s0,0.353,0,0.529c0,0.176,0,0.353,0,0.528c0,0.177,0,0.301,0,0.406
			c0,0.176,0,0.405-0.053,0.582c-0.054,0.176-0.124,0.353-0.229,0.477c-0.124,0.123-0.3,0.229-0.477,0.353
			c-0.176,0.053-0.405,0.123-0.705,0.123c-0.177,0-0.353,0-0.529-0.053s-0.353-0.053-0.477-0.124
			c-0.123-0.053-0.229-0.123-0.353-0.176c-0.123-0.053-0.123-0.123-0.123-0.123s0-0.054,0.053-0.124l0.123-0.3
			c0-0.053,0.054-0.053,0.054-0.053s0.053,0,0.123,0.053c0.053,0.053,0.177,0.053,0.229,0.123c0.123,0.053,0.229,0.053,0.353,0.124
			c0.123,0.053,0.3,0.053,0.405,0.053c0.177,0,0.353,0,0.477-0.053c0.123-0.053,0.229-0.124,0.3-0.229
			c0.053-0.053,0.123-0.176,0.123-0.3c0-0.123,0-0.229,0-0.353c0-0.229,0-0.406,0-0.582c0-0.177,0-0.3,0-0.3
			c-0.053,0.053-0.123,0.053-0.176,0.123c-0.053,0.054-0.177,0.124-0.229,0.177c-0.123,0.053-0.229,0.123-0.353,0.123
			c-0.124,0.053-0.229,0.053-0.406,0.053c-0.405,0-0.705-0.176-0.935-0.476c-0.229-0.353-0.353-0.812-0.353-1.411
			c0-0.353,0.053-0.635,0.123-0.935c0.071-0.3,0.177-0.529,0.3-0.706c0.124-0.176,0.3-0.353,0.529-0.476
			c0.177-0.124,0.477-0.177,0.706-0.177c0.123,0,0.3,0,0.405,0.053c0.123,0,0.229,0.053,0.3,0.124
			c0.053,0.053,0.177,0.053,0.229,0.123c0.053,0.054,0.123,0.054,0.123,0.124c0.053-0.124,0.053-0.177,0.124-0.3
			c0.053-0.054,0.053-0.124,0.123-0.124h0.053l0.406,0.229l0.053,0.053c0,0.054,0,0.054-0.053,0.124
			c-0.054,0.053-0.054,0.123-0.124,0.229c-0.053,0.124-0.053,0.177-0.053,0.301c0,0.053,0,0.176,0,0.353L107.44,36.499
			L107.44,36.499z M106.806,34.683c-0.054-0.053-0.177-0.053-0.354-0.123c-0.123-0.054-0.3-0.124-0.476-0.124
			c-0.353,0-0.582,0.124-0.759,0.406c-0.176,0.3-0.229,0.635-0.229,1.111c0,0.476,0.054,0.811,0.177,1.11s0.3,0.405,0.582,0.405
			c0.123,0,0.229,0,0.3-0.053c0.123-0.053,0.177-0.053,0.3-0.123c0.053-0.053,0.177-0.123,0.229-0.123
			c0.053-0.053,0.123-0.124,0.176-0.124L106.806,34.683L106.806,34.683z"/>
		<path fill="#FF0000" d="M114.283,38.068c0,0.054,0,0.054,0,0.124c0,0-0.053,0-0.123,0h-2.682c-0.053,0-0.123-0.053-0.123-0.124
			v-5.731c0-0.053,0.053-0.123,0.123-0.123h2.682c0.053,0,0.053,0,0.123,0c0,0,0,0,0,0.053c0,0,0,0,0,0.053v0.053l-0.123,0.353
			c0,0.053,0,0.053-0.054,0.053c0,0-0.053,0-0.123,0h-1.923V34.7h1.693c0.053,0,0.053,0,0.124,0c0,0,0,0.053,0,0.124v0.353
			c0,0.053,0,0.053,0,0.123c0,0-0.054,0-0.124,0h-1.693v2.169h2.046c0.054,0,0.124,0.054,0.124,0.124L114.283,38.068z"/>
		<path fill="#FF0000" d="M118.093,39.762c0,0.053,0,0.124-0.053,0.124l-0.406,0.123c-0.053,0-0.053,0-0.053,0s0,0-0.053,0
			c0,0-0.053,0-0.053-0.053v-0.053v-2.099c-0.053,0.053-0.124,0.123-0.177,0.176s-0.176,0.124-0.229,0.177
			c-0.054,0.053-0.177,0.123-0.301,0.123c-0.123,0.054-0.229,0.054-0.353,0.054c-0.229,0-0.476-0.054-0.635-0.177
			c-0.176-0.124-0.353-0.3-0.476-0.477c-0.124-0.229-0.177-0.476-0.229-0.705c-0.053-0.3-0.053-0.582-0.053-0.882
			s0.053-0.529,0.123-0.759c0.053-0.229,0.177-0.476,0.3-0.705c0.123-0.177,0.3-0.353,0.529-0.477
			c0.176-0.123,0.405-0.176,0.705-0.176c0.124,0,0.229,0,0.353,0.053c0.124,0.053,0.229,0.053,0.3,0.123
			c0.124,0.054,0.177,0.124,0.229,0.124c0.053,0.053,0.124,0.123,0.177,0.123c0-0.053,0.053-0.053,0.053-0.123
			c0-0.053,0.053-0.053,0.053-0.124c0-0.053,0.053-0.053,0.053-0.123c0-0.053,0.053-0.053,0.053-0.053s0.054,0,0.124,0.053
			l0.3,0.177c0.053,0.053,0.053,0.053,0.053,0.053s0,0.053-0.053,0.176c-0.053,0.053-0.053,0.177-0.123,0.229
			c0,0.053-0.054,0.177-0.054,0.229s0,0.176,0,0.3L118.093,39.762L118.093,39.762z M117.388,34.807
			c-0.054-0.054-0.177-0.124-0.354-0.229c-0.123-0.124-0.3-0.124-0.528-0.124c-0.229,0-0.354,0.053-0.477,0.124
			c-0.123,0.123-0.229,0.229-0.3,0.353c-0.053,0.176-0.123,0.3-0.123,0.529c0,0.176-0.054,0.353-0.054,0.529
			c0,0.229,0,0.405,0.054,0.635c0,0.176,0.053,0.405,0.123,0.529c0.053,0.176,0.123,0.299,0.229,0.405
			c0.123,0.123,0.229,0.177,0.405,0.177s0.353-0.054,0.529-0.177c0.176-0.124,0.3-0.229,0.405-0.353v-2.398H117.388z"/>
		<path fill="#FF0000" d="M121.532,34.153c0-0.053,0-0.123,0.053-0.123l0.405-0.124c0.053,0,0.053,0,0.053,0s0,0,0.054,0
			c0,0,0.053,0,0.053,0.053v0.054v3.104c0,0.123,0,0.176,0,0.299c0,0.124,0.053,0.177,0.053,0.301c0,0.053,0.053,0.123,0.123,0.176
			c0.054,0.053,0.054,0.123,0.054,0.123v0.053c0,0-0.054,0-0.054,0.054l-0.353,0.229c-0.053,0-0.053,0-0.053,0
			c-0.053,0-0.053,0-0.123-0.053c0-0.054-0.054-0.054-0.054-0.124c0-0.053-0.053-0.124-0.053-0.177s-0.053-0.123-0.053-0.176
			c-0.053,0.053-0.123,0.123-0.229,0.176c-0.053,0.053-0.176,0.124-0.3,0.177c-0.123,0.053-0.229,0.124-0.353,0.124
			c-0.123,0.053-0.229,0.053-0.353,0.053c-0.3,0-0.529-0.053-0.706-0.124c-0.176-0.053-0.3-0.177-0.353-0.3
			s-0.123-0.229-0.176-0.405c0-0.177-0.054-0.3-0.054-0.477v-2.856c0-0.054,0-0.124,0.054-0.124l0.405-0.124
			c0.053,0,0.053,0,0.053,0s0,0,0.053,0c0.054,0,0.054,0,0.054,0.054v0.053v2.98c0,0.124,0,0.177,0.053,0.3s0.053,0.177,0.123,0.229
			c0.053,0.053,0.124,0.123,0.229,0.177c0.105,0.053,0.229,0.053,0.353,0.053c0.053,0,0.177,0,0.229-0.053
			c0.123-0.054,0.176-0.054,0.3-0.124c0.123-0.053,0.177-0.124,0.3-0.124c0.053-0.053,0.123-0.123,0.177-0.123v-3.21H121.532z"/>
		<path fill="#FF0000" d="M124.46,38.068c0,0.054-0.054,0.124-0.124,0.124h-0.476c-0.054,0-0.124-0.053-0.124-0.124V34.56h-0.635
			c-0.053,0-0.123-0.054-0.123-0.124v-0.353c0-0.053,0.053-0.124,0.123-0.124h1.234c0.053,0,0.053,0,0.124,0.054
			c0,0,0,0.053,0,0.123V38.068L124.46,38.068z M124.583,32.514c0,0.123-0.053,0.3-0.177,0.353c-0.123,0.123-0.229,0.177-0.353,0.177
			c-0.176,0-0.3-0.054-0.353-0.177c-0.123-0.124-0.177-0.229-0.177-0.353c0-0.177,0.054-0.3,0.177-0.354
			c0.123-0.123,0.229-0.176,0.353-0.176c0.177,0,0.3,0.053,0.353,0.176C124.513,32.231,124.583,32.337,124.583,32.514z"/>
		<path fill="#FF0000" d="M125.87,35.389c0-0.177,0-0.301,0-0.477c0-0.123-0.053-0.3-0.123-0.406c0-0.053-0.053-0.123-0.123-0.176
			c-0.071-0.053-0.054-0.123-0.054-0.123s0,0,0-0.054c0,0,0.054,0,0.054-0.053l0.353-0.229c0.053,0,0.053,0,0.053,0
			s0.053,0,0.123,0.053c0.054,0.054,0.054,0.054,0.124,0.124c0,0.053,0.053,0.123,0.053,0.177c0,0.053,0.053,0.123,0.053,0.123
			c0.053-0.053,0.124-0.053,0.177-0.123c0.053-0.054,0.176-0.124,0.3-0.177c0.123-0.053,0.229-0.124,0.353-0.124
			c0.123-0.053,0.3-0.053,0.477-0.053c0.229,0,0.405,0.053,0.582,0.177c0.176,0.123,0.3,0.3,0.405,0.476
			c0.123,0.177,0.177,0.406,0.229,0.706c0.053,0.229,0.053,0.529,0.053,0.759c0,0.299-0.053,0.582-0.053,0.881
			c-0.053,0.301-0.124,0.529-0.229,0.706c-0.123,0.229-0.3,0.353-0.477,0.476c-0.176,0.124-0.405,0.177-0.635,0.177
			s-0.476-0.053-0.635-0.123c-0.177-0.054-0.3-0.124-0.405-0.177v1.746c0,0.053,0,0.123-0.054,0.123l-0.405,0.124
			c-0.053,0-0.053,0-0.053,0s0,0-0.053,0c0,0-0.053,0-0.053-0.053v-0.054L125.87,35.389z M126.559,37.434
			c0.123,0.053,0.3,0.124,0.405,0.177c0.177,0.053,0.353,0.053,0.529,0.053s0.353-0.053,0.477-0.177
			c0.123-0.123,0.176-0.229,0.229-0.405c0.054-0.176,0.054-0.353,0.124-0.528c0-0.177,0-0.406,0-0.636c0-0.176,0-0.353,0-0.528
			c0-0.177-0.053-0.354-0.124-0.529c-0.053-0.177-0.123-0.3-0.229-0.354c-0.124-0.123-0.229-0.123-0.406-0.123
			c-0.229,0-0.405,0.053-0.582,0.177c-0.176,0.123-0.3,0.176-0.405,0.3v2.574H126.559z"/>
		<path fill="#FF0000" d="M130.068,35.088c0-0.123,0-0.176,0-0.299c0-0.124,0-0.177-0.053-0.301c0-0.123-0.054-0.176-0.054-0.176
			c0-0.053-0.053-0.053-0.053-0.123c0,0,0-0.054,0.053-0.054l0.354-0.229c0,0,0,0,0.053,0c0,0,0,0,0.053,0s0.053,0,0.053,0.053
			c0,0.054,0.053,0.124,0.053,0.177c0,0.054,0.053,0.124,0.053,0.177s0,0.123,0,0.123c0.054-0.053,0.124-0.123,0.229-0.176
			c0.124-0.053,0.177-0.124,0.3-0.177c0.124-0.053,0.229-0.124,0.3-0.124s0.229-0.053,0.3-0.053c0.3,0,0.477,0.053,0.635,0.124
			c0.124,0.053,0.229,0.229,0.3,0.405c0.054-0.053,0.124-0.123,0.229-0.176c0.124-0.053,0.177-0.124,0.3-0.177
			c0.124-0.053,0.229-0.124,0.3-0.124c0.124-0.053,0.229-0.053,0.3-0.053c0.229,0,0.406,0.053,0.582,0.124
			c0.124,0.053,0.229,0.177,0.3,0.3c0.053,0.123,0.124,0.229,0.124,0.405c0,0.177,0,0.3,0,0.477v2.856
			c0,0.054-0.053,0.124-0.124,0.124h-0.476c-0.054,0-0.124-0.053-0.124-0.124v-2.856c0-0.124,0-0.177,0-0.3
			c0-0.053-0.053-0.177-0.053-0.229c-0.053-0.053-0.123-0.123-0.177-0.177c-0.053-0.053-0.176-0.053-0.3-0.053
			c-0.229,0-0.353,0.053-0.528,0.124c-0.124,0.053-0.229,0.176-0.354,0.229v3.209c0,0.053-0.053,0.124-0.123,0.124h-0.3
			c-0.053,0-0.123-0.053-0.123-0.124v-2.856c0-0.124,0-0.177,0-0.3c0-0.053-0.054-0.177-0.054-0.229
			c-0.053-0.053-0.123-0.124-0.176-0.177s-0.177-0.053-0.3-0.053c-0.124,0-0.177,0-0.3,0.053c-0.053,0-0.177,0.053-0.229,0.124
			c-0.053,0.053-0.123,0.053-0.177,0.123c-0.053,0.053-0.123,0.053-0.123,0.124v3.209c0,0.054-0.053,0.124-0.123,0.124h-0.424
			c-0.053,0-0.123-0.053-0.123-0.124V35.088L130.068,35.088z"/>
		<path fill="#FF0000" d="M138.833,37.787L138.833,37.787c0,0.053,0,0.053,0,0.053s-0.053,0.053-0.123,0.123
			c-0.053,0.053-0.177,0.124-0.353,0.177c-0.124,0.053-0.3,0.123-0.406,0.123c-0.176,0.054-0.353,0.054-0.476,0.054
			c-0.3,0-0.529-0.054-0.759-0.177c-0.229-0.124-0.405-0.229-0.582-0.477c-0.176-0.177-0.3-0.405-0.353-0.705
			s-0.123-0.582-0.123-0.882s0.053-0.582,0.123-0.882s0.177-0.529,0.353-0.706c0.124-0.176,0.354-0.353,0.529-0.476
			c0.229-0.124,0.477-0.177,0.706-0.177c0.353,0,0.635,0.053,0.882,0.229c0.229,0.177,0.353,0.353,0.476,0.582
			c0.124,0.229,0.177,0.476,0.177,0.706c0.053,0.229,0.053,0.476,0.053,0.635c0,0.053,0,0.123,0,0.123
			c0,0.053-0.053,0.053-0.053,0.053h-2.452c0,0.123,0,0.3,0.054,0.477c0.053,0.176,0.123,0.353,0.176,0.476
			c0.124,0.177,0.229,0.3,0.353,0.406c0.177,0.123,0.354,0.176,0.582,0.176c0.124,0,0.3,0,0.406-0.053
			c0.123-0.053,0.229-0.053,0.353-0.123c0.123-0.054,0.177-0.054,0.229-0.124c0.053-0.053,0.123-0.053,0.123-0.053
			s0.053,0,0.053,0.053L138.833,37.787z M138.252,35.67c0-0.123,0-0.229-0.054-0.405c0-0.123-0.053-0.3-0.123-0.405
			c-0.053-0.124-0.177-0.229-0.3-0.354c-0.124-0.123-0.3-0.123-0.477-0.123c-0.176,0-0.353,0.053-0.476,0.123
			c-0.124,0.124-0.229,0.177-0.3,0.354c-0.054,0.123-0.124,0.3-0.177,0.405c0,0.124-0.053,0.3-0.053,0.353h1.922v0.053H138.252z"/>
		<path fill="#FF0000" d="M142.996,38.068c0,0.054-0.054,0.124-0.124,0.124h-0.476c-0.054,0-0.124-0.053-0.124-0.124v-2.856
			c0-0.124,0-0.177,0-0.3c0-0.053-0.053-0.177-0.053-0.229c-0.053-0.053-0.123-0.123-0.177-0.177
			c-0.053-0.053-0.176-0.053-0.3-0.053c-0.123,0-0.3,0-0.405,0.053c-0.105,0.054-0.229,0.054-0.3,0.124
			c-0.123,0.053-0.177,0.123-0.229,0.177c-0.053,0.053-0.123,0.123-0.176,0.176v3.033c0,0.053-0.054,0.124-0.124,0.124h-0.44
			c-0.053,0-0.124-0.053-0.124-0.124v-2.98c0-0.123,0-0.229,0-0.3c0-0.07,0-0.123-0.053-0.176c-0.053-0.124-0.053-0.229-0.123-0.229
			c0-0.053-0.054-0.053-0.054-0.123c0-0.054,0-0.054,0.054-0.054l0.405-0.229c0,0,0,0,0.053,0c0,0,0,0,0.053,0
			c0.054,0,0.054,0,0.124,0.054c0.07,0.053,0.053,0.123,0.053,0.176c0,0.054,0.053,0.124,0.053,0.177s0,0.123,0,0.123
			c0.053-0.053,0.177-0.123,0.229-0.176c0.123-0.053,0.177-0.124,0.3-0.177s0.229-0.123,0.353-0.177
			c0.124-0.053,0.3-0.053,0.477-0.053c0.229,0,0.405,0.053,0.582,0.124c0.123,0.053,0.229,0.176,0.3,0.3
			c0.053,0.123,0.123,0.229,0.123,0.405s0,0.3,0,0.477L142.996,38.068z"/>
		<path fill="#FF0000" d="M146.506,37.84c0,0.053,0,0.053,0,0.053c0,0.053-0.054,0.053-0.124,0.123
			c-0.053,0.053-0.176,0.053-0.3,0.124c-0.123,0.053-0.229,0.053-0.353,0.123c-0.123,0-0.229,0.054-0.353,0.054
			c-0.177,0-0.353-0.054-0.529-0.124c-0.177-0.053-0.229-0.124-0.3-0.229c-0.053-0.053-0.124-0.123-0.177-0.229
			c-0.053-0.054-0.053-0.177-0.053-0.229c0-0.054,0-0.177,0-0.229s0-0.177,0-0.229v-2.451h-0.635c0,0-0.053,0-0.053-0.054v-0.053
			v-0.353c0-0.053,0-0.053,0-0.053s0-0.053,0.053-0.053h0.635v-1.217c0-0.054,0.053-0.054,0.124-0.124l0.476-0.123c0,0,0,0,0.053,0
			c0,0,0,0,0.054,0c0,0,0.053,0.053,0.053,0.123v1.341h1.287c0.053,0,0.124,0,0.124,0.053c0,0,0,0,0,0.053l0,0l-0.124,0.353
			c0,0.053-0.053,0.053-0.123,0.053h-1.164v2.452c0,0.053,0,0.177,0,0.229s0,0.176,0.053,0.229c0.053,0.054,0.053,0.124,0.176,0.177
			c0.054,0.053,0.177,0.053,0.301,0.053c0.123,0,0.176,0,0.3-0.053c0.123,0,0.176-0.053,0.229-0.053
			c0.053-0.053,0.124-0.053,0.177-0.053s0.053-0.054,0.123-0.054c0.071,0,0.054,0,0.054,0.054v0.317H146.506z"/>
	</g>
	<g>
		<path fill="#FF0000" d="M57.229,32.284c0.3,0,0.582,0.053,0.882,0.053c0.3,0.053,0.529,0.177,0.759,0.405
			c0.229,0.177,0.405,0.477,0.529,0.883c0.124,0.405,0.176,0.881,0.176,1.569c0,0.528-0.053,0.935-0.123,1.341
			c-0.053,0.352-0.229,0.705-0.406,0.934c-0.176,0.229-0.476,0.406-0.758,0.529c-0.3,0.124-0.706,0.177-1.111,0.177h-0.988
			c-0.053,0-0.124-0.053-0.124-0.124v-5.731c0-0.053,0.053-0.123,0.124-0.123L57.229,32.284L57.229,32.284z M57.281,37.54
			c0.3,0,0.582-0.054,0.759-0.177c0.176-0.123,0.353-0.3,0.476-0.477c0.124-0.229,0.176-0.476,0.229-0.758
			c0.053-0.3,0.053-0.635,0.053-0.987c0-0.477-0.053-0.882-0.124-1.164c-0.053-0.3-0.176-0.529-0.3-0.706
			c-0.124-0.176-0.3-0.3-0.476-0.353s-0.406-0.053-0.635-0.053h-0.44v4.727L57.281,37.54L57.281,37.54z"/>
		<path fill="#FF0000" d="M61.55,38.068c0,0.054-0.053,0.124-0.124,0.124H60.95c-0.053,0-0.124-0.053-0.124-0.124V34.56h-0.705
			c-0.053,0-0.124-0.054-0.124-0.124v-0.353c0-0.053,0.053-0.124,0.124-0.124h1.234c0.053,0,0.053,0,0.124,0.054
			c0,0,0,0.053,0,0.123L61.55,38.068z M61.673,32.514c0,0.123-0.053,0.3-0.176,0.353c-0.124,0.123-0.229,0.177-0.353,0.177
			c-0.176,0-0.3-0.054-0.353-0.177c-0.123-0.124-0.176-0.229-0.176-0.353c0-0.177,0.053-0.3,0.176-0.354
			c0.124-0.123,0.229-0.176,0.353-0.176c0.176,0,0.3,0.053,0.353,0.176C61.673,32.231,61.673,32.337,61.673,32.514z"/>
		<path fill="#FF0000" d="M65.642,36.499c0,0.124,0,0.3,0,0.477s0,0.353,0,0.529c0,0.176,0,0.353,0,0.528c0,0.177,0,0.301,0,0.406
			c0,0.176,0,0.405-0.053,0.582c-0.053,0.176-0.124,0.353-0.229,0.477c-0.124,0.123-0.3,0.229-0.477,0.353
			c-0.176,0.053-0.405,0.123-0.705,0.123c-0.177,0-0.353,0-0.529-0.053c-0.177-0.053-0.353-0.053-0.477-0.124
			c-0.123-0.053-0.229-0.123-0.353-0.176c-0.123-0.053-0.123-0.123-0.123-0.123s0-0.054,0.053-0.124l0.123-0.3
			c0-0.053,0.053-0.053,0.053-0.053s0.053,0,0.124,0.053c0.053,0.053,0.176,0.053,0.3,0.123c0.123,0.053,0.229,0.053,0.353,0.124
			c0.124,0.053,0.3,0.053,0.406,0.053c0.176,0,0.353,0,0.476-0.053c0.124-0.053,0.229-0.124,0.3-0.229
			c0.053-0.053,0.124-0.176,0.124-0.3c0-0.123,0-0.229,0-0.353c0-0.229,0-0.406,0-0.582c0-0.177,0-0.3,0-0.3
			c-0.053,0.053-0.124,0.053-0.176,0.123c-0.053,0.054-0.176,0.124-0.229,0.177c-0.123,0.053-0.229,0.123-0.353,0.123
			c-0.124,0.053-0.229,0.053-0.405,0.053c-0.406,0-0.706-0.176-0.935-0.476c-0.229-0.353-0.353-0.812-0.353-1.411
			c0-0.353,0.053-0.635,0.124-0.935c0.053-0.3,0.176-0.529,0.3-0.706c0.123-0.176,0.3-0.353,0.529-0.476
			c0.176-0.124,0.476-0.177,0.706-0.177c0.123,0,0.3,0,0.405,0.053c0.124,0,0.229,0.053,0.3,0.124
			c0.053,0.053,0.177,0.053,0.229,0.123c0.053,0.054,0.124,0.054,0.124,0.124c0.053-0.124,0.053-0.177,0.124-0.3
			c0.053-0.054,0.053-0.124,0.123-0.124h0.053l0.406,0.229l0.053,0.053c0,0.054,0,0.054-0.053,0.124
			c-0.053,0.053-0.053,0.123-0.124,0.229C65.8,34.612,65.8,34.665,65.8,34.789c0,0.053,0,0.176,0,0.353L65.642,36.499L65.642,36.499
			z M64.954,34.683c-0.053-0.053-0.176-0.053-0.353-0.123c-0.123-0.054-0.3-0.124-0.476-0.124c-0.353,0-0.582,0.124-0.706,0.406
			c-0.176,0.3-0.229,0.635-0.229,1.111c0,0.476,0.053,0.811,0.176,1.11s0.3,0.405,0.582,0.405c0.124,0,0.229,0,0.3-0.053
			c0.124-0.053,0.176-0.053,0.3-0.123c0.053-0.053,0.177-0.123,0.229-0.123c0.053-0.053,0.123-0.124,0.176-0.124V34.683
			L64.954,34.683z"/>
		<path fill="#FF0000" d="M67.934,38.068c0,0.054-0.053,0.124-0.124,0.124h-0.476c-0.053,0-0.124-0.053-0.124-0.124V34.56h-0.635
			c-0.053,0-0.124-0.054-0.124-0.124v-0.353c0-0.053,0.053-0.124,0.124-0.124h1.234c0.053,0,0.053,0,0.124,0.054
			c0,0,0,0.053,0,0.123V38.068L67.934,38.068z M68.11,32.514c0,0.123-0.053,0.3-0.176,0.353c-0.124,0.123-0.229,0.177-0.353,0.177
			c-0.176,0-0.3-0.054-0.353-0.177c-0.123-0.124-0.176-0.229-0.176-0.353c0-0.177,0.053-0.3,0.176-0.354
			c0.124-0.123,0.229-0.176,0.353-0.176c0.177,0,0.3,0.053,0.353,0.176C68.04,32.231,68.11,32.337,68.11,32.514z"/>
		<path fill="#FF0000" d="M71.603,37.84c0,0.053,0,0.053,0,0.053c0,0.053-0.053,0.053-0.124,0.123
			c-0.053,0.053-0.176,0.053-0.3,0.124c-0.124,0.053-0.229,0.053-0.353,0.123c-0.123,0-0.229,0.054-0.353,0.054
			c-0.176,0-0.353-0.054-0.476-0.124c-0.176-0.053-0.229-0.124-0.3-0.229c-0.053-0.053-0.124-0.123-0.176-0.229
			c-0.053-0.054-0.053-0.177-0.053-0.229c0-0.054,0-0.177,0-0.229s0-0.177,0-0.229v-2.451h-0.635c-0.053,0-0.053,0-0.053-0.054
			v-0.053v-0.353c0-0.053,0-0.053,0-0.053s0,0,0.053,0h0.635v-1.164c0-0.053,0-0.053,0.123-0.123l0.477-0.124c0,0,0,0,0.053,0
			c0,0,0,0,0.053,0s0.053,0.053,0.053,0.124v1.34h1.288c0.053,0,0.123,0,0.123,0.054c0,0,0,0,0,0.053c0,0,0,0,0,0.053l-0.123,0.353
			c0,0.053-0.053,0.053-0.124,0.053h-1.164v2.452c0,0.053,0,0.176,0,0.229s0,0.177,0.053,0.229s0.053,0.124,0.176,0.177
			c0.053,0.053,0.177,0.053,0.3,0.053c0.124,0,0.177,0,0.3-0.053c0.124,0,0.177-0.053,0.229-0.053
			c0.053-0.054,0.123-0.054,0.176-0.054s0.053-0.053,0.124-0.053c0.053,0,0.053,0,0.053,0.053L71.603,37.84z"/>
		<path fill="#FF0000" d="M74.883,36.781c0,0.124,0,0.229,0,0.354c0,0.053,0,0.176,0,0.229s0,0.123,0.053,0.177
			c0,0.053,0.053,0.123,0.053,0.177c0,0.053,0.053,0.123,0.124,0.176c0.053,0.053,0.053,0.123,0.053,0.123v0.053
			c0,0-0.053,0-0.053,0.054l-0.353,0.229c-0.053,0-0.053,0-0.053,0c-0.053,0-0.053,0-0.124-0.053
			c-0.053-0.054-0.053-0.124-0.123-0.177c-0.053-0.054-0.053-0.124-0.053-0.177s-0.053-0.123-0.053-0.123s-0.053,0.053-0.123,0.123
			c-0.053,0.053-0.124,0.123-0.229,0.177c-0.105,0.053-0.229,0.123-0.353,0.177c-0.124,0.053-0.3,0.053-0.477,0.053
			c-0.353,0-0.635-0.124-0.811-0.301c-0.176-0.229-0.3-0.528-0.3-0.881c0-0.229,0.053-0.477,0.124-0.635
			c0.053-0.177,0.176-0.301,0.353-0.406c0.124-0.123,0.3-0.176,0.477-0.229c0.176-0.053,0.353-0.123,0.529-0.123
			c0.176-0.054,0.353-0.054,0.476-0.054c0.124,0,0.229,0,0.353,0v-0.476c0-0.229-0.053-0.476-0.176-0.582
			c-0.124-0.124-0.3-0.177-0.582-0.177c-0.124,0-0.3,0-0.406,0.053c-0.124,0-0.229,0.054-0.3,0.124
			c-0.124,0.053-0.176,0.053-0.229,0.124c-0.053,0.053-0.124,0.053-0.124,0.053s-0.053,0-0.053-0.053l-0.123-0.301
			c0-0.053,0-0.053,0-0.123c0-0.053,0.053-0.053,0.123-0.123c0.124-0.053,0.177-0.053,0.353-0.124
			c0.124-0.053,0.3-0.053,0.406-0.123c0.176-0.054,0.3-0.054,0.476-0.054c0.229,0,0.477,0,0.635,0.054
			c0.159,0.053,0.3,0.123,0.406,0.229c0.123,0.123,0.176,0.229,0.229,0.405c0.053,0.177,0.053,0.3,0.053,0.476v1.641h-0.177V36.781z
			 M74.248,36.076c-0.124,0-0.229,0-0.405,0c-0.177,0-0.353,0.053-0.529,0.123c-0.177,0.053-0.353,0.177-0.477,0.3
			c-0.123,0.124-0.176,0.3-0.176,0.529c0,0.053,0,0.177,0.053,0.229c0,0.053,0.053,0.176,0.123,0.229
			c0.053,0.054,0.124,0.124,0.177,0.177c0.053,0.054,0.176,0.054,0.3,0.054c0.123,0,0.229,0,0.3-0.054
			c0.123-0.053,0.176-0.123,0.3-0.177c0.053-0.053,0.176-0.123,0.229-0.176c0.053-0.053,0.123-0.123,0.176-0.123L74.248,36.076
			L74.248,36.076z"/>
		<path fill="#FF0000" d="M77.758,38.016v0.053c0,0,0,0.054-0.053,0.054c-0.054,0-0.124,0.053-0.177,0.053s-0.177,0.053-0.229,0.053
			s-0.176,0-0.229,0c-0.229,0-0.405-0.053-0.528-0.123c-0.124-0.054-0.229-0.177-0.3-0.3c-0.054-0.053-0.054-0.177-0.054-0.3
			c0-0.124-0.053-0.229-0.053-0.353c0-0.124,0-0.229,0-0.354c0-0.123,0-0.229,0-0.3v-4.497c0-0.053,0-0.123,0.053-0.123l0.406-0.124
			c0.053,0,0.053,0,0.053,0s0,0,0.053,0c0,0,0.053,0,0.053,0.053v0.054v4.62c0,0.054,0,0.177,0,0.229s0,0.176,0,0.229
			c0,0.053,0,0.177,0,0.229s0,0.123,0,0.123c0,0.053,0.054,0.123,0.054,0.176c0.053,0.054,0.123,0.124,0.229,0.124
			c0.106,0,0.229,0,0.3-0.053c0.054-0.054,0.124-0.054,0.177-0.054s0.053,0,0.053,0s0,0,0,0.054L77.758,38.016z"/>
		<path fill="#FF0000" d="M82.961,38.068c0,0.054-0.054,0.124-0.124,0.124h-2.275c-0.053,0-0.123-0.053-0.123-0.124v-0.352
			c0-0.054,0.053-0.124,0.123-0.124h0.759v-4.779h-0.759c-0.053,0-0.123-0.054-0.123-0.124v-0.353c0-0.053,0.053-0.123,0.123-0.123
			h2.275c0.053,0,0.124,0.053,0.124,0.123v0.353c0,0.053-0.054,0.124-0.124,0.124h-0.758v4.797h0.758
			c0.053,0,0.124,0.053,0.124,0.124V38.068z"/>
		<path fill="#FF0000" d="M83.948,35.088c0-0.123,0-0.176,0-0.299c0-0.124,0-0.177-0.053-0.301c0-0.123-0.053-0.176-0.053-0.176
			c0-0.053-0.054-0.053-0.054-0.123c0,0,0-0.054,0.054-0.054l0.353-0.229c0,0,0,0,0.053,0c0,0,0,0,0.053,0s0.053,0,0.123,0.053
			c0,0.054,0.054,0.124,0.054,0.177c0,0.054,0.053,0.124,0.053,0.177s0,0.123,0,0.123c0.053-0.053,0.123-0.123,0.229-0.176
			c0.053-0.053,0.176-0.124,0.3-0.177c0.123-0.053,0.229-0.124,0.3-0.124c0.123-0.053,0.229-0.053,0.3-0.053
			c0.3,0,0.476,0.053,0.635,0.124c0.123,0.053,0.229,0.229,0.3,0.405c0.053-0.053,0.123-0.123,0.229-0.176
			c0.053-0.053,0.176-0.124,0.3-0.177c0.123-0.053,0.176-0.124,0.3-0.124c0.123-0.053,0.229-0.053,0.3-0.053
			c0.229,0,0.405,0.053,0.582,0.124c0.123,0.053,0.229,0.177,0.3,0.3c0.053,0.123,0.123,0.229,0.123,0.405c0,0.177,0,0.3,0,0.477
			v2.856c0,0.054-0.053,0.124-0.123,0.124h-0.477c-0.053,0-0.123-0.053-0.123-0.124v-2.856c0-0.124,0-0.177,0-0.3
			c0-0.053-0.054-0.177-0.054-0.229c-0.053-0.053-0.123-0.123-0.176-0.177c-0.053-0.053-0.177-0.053-0.3-0.053
			c-0.229,0-0.353,0.053-0.529,0.124c-0.123,0.053-0.229,0.176-0.353,0.229v3.209c0,0.053-0.053,0.124-0.124,0.124h-0.476
			c-0.053,0-0.124-0.053-0.124-0.124v-2.856c0-0.124,0-0.177,0-0.3c0-0.053-0.053-0.177-0.053-0.229
			c-0.053-0.053-0.123-0.124-0.176-0.177c-0.054-0.053-0.177-0.053-0.3-0.053c-0.124,0-0.177,0-0.3,0.053
			c-0.054,0-0.177,0.053-0.229,0.124c-0.053,0.053-0.124,0.053-0.177,0.123c-0.053,0.053-0.123,0.053-0.123,0.124v3.209
			c0,0.054-0.053,0.124-0.124,0.124h-0.476c-0.053,0-0.124-0.053-0.124-0.124L83.948,35.088L83.948,35.088z"/>
		<path fill="#FF0000" d="M92.484,36.781c0,0.124,0,0.229,0,0.354c0,0.053,0,0.176,0,0.229s0,0.123,0.053,0.177
			c0,0.053,0.053,0.123,0.053,0.177c0,0.053,0.053,0.123,0.124,0.176c0.053,0.053,0.053,0.123,0.053,0.123v0.053
			c0,0-0.053,0-0.053,0.054l-0.354,0.229c-0.053,0-0.053,0-0.053,0c-0.053,0-0.053,0-0.123-0.053
			c-0.053-0.054-0.053-0.124-0.124-0.177c0-0.054-0.053-0.124-0.053-0.177s-0.053-0.123-0.053-0.123s-0.053,0.053-0.123,0.123
			c-0.054,0.053-0.177,0.123-0.229,0.177c-0.124,0.053-0.229,0.123-0.353,0.177c-0.124,0.053-0.3,0.053-0.477,0.053
			c-0.353,0-0.635-0.124-0.812-0.301c-0.229-0.229-0.3-0.528-0.3-0.881c0-0.229,0.053-0.477,0.124-0.635
			c0.123-0.177,0.176-0.301,0.353-0.406c0.123-0.123,0.3-0.176,0.477-0.229c0.176-0.053,0.353-0.123,0.528-0.123
			c0.177-0.054,0.354-0.054,0.477-0.054s0.3,0,0.353,0v-0.476c0-0.229-0.053-0.476-0.176-0.582c-0.124-0.124-0.3-0.177-0.636-0.177
			c-0.123,0-0.3,0-0.405,0.053c-0.123,0-0.229,0.054-0.353,0.124c-0.124,0.053-0.177,0.053-0.229,0.124
			c-0.053,0.053-0.123,0.053-0.123,0.053s-0.054,0-0.054-0.053l-0.123-0.301c0-0.053,0-0.053,0-0.123
			c0-0.053,0.053-0.053,0.123-0.123c0.124-0.053,0.177-0.053,0.354-0.124c0.123-0.053,0.3-0.053,0.405-0.123
			c0.177-0.054,0.3-0.054,0.477-0.054c0.229,0,0.476,0,0.635,0.054c0.176,0.053,0.3,0.123,0.405,0.229
			c0.124,0.123,0.177,0.229,0.229,0.405s0.053,0.3,0.053,0.476L92.484,36.781L92.484,36.781z M91.832,36.076
			c-0.124,0-0.229,0-0.406,0c-0.176,0-0.353,0.053-0.529,0.123c-0.176,0.053-0.353,0.177-0.476,0.3
			c-0.124,0.124-0.177,0.3-0.177,0.529c0,0.053,0,0.177,0.053,0.229c0,0.053,0.054,0.176,0.124,0.229
			c0.053,0.054,0.123,0.124,0.176,0.177c0.054,0.054,0.177,0.054,0.3,0.054c0.124,0,0.229,0,0.354-0.054
			c0.123-0.053,0.176-0.123,0.3-0.177c0.053-0.053,0.176-0.123,0.229-0.176c0.054-0.053,0.124-0.123,0.177-0.123L91.832,36.076
			L91.832,36.076z"/>
		<path fill="#FF0000" d="M96.682,36.499c0,0.124,0,0.3,0,0.477s0,0.353,0,0.529c0,0.176,0,0.353,0,0.528c0,0.177,0,0.301,0,0.406
			c0,0.176,0,0.405-0.053,0.582c-0.053,0.176-0.123,0.353-0.229,0.477c-0.123,0.123-0.3,0.229-0.476,0.353
			c-0.177,0.053-0.406,0.123-0.706,0.123c-0.176,0-0.353,0-0.529-0.053c-0.176-0.053-0.353-0.053-0.476-0.124
			c-0.124-0.053-0.229-0.123-0.353-0.176c-0.124-0.053-0.124-0.123-0.124-0.123s0-0.054,0.053-0.124l0.124-0.3
			c0-0.053,0.053-0.053,0.053-0.053s0.053,0,0.123,0.053c0.054,0.053,0.177,0.053,0.3,0.123c0.124,0.053,0.229,0.053,0.354,0.124
			c0.123,0.053,0.3,0.053,0.405,0.053c0.177,0,0.353,0,0.477-0.053c0.123-0.053,0.229-0.124,0.3-0.229
			c0.053-0.053,0.123-0.176,0.123-0.3c0-0.123,0-0.229,0-0.353c0-0.229,0-0.406,0-0.582c0-0.177,0-0.3,0-0.3
			c-0.053,0.053-0.123,0.053-0.177,0.123c-0.053,0.054-0.176,0.124-0.229,0.177c-0.124,0.053-0.229,0.123-0.354,0.123
			c-0.123,0.053-0.229,0.053-0.405,0.053c-0.405,0-0.705-0.176-0.935-0.476c-0.229-0.353-0.353-0.812-0.353-1.411
			c0-0.353,0.053-0.635,0.123-0.935s0.177-0.529,0.3-0.706c0.124-0.176,0.3-0.353,0.529-0.476c0.177-0.124,0.477-0.177,0.705-0.177
			c0.124,0,0.3,0,0.406,0.053c0.123,0,0.229,0.053,0.3,0.124c0.053,0.053,0.176,0.053,0.229,0.123
			c0.054,0.054,0.124,0.054,0.124,0.124c0.053-0.124,0.053-0.177,0.123-0.3c0.054-0.054,0.054-0.124,0.124-0.124
			c0.053,0,0.053,0,0.053,0l0.405,0.229l0.053,0.053c0,0.054,0,0.054-0.053,0.124c-0.053,0.053-0.053,0.123-0.123,0.229
			c-0.053,0.124-0.053,0.177-0.053,0.301c0,0.053,0,0.176,0,0.353L96.682,36.499L96.682,36.499z M95.994,34.683
			c-0.053-0.053-0.177-0.053-0.353-0.123c-0.124-0.054-0.3-0.124-0.477-0.124c-0.353,0-0.582,0.124-0.705,0.406
			c-0.177,0.3-0.229,0.635-0.229,1.111c0,0.476,0.053,0.811,0.176,1.11c0.124,0.3,0.3,0.405,0.582,0.405c0.124,0,0.229,0,0.3-0.053
			c0.124-0.053,0.177-0.053,0.3-0.123c0.054-0.053,0.177-0.123,0.229-0.123c0.053-0.053,0.124-0.124,0.177-0.124V34.683
			L95.994,34.683z"/>
		<path fill="#FF0000" d="M98.975,38.068c0,0.054-0.053,0.124-0.123,0.124h-0.477c-0.053,0-0.124-0.053-0.124-0.124V34.56h-0.705
			c-0.053,0-0.123-0.054-0.123-0.124v-0.353c0-0.053,0.053-0.124,0.123-0.124h1.234c0.053,0,0.053,0,0.124,0.054
			c0,0,0,0.053,0,0.123v3.915h0.07V38.068z M99.151,32.514c0,0.123-0.054,0.3-0.177,0.353c-0.123,0.123-0.229,0.177-0.353,0.177
			c-0.177,0-0.3-0.054-0.353-0.177c-0.124-0.124-0.177-0.229-0.177-0.353c0-0.177,0.053-0.3,0.177-0.354
			c0.123-0.123,0.229-0.176,0.353-0.176c0.176,0,0.3,0.053,0.353,0.176C99.08,32.231,99.151,32.337,99.151,32.514z"/>
		<path fill="#FF0000" d="M103.419,38.068c0,0.054-0.053,0.124-0.123,0.124h-0.477c-0.053,0-0.123-0.053-0.123-0.124v-2.856
			c0-0.124,0-0.177,0-0.3c0-0.053-0.054-0.177-0.054-0.229c-0.053-0.053-0.123-0.123-0.176-0.177
			c-0.053-0.053-0.177-0.053-0.3-0.053c-0.124,0-0.3,0-0.406,0.053c-0.123,0.054-0.229,0.054-0.3,0.124
			c-0.123,0.053-0.176,0.123-0.229,0.177c-0.054,0.053-0.124,0.123-0.177,0.176v3.033c0,0.053-0.053,0.124-0.123,0.124h-0.477
			c-0.053,0-0.123-0.053-0.123-0.124v-2.98c0-0.123,0-0.229,0-0.3c0-0.07,0-0.123-0.054-0.176c-0.053-0.124-0.053-0.229-0.123-0.3
			s-0.053-0.053-0.053-0.124c0,0,0-0.053,0.053-0.053l0.405-0.229c0,0,0,0,0.054,0c0,0,0,0,0.053,0s0.053,0,0.123,0.053
			c0.053,0.053,0.053,0.124,0.053,0.177s0.053,0.124,0.053,0.177s0,0.123,0,0.123c0.054-0.053,0.177-0.123,0.229-0.176
			c0.124-0.054,0.177-0.124,0.3-0.177c0.124-0.053,0.229-0.124,0.406-0.177c0.123-0.053,0.3-0.053,0.476-0.053
			c0.229,0,0.406,0.053,0.582,0.123c0.124,0.054,0.229,0.177,0.3,0.301c0.053,0.123,0.124,0.229,0.124,0.405s0,0.3,0,0.476
			L103.419,38.068L103.419,38.068z"/>
		<path fill="#FF0000" d="M107.44,36.499c0,0.124,0,0.3,0,0.477s0,0.353,0,0.529c0,0.176,0,0.353,0,0.528c0,0.177,0,0.301,0,0.406
			c0,0.176,0,0.405-0.053,0.582c-0.054,0.176-0.124,0.353-0.229,0.477c-0.124,0.123-0.3,0.229-0.477,0.353
			c-0.176,0.053-0.405,0.123-0.705,0.123c-0.177,0-0.353,0-0.529-0.053s-0.353-0.053-0.477-0.124
			c-0.123-0.053-0.229-0.123-0.353-0.176c-0.123-0.053-0.123-0.123-0.123-0.123s0-0.054,0.053-0.124l0.123-0.3
			c0-0.053,0.054-0.053,0.054-0.053s0.053,0,0.123,0.053c0.053,0.053,0.177,0.053,0.3,0.123c0.123,0.053,0.229,0.053,0.353,0.124
			c0.124,0.053,0.3,0.053,0.406,0.053c0.176,0,0.353,0,0.476-0.053c0.124-0.053,0.229-0.124,0.3-0.229
			c0.053-0.053,0.124-0.176,0.124-0.3c0-0.123,0-0.229,0-0.353c0-0.229,0-0.406,0-0.582c0-0.177,0-0.3,0-0.3
			c-0.054,0.053-0.124,0.053-0.177,0.123c-0.053,0.054-0.177,0.124-0.229,0.177c-0.123,0.053-0.229,0.123-0.353,0.123
			c-0.123,0.053-0.229,0.053-0.405,0.053c-0.406,0-0.706-0.176-0.936-0.476c-0.229-0.353-0.353-0.812-0.353-1.411
			c0-0.353,0.053-0.635,0.124-0.935c0.07-0.3,0.176-0.529,0.3-0.706c0.123-0.176,0.3-0.353,0.529-0.476
			c0.176-0.124,0.476-0.177,0.705-0.177c0.123,0,0.3,0,0.405,0.053c0.124,0,0.229,0.053,0.3,0.124
			c0.053,0.053,0.177,0.053,0.229,0.123c0.053,0.054,0.123,0.054,0.123,0.124c0.054-0.124,0.054-0.177,0.124-0.3
			c0.053-0.054,0.053-0.124,0.123-0.124c0.071,0,0.054,0,0.054,0l0.405,0.229l0.053,0.053c0,0.054,0,0.054-0.053,0.124
			c-0.053,0.053-0.053,0.123-0.124,0.229c-0.053,0.124-0.053,0.177-0.053,0.301c0,0.053,0,0.176,0,0.353L107.44,36.499
			L107.44,36.499z M106.806,34.683c-0.054-0.053-0.177-0.053-0.354-0.123c-0.123-0.054-0.3-0.124-0.476-0.124
			c-0.353,0-0.582,0.124-0.706,0.406c-0.176,0.3-0.229,0.635-0.229,1.111c0,0.476,0.053,0.811,0.176,1.11
			c0.124,0.3,0.3,0.405,0.582,0.405c0.124,0,0.229,0,0.3-0.053c0.124-0.053,0.177-0.053,0.3-0.123
			c0.053-0.053,0.177-0.123,0.229-0.123c0.053-0.053,0.123-0.124,0.177-0.124V34.683L106.806,34.683z"/>
		<path fill="#FF0000" d="M114.283,38.068c0,0.054,0,0.054,0,0.124c0,0-0.053,0-0.123,0h-2.628c-0.054,0-0.124-0.053-0.124-0.124
			v-5.731c0-0.053,0.053-0.123,0.124-0.123h2.681c0.053,0,0.053,0,0.123,0c0,0,0,0,0,0.053c0,0,0,0,0,0.053v0.053l-0.123,0.353
			c0,0.053,0,0.053-0.053,0.053h-0.054h-1.922V34.7h1.693c0.053,0,0.053,0,0.123,0c0,0,0,0.053,0,0.124v0.353
			c0,0.053,0,0.053,0,0.123c0,0-0.053,0-0.123,0h-1.693v2.169h2.046c0.053,0,0.123,0.054,0.123,0.124L114.283,38.068L114.283,38.068
			z"/>
		<path fill="#FF0000" d="M118.022,39.762c0,0.053,0,0.124-0.053,0.124l-0.406,0.123c-0.053,0-0.053,0-0.053,0s0,0-0.053,0
			s-0.053,0-0.053-0.053v-0.053v-2.099c-0.054,0.053-0.124,0.123-0.177,0.176s-0.177,0.124-0.229,0.177s-0.176,0.123-0.3,0.123
			c-0.123,0.054-0.229,0.054-0.353,0.054c-0.229,0-0.477-0.054-0.635-0.177c-0.177-0.124-0.353-0.3-0.477-0.477
			c-0.123-0.176-0.176-0.476-0.229-0.705c-0.053-0.3-0.053-0.582-0.053-0.882s0.053-0.529,0.124-0.759
			c0.053-0.229,0.176-0.476,0.3-0.705c0.123-0.177,0.3-0.353,0.476-0.477c0.177-0.123,0.477-0.176,0.706-0.176
			c0.123,0,0.229,0,0.353,0.053s0.229,0.053,0.3,0.123c0.123,0.054,0.177,0.124,0.229,0.124c0.053,0.053,0.123,0.053,0.176,0.123
			c0-0.053,0.054-0.053,0.054-0.123c0-0.053,0.053-0.124,0.053-0.124c0-0.053,0.053-0.053,0.053-0.123
			c0-0.053,0.053-0.053,0.053-0.053s0.053,0,0.053,0.053l0.3,0.177c0.053,0.053,0.053,0.053,0.053,0.053s0,0.053-0.053,0.176
			c-0.053,0.053-0.053,0.177-0.123,0.229c-0.053,0.053-0.053,0.177-0.053,0.229s0,0.176,0,0.3L118.022,39.762L118.022,39.762z
			 M117.388,34.807c-0.124-0.054-0.177-0.124-0.354-0.229c-0.176-0.124-0.3-0.124-0.528-0.124c-0.177,0-0.354,0.053-0.477,0.124
			c-0.123,0.123-0.229,0.229-0.3,0.353c-0.053,0.176-0.123,0.3-0.123,0.529c0,0.176-0.054,0.353-0.054,0.529
			c0,0.229,0,0.405,0.054,0.582c0,0.176,0.053,0.405,0.123,0.528c0.053,0.177,0.123,0.3,0.229,0.406
			c0.123,0.123,0.229,0.176,0.405,0.176s0.353-0.053,0.529-0.176c0.176-0.124,0.3-0.229,0.405-0.353L117.388,34.807L117.388,34.807z
			"/>
		<path fill="#FF0000" d="M121.532,34.153c0-0.053,0-0.123,0.053-0.123l0.405-0.124c0.053,0,0.053,0,0.053,0s0,0,0.054,0
			c0.053,0,0.053,0,0.053,0.053v0.054v3.104c0,0.123,0,0.176,0,0.299c0,0.124,0.053,0.177,0.053,0.301
			c0.053,0.053,0.053,0.123,0.123,0.176c0.054,0.053,0.054,0.123,0.054,0.123v0.053c0,0-0.054,0-0.054,0.054l-0.353,0.229
			c-0.053,0-0.053,0-0.053,0c-0.053,0-0.053,0-0.123-0.053c0-0.054-0.054-0.054-0.054-0.124c0-0.053-0.053-0.124-0.053-0.177
			s-0.053-0.123-0.053-0.176c-0.053,0.053-0.123,0.123-0.229,0.176c-0.053,0.053-0.176,0.124-0.3,0.177
			c-0.123,0.053-0.229,0.124-0.353,0.124c-0.123,0.053-0.229,0.053-0.353,0.053c-0.3,0-0.529-0.053-0.706-0.124
			c-0.176-0.053-0.3-0.177-0.353-0.3s-0.123-0.229-0.176-0.405c0-0.177-0.054-0.3-0.054-0.477v-2.856c0-0.054,0-0.124,0.054-0.124
			l0.405-0.124c0.053,0,0.053,0,0.053,0s0,0,0.053,0c0,0,0.054,0,0.054,0.054v0.053v2.98c0,0.124,0,0.177,0.053,0.3
			c0,0.053,0.053,0.177,0.123,0.229c0.053,0.053,0.124,0.123,0.229,0.177c0.105,0.053,0.229,0.053,0.353,0.053
			c0.053,0,0.177,0,0.229-0.053c0.123-0.054,0.176-0.054,0.3-0.124c0.123-0.053,0.177-0.124,0.3-0.124
			c0.053-0.053,0.123-0.123,0.177-0.123v-3.21H121.532z"/>
		<path fill="#FF0000" d="M124.406,38.068c0,0.054-0.053,0.124-0.123,0.124h-0.477c-0.053,0-0.123-0.053-0.123-0.124V34.56h-0.705
			c-0.054,0-0.124-0.054-0.124-0.124v-0.353c0-0.053,0.053-0.124,0.124-0.124h1.234c0.053,0,0.053,0,0.123,0.054
			c0,0,0,0.053,0,0.123L124.406,38.068z M124.583,32.514c0,0.123-0.053,0.3-0.177,0.353c-0.123,0.123-0.229,0.177-0.353,0.177
			c-0.176,0-0.3-0.054-0.353-0.177c-0.123-0.124-0.177-0.229-0.177-0.353c0-0.177,0.054-0.3,0.177-0.354
			c0.123-0.123,0.229-0.176,0.353-0.176c0.177,0,0.3,0.053,0.353,0.176C124.513,32.231,124.583,32.337,124.583,32.514z"/>
		<path fill="#FF0000" d="M125.87,35.389c0-0.177,0-0.301,0-0.477c0-0.123-0.053-0.3-0.123-0.406c0-0.053-0.053-0.123-0.053-0.176
			c-0.053-0.053-0.053-0.123-0.053-0.123s0,0,0-0.054c0,0,0.053,0,0.053-0.053l0.353-0.229c0.053,0,0.053,0,0.053,0
			c0.053,0,0.053,0,0.124,0.053c0.053,0.054,0.053,0.124,0.123,0.124c0.053,0.053,0.053,0.123,0.053,0.177
			c0,0.053,0.053,0.123,0.053,0.123c0.054-0.053,0.124-0.053,0.177-0.123c0.053-0.054,0.177-0.124,0.3-0.177
			s0.229-0.124,0.353-0.124c0.124-0.053,0.3-0.053,0.477-0.053c0.229,0,0.405,0.053,0.582,0.177c0.176,0.123,0.3,0.3,0.405,0.476
			c0.124,0.177,0.177,0.406,0.229,0.706c0.053,0.229,0.053,0.529,0.053,0.759c0,0.299,0,0.582-0.053,0.881
			c-0.053,0.301-0.123,0.529-0.229,0.706c-0.123,0.229-0.229,0.353-0.476,0.476c-0.177,0.124-0.406,0.177-0.636,0.177
			c-0.3,0-0.476-0.053-0.635-0.123c-0.176-0.054-0.3-0.124-0.405-0.177v1.746c0,0.053,0,0.123-0.053,0.123l-0.406,0.124
			c-0.053,0-0.053,0-0.053,0s0,0-0.053,0c0,0-0.053,0-0.053-0.053v-0.054L125.87,35.389z M126.506,37.434
			c0.123,0.053,0.3,0.124,0.405,0.177c0.123,0.053,0.353,0.053,0.529,0.053c0.176,0,0.353-0.053,0.476-0.177
			c0.124-0.123,0.177-0.229,0.229-0.405c0.053-0.176,0.124-0.353,0.124-0.528c0-0.177,0-0.406,0-0.582c0-0.177,0-0.354,0-0.529
			c0-0.177-0.054-0.354-0.124-0.529c-0.053-0.177-0.123-0.3-0.229-0.353c-0.123-0.124-0.229-0.124-0.405-0.124
			c-0.229,0-0.405,0.053-0.582,0.177c-0.177,0.123-0.3,0.177-0.405,0.3v2.521H126.506z"/>
		<path fill="#FF0000" d="M130.068,35.088c0-0.123,0-0.176,0-0.299c0-0.124,0-0.177-0.053-0.301c0-0.123-0.054-0.176-0.054-0.176
			c0-0.053-0.053-0.053-0.053-0.123c0,0,0-0.054,0.053-0.054l0.354-0.229c0,0,0,0,0.053,0h0.053c0.053,0,0.053,0,0.123,0.053
			c0,0.054,0.053,0.124,0.053,0.177c0,0.054,0.054,0.124,0.054,0.177s0,0.123,0,0.123c0.053-0.053,0.123-0.123,0.229-0.176
			c0.106-0.053,0.177-0.124,0.3-0.177c0.124-0.053,0.229-0.124,0.3-0.124c0.124-0.053,0.229-0.053,0.3-0.053
			c0.301,0,0.477,0.053,0.636,0.124c0.123,0.053,0.229,0.229,0.3,0.405c0.053-0.053,0.123-0.123,0.229-0.176
			c0.054-0.053,0.177-0.124,0.3-0.177c0.124-0.053,0.177-0.124,0.3-0.124c0.124-0.053,0.229-0.053,0.301-0.053
			c0.229,0,0.405,0.053,0.581,0.124c0.124,0.053,0.229,0.177,0.301,0.3c0.053,0.123,0.123,0.229,0.123,0.405c0,0.177,0,0.3,0,0.477
			v2.856c0,0.054-0.053,0.124-0.123,0.124h-0.477c-0.053,0-0.124-0.053-0.124-0.124v-2.856c0-0.124,0-0.177,0-0.3
			c0-0.053-0.053-0.177-0.053-0.229c-0.053-0.053-0.123-0.123-0.176-0.177c-0.053-0.053-0.177-0.053-0.3-0.053
			c-0.229,0-0.406,0.053-0.529,0.124c-0.124,0.053-0.229,0.176-0.353,0.229v3.209c0,0.053-0.054,0.124-0.124,0.124h-0.353
			c-0.053,0-0.123-0.053-0.123-0.124v-2.856c0-0.124,0-0.177,0-0.3c0-0.053-0.054-0.177-0.054-0.229
			c-0.053-0.053-0.123-0.124-0.176-0.177s-0.177-0.053-0.3-0.053c-0.124,0-0.177,0-0.3,0.053c-0.053,0-0.177,0.053-0.229,0.124
			c-0.053,0.053-0.123,0.053-0.177,0.123c-0.053,0.053-0.123,0.053-0.123,0.124v3.209c0,0.054-0.053,0.124-0.123,0.124h-0.441
			c-0.053,0-0.123-0.053-0.123-0.124V35.088L130.068,35.088z"/>
		<path fill="#FF0000" d="M138.833,37.787L138.833,37.787c0,0.053,0,0.053,0,0.053s-0.053,0.053-0.123,0.123
			c-0.053,0.053-0.177,0.124-0.3,0.177s-0.3,0.123-0.405,0.123c-0.177,0.054-0.354,0.054-0.477,0.054
			c-0.3,0-0.529-0.054-0.759-0.177c-0.229-0.124-0.405-0.229-0.582-0.477c-0.176-0.177-0.3-0.405-0.353-0.705
			s-0.123-0.582-0.123-0.882s0.053-0.582,0.123-0.882c0.071-0.3,0.177-0.529,0.353-0.706c0.124-0.176,0.354-0.353,0.529-0.476
			c0.229-0.124,0.477-0.177,0.706-0.177c0.353,0,0.635,0.053,0.882,0.229c0.229,0.177,0.353,0.353,0.476,0.582
			c0.124,0.229,0.177,0.476,0.177,0.706c0,0.229,0.053,0.476,0.053,0.635c0,0.053,0,0.123,0,0.123c0,0.053-0.053,0.053-0.053,0.053
			h-2.451c0,0.123,0,0.3,0.053,0.477c0.053,0.176,0.123,0.353,0.176,0.476c0.054,0.177,0.229,0.3,0.354,0.406
			c0.176,0.123,0.353,0.176,0.582,0.176c0.123,0,0.3,0,0.405-0.053c0.123-0.053,0.229-0.053,0.353-0.123
			c0.124-0.054,0.177-0.054,0.229-0.124c0.053-0.053,0.123-0.053,0.123-0.053s0.053,0,0.053,0.053V37.787z M138.252,35.67
			c0-0.123,0-0.229-0.054-0.405c0-0.123-0.053-0.3-0.123-0.405c-0.053-0.124-0.177-0.229-0.3-0.354
			c-0.124-0.123-0.3-0.123-0.477-0.123c-0.176,0-0.353,0.053-0.476,0.123c-0.124,0.124-0.229,0.177-0.3,0.354
			c-0.054,0.123-0.124,0.3-0.177,0.405c0,0.124-0.053,0.3-0.053,0.405H138.252z"/>
		<path fill="#FF0000" d="M142.996,38.068c0,0.054-0.054,0.124-0.124,0.124h-0.476c-0.054,0-0.124-0.053-0.124-0.124v-2.856
			c0-0.124,0-0.177,0-0.3c0-0.053-0.053-0.177-0.053-0.229c-0.053-0.053-0.123-0.123-0.177-0.177
			c-0.053-0.053-0.176-0.053-0.3-0.053c-0.123,0-0.3,0-0.405,0.053c-0.105,0.054-0.229,0.054-0.3,0.124
			c-0.053,0.053-0.177,0.123-0.229,0.177c-0.053,0.053-0.123,0.123-0.176,0.176v3.033c0,0.053-0.054,0.124-0.124,0.124h-0.44
			c-0.053,0-0.124-0.053-0.124-0.124v-2.98c0-0.123,0-0.229,0-0.3c0-0.07,0-0.123-0.053-0.176c-0.053-0.124-0.053-0.229-0.123-0.3
			c-0.071-0.07-0.054-0.053-0.054-0.124c0,0,0-0.053,0.054-0.053l0.405-0.229c0,0,0,0,0.053,0c0,0,0,0,0.053,0
			c0.054,0,0.054,0,0.124,0.053s0.053,0.124,0.053,0.177s0.053,0.124,0.053,0.177s0,0.123,0,0.123
			c0.053-0.053,0.177-0.123,0.229-0.176c0.123-0.054,0.177-0.124,0.3-0.177s0.229-0.124,0.353-0.177
			c0.124-0.053,0.3-0.053,0.477-0.053c0.229,0,0.405,0.053,0.582,0.123c0.123,0.054,0.229,0.177,0.3,0.301
			c0.053,0.123,0.123,0.229,0.123,0.405s0,0.3,0,0.476L142.996,38.068L142.996,38.068z"/>
		<path fill="#FF0000" d="M146.506,37.84c0,0.053,0,0.053,0,0.053c0,0.053-0.054,0.053-0.124,0.123
			c-0.053,0.053-0.176,0.053-0.3,0.124c-0.123,0.053-0.229,0.053-0.353,0.123c-0.123,0-0.229,0.054-0.353,0.054
			c-0.177,0-0.353-0.054-0.477-0.124c-0.176-0.053-0.229-0.124-0.3-0.229c-0.053-0.053-0.123-0.123-0.123-0.229
			c-0.054-0.054-0.054-0.177-0.054-0.229c0-0.054,0-0.177,0-0.229s0-0.177,0-0.229v-2.451h-0.635c-0.053,0-0.053,0-0.053-0.054
			v-0.053v-0.353c0-0.053,0-0.053,0-0.053s0,0,0.053,0h0.635v-1.164c0-0.053,0.054-0.053,0.124-0.123l0.477-0.124c0,0,0,0,0.053,0
			c0,0,0,0,0.053,0c0,0,0.053,0.053,0.053,0.124v1.34h1.287c0.054,0,0.124,0,0.124,0.054c0,0,0,0,0,0.053c0,0,0,0,0,0.053
			l-0.124,0.353c0,0.053-0.053,0.053-0.123,0.053h-1.111v2.452c0,0.053,0,0.176,0,0.229s0,0.177,0.053,0.229
			c0.054,0.053,0.054,0.124,0.177,0.177c0.053,0.053,0.177,0.053,0.3,0.053s0.177,0,0.3-0.053c0.123,0,0.177-0.053,0.229-0.053
			c0.053-0.054,0.123-0.054,0.176-0.054c0.054,0,0.054-0.053,0.124-0.053c0.053,0,0.053,0,0.053,0.053L146.506,37.84z"/>
	</g>
	<g>
		<path fill="#FFFFFF" d="M88.975,47.363v0.053c0,0,0,0.053-0.053,0.053H88.34c-0.053,0-0.053,0-0.053,0v-0.053l-0.988-5.379
			c0-0.053,0-0.053,0-0.123c0,0,0-0.053,0.053-0.053h0.054l0.405-0.124h0.053h0.053c0,0,0.054,0,0.054,0.053c0,0,0,0.054,0,0.124
			l0.705,3.968c0,0.053,0,0.124,0,0.177s0,0.176,0,0.229c0,0.054,0,0.177,0,0.229c0,0.054,0,0.177,0,0.229l0,0
			c0-0.176,0-0.3,0.053-0.477c0-0.176,0.053-0.299,0.053-0.476l0.759-3.915v-0.054c0,0,0,0,0.053,0h0.529h0.053v0.054l0.705,4.038
			c0,0.124,0.054,0.229,0.054,0.353c0,0.124,0.053,0.301,0.053,0.406l0,0c0-0.123,0-0.3,0-0.406c0-0.176,0-0.299,0.053-0.405
			l0.759-4.039c0-0.053,0-0.053,0-0.123c0-0.053,0-0.053,0.053-0.053c0,0,0,0,0.053,0h0.053l0.405,0.123
			c0.054,0,0.124,0.053,0.124,0.053s0,0.054,0,0.124l-1.111,5.379v0.053c0,0,0,0.053-0.053,0.053h-0.635
			c-0.053,0-0.053-0.053-0.053-0.123l-0.706-4.568l0,0L88.975,47.363z"/>
		<path fill="#FFFFFF" d="M95.694,47.011C95.694,47.011,95.747,47.081,95.694,47.011c0,0.053,0,0.053,0,0.053
			s-0.053,0.053-0.124,0.124c-0.053,0.053-0.176,0.123-0.3,0.123c-0.123,0.053-0.3,0.123-0.405,0.123
			c-0.177,0.053-0.3,0.053-0.477,0.053c-0.3,0-0.528-0.053-0.705-0.176c-0.229-0.123-0.405-0.229-0.529-0.405
			c-0.176-0.177-0.3-0.406-0.353-0.636c-0.053-0.229-0.123-0.528-0.123-0.881c0-0.301,0.053-0.582,0.123-0.812
			s0.177-0.477,0.353-0.636c0.124-0.176,0.3-0.352,0.529-0.405c0.177-0.123,0.405-0.177,0.705-0.177c0.354,0,0.636,0.054,0.812,0.23
			c0.177,0.123,0.353,0.352,0.477,0.528c0.123,0.229,0.176,0.405,0.176,0.635c0.054,0.229,0.054,0.477,0.054,0.582
			c0,0.054,0,0.124,0,0.124c0,0.053-0.054,0.053-0.054,0.053h-2.346c0,0.123,0,0.3,0.054,0.405c0.053,0.177,0.053,0.3,0.176,0.477
			c0.053,0.177,0.177,0.3,0.353,0.353c0.177,0.123,0.354,0.177,0.582,0.177c0.124,0,0.229,0,0.354-0.054
			c0.123-0.053,0.229-0.053,0.3-0.123c0.123-0.053,0.176-0.053,0.229-0.123c0.054-0.053,0.124-0.053,0.124-0.053s0,0,0.053,0.053
			L95.694,47.011z M95.165,45.035c0-0.123,0-0.229-0.053-0.353c0-0.123-0.053-0.3-0.124-0.405c-0.053-0.124-0.176-0.229-0.229-0.3
			c-0.124-0.054-0.229-0.124-0.406-0.124c-0.176,0-0.353,0.053-0.476,0.124c-0.124,0.123-0.229,0.176-0.3,0.3
			c-0.054,0.123-0.124,0.229-0.124,0.405c0,0.124-0.053,0.229-0.053,0.353H95.165z"/>
		<path fill="#FFFFFF" d="M100.615,47.258C100.615,47.258,100.615,47.311,100.615,47.258c0,0.053,0,0.123-0.054,0.123
			c-0.053,0-0.123,0.053-0.176,0.053s-0.124,0.053-0.229,0.053c-0.053,0-0.177,0-0.229,0c-0.176,0-0.353-0.053-0.529-0.123
			c-0.123-0.053-0.229-0.176-0.3-0.3c0-0.053-0.053-0.177-0.053-0.229c0-0.123,0-0.229-0.053-0.353c0-0.123,0-0.229,0-0.353
			s0-0.176,0-0.3v-4.145c0-0.053,0-0.053,0.053-0.124l0.406-0.123c0.053,0,0.053,0,0.053,0s0,0,0.053,0c0,0,0.053,0,0.053,0.053
			v0.053v4.392c0,0.054,0,0.124,0,0.229c0,0.053,0,0.177,0,0.229s0,0.123,0,0.177c0,0.053,0,0.123,0,0.123
			c0,0.053,0.053,0.123,0.053,0.176c0.053,0.054,0.124,0.124,0.229,0.124c0.123,0,0.177,0,0.3-0.053
			c0.053-0.054,0.124-0.054,0.177-0.054h0.053c0,0,0,0,0,0.054L100.615,47.258z"/>
		<path fill="#FFFFFF" d="M104.178,45.389c0,0.299-0.054,0.582-0.124,0.811c-0.053,0.229-0.176,0.477-0.3,0.635
			c-0.123,0.177-0.3,0.354-0.529,0.477c-0.229,0.123-0.476,0.176-0.758,0.176c-0.3,0-0.529-0.053-0.706-0.176
			c-0.176-0.123-0.353-0.229-0.476-0.405c-0.124-0.177-0.229-0.406-0.3-0.636c-0.053-0.229-0.124-0.528-0.124-0.811
			c0-0.3,0.054-0.529,0.124-0.812c0.053-0.229,0.176-0.477,0.3-0.635c0.123-0.177,0.3-0.353,0.529-0.477
			c0.229-0.123,0.476-0.177,0.758-0.177c0.3,0,0.529,0.054,0.706,0.177c0.176,0.124,0.353,0.229,0.528,0.405
			c0.124,0.177,0.229,0.406,0.3,0.636C104.106,44.859,104.178,45.142,104.178,45.389z M102.537,47.011
			c0.177,0,0.353-0.053,0.477-0.124c0.123-0.053,0.229-0.176,0.3-0.352c0.053-0.124,0.123-0.301,0.176-0.529
			c0-0.177,0.053-0.406,0.053-0.635c0-0.177,0-0.406-0.053-0.582c-0.053-0.177-0.053-0.354-0.176-0.477
			c-0.053-0.123-0.177-0.229-0.3-0.354c-0.124-0.053-0.3-0.123-0.477-0.123s-0.353,0.053-0.477,0.123
			c-0.123,0.054-0.229,0.177-0.3,0.354c-0.053,0.123-0.123,0.3-0.176,0.477c-0.053,0.176-0.053,0.353-0.053,0.582
			c0,0.229,0,0.476,0.053,0.635c0.053,0.176,0.053,0.353,0.176,0.529c0.054,0.123,0.177,0.229,0.3,0.352
			C102.185,46.958,102.36,47.011,102.537,47.011z"/>
		<path fill="#FFFFFF" d="M106.576,47.363c0,0,0,0.053-0.053,0.053h-0.054h-0.3c-0.053,0-0.053,0-0.053,0v-0.053l-1.411-3.738
			c0,0,0,0,0-0.054l0,0c0,0,0-0.053,0.054-0.053l0.405-0.123c0,0,0,0,0.053,0c0,0,0,0,0.053,0c0,0,0,0,0.054,0c0,0,0,0,0,0.053
			l0.935,2.681c0,0.053,0.053,0.176,0.053,0.3s0.053,0.177,0.053,0.229l0,0c0-0.123,0.053-0.177,0.053-0.229
			s0.053-0.177,0.053-0.229l0.988-2.681v-0.053c0,0,0,0,0.053,0h0.053c0,0,0,0,0.053,0l0.406,0.124c0.053,0,0.053,0.053,0.053,0.053
			l0,0c0,0,0,0,0,0.053L106.576,47.363z"/>
		<path fill="#FFFFFF" d="M111.426,47.011C111.426,47.011,111.426,47.081,111.426,47.011c0,0.053,0,0.053,0,0.053
			s-0.053,0.053-0.123,0.124c-0.053,0.053-0.177,0.123-0.3,0.123c-0.124,0.053-0.229,0.123-0.406,0.123
			c-0.176,0.053-0.3,0.053-0.476,0.053c-0.3,0-0.529-0.053-0.706-0.176c-0.229-0.123-0.405-0.229-0.528-0.405
			c-0.124-0.177-0.229-0.406-0.354-0.636c-0.053-0.229-0.123-0.528-0.123-0.881c0-0.301,0.053-0.582,0.123-0.812
			c0.054-0.229,0.177-0.477,0.3-0.636c0.124-0.176,0.3-0.352,0.529-0.405c0.177-0.123,0.406-0.177,0.706-0.177
			c0.353,0,0.582,0.054,0.811,0.23c0.177,0.123,0.354,0.352,0.477,0.528c0.123,0.229,0.177,0.405,0.177,0.635
			c0.053,0.229,0.053,0.477,0.053,0.582c0,0.054,0,0.124,0,0.124c0,0.053-0.053,0.053-0.053,0.053h-2.328c0,0.123,0,0.3,0.053,0.405
			c0,0.177,0.053,0.3,0.177,0.477c0.053,0.177,0.176,0.3,0.353,0.353c0.176,0.123,0.353,0.177,0.582,0.177
			c0.123,0,0.229,0,0.353-0.054c0.123-0.053,0.229-0.053,0.3-0.123c0.053-0.053,0.177-0.053,0.229-0.123
			c0.053-0.053,0.123-0.053,0.123-0.053s0.053,0,0.053,0.053V47.011z M110.844,45.035c0-0.123,0-0.229-0.053-0.353
			c0-0.123-0.053-0.3-0.123-0.405c-0.053-0.124-0.177-0.229-0.229-0.3c-0.123-0.054-0.229-0.124-0.405-0.124
			c-0.177,0-0.354,0.053-0.477,0.124c-0.123,0.123-0.229,0.176-0.3,0.3c-0.053,0.123-0.124,0.229-0.124,0.405
			c0,0.124-0.053,0.229-0.053,0.353H110.844z"/>
		<path fill="#FFFFFF" d="M115.465,47.311c0,0.053-0.053,0.123-0.123,0.123h-0.406c-0.053,0-0.123-0.053-0.123-0.123v-2.805
			c0-0.053,0-0.176,0-0.299c0-0.124-0.053-0.229-0.124-0.354c-0.053-0.123-0.123-0.176-0.123-0.229v-0.054c0,0,0,0,0.053,0
			l0.3-0.176c0.053,0,0.053-0.054,0.053-0.054c0.054,0,0.054,0.054,0.124,0.054c0.053,0.053,0.053,0.123,0.123,0.176
			c0.053,0.054,0.053,0.177,0.053,0.229s0.054,0.123,0.054,0.177c0.053-0.054,0.123-0.124,0.176-0.177s0.124-0.176,0.229-0.229
			c0.053-0.053,0.177-0.123,0.3-0.176c0.123-0.054,0.229-0.054,0.353-0.054c0.124,0,0.177,0,0.3,0.054
			c0.124,0,0.124,0.053,0.124,0.123c0,0,0,0,0,0.053l0,0l-0.177,0.406c0,0,0,0,0,0.053c0,0,0,0-0.053,0c0,0-0.053,0-0.124-0.053
			c-0.053,0-0.123-0.054-0.176-0.054s-0.124,0-0.229,0.054c-0.053,0.053-0.123,0.123-0.229,0.176
			c-0.053,0.054-0.123,0.124-0.176,0.229c-0.054,0.053-0.124,0.123-0.177,0.177V47.311L115.465,47.311z"/>
		<path fill="#FFFFFF" d="M119.839,47.011C119.839,47.011,119.839,47.081,119.839,47.011c0,0.053,0,0.053,0,0.053
			s-0.053,0.053-0.124,0.124c-0.053,0.053-0.176,0.123-0.3,0.123c-0.123,0.053-0.229,0.123-0.405,0.123
			c-0.177,0.053-0.3,0.053-0.477,0.053c-0.3,0-0.528-0.053-0.758-0.176s-0.405-0.229-0.529-0.405
			c-0.177-0.177-0.3-0.406-0.353-0.636c-0.053-0.229-0.124-0.528-0.124-0.881c0-0.301,0.054-0.582,0.124-0.812
			s0.176-0.477,0.353-0.636c0.124-0.176,0.3-0.352,0.529-0.405c0.176-0.123,0.405-0.177,0.705-0.177c0.353,0,0.635,0.054,0.812,0.23
			c0.177,0.123,0.353,0.352,0.477,0.528c0.123,0.229,0.176,0.405,0.176,0.635c0.053,0.229,0.053,0.477,0.053,0.582
			c0,0.054,0,0.124,0,0.124c0,0.053-0.053,0.053-0.053,0.053h-2.346c0,0.123,0,0.3,0.053,0.405c0.054,0.177,0.124,0.3,0.177,0.477
			s0.177,0.3,0.353,0.353c0.177,0.123,0.353,0.177,0.582,0.177c0.124,0,0.229,0,0.353-0.054c0.124-0.053,0.229-0.053,0.3-0.123
			c0.124-0.053,0.177-0.053,0.229-0.123c0.053-0.053,0.124-0.053,0.124-0.053s0,0,0.053,0.053v0.388H119.839z M119.257,45.035
			c0-0.123,0-0.229-0.053-0.353c0-0.123-0.053-0.3-0.124-0.405c-0.053-0.124-0.176-0.229-0.229-0.3
			c-0.124-0.054-0.229-0.124-0.406-0.124c-0.176,0-0.353,0.053-0.476,0.124c-0.124,0.123-0.229,0.176-0.3,0.3
			c-0.054,0.123-0.124,0.229-0.124,0.405c0,0.124-0.053,0.229-0.053,0.353H119.257z"/>
		<path fill="#FFFFFF" d="M123.349,46.076c0,0.123,0,0.229,0,0.3c0,0.07,0,0.177,0,0.177c0,0.053,0,0.123,0.053,0.176
			c0,0.053,0.053,0.123,0.053,0.177c0,0.053,0.053,0.123,0.053,0.176c0.054,0.054,0.054,0.124,0.054,0.124s0,0,0,0.053
			c0,0-0.054,0-0.054,0.053l-0.3,0.176c-0.053,0-0.053,0-0.053,0c-0.053,0-0.053,0-0.123-0.053
			c-0.053-0.053-0.053-0.123-0.124-0.176c0-0.053-0.053-0.123-0.053-0.177c0-0.053-0.053-0.123-0.053-0.123
			c-0.053,0-0.053,0.053-0.123,0.123c-0.054,0.054-0.124,0.124-0.229,0.177c-0.106,0.053-0.229,0.123-0.353,0.176
			c-0.124,0.053-0.3,0.053-0.477,0.053c-0.353,0-0.582-0.123-0.759-0.299c-0.176-0.177-0.3-0.477-0.3-0.883
			c0-0.229,0.054-0.405,0.124-0.582c0.053-0.176,0.176-0.299,0.3-0.405c0.123-0.123,0.3-0.176,0.476-0.229
			c0.177-0.053,0.354-0.123,0.477-0.123c0.177-0.053,0.3-0.053,0.477-0.053c0.123,0,0.229,0,0.353,0v-0.3
			c0-0.229-0.053-0.405-0.177-0.529c-0.123-0.123-0.3-0.177-0.582-0.177c-0.123,0-0.3,0-0.353,0.054
			c-0.123,0.053-0.229,0.053-0.3,0.123c-0.123,0.053-0.177,0.053-0.229,0.124c-0.053,0-0.123,0.053-0.123,0.053
			s-0.053,0-0.053-0.053l-0.124-0.301c0-0.053,0-0.053,0-0.123c0-0.053,0.053-0.053,0.124-0.123c0.053-0.053,0.176-0.053,0.3-0.124
			c0.123-0.053,0.229-0.053,0.405-0.123c0.177,0,0.3-0.054,0.405-0.054c0.229,0,0.406,0.054,0.582,0.054
			c0.177,0.053,0.3,0.123,0.406,0.229c0.123,0.123,0.176,0.229,0.229,0.353c0.053,0.123,0.053,0.3,0.053,0.476v1.605H123.349z
			 M122.767,45.441c-0.124,0-0.229,0-0.406,0c-0.176,0-0.353,0.053-0.528,0.123c-0.177,0.053-0.3,0.123-0.477,0.229
			c-0.123,0.123-0.177,0.3-0.177,0.529c0,0.053,0,0.176,0.054,0.229c0,0.053,0.053,0.176,0.123,0.229
			c0.053,0.053,0.123,0.124,0.177,0.177c0.053,0.053,0.176,0.053,0.3,0.053c0.123,0,0.229,0,0.3-0.053
			c0.123-0.053,0.176-0.124,0.3-0.177c0.053-0.053,0.176-0.123,0.229-0.176c0.053-0.053,0.123-0.124,0.123-0.124v-1.04H122.767z"/>
		<path fill="#FFFFFF" d="M126.1,47.258C126.1,47.258,126.1,47.311,126.1,47.258c0,0.053,0,0.123-0.053,0.123
			s-0.123,0.053-0.177,0.053c-0.053,0-0.123,0.053-0.229,0.053c-0.054,0-0.177,0-0.229,0c-0.177,0-0.353-0.053-0.529-0.123
			c-0.123-0.053-0.229-0.176-0.3-0.3c0-0.053-0.053-0.177-0.053-0.229c0-0.123,0-0.229-0.053-0.353c0-0.123,0-0.229,0-0.353
			s0-0.176,0-0.3v-4.145c0-0.053,0-0.053,0.053-0.124l0.405-0.123c0.053,0,0.053,0,0.053,0s0,0,0.054,0c0.053,0,0.053,0,0.053,0.053
			v0.053v4.392c0,0.054,0,0.124,0,0.229c0,0.053,0,0.177,0,0.229s0,0.123,0,0.177c0,0.053,0,0.123,0,0.123
			c0,0.053,0.053,0.123,0.053,0.176c0.053,0.054,0.123,0.124,0.229,0.124c0.123,0,0.176,0,0.3-0.053
			c0.053-0.054,0.123-0.054,0.176-0.054c0.054,0,0.054,0,0.054,0s0,0,0,0.054L126.1,47.258z"/>
		<path fill="#FFFFFF" d="M127.563,47.311c0,0.053-0.053,0.123-0.123,0.123h-0.406c-0.053,0-0.123-0.053-0.123-0.123v-3.333h-0.635
			c-0.053,0-0.124-0.054-0.124-0.124v-0.282c0-0.053,0.054-0.123,0.124-0.123h1.164c0.053,0,0.053,0,0.053,0.053
			c0,0,0,0.053,0,0.124L127.563,47.311z M127.67,41.984c0,0.123-0.054,0.229-0.124,0.353c-0.123,0.124-0.229,0.124-0.353,0.124
			c-0.124,0-0.3-0.054-0.353-0.124c-0.124-0.123-0.124-0.229-0.124-0.353s0.053-0.229,0.124-0.353
			c0.123-0.124,0.229-0.124,0.353-0.124c0.123,0,0.229,0.053,0.353,0.177C127.616,41.755,127.67,41.879,127.67,41.984z"/>
		<path fill="#FFFFFF" d="M131.003,47.135c0,0.053,0,0.053,0,0.053s-0.053,0.053-0.124,0.123c-0.053,0.053-0.176,0.053-0.229,0.123
			c-0.124,0.053-0.229,0.053-0.354,0.124c-0.123,0-0.229,0.053-0.353,0.053c-0.176,0-0.353,0-0.476-0.124
			c-0.124-0.053-0.229-0.123-0.3-0.176c-0.071-0.053-0.124-0.123-0.124-0.229c-0.053-0.053-0.053-0.176-0.053-0.229
			c0-0.053,0-0.176,0-0.229s0-0.177,0-0.229v-2.346h-0.635c0,0-0.053,0-0.053-0.053v-0.071v-0.299v-0.054c0,0,0,0,0.053,0h0.635
			v-1.11c0-0.054,0-0.054,0.123-0.124l0.406-0.123l0,0l0,0c0.053,0,0.053,0.053,0.053,0.123v1.288h1.234
			c0.053,0,0.124,0,0.124,0.053l0,0l0,0l-0.124,0.3c0,0.053-0.053,0.053-0.123,0.053h-1.059v2.346c0,0.053,0,0.177,0,0.229
			s0,0.176,0.053,0.229c0,0.053,0.054,0.124,0.124,0.177s0.176,0.053,0.3,0.053c0.123,0,0.176,0,0.3-0.053
			c0.053,0,0.176-0.053,0.229-0.053c0.053-0.053,0.123-0.053,0.176-0.053s0.053-0.054,0.124-0.054c0.07,0,0.053,0,0.053,0.054v0.229
			H131.003z"/>
		<path fill="#FFFFFF" d="M133.524,46.905c-0.053,0.229-0.123,0.476-0.229,0.812c-0.106,0.334-0.177,0.582-0.354,0.811
			c-0.053,0.177-0.176,0.3-0.353,0.406c-0.176,0.105-0.353,0.176-0.582,0.176c-0.123,0-0.229,0-0.353-0.053
			c-0.123-0.053-0.229-0.053-0.353-0.123c-0.124-0.054-0.177-0.124-0.229-0.124c-0.053-0.053-0.123-0.053-0.123-0.123
			c0,0,0,0,0-0.054l0.176-0.353l0.053-0.053c0,0,0.054,0,0.124,0.053c0.053,0.054,0.123,0.054,0.176,0.124
			c0.054,0.053,0.177,0.053,0.229,0.123c0.053,0.053,0.177,0.053,0.3,0.053c0.177,0,0.3-0.053,0.353-0.176
			c0.124-0.124,0.177-0.3,0.229-0.529l0.177-0.529h-0.3c-0.053,0-0.053,0-0.053,0s0-0.053-0.054-0.053l-1.287-3.545v-0.053v-0.053
			v-0.071c0,0,0,0,0.053,0l0.353-0.123c0.054,0,0.124-0.053,0.124-0.053c0.053,0,0.053,0,0.123,0.053l1.059,3.104
			c0.053,0.123,0.053,0.229,0.123,0.299c0,0.124,0.054,0.177,0.054,0.301l0,0c0-0.124,0.053-0.177,0.053-0.301
			c0-0.123,0.053-0.176,0.053-0.299l0.812-3.104c0-0.053,0.053-0.053,0.123-0.053c0,0,0.053,0,0.123,0.053l0.354,0.123h0.053
			c0,0,0,0,0,0.054v0.053v0.053L133.524,46.905z"/>
	</g>
</g>
<g>
</g>
<g>
</g>
<g>
</g>
<g>
</g>
<g>
</g>
<g>
</g>
</svg>
