<?xml version="1.0" encoding="utf-8"?>
<!-- Generator: Adobe Illustrator 16.0.0, SVG Export Plug-In . SVG Version: 6.00 Build 0)  -->
<!DOCTYPE svg PUBLIC "-//W3C//DTD SVG 1.1//EN" "http://www.w3.org/Graphics/SVG/1.1/DTD/svg11.dtd">
<svg version="1.1" id="Ebene_1" xmlns="http://www.w3.org/2000/svg" xmlns:xlink="http://www.w3.org/1999/xlink" x="0px" y="0px"
	 width="250px" height="100px" viewBox="0 0 250 100" enable-background="new 0 0 250 100" xml:space="preserve">
<g>
	<g>
		<path fill="#FFFFFF" d="M90.17,56.27c-1.931,0-3.783-0.344-5.45-1.058s-3.069-1.667-4.286-2.884s-2.195-2.725-2.884-4.392
			c-0.714-1.667-1.058-3.519-1.058-5.45c0-2.01,0.344-3.783,1.058-5.449c0.715-1.667,1.667-3.069,2.884-4.207
			s2.619-2.01,4.286-2.725c1.667-0.608,3.519-0.952,5.45-0.952h14.392v4.735H90.17c-1.217,0-2.46,0.186-3.519,0.608
			c-1.058,0.45-2.01,1.059-2.725,1.852c-0.794,0.793-1.402,1.667-1.852,2.725c-0.45,1.059-0.608,2.275-0.608,3.519
			c0,1.244,0.185,2.46,0.608,3.519c0.45,1.059,1.058,2.011,1.852,2.805c0.793,0.793,1.667,1.402,2.725,1.851
			c1.058,0.45,2.196,0.715,3.519,0.715h14.392v4.735H90.17V56.27z"/>
		<path fill="#FFFFFF" d="M132.604,56.27l-7.09-7.54h-9.656v-4.206h10.873c1.746,0,3.068-0.45,4.021-1.402
			c0.873-0.953,1.323-2.275,1.323-4.021c0-1.746-0.45-3.069-1.403-3.942c-0.951-0.873-2.274-1.323-3.941-1.323h-13.756v22.355
			h-4.814V29.259h18.598c1.587,0,2.988,0.265,4.285,0.715c1.217,0.45,2.354,1.137,3.148,1.931c0.873,0.873,1.588,1.932,2.011,3.069
			c0.45,1.217,0.714,2.54,0.714,4.127c0,2.275-0.529,4.127-1.481,5.688c-1.058,1.482-2.46,2.619-4.286,3.333l8.413,8.253h-6.931
			V56.27H132.604z"/>
		<path fill="#FFFFFF" d="M164.959,29.259v15.08c0,1.402-0.186,2.54-0.529,3.519c-0.344,0.953-0.873,1.746-1.667,2.354
			c-0.794,0.609-1.852,1.058-3.147,1.323c-1.218,0.265-2.805,0.45-4.657,0.45c-1.852,0-3.333-0.186-4.655-0.45
			s-2.354-0.714-3.148-1.323c-0.793-0.608-1.323-1.402-1.666-2.354c-0.345-0.953-0.53-2.116-0.53-3.519v-15.08h-5.079v15.08
			c0,2.117,0.266,3.863,0.873,5.45c0.529,1.588,1.481,2.805,2.619,3.862c1.217,1.059,2.805,1.746,4.656,2.275
			c1.746,0.449,3.941,0.715,6.402,0.715l0,0c0.078,0,0.185,0,0.265,0c0.079,0,0.185,0,0.264,0l0,0c2.54,0,4.657-0.266,6.481-0.715
			c1.932-0.529,3.52-1.217,4.656-2.275c1.217-1.058,2.116-2.274,2.619-3.862c0.609-1.587,0.873-3.333,0.873-5.45v-15.08H164.959z"/>
		<path fill="#FFFFFF" d="M173.292,56.27v-4.735h19.999c1.323,0,2.275-0.345,2.99-0.952c0.714-0.608,1.058-1.481,1.058-2.54
			c0-1.138-0.344-2.011-1.058-2.619c-0.715-0.609-1.667-0.873-2.99-0.873h-11.825c-1.323,0-2.539-0.186-3.598-0.608
			c-1.058-0.344-1.931-0.873-2.725-1.587c-0.714-0.714-1.323-1.481-1.667-2.46c-0.449-0.953-0.607-2.01-0.607-3.069
			c0-1.058,0.184-2.116,0.528-3.069s0.952-1.746,1.667-2.354c0.714-0.715,1.667-1.217,2.725-1.588
			c1.059-0.344,2.275-0.608,3.677-0.608h19.128v4.736h-19.128c-1.137,0-2.01,0.264-2.618,0.873c-0.609,0.608-0.953,1.402-0.953,2.46
			c0,1.059,0.344,1.852,0.953,2.46c0.608,0.529,1.481,0.873,2.539,0.873h11.932c2.804,0,5,0.608,6.481,1.931
			s2.196,3.254,2.196,5.873c0,1.137-0.186,2.196-0.529,3.148s-0.873,1.852-1.588,2.54c-0.714,0.714-1.667,1.218-2.725,1.667
			c-1.059,0.449-2.354,0.607-3.863,0.607h-19.999V56.27z"/>
		<path fill="#FFFFFF" d="M205.831,56.27V29.259h26.402v4.736h-21.481v17.619h21.561v4.736h-26.481V56.27z M213.557,44.524v-3.942
			h17.539v3.942H213.557z"/>
	</g>
	<polygon fill="#FFFFFF" points="18.345,42.486 35.964,28.73 53.609,42.486 35.964,56.27 	"/>
	<polygon fill="#FFFFFF" points="36.757,28.28 54.482,14.524 72.102,28.28 54.482,41.984 	"/>
	<polygon fill="#FFFFFF" points="36.757,56.693 54.482,42.937 72.102,56.693 54.482,70.477 	"/>
	<g id="Ball_1_">
		<g>
			<g>
				<g>
					<defs>
						<path id="SVGID_1_" d="M44.641,42.486c0,5.344,4.392,9.736,9.735,9.736c5.344,0,9.735-4.366,9.735-9.736
							c0-5.37-4.391-9.735-9.735-9.735C49.033,32.751,44.641,37.063,44.641,42.486"/>
					</defs>
					<clipPath id="SVGID_2_">
						<use xlink:href="#SVGID_1_"  overflow="visible"/>
					</clipPath>
					<rect x="44.641" y="32.751" clip-path="url(#SVGID_2_)" fill="#FF0000" width="19.471" height="19.472"/>
				</g>
			</g>
		</g>
		<g>
			<g>
				<g>
					<defs>
						<path id="SVGID_3_" d="M44.641,42.486c0,5.344,4.392,9.736,9.735,9.736c5.344,0,9.735-4.366,9.735-9.736
							c0-5.37-4.391-9.735-9.735-9.735C49.033,32.751,44.641,37.063,44.641,42.486"/>
					</defs>
					<clipPath id="SVGID_4_">
						<use xlink:href="#SVGID_3_"  overflow="visible"/>
					</clipPath>
					
						<radialGradient id="SVGID_5_" cx="167.4785" cy="359.2471" r="4.5862" gradientTransform="matrix(0.8332 0 0 -0.8332 -88.688 336.9155)" gradientUnits="userSpaceOnUse">
						<stop  offset="0" style="stop-color:#FFFFFF"/>
						<stop  offset="1" style="stop-color:#FF0000"/>
					</radialGradient>
					<path clip-path="url(#SVGID_4_)" fill="url(#SVGID_5_)" d="M47.021,37.593c0,2.116,1.746,3.862,3.863,3.862
						c2.116,0,3.862-1.667,3.862-3.862c0-2.196-1.746-3.863-3.862-3.863C48.768,33.73,47.021,35.476,47.021,37.593"/>
				</g>
			</g>
		</g>
	</g>
	<g>
		<path fill="#FF0000" d="M98.397,61.613c0.45,0,0.873,0,1.323,0.08c0.45,0.078,0.794,0.265,1.138,0.608
			c0.344,0.265,0.608,0.714,0.793,1.322c0.186,0.53,0.265,1.323,0.265,2.354c0,0.794-0.079,1.402-0.186,2.011
			c-0.079,0.529-0.344,1.059-0.608,1.402c-0.265,0.343-0.714,0.608-1.138,0.793c-0.45,0.187-1.058,0.265-1.667,0.265h-1.481
			c-0.08,0-0.186-0.078-0.186-0.185v-8.599c0-0.078,0.08-0.184,0.186-0.184L98.397,61.613L98.397,61.613z M98.397,69.498
			c0.45,0,0.873-0.08,1.138-0.266c0.265-0.185,0.529-0.449,0.714-0.714c0.185-0.344,0.265-0.714,0.344-1.138
			c0.08-0.449,0.08-0.952,0.08-1.48c0-0.715-0.08-1.323-0.186-1.746c-0.079-0.45-0.264-0.795-0.45-1.06
			c-0.185-0.264-0.45-0.45-0.714-0.528c-0.265-0.08-0.609-0.08-0.953-0.08H97.71v7.012H98.397L98.397,69.498z"/>
		<path fill="#FF0000" d="M104.905,70.291c0,0.08-0.079,0.186-0.185,0.186h-0.715c-0.079,0-0.185-0.08-0.185-0.186v-5.264h-1.058
			c-0.08,0-0.186-0.08-0.186-0.187v-0.528c0-0.08,0.08-0.186,0.186-0.186h1.852c0.079,0,0.079,0,0.185,0.08c0,0,0,0.078,0,0.184
			L104.905,70.291L104.905,70.291z M105.064,61.958c0,0.185-0.08,0.45-0.265,0.528c-0.185,0.186-0.344,0.265-0.529,0.265
			s-0.45-0.079-0.529-0.265c-0.186-0.185-0.265-0.344-0.265-0.528c0-0.265,0.08-0.45,0.265-0.529
			c0.185-0.186,0.344-0.265,0.529-0.265c0.265,0,0.45,0.079,0.529,0.265C104.985,61.535,105.064,61.693,105.064,61.958z"/>
		<path fill="#FF0000" d="M110.938,67.936c0,0.187,0,0.45,0,0.715s0,0.529,0,0.795c0,0.264,0,0.528,0,0.793c0,0.264,0,0.449,0,0.608
			c0,0.265,0,0.608-0.08,0.873c-0.079,0.265-0.185,0.528-0.344,0.714c-0.185,0.186-0.449,0.344-0.714,0.529
			c-0.265,0.08-0.608,0.186-1.059,0.186c-0.264,0-0.529,0-0.793-0.08c-0.265-0.078-0.529-0.078-0.714-0.185
			c-0.185-0.08-0.344-0.186-0.529-0.265s-0.185-0.186-0.185-0.186s0-0.08,0.079-0.186l0.185-0.449c0-0.079,0.08-0.079,0.08-0.079
			s0.079,0,0.185,0.079c0.079,0.079,0.265,0.079,0.344,0.186c0.185,0.079,0.344,0.079,0.529,0.186
			c0.185,0.078,0.45,0.078,0.608,0.078c0.265,0,0.529,0,0.714-0.078c0.185-0.08,0.344-0.186,0.45-0.345
			c0.079-0.079,0.185-0.265,0.185-0.45c0-0.184,0-0.344,0-0.528c0-0.345,0-0.608,0-0.873s0-0.45,0-0.45
			c-0.079,0.08-0.185,0.08-0.265,0.186c-0.079,0.079-0.264,0.186-0.344,0.265c-0.185,0.079-0.344,0.185-0.529,0.185
			c-0.185,0.08-0.344,0.08-0.608,0.08c-0.609,0-1.059-0.265-1.402-0.715c-0.344-0.528-0.529-1.217-0.529-2.116
			c0-0.528,0.08-0.952,0.186-1.401c0.08-0.45,0.264-0.795,0.45-1.059c0.185-0.265,0.45-0.529,0.793-0.715
			c0.264-0.185,0.714-0.265,1.058-0.265c0.185,0,0.45,0,0.608,0.08c0.186,0,0.344,0.079,0.45,0.185
			c0.08,0.08,0.265,0.08,0.344,0.186c0.079,0.079,0.185,0.079,0.185,0.186c0.08-0.186,0.08-0.266,0.185-0.449
			c0.079-0.08,0.079-0.187,0.185-0.187c0.08,0,0.08,0,0.08,0l0.608,0.345l0.079,0.078c0,0.08,0,0.08-0.079,0.187
			c-0.079,0.079-0.079,0.185-0.185,0.344c-0.08,0.185-0.08,0.265-0.08,0.449c0,0.079,0,0.265,0,0.53L110.938,67.936L110.938,67.936z
			 M109.985,65.211c-0.079-0.078-0.265-0.078-0.529-0.184c-0.186-0.08-0.45-0.187-0.715-0.187c-0.529,0-0.873,0.187-1.137,0.608
			c-0.265,0.451-0.344,0.953-0.344,1.667s0.079,1.217,0.264,1.667c0.186,0.449,0.45,0.608,0.873,0.608c0.186,0,0.344,0,0.45-0.079
			c0.08-0.08,0.265-0.08,0.45-0.186c0.186-0.079,0.265-0.186,0.344-0.186c0.08-0.079,0.186-0.186,0.265-0.186L109.985,65.211
			L109.985,65.211z"/>
		<path fill="#FF0000" d="M114.456,70.291c0,0.08-0.08,0.186-0.186,0.186h-0.688c-0.08,0-0.186-0.08-0.186-0.186v-5.264h-0.952
			c-0.08,0-0.186-0.08-0.186-0.187v-0.528c0-0.08,0.08-0.186,0.186-0.186h1.852c0.08,0,0.08,0,0.186,0.08c0,0,0,0.078,0,0.184v5.9
			H114.456z M114.641,61.958c0,0.185-0.08,0.45-0.265,0.528c-0.185,0.186-0.344,0.265-0.529,0.265c-0.264,0-0.45-0.079-0.529-0.265
			c-0.186-0.185-0.265-0.344-0.265-0.528c0-0.265,0.079-0.45,0.265-0.529c0.185-0.186,0.344-0.265,0.529-0.265
			c0.265,0,0.45,0.079,0.529,0.265C114.641,61.535,114.641,61.693,114.641,61.958z"/>
		<path fill="#FF0000" d="M119.985,69.947c0,0.079,0,0.079,0,0.079c0,0.079-0.08,0.079-0.185,0.186
			c-0.079,0.079-0.265,0.079-0.45,0.185c-0.185,0.08-0.344,0.08-0.529,0.186c-0.185,0-0.344,0.079-0.529,0.079
			c-0.265,0-0.529-0.079-0.794-0.185c-0.265-0.08-0.344-0.186-0.45-0.345c-0.079-0.079-0.185-0.185-0.265-0.344
			c-0.08-0.079-0.08-0.265-0.08-0.343c0-0.08,0-0.266,0-0.345s0-0.265,0-0.345V65.08h-0.952c0,0-0.079,0-0.079-0.08v-0.079v-0.53
			c0-0.078,0-0.078,0-0.078s0-0.08,0.079-0.08h0.952v-1.824c0-0.08,0.08-0.08,0.186-0.187l0.714-0.185c0,0,0,0,0.08,0
			c0,0,0,0,0.08,0s0.08,0.079,0.08,0.185v2.011h1.931c0.079,0,0.185,0,0.185,0.08c0,0,0,0,0,0.078l0,0l-0.185,0.53
			c0,0.079-0.08,0.079-0.186,0.079h-1.667v3.678c0,0.078,0,0.264,0,0.344c0,0.079,0,0.264,0.08,0.344
			c0.079,0.08,0.079,0.186,0.264,0.264c0.08,0.08,0.265,0.08,0.45,0.08c0.186,0,0.265,0,0.45-0.08c0.079,0,0.264-0.078,0.344-0.078
			c0.079-0.08,0.185-0.08,0.265-0.08c0.079,0,0.079-0.079,0.185-0.079c0.079,0,0.079,0,0.079,0.079L119.985,69.947z"/>
		<path fill="#FF0000" d="M124.8,68.359c0,0.186,0,0.344,0,0.529c0,0.079,0,0.265,0,0.344c0,0.08,0,0.186,0.079,0.266
			c0,0.078,0.08,0.184,0.08,0.264c0,0.079,0.08,0.186,0.185,0.265c0.08,0.079,0.08,0.186,0.08,0.186v0.079c0,0-0.08,0-0.08,0.08
			l-0.529,0.343c-0.079,0-0.079,0-0.079,0c-0.079,0-0.079,0-0.185-0.079c-0.08-0.08-0.08-0.186-0.185-0.264
			c-0.08-0.08-0.08-0.187-0.08-0.266s-0.08-0.185-0.08-0.185c-0.079,0-0.079,0.079-0.185,0.185c-0.08,0.079-0.185,0.186-0.344,0.266
			c-0.159,0.078-0.344,0.184-0.529,0.264c-0.185,0.079-0.45,0.079-0.714,0.079c-0.529,0-0.952-0.185-1.217-0.449
			c-0.265-0.344-0.45-0.794-0.45-1.323c0-0.344,0.08-0.714,0.185-0.873c0.08-0.264,0.265-0.449,0.529-0.608
			c0.185-0.185,0.45-0.265,0.714-0.344c0.265-0.079,0.529-0.185,0.794-0.185s0.529-0.08,0.714-0.08s0.45,0,0.529,0v-0.793
			c0-0.345-0.08-0.715-0.265-0.873c-0.185-0.186-0.449-0.265-0.873-0.265c-0.185,0-0.449,0-0.608,0.079
			c-0.159,0.08-0.344,0.08-0.45,0.186c-0.186,0.078-0.265,0.078-0.344,0.185c-0.08,0.079-0.186,0.079-0.186,0.079
			s-0.08,0-0.08-0.079l-0.185-0.449c0-0.08,0-0.08,0-0.186c0-0.079,0.079-0.079,0.185-0.186c0.186-0.079,0.265-0.185,0.529-0.185
			c0.185-0.08,0.45-0.08,0.714-0.186c0.265,0,0.45-0.079,0.714-0.079c0.344,0,0.714,0,0.953,0.079
			c0.264,0.08,0.449,0.186,0.608,0.344c0.186,0.186,0.265,0.344,0.344,0.609c0.079,0.264,0.079,0.449,0.079,0.714L124.8,68.359
			L124.8,68.359z M123.847,67.302c-0.185,0-0.344,0-0.608,0c-0.265,0-0.529,0.079-0.794,0.185c-0.265,0.08-0.529,0.186-0.714,0.449
			c-0.185,0.187-0.265,0.45-0.265,0.795c0,0.078,0,0.265,0.08,0.344c0,0.079,0.079,0.265,0.185,0.344
			c0.08,0.08,0.185,0.186,0.264,0.264c0.08,0.08,0.265,0.08,0.45,0.08s0.344,0,0.449-0.08c0.186-0.078,0.265-0.184,0.45-0.264
			c0.079-0.079,0.265-0.186,0.344-0.265s0.185-0.186,0.265-0.186L123.847,67.302L123.847,67.302z"/>
		<path fill="#FF0000" d="M129.191,70.212v0.079c0,0,0,0.08-0.079,0.08c-0.08,0-0.187,0.078-0.265,0.078
			c-0.08,0-0.265,0.08-0.345,0.08c-0.079,0-0.264,0-0.344,0c-0.343,0-0.608-0.08-0.793-0.186c-0.187-0.079-0.345-0.265-0.45-0.449
			c0-0.08-0.079-0.266-0.079-0.449c0-0.187-0.079-0.345-0.079-0.53c0-0.185,0-0.343,0-0.529c0-0.185,0-0.344,0-0.45V61.19
			c0-0.079,0-0.186,0.079-0.186l0.608-0.185c0.079,0,0.079,0,0.079,0s0,0,0.079,0c0.08,0,0.08,0,0.08,0.078v0.08v6.932
			c0,0.079,0,0.265,0,0.344s0,0.265,0,0.344c0,0.08,0,0.265,0,0.344c0,0.08,0,0.186,0,0.186c0,0.079,0.08,0.186,0.08,0.265
			c0.078,0.079,0.184,0.185,0.343,0.185s0.344,0,0.45-0.078c0.079-0.08,0.186-0.08,0.264-0.08c0.08,0,0.08,0,0.08,0s0,0,0,0.08
			L129.191,70.212z"/>
		<path fill="#FF0000" d="M136.916,70.291c0,0.08-0.08,0.186-0.186,0.186h-3.412c-0.08,0-0.186-0.08-0.186-0.186v-0.529
			c0-0.08,0.08-0.186,0.186-0.186h1.138v-7.168h-1.138c-0.08,0-0.186-0.08-0.186-0.187v-0.528c0-0.08,0.08-0.186,0.186-0.186h3.412
			c0.08,0,0.186,0.08,0.186,0.186v0.528c0,0.08-0.08,0.187-0.186,0.187h-1.137v7.195h1.137c0.08,0,0.186,0.078,0.186,0.185V70.291z"
			/>
		<path fill="#FF0000" d="M138.398,65.82c0-0.186,0-0.265,0-0.45c0-0.185,0-0.265-0.08-0.449c0-0.186-0.079-0.265-0.079-0.265
			c-0.08-0.079-0.08-0.079-0.08-0.186c0,0,0-0.08,0.08-0.08l0.528-0.343c0,0,0,0,0.08,0c0,0,0,0,0.079,0s0.079,0,0.185,0.079
			c0,0.08,0.08,0.186,0.08,0.264c0,0.08,0.08,0.187,0.08,0.266s0,0.185,0,0.185c0.078-0.079,0.184-0.185,0.343-0.264
			c0.159-0.08,0.265-0.187,0.45-0.265c0.186-0.08,0.344-0.186,0.449-0.186c0.186-0.079,0.344-0.079,0.45-0.079
			c0.449,0,0.714,0.079,0.952,0.185c0.186,0.08,0.344,0.345,0.45,0.608c0.079-0.079,0.185-0.185,0.344-0.264
			c0.159-0.08,0.265-0.187,0.449-0.265c0.186-0.08,0.265-0.186,0.45-0.186c0.186-0.079,0.344-0.079,0.449-0.079
			c0.344,0,0.609,0.079,0.873,0.185c0.186,0.08,0.344,0.265,0.45,0.45c0.079,0.185,0.185,0.345,0.185,0.608c0,0.265,0,0.449,0,0.715
			v4.285c0,0.08-0.078,0.186-0.185,0.186h-0.714c-0.08,0-0.186-0.08-0.186-0.186v-4.285c0-0.186,0-0.266,0-0.45
			c0-0.079-0.08-0.265-0.08-0.345c-0.079-0.078-0.185-0.184-0.264-0.264c-0.08-0.08-0.266-0.08-0.449-0.08
			c-0.345,0-0.53,0.08-0.795,0.186c-0.185,0.08-0.344,0.264-0.528,0.344v4.815c0,0.079-0.08,0.185-0.187,0.185h-0.713
			c-0.08,0-0.186-0.078-0.186-0.185v-4.286c0-0.186,0-0.265,0-0.449c0-0.08-0.08-0.266-0.08-0.344
			c-0.078-0.08-0.184-0.186-0.264-0.266c-0.08-0.079-0.265-0.079-0.45-0.079c-0.185,0-0.265,0-0.449,0.079
			c-0.08,0-0.265,0.08-0.344,0.186c-0.08,0.08-0.187,0.08-0.265,0.186c-0.08,0.078-0.186,0.078-0.186,0.185v4.815
			c0,0.08-0.079,0.186-0.186,0.186h-0.714c-0.079,0-0.186-0.08-0.186-0.186L138.398,65.82L138.398,65.82z"/>
		<path fill="#FF0000" d="M151.281,68.359c0,0.186,0,0.344,0,0.529c0,0.079,0,0.265,0,0.344c0,0.08,0,0.186,0.079,0.266
			c0,0.078,0.079,0.184,0.079,0.264c0,0.079,0.08,0.186,0.186,0.265c0.08,0.079,0.08,0.186,0.08,0.186v0.079c0,0-0.08,0-0.08,0.08
			l-0.529,0.343c-0.08,0-0.08,0-0.08,0c-0.078,0-0.078,0-0.184-0.079c-0.08-0.08-0.08-0.186-0.186-0.264
			c0-0.08-0.08-0.187-0.08-0.266s-0.079-0.185-0.079-0.185s-0.079,0.079-0.185,0.185c-0.08,0.079-0.266,0.186-0.344,0.266
			c-0.186,0.078-0.345,0.184-0.529,0.264c-0.186,0.079-0.449,0.079-0.715,0.079c-0.529,0-0.952-0.185-1.217-0.449
			c-0.264-0.344-0.45-0.794-0.45-1.323c0-0.344,0.08-0.714,0.187-0.873c0.078-0.264,0.264-0.449,0.528-0.608
			c0.186-0.185,0.45-0.265,0.714-0.344c0.265-0.079,0.529-0.185,0.794-0.185c0.265-0.08,0.529-0.08,0.714-0.08
			c0.186,0,0.345,0,0.529,0v-0.793c0-0.345-0.079-0.715-0.265-0.873c-0.185-0.186-0.449-0.265-0.952-0.265
			c-0.186,0-0.449,0-0.608,0.079c-0.185,0.08-0.345,0.08-0.45,0.186c-0.185,0.078-0.264,0.078-0.344,0.185
			c-0.079,0.079-0.185,0.079-0.185,0.079c-0.079,0-0.079,0-0.079-0.079l-0.186-0.449c0-0.08,0-0.08,0-0.186
			c0-0.079,0.079-0.079,0.186-0.186c0.185-0.079,0.264-0.185,0.529-0.185c0.184-0.08,0.449-0.08,0.607-0.186
			c0.266,0,0.449-0.079,0.715-0.079c0.344,0,0.714,0,0.952,0.079c0.265,0.08,0.45,0.186,0.608,0.344
			c0.186,0.186,0.265,0.344,0.344,0.609c0.079,0.264,0.079,0.449,0.079,0.714L151.281,68.359L151.281,68.359z M150.329,67.302
			c-0.187,0-0.345,0-0.608,0c-0.265,0-0.529,0.079-0.794,0.185c-0.265,0.08-0.529,0.186-0.714,0.449
			c-0.186,0.187-0.265,0.45-0.265,0.795c0,0.078,0,0.265,0.079,0.344c0,0.079,0.08,0.265,0.186,0.344
			c0.078,0.08,0.185,0.186,0.264,0.264c0.08,0.08,0.265,0.08,0.45,0.08c0.185,0,0.344,0,0.529-0.08
			c0.185-0.078,0.265-0.184,0.45-0.264c0.078-0.079,0.264-0.186,0.343-0.265c0.08-0.079,0.186-0.186,0.265-0.186L150.329,67.302z"/>
		<path fill="#FF0000" d="M157.498,67.936c0,0.187,0,0.45,0,0.715s0,0.529,0,0.795c0,0.264,0,0.528,0,0.793c0,0.264,0,0.449,0,0.608
			c0,0.265,0,0.608-0.079,0.873s-0.186,0.528-0.345,0.714c-0.184,0.186-0.449,0.344-0.714,0.529
			c-0.265,0.08-0.608,0.186-1.058,0.186c-0.265,0-0.529,0-0.795-0.08c-0.264-0.078-0.528-0.078-0.713-0.185
			c-0.186-0.08-0.344-0.186-0.529-0.265s-0.186-0.186-0.186-0.186s0-0.08,0.079-0.186l0.186-0.449c0-0.079,0.079-0.079,0.079-0.079
			s0.08,0,0.186,0.079c0.079,0.079,0.265,0.079,0.449,0.186c0.186,0.079,0.344,0.079,0.529,0.186
			c0.186,0.078,0.45,0.078,0.609,0.078c0.264,0,0.528,0,0.714-0.078c0.185-0.08,0.343-0.186,0.449-0.345
			c0.08-0.079,0.186-0.265,0.186-0.45c0-0.184,0-0.344,0-0.528c0-0.345,0-0.608,0-0.873s0-0.45,0-0.45
			c-0.079,0.08-0.186,0.08-0.265,0.186c-0.08,0.079-0.264,0.186-0.344,0.265c-0.186,0.079-0.344,0.185-0.529,0.185
			c-0.186,0.08-0.344,0.08-0.608,0.08c-0.608,0-1.059-0.265-1.401-0.715c-0.345-0.528-0.53-1.217-0.53-2.116
			c0-0.528,0.08-0.952,0.186-1.401c0.105-0.45,0.265-0.795,0.45-1.059c0.185-0.265,0.449-0.529,0.793-0.715
			c0.265-0.185,0.715-0.265,1.059-0.265c0.185,0,0.449,0,0.608,0.08c0.185,0,0.343,0.079,0.449,0.185
			c0.08,0.08,0.265,0.08,0.344,0.186c0.08,0.079,0.187,0.079,0.187,0.186c0.078-0.186,0.078-0.266,0.184-0.449
			c0.08-0.08,0.08-0.187,0.187-0.187c0.079,0,0.079,0,0.079,0L158,64.313l0.08,0.078c0,0.08,0,0.08-0.08,0.187
			c-0.078,0.079-0.078,0.185-0.184,0.344c-0.08,0.185-0.08,0.265-0.08,0.449c0,0.079,0,0.265,0,0.53L157.498,67.936L157.498,67.936z
			 M156.546,65.211c-0.079-0.078-0.265-0.078-0.528-0.184c-0.187-0.08-0.45-0.187-0.715-0.187c-0.529,0-0.873,0.187-1.059,0.608
			c-0.265,0.451-0.344,0.953-0.344,1.667s0.079,1.217,0.265,1.667c0.185,0.449,0.449,0.608,0.873,0.608c0.185,0,0.343,0,0.449-0.079
			c0.186-0.08,0.265-0.08,0.45-0.186c0.08-0.079,0.264-0.186,0.344-0.186c0.079-0.079,0.186-0.186,0.265-0.186V65.211
			L156.546,65.211z"/>
		<path fill="#FF0000" d="M160.938,70.291c0,0.08-0.079,0.186-0.186,0.186h-0.714c-0.08,0-0.187-0.08-0.187-0.186v-5.264h-1.057
			c-0.08,0-0.186-0.08-0.186-0.187v-0.528c0-0.08,0.08-0.186,0.186-0.186h1.852c0.078,0,0.078,0,0.185,0.08c0,0,0,0.078,0,0.184
			L160.938,70.291z M161.202,61.958c0,0.185-0.08,0.45-0.265,0.528c-0.186,0.186-0.344,0.265-0.529,0.265
			c-0.265,0-0.45-0.079-0.529-0.265c-0.186-0.185-0.264-0.344-0.264-0.528c0-0.265,0.078-0.45,0.264-0.529
			c0.186-0.186,0.344-0.265,0.529-0.265c0.264,0,0.45,0.079,0.529,0.265C161.096,61.535,161.202,61.693,161.202,61.958z"/>
		<path fill="#FF0000" d="M167.604,70.291c0,0.08-0.078,0.186-0.185,0.186h-0.714c-0.08,0-0.186-0.08-0.186-0.186v-4.285
			c0-0.186,0-0.266,0-0.45c0-0.079-0.08-0.265-0.08-0.345c-0.079-0.078-0.185-0.184-0.264-0.264c-0.08-0.08-0.266-0.08-0.449-0.08
			c-0.187,0-0.45,0-0.609,0.08c-0.186,0.08-0.344,0.08-0.45,0.186c-0.185,0.078-0.264,0.184-0.344,0.264
			c-0.079,0.08-0.185,0.186-0.265,0.265v4.551c0,0.079-0.078,0.185-0.185,0.185h-0.714c-0.08,0-0.186-0.078-0.186-0.185V65.74
			c0-0.185,0-0.344,0-0.449s0-0.186-0.08-0.264c-0.079-0.187-0.079-0.345-0.185-0.345c0-0.079-0.079-0.079-0.079-0.186
			c0-0.079,0-0.079,0.079-0.079l0.608-0.344c0,0,0,0,0.079,0c0,0,0,0,0.079,0c0.08,0,0.08,0,0.186,0.08
			c0.079,0.078,0.079,0.184,0.079,0.264c0,0.079,0.079,0.186,0.079,0.265s0,0.185,0,0.185c0.08-0.079,0.266-0.185,0.344-0.264
			c0.186-0.08,0.266-0.186,0.45-0.266c0.186-0.078,0.345-0.184,0.608-0.264c0.186-0.08,0.45-0.08,0.715-0.08
			c0.344,0,0.608,0.08,0.873,0.186c0.185,0.08,0.344,0.264,0.449,0.45c0.079,0.185,0.186,0.344,0.186,0.608s0,0.449,0,0.715
			L167.604,70.291z"/>
		<path fill="#FF0000" d="M173.636,67.936c0,0.187,0,0.45,0,0.715s0,0.529,0,0.795c0,0.264,0,0.528,0,0.793c0,0.264,0,0.449,0,0.608
			c0,0.265,0,0.608-0.079,0.873c-0.08,0.265-0.186,0.528-0.344,0.714c-0.186,0.186-0.449,0.344-0.715,0.529
			c-0.265,0.08-0.607,0.186-1.058,0.186c-0.265,0-0.529,0-0.794-0.08c-0.266-0.078-0.529-0.078-0.715-0.185
			c-0.185-0.08-0.344-0.186-0.529-0.265c-0.185-0.079-0.185-0.186-0.185-0.186s0-0.08,0.079-0.186l0.186-0.449
			c0-0.079,0.079-0.079,0.079-0.079s0.079,0,0.186,0.079c0.079,0.079,0.265,0.079,0.344,0.186c0.185,0.079,0.343,0.079,0.529,0.186
			c0.185,0.078,0.45,0.078,0.608,0.078c0.265,0,0.528,0,0.715-0.078c0.184-0.08,0.343-0.186,0.449-0.345
			c0.079-0.079,0.185-0.265,0.185-0.45c0-0.184,0-0.344,0-0.528c0-0.345,0-0.608,0-0.873s0-0.45,0-0.45
			c-0.079,0.08-0.185,0.08-0.265,0.186c-0.079,0.079-0.264,0.186-0.344,0.265c-0.185,0.079-0.344,0.185-0.528,0.185
			c-0.187,0.08-0.345,0.08-0.609,0.08c-0.608,0-1.058-0.265-1.401-0.715c-0.345-0.528-0.529-1.217-0.529-2.116
			c0-0.528,0.079-0.952,0.185-1.401c0.106-0.45,0.265-0.795,0.45-1.059c0.186-0.265,0.449-0.529,0.793-0.715
			c0.266-0.185,0.715-0.265,1.059-0.265c0.186,0,0.45,0,0.609,0.08c0.184,0,0.344,0.079,0.449,0.185
			c0.079,0.08,0.265,0.08,0.344,0.186c0.08,0.079,0.186,0.079,0.186,0.186c0.078-0.186,0.078-0.266,0.185-0.449
			c0.08-0.08,0.08-0.187,0.186-0.187h0.079l0.608,0.345l0.08,0.078c0,0.08,0,0.08-0.08,0.187c-0.079,0.079-0.079,0.185-0.185,0.344
			c-0.08,0.185-0.08,0.265-0.08,0.449c0,0.079,0,0.265,0,0.53L173.636,67.936L173.636,67.936z M172.684,65.211
			c-0.08-0.078-0.265-0.078-0.529-0.184c-0.186-0.08-0.45-0.187-0.714-0.187c-0.529,0-0.873,0.187-1.138,0.608
			c-0.265,0.451-0.345,0.953-0.345,1.667s0.08,1.217,0.265,1.667c0.186,0.449,0.45,0.608,0.873,0.608c0.186,0,0.345,0,0.45-0.079
			c0.185-0.08,0.265-0.08,0.45-0.186c0.078-0.079,0.264-0.186,0.344-0.186c0.079-0.079,0.185-0.186,0.264-0.186L172.684,65.211
			L172.684,65.211z"/>
		<path fill="#FF0000" d="M183.9,70.291c0,0.08,0,0.08,0,0.186c0,0-0.079,0-0.186,0h-4.021c-0.079,0-0.185-0.08-0.185-0.186v-8.598
			c0-0.08,0.079-0.186,0.185-0.186h4.021c0.08,0,0.08,0,0.186,0c0,0,0,0,0,0.08c0,0,0,0,0,0.078v0.08l-0.186,0.529
			c0,0.079,0,0.079-0.08,0.079c0,0-0.078,0-0.184,0h-2.885v2.884h2.54c0.079,0,0.079,0,0.186,0c0,0,0,0.078,0,0.185v0.53
			c0,0.078,0,0.078,0,0.184c0,0-0.08,0-0.186,0h-2.54v3.255h3.068c0.08,0,0.187,0.079,0.187,0.185L183.9,70.291z"/>
		<path fill="#FF0000" d="M189.615,72.83c0,0.08,0,0.186-0.08,0.186l-0.609,0.186c-0.078,0-0.078,0-0.078,0s0,0-0.08,0
			c0,0-0.078,0-0.078-0.08v-0.078v-3.148c-0.08,0.079-0.187,0.185-0.266,0.264c-0.079,0.08-0.265,0.186-0.344,0.266
			c-0.08,0.078-0.264,0.184-0.45,0.184c-0.185,0.08-0.344,0.08-0.528,0.08c-0.344,0-0.715-0.08-0.953-0.264
			c-0.264-0.186-0.528-0.45-0.714-0.715c-0.185-0.344-0.265-0.714-0.344-1.059c-0.079-0.449-0.079-0.873-0.079-1.322
			s0.079-0.794,0.186-1.139c0.078-0.343,0.264-0.713,0.449-1.057c0.185-0.266,0.449-0.529,0.794-0.715
			c0.264-0.186,0.608-0.264,1.058-0.264c0.186,0,0.344,0,0.529,0.078c0.186,0.08,0.344,0.08,0.449,0.186
			c0.186,0.079,0.266,0.186,0.344,0.186c0.08,0.079,0.186,0.185,0.266,0.185c0-0.079,0.079-0.079,0.079-0.185
			c0-0.08,0.079-0.08,0.079-0.186c0-0.08,0.079-0.08,0.079-0.186c0-0.078,0.079-0.078,0.079-0.078s0.08,0,0.186,0.078l0.45,0.265
			c0.079,0.08,0.079,0.08,0.079,0.08s0,0.079-0.079,0.264c-0.079,0.08-0.079,0.265-0.186,0.345c0,0.078-0.079,0.264-0.079,0.344
			c0,0.079,0,0.265,0,0.449L189.615,72.83L189.615,72.83z M188.557,65.396c-0.08-0.08-0.265-0.186-0.529-0.344
			c-0.186-0.186-0.45-0.186-0.794-0.186c-0.343,0-0.529,0.08-0.714,0.186c-0.186,0.186-0.344,0.344-0.449,0.529
			c-0.08,0.265-0.186,0.449-0.186,0.794c0,0.264-0.08,0.528-0.08,0.793c0,0.344,0,0.608,0.08,0.953c0,0.264,0.079,0.608,0.186,0.793
			c0.078,0.265,0.184,0.45,0.343,0.608c0.186,0.186,0.344,0.265,0.608,0.265s0.529-0.079,0.795-0.265
			c0.264-0.185,0.449-0.344,0.607-0.528v-3.599H188.557z"/>
		<path fill="#FF0000" d="M194.773,64.418c0-0.08,0-0.186,0.08-0.186l0.607-0.185c0.079,0,0.079,0,0.079,0s0,0,0.08,0
			c0,0,0.079,0,0.079,0.079v0.08v4.655c0,0.186,0,0.265,0,0.45s0.08,0.264,0.08,0.449c0,0.079,0.078,0.186,0.184,0.265
			c0.08,0.079,0.08,0.186,0.08,0.186v0.079c0,0-0.08,0-0.08,0.08l-0.528,0.343c-0.079,0-0.079,0-0.079,0
			c-0.079,0-0.079,0-0.186-0.079c0-0.08-0.08-0.08-0.08-0.186c0-0.078-0.078-0.185-0.078-0.264c0-0.08-0.08-0.186-0.08-0.265
			c-0.078,0.079-0.185,0.185-0.344,0.265c-0.079,0.079-0.265,0.186-0.449,0.264c-0.186,0.08-0.345,0.186-0.529,0.186
			c-0.186,0.079-0.344,0.079-0.529,0.079c-0.449,0-0.793-0.079-1.059-0.185c-0.264-0.08-0.449-0.265-0.529-0.45
			c-0.078-0.185-0.184-0.345-0.264-0.608c0-0.265-0.08-0.449-0.08-0.715v-4.285c0-0.08,0-0.186,0.08-0.186l0.608-0.185
			c0.079,0,0.079,0,0.079,0s0,0,0.079,0c0.08,0,0.08,0,0.08,0.079v0.08v4.471c0,0.185,0,0.265,0.079,0.449
			c0.08,0.186,0.08,0.266,0.186,0.344c0.078,0.08,0.185,0.186,0.344,0.265c0.158,0.08,0.344,0.08,0.529,0.08
			c0.078,0,0.264,0,0.344-0.08c0.185-0.079,0.264-0.079,0.449-0.185c0.186-0.08,0.265-0.186,0.45-0.186
			c0.079-0.079,0.185-0.186,0.265-0.186v-4.814H194.773z"/>
		<path fill="#FF0000" d="M199.165,70.291c0,0.08-0.08,0.186-0.186,0.186h-0.714c-0.08,0-0.186-0.08-0.186-0.186v-5.264h-0.952
			c-0.079,0-0.186-0.08-0.186-0.187v-0.528c0-0.08,0.079-0.186,0.186-0.186h1.852c0.079,0,0.079,0,0.186,0.08c0,0,0,0.078,0,0.184
			V70.291L199.165,70.291z M199.35,61.958c0,0.185-0.078,0.45-0.265,0.528c-0.185,0.186-0.344,0.265-0.528,0.265
			c-0.265,0-0.45-0.079-0.529-0.265c-0.186-0.185-0.266-0.344-0.266-0.528c0-0.265,0.08-0.45,0.266-0.529
			c0.185-0.186,0.344-0.265,0.529-0.265c0.265,0,0.449,0.079,0.528,0.265C199.244,61.535,199.35,61.693,199.35,61.958z"/>
		<path fill="#FF0000" d="M201.281,66.27c0-0.264,0-0.449,0-0.714c0-0.186-0.08-0.45-0.186-0.608c0-0.08-0.078-0.186-0.185-0.265
			s-0.08-0.186-0.08-0.186s0,0,0-0.079c0,0,0.08,0,0.08-0.08l0.529-0.344c0.079,0,0.079,0,0.079,0s0.079,0,0.185,0.08
			c0.08,0.08,0.08,0.08,0.187,0.186c0,0.078,0.078,0.184,0.078,0.264s0.08,0.186,0.08,0.186c0.078-0.079,0.185-0.079,0.264-0.186
			c0.08-0.08,0.265-0.186,0.451-0.264c0.184-0.08,0.343-0.186,0.528-0.186c0.185-0.08,0.45-0.08,0.714-0.08
			c0.344,0,0.609,0.08,0.873,0.266c0.265,0.184,0.45,0.449,0.609,0.714c0.184,0.265,0.264,0.608,0.343,1.058
			c0.08,0.345,0.08,0.795,0.08,1.138c0,0.45-0.08,0.873-0.08,1.323c-0.079,0.449-0.185,0.793-0.343,1.059
			c-0.186,0.344-0.45,0.528-0.715,0.714c-0.265,0.185-0.608,0.265-0.953,0.265c-0.344,0-0.714-0.08-0.951-0.186
			c-0.266-0.079-0.45-0.186-0.609-0.265v2.619c0,0.079,0,0.186-0.08,0.186l-0.607,0.185c-0.079,0-0.079,0-0.079,0s0,0-0.08,0
			c0,0-0.079,0-0.079-0.078v-0.08L201.281,66.27z M202.313,69.339c0.186,0.079,0.451,0.185,0.609,0.265
			c0.264,0.078,0.528,0.078,0.793,0.078s0.529-0.078,0.715-0.264s0.264-0.344,0.344-0.609c0.079-0.264,0.079-0.528,0.185-0.793
			c0-0.264,0-0.608,0-0.953c0-0.264,0-0.528,0-0.793c0-0.264-0.079-0.529-0.185-0.793c-0.08-0.266-0.186-0.449-0.344-0.529
			c-0.186-0.186-0.344-0.186-0.609-0.186c-0.344,0-0.607,0.079-0.873,0.266c-0.264,0.184-0.449,0.264-0.607,0.449v3.862H202.313z"/>
		<path fill="#FF0000" d="M207.577,65.82c0-0.186,0-0.265,0-0.45c0-0.185,0-0.265-0.079-0.449c0-0.186-0.08-0.265-0.08-0.265
			c0-0.079-0.078-0.079-0.078-0.186c0,0,0-0.08,0.078-0.08l0.53-0.343c0,0,0,0,0.079,0c0,0,0,0,0.08,0c0.078,0,0.078,0,0.078,0.079
			c0,0.08,0.08,0.186,0.08,0.264c0,0.08,0.078,0.187,0.078,0.266s0,0.185,0,0.185c0.08-0.079,0.187-0.185,0.345-0.264
			c0.186-0.08,0.265-0.187,0.45-0.265c0.185-0.08,0.344-0.186,0.449-0.186s0.344-0.079,0.449-0.079c0.45,0,0.715,0.079,0.953,0.185
			c0.186,0.08,0.344,0.345,0.449,0.608c0.08-0.079,0.186-0.185,0.344-0.264c0.186-0.08,0.266-0.187,0.45-0.265
			c0.186-0.08,0.345-0.186,0.45-0.186c0.185-0.079,0.344-0.079,0.449-0.079c0.344,0,0.608,0.079,0.873,0.185
			c0.186,0.08,0.344,0.265,0.449,0.45c0.08,0.185,0.186,0.345,0.186,0.608c0,0.265,0,0.449,0,0.715v4.285
			c0,0.08-0.079,0.186-0.186,0.186h-0.714c-0.079,0-0.185-0.08-0.185-0.186v-4.285c0-0.186,0-0.266,0-0.45
			c0-0.079-0.08-0.265-0.08-0.345c-0.078-0.078-0.185-0.184-0.265-0.264c-0.079-0.08-0.264-0.08-0.45-0.08
			c-0.343,0-0.528,0.08-0.793,0.186c-0.186,0.08-0.344,0.264-0.529,0.344v4.815c0,0.079-0.079,0.185-0.185,0.185h-0.45
			c-0.078,0-0.185-0.078-0.185-0.185v-4.286c0-0.186,0-0.265,0-0.449c0-0.08-0.08-0.266-0.08-0.344
			c-0.079-0.08-0.185-0.186-0.264-0.266c-0.08-0.079-0.265-0.079-0.45-0.079s-0.265,0-0.45,0.079c-0.079,0-0.265,0.08-0.343,0.186
			c-0.08,0.08-0.186,0.08-0.266,0.186c-0.079,0.078-0.185,0.078-0.185,0.185v4.815c0,0.08-0.079,0.186-0.186,0.186h-0.635
			c-0.079,0-0.186-0.08-0.186-0.186V65.82L207.577,65.82z"/>
		<path fill="#FF0000" d="M220.725,69.868L220.725,69.868c0,0.079,0,0.079,0,0.079s-0.078,0.079-0.184,0.185
			c-0.08,0.08-0.266,0.187-0.529,0.265c-0.186,0.08-0.449,0.186-0.609,0.186c-0.264,0.079-0.529,0.079-0.713,0.079
			c-0.45,0-0.795-0.079-1.139-0.265c-0.344-0.185-0.607-0.344-0.873-0.715c-0.265-0.264-0.449-0.607-0.529-1.057
			c-0.078-0.45-0.185-0.873-0.185-1.323s0.079-0.873,0.185-1.323c0.105-0.449,0.265-0.793,0.529-1.058
			c0.186-0.265,0.529-0.53,0.794-0.714c0.345-0.186,0.714-0.266,1.059-0.266c0.528,0,0.952,0.08,1.322,0.344
			c0.344,0.265,0.529,0.529,0.714,0.873c0.186,0.345,0.265,0.715,0.265,1.059c0.08,0.344,0.08,0.715,0.08,0.952
			c0,0.08,0,0.186,0,0.186c0,0.079-0.08,0.079-0.08,0.079h-3.677c0,0.186,0,0.449,0.079,0.715c0.079,0.264,0.186,0.529,0.265,0.713
			c0.186,0.266,0.344,0.451,0.529,0.609c0.265,0.186,0.529,0.264,0.873,0.264c0.185,0,0.449,0,0.608-0.078
			c0.185-0.08,0.343-0.08,0.529-0.186c0.185-0.079,0.265-0.079,0.344-0.186c0.079-0.079,0.185-0.079,0.185-0.079s0.08,0,0.08,0.079
			L220.725,69.868z M219.853,66.693c0-0.186,0-0.344-0.079-0.609c0-0.184-0.08-0.449-0.186-0.607
			c-0.079-0.186-0.265-0.344-0.449-0.529c-0.186-0.186-0.449-0.186-0.715-0.186c-0.265,0-0.529,0.079-0.714,0.186
			c-0.186,0.186-0.344,0.264-0.45,0.529c-0.08,0.185-0.186,0.449-0.264,0.607c0,0.186-0.08,0.45-0.08,0.529h2.883v0.08H219.853z"/>
		<path fill="#FF0000" d="M226.969,70.291c0,0.08-0.08,0.186-0.186,0.186h-0.714c-0.079,0-0.185-0.08-0.185-0.186v-4.285
			c0-0.186,0-0.266,0-0.45c0-0.079-0.08-0.265-0.08-0.345c-0.078-0.078-0.185-0.184-0.265-0.264c-0.079-0.08-0.264-0.08-0.45-0.08
			c-0.184,0-0.449,0-0.607,0.08c-0.159,0.08-0.344,0.08-0.449,0.186c-0.186,0.078-0.266,0.184-0.345,0.264s-0.185,0.186-0.265,0.265
			v4.551c0,0.079-0.08,0.185-0.186,0.185h-0.661c-0.079,0-0.185-0.078-0.185-0.185V65.74c0-0.185,0-0.344,0-0.449
			s0-0.186-0.08-0.264c-0.078-0.187-0.078-0.345-0.185-0.345c0-0.079-0.08-0.079-0.08-0.186c0-0.079,0-0.079,0.08-0.079l0.608-0.344
			c0,0,0,0,0.079,0c0,0,0,0,0.079,0c0.08,0,0.08,0,0.186,0.08c0.105,0.078,0.08,0.184,0.08,0.264c0,0.079,0.078,0.186,0.078,0.265
			s0,0.185,0,0.185c0.08-0.079,0.266-0.185,0.345-0.264c0.185-0.08,0.265-0.186,0.45-0.266c0.184-0.078,0.343-0.184,0.528-0.264
			s0.45-0.08,0.715-0.08c0.344,0,0.608,0.08,0.872,0.186c0.186,0.08,0.345,0.264,0.451,0.45c0.078,0.185,0.184,0.344,0.184,0.608
			s0,0.449,0,0.715L226.969,70.291z"/>
		<path fill="#FF0000" d="M232.233,69.947c0,0.079,0,0.079,0,0.079c0,0.079-0.079,0.079-0.185,0.186
			c-0.08,0.079-0.265,0.079-0.45,0.185c-0.186,0.08-0.345,0.08-0.528,0.186c-0.186,0-0.345,0.079-0.53,0.079
			c-0.265,0-0.528-0.079-0.793-0.185c-0.265-0.08-0.345-0.186-0.45-0.345c-0.079-0.079-0.186-0.185-0.265-0.344
			c-0.079-0.079-0.079-0.265-0.079-0.343c0-0.08,0-0.266,0-0.345s0-0.265,0-0.345V65.08h-0.952c0,0-0.079,0-0.079-0.08v-0.079v-0.53
			c0-0.078,0-0.078,0-0.078s0-0.08,0.079-0.08h0.952v-1.824c0-0.08,0.079-0.08,0.186-0.187l0.714-0.185c0,0,0,0,0.079,0
			c0,0,0,0,0.08,0c0,0,0.079,0.079,0.079,0.185v2.011h1.931c0.08,0,0.186,0,0.186,0.08c0,0,0,0,0,0.078l0,0l-0.186,0.53
			c0,0.079-0.078,0.079-0.185,0.079h-1.746v3.678c0,0.078,0,0.264,0,0.344c0,0.079,0,0.264,0.079,0.344
			c0.08,0.08,0.08,0.186,0.264,0.264c0.08,0.08,0.266,0.08,0.451,0.08s0.264,0,0.449-0.08c0.186,0,0.265-0.078,0.344-0.078
			c0.079-0.08,0.186-0.08,0.266-0.08c0.078,0,0.078-0.079,0.184-0.079c0.106,0,0.08,0,0.08,0.079v0.477H232.233z"/>
	</g>
	<g>
		<path fill="#FF0000" d="M98.318,61.613c0.45,0,0.873,0.08,1.323,0.08c0.45,0.078,0.793,0.265,1.137,0.608
			c0.344,0.265,0.608,0.714,0.794,1.322c0.185,0.608,0.264,1.323,0.264,2.354c0,0.794-0.079,1.402-0.185,2.011
			c-0.079,0.529-0.344,1.059-0.608,1.402c-0.265,0.343-0.714,0.608-1.138,0.793c-0.449,0.187-1.058,0.265-1.667,0.265h-1.481
			c-0.079,0-0.185-0.078-0.185-0.185v-8.599c0-0.078,0.079-0.184,0.185-0.184L98.318,61.613L98.318,61.613z M98.397,69.498
			c0.45,0,0.873-0.08,1.138-0.266c0.265-0.185,0.529-0.449,0.714-0.714c0.185-0.344,0.265-0.714,0.344-1.138
			c0.08-0.449,0.08-0.952,0.08-1.48c0-0.715-0.08-1.323-0.186-1.746c-0.079-0.45-0.264-0.795-0.45-1.06
			c-0.185-0.264-0.45-0.45-0.714-0.528c-0.265-0.08-0.609-0.08-0.953-0.08H97.71v7.09L98.397,69.498L98.397,69.498z"/>
		<path fill="#FF0000" d="M104.8,70.291c0,0.08-0.079,0.186-0.185,0.186H103.9c-0.08,0-0.186-0.08-0.186-0.186v-5.264h-1.058
			c-0.08,0-0.185-0.08-0.185-0.187v-0.528c0-0.08,0.079-0.186,0.185-0.186h1.852c0.079,0,0.079,0,0.185,0.08c0,0,0,0.078,0,0.184
			L104.8,70.291z M104.985,61.958c0,0.185-0.08,0.45-0.264,0.528c-0.186,0.186-0.345,0.265-0.529,0.265
			c-0.265,0-0.45-0.079-0.529-0.265c-0.186-0.185-0.265-0.344-0.265-0.528c0-0.265,0.079-0.45,0.265-0.529
			c0.186-0.186,0.344-0.265,0.529-0.265c0.264,0,0.45,0.079,0.529,0.265C104.985,61.535,104.985,61.693,104.985,61.958z"/>
		<path fill="#FF0000" d="M110.938,67.936c0,0.187,0,0.45,0,0.715s0,0.529,0,0.795c0,0.264,0,0.528,0,0.793c0,0.264,0,0.449,0,0.608
			c0,0.265,0,0.608-0.08,0.873c-0.079,0.265-0.185,0.528-0.344,0.714c-0.185,0.186-0.449,0.344-0.714,0.529
			c-0.265,0.08-0.608,0.186-1.059,0.186c-0.264,0-0.529,0-0.793-0.08c-0.265-0.078-0.529-0.078-0.714-0.185
			c-0.185-0.08-0.344-0.186-0.529-0.265s-0.185-0.186-0.185-0.186s0-0.08,0.079-0.186l0.185-0.449c0-0.079,0.08-0.079,0.08-0.079
			s0.079,0,0.185,0.079c0.079,0.079,0.265,0.079,0.45,0.186c0.185,0.079,0.344,0.079,0.529,0.186
			c0.185,0.078,0.45,0.078,0.608,0.078c0.265,0,0.529,0,0.714-0.078c0.185-0.08,0.344-0.186,0.45-0.345
			c0.079-0.079,0.185-0.265,0.185-0.45c0-0.184,0-0.344,0-0.528c0-0.345,0-0.608,0-0.873s0-0.45,0-0.45
			c-0.079,0.08-0.185,0.08-0.265,0.186c-0.08,0.079-0.264,0.186-0.344,0.265c-0.185,0.079-0.344,0.185-0.529,0.185
			c-0.185,0.08-0.344,0.08-0.608,0.08c-0.609,0-1.059-0.265-1.402-0.715c-0.344-0.528-0.529-1.217-0.529-2.116
			c0-0.528,0.08-0.952,0.186-1.401c0.079-0.45,0.264-0.795,0.449-1.059c0.186-0.265,0.45-0.529,0.794-0.715
			c0.264-0.185,0.714-0.265,1.058-0.265c0.185,0,0.45,0,0.608,0.08c0.185,0,0.344,0.079,0.45,0.185
			c0.08,0.08,0.265,0.08,0.344,0.186c0.08,0.079,0.186,0.079,0.186,0.186c0.079-0.186,0.079-0.266,0.185-0.449
			c0.079-0.08,0.079-0.187,0.185-0.187h0.08l0.608,0.345l0.079,0.078c0,0.08,0,0.08-0.079,0.187c-0.08,0.079-0.08,0.185-0.185,0.344
			c-0.08,0.185-0.08,0.265-0.08,0.449c0,0.079,0,0.265,0,0.53L110.938,67.936L110.938,67.936z M109.906,65.211
			c-0.08-0.078-0.265-0.078-0.529-0.184c-0.185-0.08-0.45-0.187-0.714-0.187c-0.529,0-0.873,0.187-1.058,0.608
			c-0.265,0.451-0.344,0.953-0.344,1.667s0.079,1.217,0.264,1.667c0.186,0.449,0.45,0.608,0.873,0.608c0.186,0,0.344,0,0.45-0.079
			c0.186-0.08,0.265-0.08,0.45-0.186c0.08-0.079,0.265-0.186,0.344-0.186c0.08-0.079,0.186-0.186,0.265-0.186V65.211L109.906,65.211
			z"/>
		<path fill="#FF0000" d="M114.376,70.291c0,0.08-0.08,0.186-0.185,0.186h-0.714c-0.08,0-0.186-0.08-0.186-0.186v-5.264h-0.952
			c-0.08,0-0.185-0.08-0.185-0.187v-0.528c0-0.08,0.079-0.186,0.185-0.186h1.852c0.08,0,0.08,0,0.186,0.08c0,0,0,0.078,0,0.184
			V70.291L114.376,70.291z M114.641,61.958c0,0.185-0.08,0.45-0.265,0.528c-0.185,0.186-0.344,0.265-0.529,0.265
			c-0.264,0-0.45-0.079-0.529-0.265c-0.186-0.185-0.265-0.344-0.265-0.528c0-0.265,0.079-0.45,0.265-0.529
			c0.185-0.186,0.344-0.265,0.529-0.265c0.265,0,0.45,0.079,0.529,0.265C114.535,61.535,114.641,61.693,114.641,61.958z"/>
		<path fill="#FF0000" d="M119.879,69.947c0,0.079,0,0.079,0,0.079c0,0.079-0.079,0.079-0.185,0.186
			c-0.079,0.079-0.265,0.079-0.45,0.185c-0.185,0.08-0.344,0.08-0.529,0.186c-0.185,0-0.344,0.079-0.529,0.079
			c-0.265,0-0.529-0.079-0.714-0.185c-0.265-0.08-0.344-0.186-0.45-0.345c-0.08-0.079-0.186-0.185-0.265-0.344
			c-0.08-0.079-0.08-0.265-0.08-0.343c0-0.08,0-0.266,0-0.345s0-0.265,0-0.345V65.08h-0.952c-0.079,0-0.079,0-0.079-0.08v-0.079
			v-0.53c0-0.078,0-0.078,0-0.078s0,0,0.079,0h0.952v-1.746c0-0.08,0-0.08,0.186-0.186l0.714-0.186c0,0,0,0,0.08,0c0,0,0,0,0.08,0
			c0.079,0,0.079,0.08,0.079,0.186v2.01h1.932c0.079,0,0.185,0,0.185,0.08c0,0,0,0,0,0.079c0,0,0,0,0,0.08l-0.185,0.528
			c0,0.08-0.08,0.08-0.186,0.08h-1.746v3.677c0,0.08,0,0.265,0,0.344c0,0.08,0,0.265,0.08,0.345c0.08,0.078,0.08,0.185,0.264,0.265
			c0.08,0.079,0.265,0.079,0.45,0.079c0.185,0,0.265,0,0.45-0.079c0.185,0,0.264-0.08,0.344-0.08
			c0.079-0.079,0.185-0.079,0.265-0.079s0.08-0.08,0.185-0.08c0.079,0,0.079,0,0.079,0.08L119.879,69.947z"/>
		<path fill="#FF0000" d="M124.8,68.359c0,0.186,0,0.344,0,0.529c0,0.079,0,0.265,0,0.344c0,0.08,0,0.186,0.079,0.266
			c0,0.078,0.08,0.184,0.08,0.264c0,0.079,0.08,0.186,0.185,0.265c0.08,0.079,0.08,0.186,0.08,0.186v0.079c0,0-0.08,0-0.08,0.08
			l-0.529,0.343c-0.079,0-0.079,0-0.079,0c-0.079,0-0.079,0-0.185-0.079c-0.08-0.08-0.08-0.186-0.185-0.264
			c-0.08-0.08-0.08-0.187-0.08-0.266s-0.08-0.185-0.08-0.185s-0.079,0.079-0.185,0.185c-0.08,0.079-0.185,0.186-0.344,0.266
			c-0.159,0.078-0.344,0.184-0.529,0.264c-0.185,0.079-0.45,0.079-0.714,0.079c-0.529,0-0.952-0.185-1.217-0.449
			c-0.265-0.344-0.45-0.794-0.45-1.323c0-0.344,0.08-0.714,0.185-0.952c0.08-0.265,0.265-0.449,0.529-0.608
			c0.185-0.186,0.45-0.265,0.714-0.344c0.265-0.08,0.529-0.186,0.794-0.186c0.265-0.079,0.529-0.079,0.714-0.079s0.344,0,0.529,0
			v-0.714c0-0.345-0.08-0.715-0.265-0.873c-0.185-0.186-0.449-0.265-0.873-0.265c-0.185,0-0.449,0-0.608,0.079
			c-0.186,0-0.344,0.08-0.45,0.186c-0.186,0.078-0.265,0.078-0.344,0.185c-0.08,0.079-0.186,0.079-0.186,0.079s-0.08,0-0.08-0.079
			l-0.185-0.449c0-0.08,0-0.08,0-0.186c0-0.079,0.079-0.079,0.185-0.186c0.186-0.079,0.265-0.079,0.529-0.185
			c0.185-0.08,0.45-0.08,0.609-0.186c0.264-0.079,0.449-0.079,0.714-0.079c0.344,0,0.714,0,0.953,0.079
			c0.238,0.08,0.45,0.186,0.608,0.344c0.186,0.186,0.265,0.344,0.344,0.609c0.08,0.264,0.08,0.449,0.08,0.714v2.46H124.8V68.359z
			 M123.847,67.302c-0.185,0-0.344,0-0.608,0c-0.265,0-0.529,0.079-0.794,0.185c-0.265,0.08-0.529,0.266-0.714,0.449
			c-0.185,0.187-0.265,0.45-0.265,0.795c0,0.078,0,0.265,0.08,0.344c0,0.079,0.079,0.265,0.185,0.344
			c0.08,0.08,0.185,0.186,0.264,0.264c0.08,0.08,0.265,0.08,0.45,0.08s0.344,0,0.449-0.08c0.186-0.078,0.265-0.184,0.45-0.264
			c0.079-0.079,0.265-0.186,0.344-0.265s0.185-0.186,0.265-0.186L123.847,67.302L123.847,67.302z"/>
		<path fill="#FF0000" d="M129.112,70.212v0.079c0,0,0,0.08-0.08,0.08c-0.079,0-0.185,0.078-0.265,0.078
			c-0.078,0-0.265,0.08-0.344,0.08s-0.265,0-0.344,0c-0.344,0-0.608-0.08-0.794-0.186c-0.185-0.079-0.344-0.265-0.449-0.449
			c-0.079-0.08-0.079-0.266-0.079-0.449c0-0.187-0.08-0.345-0.08-0.53c0-0.185,0-0.343,0-0.529c0-0.185,0-0.344,0-0.45V61.19
			c0-0.079,0-0.186,0.08-0.186l0.608-0.185c0.079,0,0.079,0,0.079,0s0,0,0.079,0c0,0,0.079,0,0.079,0.078v0.08v6.932
			c0,0.079,0,0.265,0,0.344s0,0.265,0,0.344c0,0.08,0,0.265,0,0.344c0,0.08,0,0.186,0,0.186c0,0.079,0.08,0.186,0.08,0.265
			c0.08,0.079,0.186,0.185,0.344,0.185s0.344,0,0.449-0.078c0.08-0.08,0.186-0.08,0.266-0.08c0.078,0,0.078,0,0.078,0s0,0,0,0.08
			L129.112,70.212z"/>
		<path fill="#FF0000" d="M136.916,70.291c0,0.08-0.08,0.186-0.186,0.186h-3.412c-0.08,0-0.186-0.08-0.186-0.186v-0.529
			c0-0.08,0.08-0.186,0.186-0.186h1.138v-7.168h-1.138c-0.08,0-0.186-0.08-0.186-0.187v-0.528c0-0.08,0.08-0.186,0.186-0.186h3.412
			c0.08,0,0.186,0.08,0.186,0.186v0.528c0,0.08-0.08,0.187-0.186,0.187h-1.137v7.195h1.137c0.08,0,0.186,0.078,0.186,0.185V70.291z"
			/>
		<path fill="#FF0000" d="M138.398,65.82c0-0.186,0-0.265,0-0.45c0-0.185,0-0.265-0.08-0.449c0-0.186-0.079-0.265-0.079-0.265
			c0-0.079-0.08-0.079-0.08-0.186c0,0,0-0.08,0.08-0.08l0.528-0.343c0,0,0,0,0.08,0c0,0,0,0,0.079,0s0.079,0,0.185,0.079
			c0,0.08,0.08,0.186,0.08,0.264c0,0.08,0.08,0.187,0.08,0.266s0,0.185,0,0.185c0.078-0.079,0.184-0.185,0.343-0.264
			c0.08-0.08,0.265-0.187,0.45-0.265c0.186-0.08,0.344-0.186,0.449-0.186c0.186-0.079,0.344-0.079,0.45-0.079
			c0.449,0,0.714,0.079,0.952,0.185c0.186,0.08,0.344,0.345,0.45,0.608c0.079-0.079,0.185-0.185,0.344-0.264
			c0.079-0.08,0.265-0.187,0.449-0.265c0.186-0.08,0.265-0.186,0.45-0.186c0.186-0.079,0.344-0.079,0.449-0.079
			c0.344,0,0.609,0.079,0.873,0.185c0.186,0.08,0.344,0.265,0.45,0.45c0.079,0.185,0.185,0.345,0.185,0.608c0,0.265,0,0.449,0,0.715
			v4.285c0,0.08-0.078,0.186-0.185,0.186h-0.714c-0.08,0-0.186-0.08-0.186-0.186v-4.285c0-0.186,0-0.266,0-0.45
			c0-0.079-0.08-0.265-0.08-0.345c-0.079-0.078-0.185-0.184-0.264-0.264c-0.08-0.08-0.266-0.08-0.449-0.08
			c-0.345,0-0.53,0.08-0.795,0.186c-0.185,0.08-0.344,0.264-0.528,0.344v4.815c0,0.079-0.08,0.185-0.187,0.185h-0.713
			c-0.08,0-0.186-0.078-0.186-0.185v-4.286c0-0.186,0-0.265,0-0.449c0-0.08-0.08-0.266-0.08-0.344
			c-0.078-0.08-0.184-0.186-0.264-0.266c-0.08-0.079-0.265-0.079-0.45-0.079c-0.185,0-0.265,0-0.449,0.079
			c-0.08,0-0.265,0.08-0.344,0.186c-0.08,0.08-0.187,0.08-0.265,0.186c-0.08,0.078-0.186,0.078-0.186,0.185v4.815
			c0,0.08-0.079,0.186-0.186,0.186h-0.714c-0.079,0-0.186-0.08-0.186-0.186L138.398,65.82L138.398,65.82z"/>
		<path fill="#FF0000" d="M151.202,68.359c0,0.186,0,0.344,0,0.529c0,0.079,0,0.265,0,0.344c0,0.08,0,0.186,0.079,0.266
			c0,0.078,0.079,0.184,0.079,0.264c0,0.079,0.079,0.186,0.186,0.265c0.079,0.079,0.079,0.186,0.079,0.186v0.079
			c0,0-0.079,0-0.079,0.08l-0.53,0.343c-0.078,0-0.078,0-0.078,0c-0.08,0-0.08,0-0.186-0.079c-0.079-0.08-0.079-0.186-0.186-0.264
			c0-0.08-0.079-0.187-0.079-0.266s-0.079-0.185-0.079-0.185s-0.079,0.079-0.186,0.185c-0.08,0.079-0.264,0.186-0.344,0.266
			c-0.186,0.078-0.344,0.184-0.529,0.264c-0.186,0.079-0.449,0.079-0.714,0.079c-0.528,0-0.952-0.185-1.218-0.449
			c-0.343-0.344-0.449-0.794-0.449-1.323c0-0.344,0.079-0.714,0.186-0.952c0.186-0.265,0.264-0.449,0.529-0.608
			c0.185-0.186,0.449-0.265,0.714-0.344c0.265-0.08,0.529-0.186,0.794-0.186c0.265-0.079,0.529-0.079,0.715-0.079
			c0.184,0,0.449,0,0.528,0v-0.714c0-0.345-0.079-0.715-0.265-0.873c-0.186-0.186-0.449-0.265-0.953-0.265
			c-0.184,0-0.449,0-0.607,0.079c-0.186,0-0.344,0.08-0.529,0.186c-0.186,0.078-0.265,0.078-0.344,0.185
			c-0.079,0.079-0.186,0.079-0.186,0.079s-0.08,0-0.08-0.079l-0.184-0.449c0-0.08,0-0.08,0-0.186c0-0.079,0.078-0.079,0.184-0.186
			c0.187-0.079,0.266-0.079,0.53-0.185c0.185-0.08,0.449-0.08,0.608-0.186c0.265-0.079,0.449-0.079,0.714-0.079
			c0.344,0,0.714,0,0.953,0.079c0.264,0.08,0.45,0.186,0.608,0.344c0.185,0.186,0.265,0.344,0.344,0.609
			c0.079,0.264,0.079,0.449,0.079,0.714L151.202,68.359L151.202,68.359z M150.223,67.302c-0.186,0-0.344,0-0.608,0
			s-0.528,0.079-0.794,0.185c-0.264,0.08-0.529,0.266-0.713,0.449c-0.187,0.187-0.266,0.45-0.266,0.795c0,0.078,0,0.265,0.079,0.344
			c0,0.079,0.08,0.265,0.187,0.344c0.078,0.08,0.184,0.186,0.264,0.264c0.079,0.08,0.265,0.08,0.449,0.08
			c0.186,0,0.344,0,0.529-0.08c0.186-0.078,0.265-0.184,0.45-0.264c0.079-0.079,0.265-0.186,0.343-0.265
			c0.08-0.079,0.187-0.186,0.266-0.186L150.223,67.302L150.223,67.302z"/>
		<path fill="#FF0000" d="M157.498,67.936c0,0.187,0,0.45,0,0.715s0,0.529,0,0.795c0,0.264,0,0.528,0,0.793c0,0.264,0,0.449,0,0.608
			c0,0.265,0,0.608-0.079,0.873s-0.186,0.528-0.345,0.714c-0.184,0.186-0.449,0.344-0.714,0.529
			c-0.265,0.08-0.608,0.186-1.058,0.186c-0.265,0-0.529,0-0.795-0.08c-0.264-0.078-0.528-0.078-0.713-0.185
			c-0.186-0.08-0.344-0.186-0.529-0.265s-0.186-0.186-0.186-0.186s0-0.08,0.079-0.186l0.186-0.449c0-0.079,0.079-0.079,0.079-0.079
			s0.08,0,0.186,0.079c0.079,0.079,0.265,0.079,0.449,0.186c0.186,0.079,0.344,0.079,0.529,0.186
			c0.186,0.078,0.45,0.078,0.609,0.078c0.264,0,0.528,0,0.714-0.078c0.185-0.08,0.343-0.186,0.449-0.345
			c0.08-0.079,0.186-0.265,0.186-0.45c0-0.184,0-0.344,0-0.528c0-0.345,0-0.608,0-0.873s0-0.45,0-0.45
			c-0.079,0.08-0.186,0.08-0.265,0.186c-0.08,0.079-0.264,0.186-0.344,0.265c-0.186,0.079-0.344,0.185-0.529,0.185
			c-0.186,0.08-0.344,0.08-0.608,0.08c-0.608,0-1.059-0.265-1.401-0.715c-0.345-0.528-0.53-1.217-0.53-2.116
			c0-0.528,0.08-0.952,0.186-1.401c0.105-0.45,0.265-0.795,0.45-1.059c0.185-0.265,0.449-0.529,0.793-0.715
			c0.265-0.185,0.715-0.265,1.059-0.265c0.185,0,0.449,0,0.608,0.08c0.185,0,0.343,0.079,0.449,0.185
			c0.08,0.08,0.265,0.08,0.344,0.186c0.08,0.079,0.187,0.079,0.187,0.186c0.078-0.186,0.078-0.266,0.184-0.449
			c0.08-0.08,0.08-0.187,0.187-0.187c0.079,0,0.079,0,0.079,0L158,64.313l0.08,0.078c0,0.08,0,0.08-0.08,0.187
			c-0.078,0.079-0.078,0.185-0.184,0.344c-0.08,0.185-0.08,0.265-0.08,0.449c0,0.079,0,0.265,0,0.53L157.498,67.936L157.498,67.936z
			 M156.467,65.211c-0.08-0.078-0.266-0.078-0.529-0.184c-0.186-0.08-0.45-0.187-0.715-0.187c-0.528,0-0.873,0.187-1.058,0.608
			c-0.265,0.451-0.344,0.953-0.344,1.667s0.079,1.217,0.264,1.667c0.187,0.449,0.45,0.608,0.873,0.608c0.187,0,0.345,0,0.45-0.079
			c0.186-0.08,0.265-0.08,0.449-0.186c0.08-0.079,0.266-0.186,0.344-0.186c0.08-0.079,0.186-0.186,0.266-0.186V65.211
			L156.467,65.211z"/>
		<path fill="#FF0000" d="M160.938,70.291c0,0.08-0.079,0.186-0.186,0.186h-0.714c-0.08,0-0.187-0.08-0.187-0.186v-5.264h-1.057
			c-0.08,0-0.186-0.08-0.186-0.187v-0.528c0-0.08,0.08-0.186,0.186-0.186h1.852c0.078,0,0.078,0,0.185,0.08c0,0,0,0.078,0,0.184
			v5.874h0.106V70.291z M161.202,61.958c0,0.185-0.08,0.45-0.265,0.528c-0.186,0.186-0.344,0.265-0.529,0.265
			c-0.265,0-0.45-0.079-0.529-0.265c-0.186-0.185-0.264-0.344-0.264-0.528c0-0.265,0.078-0.45,0.264-0.529
			c0.186-0.186,0.344-0.265,0.529-0.265c0.264,0,0.45,0.079,0.529,0.265C161.096,61.535,161.202,61.693,161.202,61.958z"/>
		<path fill="#FF0000" d="M167.604,70.291c0,0.08-0.078,0.186-0.185,0.186h-0.714c-0.08,0-0.186-0.08-0.186-0.186v-4.285
			c0-0.186,0-0.266,0-0.45c0-0.079-0.08-0.265-0.08-0.345c-0.079-0.078-0.185-0.184-0.264-0.264c-0.08-0.08-0.266-0.08-0.449-0.08
			c-0.187,0-0.45,0-0.609,0.08c-0.186,0.08-0.344,0.08-0.45,0.186c-0.185,0.078-0.264,0.184-0.344,0.264
			c-0.079,0.08-0.185,0.186-0.265,0.265v4.551c0,0.079-0.078,0.185-0.185,0.185h-0.714c-0.08,0-0.186-0.078-0.186-0.185V65.74
			c0-0.185,0-0.344,0-0.449s0-0.186-0.08-0.264c-0.079-0.187-0.079-0.345-0.185-0.45c-0.106-0.106-0.079-0.08-0.079-0.187
			c0,0,0-0.078,0.079-0.078l0.608-0.345c0,0,0,0,0.079,0c0,0,0,0,0.079,0c0.08,0,0.08,0,0.186,0.08
			c0.079,0.079,0.079,0.185,0.079,0.265c0,0.078,0.079,0.185,0.079,0.265c0,0.079,0,0.185,0,0.185
			c0.08-0.079,0.266-0.185,0.344-0.265c0.186-0.079,0.266-0.185,0.45-0.265c0.186-0.078,0.345-0.185,0.608-0.265
			c0.186-0.079,0.45-0.079,0.715-0.079c0.344,0,0.608,0.079,0.873,0.186c0.185,0.08,0.344,0.264,0.449,0.449
			c0.079,0.186,0.186,0.344,0.186,0.609c0,0.264,0,0.449,0,0.714L167.604,70.291L167.604,70.291z"/>
		<path fill="#FF0000" d="M173.636,67.936c0,0.187,0,0.45,0,0.715s0,0.529,0,0.795c0,0.264,0,0.528,0,0.793c0,0.264,0,0.449,0,0.608
			c0,0.265,0,0.608-0.079,0.873c-0.08,0.265-0.186,0.528-0.344,0.714c-0.186,0.186-0.449,0.344-0.715,0.529
			c-0.265,0.08-0.607,0.186-1.058,0.186c-0.265,0-0.529,0-0.794-0.08c-0.266-0.078-0.529-0.078-0.715-0.185
			c-0.185-0.08-0.344-0.186-0.529-0.265c-0.185-0.079-0.185-0.186-0.185-0.186s0-0.08,0.079-0.186l0.186-0.449
			c0-0.079,0.079-0.079,0.079-0.079s0.079,0,0.186,0.079c0.079,0.079,0.265,0.079,0.45,0.186c0.184,0.079,0.343,0.079,0.528,0.186
			c0.186,0.078,0.45,0.078,0.608,0.078c0.265,0,0.529,0,0.715-0.078c0.185-0.08,0.344-0.186,0.449-0.345
			c0.079-0.079,0.186-0.265,0.186-0.45c0-0.184,0-0.344,0-0.528c0-0.345,0-0.608,0-0.873s0-0.45,0-0.45
			c-0.08,0.08-0.186,0.08-0.265,0.186c-0.079,0.079-0.265,0.186-0.345,0.265c-0.184,0.079-0.344,0.185-0.528,0.185
			c-0.186,0.08-0.345,0.08-0.608,0.08c-0.609,0-1.059-0.265-1.402-0.715c-0.344-0.528-0.529-1.217-0.529-2.116
			c0-0.528,0.079-0.952,0.186-1.401c0.105-0.45,0.264-0.795,0.449-1.059c0.186-0.265,0.45-0.529,0.794-0.715
			c0.265-0.185,0.714-0.265,1.059-0.265c0.185,0,0.45,0,0.608,0.08c0.185,0,0.344,0.079,0.449,0.185
			c0.079,0.08,0.266,0.08,0.344,0.186c0.08,0.079,0.186,0.079,0.186,0.186c0.079-0.186,0.079-0.266,0.186-0.449
			c0.079-0.08,0.079-0.187,0.185-0.187c0.106,0,0.08,0,0.08,0l0.608,0.345l0.079,0.078c0,0.08,0,0.08-0.079,0.187
			c-0.08,0.079-0.08,0.185-0.186,0.344c-0.08,0.185-0.08,0.265-0.08,0.449c0,0.079,0,0.265,0,0.53L173.636,67.936L173.636,67.936z
			 M172.684,65.211c-0.08-0.078-0.265-0.078-0.529-0.184c-0.186-0.08-0.45-0.187-0.714-0.187c-0.529,0-0.873,0.187-1.06,0.608
			c-0.264,0.451-0.343,0.953-0.343,1.667s0.079,1.217,0.265,1.667c0.185,0.449,0.449,0.608,0.873,0.608c0.185,0,0.344,0,0.449-0.079
			c0.186-0.08,0.266-0.08,0.449-0.186c0.08-0.079,0.266-0.186,0.345-0.186c0.079-0.079,0.185-0.186,0.265-0.186V65.211
			L172.684,65.211z"/>
		<path fill="#FF0000" d="M183.9,70.291c0,0.08,0,0.08,0,0.186c0,0-0.079,0-0.186,0h-3.941c-0.08,0-0.186-0.08-0.186-0.186v-8.598
			c0-0.08,0.079-0.186,0.186-0.186h4.021c0.079,0,0.079,0,0.185,0c0,0,0,0,0,0.08c0,0,0,0,0,0.078v0.08l-0.185,0.529
			c0,0.079,0,0.079-0.08,0.079h-0.08h-2.883v2.884h2.54c0.079,0,0.079,0,0.185,0c0,0,0,0.078,0,0.185v0.53c0,0.078,0,0.078,0,0.184
			c0,0-0.078,0-0.185,0h-2.54v3.255h3.069c0.079,0,0.185,0.079,0.185,0.185L183.9,70.291L183.9,70.291z"/>
		<path fill="#FF0000" d="M189.509,72.83c0,0.08,0,0.186-0.079,0.186l-0.609,0.186c-0.078,0-0.078,0-0.078,0s0,0-0.08,0
			c-0.079,0-0.079,0-0.079-0.08v-0.078v-3.148c-0.08,0.079-0.186,0.185-0.265,0.264c-0.079,0.08-0.266,0.186-0.344,0.266
			c-0.08,0.078-0.265,0.184-0.45,0.184c-0.185,0.08-0.345,0.08-0.528,0.08c-0.345,0-0.715-0.08-0.953-0.264
			c-0.265-0.186-0.529-0.45-0.715-0.715c-0.184-0.264-0.264-0.714-0.344-1.059c-0.079-0.449-0.079-0.873-0.079-1.322
			s0.079-0.794,0.186-1.139c0.079-0.343,0.265-0.713,0.449-1.057c0.186-0.266,0.45-0.529,0.714-0.715
			c0.266-0.186,0.715-0.264,1.06-0.264c0.185,0,0.344,0,0.528,0.078c0.186,0.08,0.344,0.08,0.45,0.186
			c0.185,0.079,0.265,0.186,0.345,0.186c0.078,0.079,0.184,0.079,0.264,0.185c0-0.079,0.079-0.079,0.079-0.185
			c0-0.08,0.079-0.186,0.079-0.186c0-0.08,0.08-0.08,0.08-0.186c0-0.078,0.079-0.078,0.079-0.078s0.079,0,0.079,0.078l0.449,0.265
			c0.08,0.08,0.08,0.08,0.08,0.08s0,0.079-0.08,0.264c-0.078,0.08-0.078,0.265-0.184,0.345c-0.08,0.078-0.08,0.264-0.08,0.344
			c0,0.079,0,0.265,0,0.449L189.509,72.83L189.509,72.83z M188.557,65.396c-0.186-0.08-0.265-0.186-0.529-0.344
			c-0.264-0.186-0.45-0.186-0.794-0.186c-0.265,0-0.529,0.08-0.714,0.186c-0.186,0.186-0.344,0.344-0.449,0.529
			c-0.08,0.265-0.186,0.449-0.186,0.794c0,0.264-0.08,0.528-0.08,0.793c0,0.344,0,0.608,0.08,0.873c0,0.265,0.079,0.608,0.186,0.794
			c0.078,0.265,0.184,0.449,0.343,0.609c0.186,0.184,0.344,0.264,0.608,0.264s0.529-0.08,0.795-0.264
			c0.264-0.187,0.449-0.345,0.607-0.53L188.557,65.396L188.557,65.396z"/>
		<path fill="#FF0000" d="M194.773,64.418c0-0.08,0-0.186,0.08-0.186l0.607-0.185c0.079,0,0.079,0,0.079,0s0,0,0.08,0
			c0.079,0,0.079,0,0.079,0.079v0.08v4.655c0,0.186,0,0.265,0,0.45s0.08,0.264,0.08,0.449c0.078,0.079,0.078,0.186,0.184,0.265
			c0.08,0.079,0.08,0.186,0.08,0.186v0.079c0,0-0.08,0-0.08,0.08l-0.528,0.343c-0.079,0-0.079,0-0.079,0
			c-0.079,0-0.079,0-0.186-0.079c0-0.08-0.08-0.08-0.08-0.186c0-0.078-0.078-0.185-0.078-0.264c0-0.08-0.08-0.186-0.08-0.265
			c-0.078,0.079-0.185,0.185-0.344,0.265c-0.079,0.079-0.265,0.186-0.449,0.264c-0.186,0.08-0.345,0.186-0.529,0.186
			c-0.186,0.079-0.344,0.079-0.529,0.079c-0.449,0-0.793-0.079-1.059-0.185c-0.264-0.08-0.449-0.265-0.529-0.45
			c-0.078-0.185-0.184-0.345-0.264-0.608c0-0.265-0.08-0.449-0.08-0.715v-4.285c0-0.08,0-0.186,0.08-0.186l0.608-0.185
			c0.079,0,0.079,0,0.079,0s0,0,0.079,0c0,0,0.08,0,0.08,0.079v0.08v4.471c0,0.185,0,0.265,0.079,0.449
			c0,0.079,0.08,0.266,0.186,0.344c0.078,0.08,0.185,0.186,0.344,0.265c0.158,0.08,0.344,0.08,0.529,0.08
			c0.078,0,0.264,0,0.344-0.08c0.185-0.079,0.264-0.079,0.449-0.185c0.186-0.08,0.265-0.186,0.45-0.186
			c0.079-0.079,0.185-0.186,0.265-0.186v-4.814H194.773z"/>
		<path fill="#FF0000" d="M199.085,70.291c0,0.08-0.079,0.186-0.185,0.186h-0.715c-0.079,0-0.185-0.08-0.185-0.186v-5.264h-1.059
			c-0.079,0-0.185-0.08-0.185-0.187v-0.528c0-0.08,0.078-0.186,0.185-0.186h1.853c0.079,0,0.079,0,0.185,0.08c0,0,0,0.078,0,0.184
			L199.085,70.291z M199.35,61.958c0,0.185-0.078,0.45-0.265,0.528c-0.185,0.186-0.344,0.265-0.528,0.265
			c-0.265,0-0.45-0.079-0.529-0.265c-0.186-0.185-0.266-0.344-0.266-0.528c0-0.265,0.08-0.45,0.266-0.529
			c0.185-0.186,0.344-0.265,0.529-0.265c0.265,0,0.449,0.079,0.528,0.265C199.244,61.535,199.35,61.693,199.35,61.958z"/>
		<path fill="#FF0000" d="M201.281,66.27c0-0.264,0-0.449,0-0.714c0-0.186-0.08-0.45-0.186-0.608c0-0.08-0.078-0.186-0.078-0.265
			c-0.08-0.079-0.08-0.186-0.08-0.186s0,0,0-0.079c0,0,0.08,0,0.08-0.08l0.528-0.344c0.079,0,0.079,0,0.079,0
			c0.079,0,0.079,0,0.186,0.08c0.08,0.08,0.08,0.186,0.186,0.186c0.078,0.078,0.078,0.184,0.078,0.264s0.08,0.186,0.08,0.186
			c0.079-0.079,0.186-0.079,0.265-0.186c0.079-0.08,0.265-0.186,0.45-0.264c0.184-0.08,0.344-0.186,0.528-0.186
			c0.186-0.08,0.45-0.08,0.715-0.08c0.344,0,0.608,0.08,0.873,0.266c0.264,0.184,0.45,0.449,0.608,0.714
			c0.185,0.265,0.265,0.608,0.344,1.058c0.079,0.345,0.079,0.795,0.079,1.138c0,0.45,0,0.873-0.079,1.323
			c-0.079,0.449-0.186,0.793-0.344,1.059c-0.186,0.344-0.345,0.528-0.715,0.714c-0.264,0.185-0.608,0.265-0.953,0.265
			c-0.449,0-0.713-0.08-0.951-0.186c-0.265-0.079-0.45-0.186-0.608-0.265v2.619c0,0.079,0,0.186-0.08,0.186l-0.608,0.185
			c-0.079,0-0.079,0-0.079,0s0,0-0.079,0c0,0-0.079,0-0.079-0.078v-0.08L201.281,66.27z M202.233,69.339
			c0.186,0.079,0.45,0.185,0.608,0.265c0.186,0.078,0.529,0.078,0.794,0.078s0.529-0.078,0.714-0.264
			c0.186-0.186,0.266-0.344,0.344-0.609c0.08-0.264,0.186-0.528,0.186-0.793c0-0.264,0-0.608,0-0.873c0-0.264,0-0.529,0-0.793
			c0-0.266-0.08-0.529-0.186-0.794c-0.078-0.265-0.185-0.45-0.344-0.528c-0.185-0.187-0.344-0.187-0.607-0.187
			c-0.345,0-0.609,0.08-0.873,0.265c-0.266,0.186-0.45,0.265-0.609,0.45v3.783H202.233z"/>
		<path fill="#FF0000" d="M207.577,65.82c0-0.186,0-0.265,0-0.45c0-0.185,0-0.265-0.079-0.449c0-0.186-0.08-0.265-0.08-0.265
			c0-0.079-0.078-0.079-0.078-0.186c0,0,0-0.08,0.078-0.08l0.53-0.343c0,0,0,0,0.079,0h0.08c0.078,0,0.078,0,0.184,0.079
			c0,0.08,0.08,0.186,0.08,0.264c0,0.08,0.079,0.187,0.079,0.266s0,0.185,0,0.185c0.08-0.079,0.186-0.185,0.344-0.264
			c0.159-0.08,0.265-0.187,0.45-0.265c0.186-0.08,0.344-0.186,0.449-0.186c0.186-0.079,0.344-0.079,0.449-0.079
			c0.451,0,0.715,0.079,0.953,0.185c0.186,0.08,0.344,0.345,0.45,0.608c0.079-0.079,0.185-0.185,0.343-0.264
			c0.08-0.08,0.266-0.187,0.45-0.265c0.187-0.08,0.265-0.186,0.45-0.186c0.186-0.079,0.344-0.079,0.45-0.079
			c0.343,0,0.608,0.079,0.872,0.185c0.186,0.08,0.344,0.265,0.45,0.45c0.079,0.185,0.186,0.345,0.186,0.608c0,0.265,0,0.449,0,0.715
			v4.285c0,0.08-0.08,0.186-0.186,0.186h-0.714c-0.08,0-0.186-0.08-0.186-0.186v-4.285c0-0.186,0-0.266,0-0.45
			c0-0.079-0.08-0.265-0.08-0.345c-0.078-0.078-0.184-0.184-0.264-0.264c-0.079-0.08-0.265-0.08-0.45-0.08
			c-0.343,0-0.608,0.08-0.793,0.186c-0.187,0.08-0.345,0.264-0.529,0.344v4.815c0,0.079-0.08,0.185-0.186,0.185h-0.528
			c-0.08,0-0.186-0.078-0.186-0.185v-4.286c0-0.186,0-0.265,0-0.449c0-0.08-0.08-0.266-0.08-0.344
			c-0.079-0.08-0.185-0.186-0.264-0.266c-0.08-0.079-0.266-0.079-0.449-0.079c-0.187,0-0.266,0-0.45,0.079
			c-0.08,0-0.265,0.08-0.345,0.186c-0.078,0.08-0.185,0.08-0.265,0.186c-0.079,0.078-0.185,0.078-0.185,0.185v4.815
			c0,0.08-0.079,0.186-0.186,0.186h-0.661c-0.079,0-0.186-0.08-0.186-0.186V65.82L207.577,65.82z"/>
		<path fill="#FF0000" d="M220.725,69.868L220.725,69.868c0,0.079,0,0.079,0,0.079s-0.078,0.079-0.184,0.185
			c-0.08,0.08-0.266,0.187-0.45,0.265c-0.186,0.08-0.45,0.186-0.608,0.186c-0.265,0.079-0.529,0.079-0.715,0.079
			c-0.449,0-0.793-0.079-1.138-0.265c-0.344-0.185-0.608-0.344-0.873-0.715c-0.264-0.264-0.45-0.607-0.528-1.057
			c-0.08-0.45-0.186-0.873-0.186-1.323s0.08-0.873,0.186-1.323c0.105-0.449,0.265-0.793,0.528-1.058
			c0.187-0.265,0.529-0.53,0.794-0.714c0.344-0.186,0.715-0.266,1.059-0.266c0.529,0,0.953,0.08,1.322,0.344
			c0.344,0.265,0.529,0.529,0.715,0.873c0.185,0.345,0.265,0.715,0.265,1.059s0.079,0.715,0.079,0.952c0,0.08,0,0.186,0,0.186
			c0,0.079-0.079,0.079-0.079,0.079h-3.678c0,0.186,0,0.449,0.079,0.715c0.08,0.264,0.186,0.529,0.265,0.713
			c0.08,0.266,0.345,0.451,0.529,0.609c0.265,0.186,0.529,0.264,0.873,0.264c0.186,0,0.45,0,0.608-0.078
			c0.186-0.08,0.344-0.08,0.529-0.186c0.186-0.079,0.265-0.079,0.344-0.186c0.08-0.079,0.186-0.079,0.186-0.079s0.078,0,0.078,0.079
			V69.868z M219.853,66.693c0-0.186,0-0.344-0.079-0.609c0-0.184-0.08-0.449-0.186-0.607c-0.079-0.186-0.265-0.344-0.449-0.529
			c-0.186-0.186-0.449-0.186-0.715-0.186c-0.265,0-0.529,0.079-0.714,0.186c-0.186,0.186-0.344,0.264-0.45,0.529
			c-0.08,0.185-0.186,0.449-0.264,0.607c0,0.186-0.08,0.45-0.08,0.609H219.853z"/>
		<path fill="#FF0000" d="M226.969,70.291c0,0.08-0.08,0.186-0.186,0.186h-0.714c-0.079,0-0.185-0.08-0.185-0.186v-4.285
			c0-0.186,0-0.266,0-0.45c0-0.079-0.08-0.265-0.08-0.345c-0.078-0.078-0.185-0.184-0.265-0.264c-0.079-0.08-0.264-0.08-0.45-0.08
			c-0.184,0-0.449,0-0.607,0.08c-0.159,0.08-0.344,0.08-0.449,0.186c-0.08,0.078-0.266,0.184-0.345,0.264s-0.185,0.186-0.265,0.265
			v4.551c0,0.079-0.08,0.185-0.186,0.185h-0.661c-0.079,0-0.185-0.078-0.185-0.185V65.74c0-0.185,0-0.344,0-0.449
			s0-0.186-0.08-0.264c-0.078-0.187-0.078-0.345-0.185-0.45c-0.106-0.106-0.08-0.08-0.08-0.187c0,0,0-0.078,0.08-0.078l0.608-0.345
			c0,0,0,0,0.079,0c0,0,0,0,0.079,0c0.08,0,0.08,0,0.186,0.08c0.105,0.079,0.08,0.185,0.08,0.265c0,0.078,0.078,0.185,0.078,0.265
			c0,0.079,0,0.185,0,0.185c0.08-0.079,0.266-0.185,0.345-0.265c0.185-0.079,0.265-0.185,0.45-0.265
			c0.184-0.078,0.343-0.185,0.528-0.265c0.186-0.079,0.45-0.079,0.715-0.079c0.344,0,0.608,0.079,0.872,0.186
			c0.186,0.08,0.345,0.264,0.451,0.449c0.078,0.186,0.184,0.344,0.184,0.609c0,0.264,0,0.449,0,0.714L226.969,70.291L226.969,70.291
			z"/>
		<path fill="#FF0000" d="M232.233,69.947c0,0.079,0,0.079,0,0.079c0,0.079-0.079,0.079-0.185,0.186
			c-0.08,0.079-0.265,0.079-0.45,0.185c-0.186,0.08-0.345,0.08-0.528,0.186c-0.186,0-0.345,0.079-0.53,0.079
			c-0.265,0-0.528-0.079-0.714-0.185c-0.265-0.08-0.344-0.186-0.449-0.345c-0.08-0.079-0.186-0.185-0.186-0.344
			c-0.08-0.079-0.08-0.265-0.08-0.343c0-0.08,0-0.266,0-0.345s0-0.265,0-0.345V65.08h-0.952c-0.079,0-0.079,0-0.079-0.08v-0.079
			v-0.53c0-0.078,0-0.078,0-0.078s0,0,0.079,0h0.952v-1.746c0-0.08,0.08-0.08,0.186-0.186l0.715-0.186c0,0,0,0,0.079,0
			c0,0,0,0,0.079,0c0,0,0.08,0.08,0.08,0.186v2.01h1.93c0.08,0,0.187,0,0.187,0.08c0,0,0,0,0,0.079c0,0,0,0,0,0.08l-0.187,0.528
			c0,0.08-0.078,0.08-0.184,0.08h-1.668v3.677c0,0.08,0,0.265,0,0.344c0,0.08,0,0.265,0.08,0.345
			c0.079,0.078,0.079,0.185,0.265,0.265c0.079,0.079,0.265,0.079,0.45,0.079c0.184,0,0.264,0,0.449-0.079
			c0.185,0,0.265-0.08,0.344-0.08c0.08-0.079,0.186-0.079,0.264-0.079c0.08,0,0.08-0.08,0.187-0.08c0.079,0,0.079,0,0.079,0.08
			L232.233,69.947z"/>
	</g>
	<g>
		<path fill="#FFFFFF" d="M145.938,84.232v0.08c0,0,0,0.079-0.079,0.079h-0.873c-0.08,0-0.08,0-0.08,0v-0.079l-1.481-8.069
			c0-0.079,0-0.079,0-0.185c0,0,0-0.08,0.079-0.08h0.08l0.608-0.186h0.079h0.079c0,0,0.08,0,0.08,0.08c0,0,0,0.079,0,0.186
			l1.059,5.951c0,0.08,0,0.186,0,0.266c0,0.079,0,0.264,0,0.344s0,0.264,0,0.344c0,0.079,0,0.265,0,0.344l0,0
			c0-0.265,0-0.449,0.078-0.714c0-0.265,0.08-0.45,0.08-0.714l1.138-5.874v-0.079c0,0,0,0,0.079,0h0.794h0.079v0.079l1.058,6.058
			c0,0.187,0.08,0.345,0.08,0.53c0,0.185,0.079,0.449,0.079,0.608l0,0c0-0.186,0-0.449,0-0.608c0-0.265,0-0.45,0.08-0.608
			l1.137-6.059c0-0.08,0-0.08,0-0.186c0-0.078,0-0.078,0.079-0.078c0,0,0,0,0.08,0h0.079l0.607,0.184c0.08,0,0.187,0.08,0.187,0.08
			s0,0.079,0,0.186l-1.667,8.068v0.079c0,0,0,0.08-0.079,0.08h-0.953c-0.079,0-0.079-0.08-0.079-0.186l-1.059-6.852l0,0
			L145.938,84.232z"/>
		<path fill="#FFFFFF" d="M156.018,83.703C156.018,83.703,156.096,83.809,156.018,83.703c0,0.08,0,0.08,0,0.08
			s-0.08,0.078-0.187,0.185c-0.079,0.08-0.264,0.186-0.45,0.186c-0.184,0.079-0.449,0.186-0.607,0.186
			c-0.266,0.079-0.449,0.079-0.715,0.079c-0.449,0-0.793-0.079-1.058-0.265c-0.345-0.186-0.608-0.345-0.794-0.608
			c-0.265-0.265-0.449-0.609-0.529-0.952c-0.078-0.344-0.185-0.794-0.185-1.323c0-0.449,0.079-0.873,0.185-1.217
			s0.265-0.715,0.529-0.952c0.186-0.265,0.449-0.529,0.794-0.608c0.265-0.186,0.608-0.265,1.058-0.265
			c0.529,0,0.953,0.079,1.217,0.344c0.265,0.186,0.529,0.529,0.715,0.794c0.186,0.344,0.264,0.608,0.264,0.951
			c0.08,0.345,0.08,0.715,0.08,0.873c0,0.08,0,0.187,0,0.187c0,0.079-0.08,0.079-0.08,0.079h-3.518c0,0.185,0,0.449,0.079,0.607
			c0.079,0.266,0.079,0.45,0.265,0.715c0.079,0.265,0.265,0.45,0.529,0.529c0.265,0.186,0.529,0.266,0.873,0.266
			c0.185,0,0.344,0,0.529-0.08s0.344-0.08,0.449-0.186c0.186-0.079,0.265-0.079,0.344-0.185c0.08-0.08,0.186-0.08,0.186-0.08
			s0,0,0.08,0.08L156.018,83.703z M155.223,80.74c0-0.185,0-0.344-0.078-0.529c0-0.184-0.08-0.449-0.187-0.607
			c-0.079-0.186-0.264-0.344-0.344-0.449c-0.185-0.08-0.343-0.187-0.608-0.187c-0.265,0-0.529,0.08-0.714,0.187
			c-0.186,0.184-0.344,0.264-0.45,0.449c-0.08,0.185-0.186,0.344-0.186,0.607c0,0.186-0.078,0.345-0.078,0.529H155.223z"/>
		<path fill="#FFFFFF" d="M163.397,84.074C163.397,84.074,163.397,84.153,163.397,84.074c0,0.079,0,0.185-0.079,0.185
			c-0.08,0-0.186,0.08-0.265,0.08s-0.186,0.079-0.344,0.079c-0.079,0-0.265,0-0.345,0c-0.264,0-0.528-0.079-0.793-0.186
			c-0.186-0.079-0.344-0.265-0.45-0.449c0-0.08-0.079-0.265-0.079-0.344c0-0.186,0-0.345-0.079-0.529c0-0.186,0-0.344,0-0.529
			s0-0.265,0-0.449v-6.217c0-0.08,0-0.08,0.079-0.186l0.608-0.186c0.08,0,0.08,0,0.08,0s0,0,0.079,0c0,0,0.079,0,0.079,0.079v0.08
			v6.587c0,0.079,0,0.186,0,0.344c0,0.079,0,0.266,0,0.344c0,0.08,0,0.186,0,0.265c0,0.08,0,0.186,0,0.186
			c0,0.079,0.079,0.185,0.079,0.265c0.079,0.08,0.186,0.186,0.344,0.186c0.186,0,0.265,0,0.45-0.08
			c0.079-0.079,0.186-0.079,0.265-0.079h0.08c0,0,0,0,0,0.079L163.397,84.074z"/>
		<path fill="#FFFFFF" d="M168.741,81.27c0,0.45-0.079,0.873-0.185,1.217c-0.08,0.344-0.265,0.715-0.45,0.953
			c-0.185,0.264-0.45,0.528-0.794,0.714s-0.713,0.265-1.137,0.265c-0.449,0-0.794-0.079-1.059-0.265
			c-0.264-0.186-0.529-0.345-0.714-0.608c-0.187-0.265-0.345-0.609-0.45-0.952c-0.079-0.344-0.186-0.794-0.186-1.217
			c0-0.45,0.08-0.794,0.186-1.218c0.08-0.344,0.264-0.715,0.45-0.951c0.185-0.266,0.45-0.53,0.793-0.715
			c0.344-0.186,0.714-0.265,1.138-0.265c0.449,0,0.794,0.079,1.059,0.265c0.264,0.185,0.529,0.344,0.793,0.608
			c0.186,0.265,0.344,0.608,0.449,0.952C168.635,80.477,168.741,80.9,168.741,81.27z M166.281,83.703
			c0.265,0,0.529-0.078,0.714-0.185c0.186-0.079,0.344-0.265,0.45-0.529c0.08-0.185,0.186-0.45,0.264-0.794
			c0-0.264,0.08-0.608,0.08-0.952c0-0.265,0-0.608-0.08-0.873c-0.078-0.265-0.078-0.529-0.264-0.714
			c-0.079-0.186-0.265-0.344-0.45-0.529c-0.185-0.079-0.449-0.186-0.714-0.186c-0.266,0-0.529,0.08-0.715,0.186
			c-0.185,0.08-0.344,0.264-0.449,0.529c-0.08,0.185-0.186,0.449-0.264,0.714c-0.08,0.265-0.08,0.53-0.08,0.873
			c0,0.344,0,0.714,0.08,0.952c0.078,0.265,0.078,0.529,0.264,0.794c0.079,0.186,0.265,0.344,0.449,0.529
			C165.752,83.625,166.016,83.703,166.281,83.703z"/>
		<path fill="#FFFFFF" d="M172.34,84.232c0,0,0,0.08-0.08,0.08h-0.08h-0.449c-0.079,0-0.079,0-0.079,0v-0.08l-2.116-5.608
			c0,0,0,0,0-0.079l0,0c0,0,0-0.08,0.079-0.08l0.608-0.184c0,0,0,0,0.08,0c0,0,0,0,0.078,0c0,0,0,0,0.08,0c0,0,0,0,0,0.078
			l1.402,4.021c0,0.079,0.08,0.265,0.08,0.449c0,0.186,0.078,0.265,0.078,0.345l0,0c0-0.186,0.08-0.265,0.08-0.345
			c0-0.078,0.078-0.264,0.078-0.344l1.482-4.021v-0.078c0,0,0,0,0.08,0h0.078c0,0,0,0,0.08,0l0.608,0.185
			c0.079,0,0.079,0.079,0.079,0.079l0,0c0,0,0,0,0,0.08L172.34,84.232z"/>
		<path fill="#FFFFFF" d="M179.614,83.703C179.614,83.703,179.614,83.809,179.614,83.703c0,0.08,0,0.08,0,0.08
			s-0.079,0.078-0.185,0.185c-0.08,0.08-0.266,0.186-0.449,0.186c-0.187,0.079-0.345,0.186-0.609,0.186
			c-0.264,0.079-0.45,0.079-0.714,0.079c-0.45,0-0.794-0.079-1.06-0.265c-0.343-0.186-0.607-0.345-0.793-0.608
			c-0.186-0.265-0.344-0.609-0.529-0.952c-0.079-0.344-0.185-0.794-0.185-1.323c0-0.449,0.079-0.873,0.185-1.217
			c0.08-0.344,0.266-0.715,0.449-0.952c0.187-0.265,0.45-0.529,0.795-0.608c0.265-0.186,0.608-0.265,1.058-0.265
			c0.53,0,0.873,0.079,1.217,0.344c0.265,0.186,0.529,0.529,0.715,0.794c0.185,0.344,0.265,0.608,0.265,0.951
			c0.08,0.345,0.08,0.715,0.08,0.873c0,0.08,0,0.187,0,0.187c0,0.079-0.08,0.079-0.08,0.079h-3.492c0,0.185,0,0.449,0.08,0.607
			c0,0.266,0.078,0.45,0.264,0.715c0.079,0.265,0.265,0.45,0.529,0.529c0.264,0.186,0.529,0.266,0.873,0.266
			c0.186,0,0.344,0,0.529-0.08c0.185-0.08,0.344-0.08,0.449-0.186c0.08-0.079,0.265-0.079,0.344-0.185
			c0.08-0.08,0.186-0.08,0.186-0.08s0.079,0,0.079,0.08V83.703z M178.741,80.74c0-0.185,0-0.344-0.079-0.529
			c0-0.184-0.079-0.449-0.186-0.607c-0.079-0.186-0.264-0.344-0.344-0.449c-0.185-0.08-0.344-0.187-0.608-0.187
			s-0.529,0.08-0.714,0.187c-0.186,0.184-0.344,0.264-0.449,0.449c-0.08,0.185-0.187,0.344-0.187,0.607
			c0,0.186-0.079,0.345-0.079,0.529H178.741z"/>
		<path fill="#FFFFFF" d="M185.673,84.153c0,0.079-0.079,0.186-0.186,0.186h-0.608c-0.079,0-0.185-0.08-0.185-0.186v-4.206
			c0-0.08,0-0.265,0-0.45c0-0.185-0.08-0.343-0.187-0.529c-0.078-0.185-0.184-0.264-0.184-0.344v-0.079c0,0,0,0,0.078,0l0.45-0.264
			c0.079,0,0.079-0.08,0.079-0.08c0.08,0,0.08,0.08,0.186,0.08c0.08,0.078,0.08,0.184,0.186,0.264
			c0.078,0.079,0.078,0.265,0.078,0.344s0.08,0.186,0.08,0.266c0.079-0.08,0.186-0.187,0.265-0.266s0.186-0.265,0.345-0.344
			c0.078-0.08,0.264-0.186,0.449-0.264c0.185-0.08,0.344-0.08,0.529-0.08c0.185,0,0.264,0,0.449,0.08
			c0.186,0,0.186,0.078,0.186,0.184c0,0,0,0,0,0.08l0,0l-0.265,0.609c0,0,0,0,0,0.078c0,0,0,0-0.079,0c0,0-0.08,0-0.186-0.078
			c-0.08,0-0.186-0.08-0.264-0.08c-0.08,0-0.187,0-0.345,0.08c-0.079,0.078-0.186,0.184-0.345,0.264
			c-0.078,0.079-0.184,0.186-0.264,0.344c-0.08,0.079-0.186,0.186-0.265,0.266V84.153L185.673,84.153z"/>
		<path fill="#FFFFFF" d="M192.234,83.703C192.234,83.703,192.234,83.809,192.234,83.703c0,0.08,0,0.08,0,0.08
			s-0.08,0.078-0.187,0.185c-0.079,0.08-0.264,0.186-0.45,0.186c-0.184,0.079-0.343,0.186-0.607,0.186
			c-0.266,0.079-0.449,0.079-0.715,0.079c-0.449,0-0.793-0.079-1.137-0.265s-0.608-0.345-0.794-0.608
			c-0.265-0.265-0.45-0.609-0.528-0.952c-0.08-0.344-0.187-0.794-0.187-1.323c0-0.449,0.08-0.873,0.187-1.217
			c0.105-0.344,0.264-0.715,0.528-0.952c0.186-0.265,0.45-0.529,0.794-0.608c0.264-0.186,0.607-0.265,1.058-0.265
			c0.528,0,0.952,0.079,1.218,0.344c0.264,0.186,0.528,0.529,0.714,0.794c0.185,0.344,0.265,0.608,0.265,0.951
			c0.078,0.345,0.078,0.715,0.078,0.873c0,0.08,0,0.187,0,0.187c0,0.079-0.078,0.079-0.078,0.079h-3.52c0,0.185,0,0.449,0.08,0.607
			c0.079,0.266,0.186,0.45,0.265,0.715s0.265,0.45,0.528,0.529c0.266,0.186,0.529,0.266,0.873,0.266c0.186,0,0.345,0,0.529-0.08
			c0.186-0.08,0.344-0.08,0.449-0.186c0.187-0.079,0.266-0.079,0.345-0.185c0.079-0.08,0.186-0.08,0.186-0.08s0,0,0.079,0.08v0.581
			H192.234z M191.361,80.74c0-0.185,0-0.344-0.08-0.529c0-0.184-0.079-0.449-0.186-0.607c-0.079-0.186-0.265-0.344-0.344-0.449
			c-0.186-0.08-0.344-0.187-0.608-0.187s-0.528,0.08-0.714,0.187c-0.186,0.184-0.344,0.264-0.45,0.449
			c-0.079,0.185-0.185,0.344-0.185,0.607c0,0.186-0.08,0.345-0.08,0.529H191.361z"/>
		<path fill="#FFFFFF" d="M197.498,82.302c0,0.185,0,0.344,0,0.45c0,0.105,0,0.264,0,0.264c0,0.079,0,0.186,0.08,0.265
			c0,0.079,0.078,0.186,0.078,0.265c0,0.08,0.08,0.186,0.08,0.264c0.079,0.08,0.079,0.187,0.079,0.187s0,0,0,0.079
			c0,0-0.079,0-0.079,0.079l-0.45,0.265c-0.079,0-0.079,0-0.079,0c-0.079,0-0.079,0-0.186-0.079
			c-0.079-0.08-0.079-0.186-0.186-0.265c0-0.079-0.078-0.186-0.078-0.266c0-0.078-0.08-0.184-0.08-0.184
			c-0.078,0-0.078,0.078-0.185,0.184c-0.08,0.08-0.186,0.187-0.344,0.266c-0.159,0.079-0.345,0.185-0.529,0.265
			c-0.186,0.079-0.45,0.079-0.714,0.079c-0.53,0-0.873-0.186-1.139-0.45c-0.264-0.265-0.449-0.714-0.449-1.322
			c0-0.344,0.079-0.608,0.186-0.873c0.079-0.265,0.264-0.45,0.449-0.608c0.186-0.186,0.45-0.264,0.714-0.344
			c0.265-0.08,0.529-0.186,0.715-0.186c0.265-0.079,0.45-0.079,0.714-0.079c0.186,0,0.344,0,0.529,0v-0.45
			c0-0.344-0.079-0.608-0.265-0.793c-0.185-0.186-0.45-0.265-0.873-0.265c-0.185,0-0.45,0-0.528,0.079
			c-0.186,0.08-0.345,0.08-0.45,0.186c-0.186,0.078-0.265,0.078-0.345,0.185c-0.078,0-0.184,0.08-0.184,0.08s-0.08,0-0.08-0.08
			l-0.186-0.449c0-0.08,0-0.08,0-0.186c0-0.079,0.079-0.079,0.186-0.186c0.08-0.079,0.264-0.079,0.449-0.185
			c0.186-0.08,0.344-0.08,0.609-0.186c0.264,0,0.449-0.079,0.607-0.079c0.344,0,0.609,0.079,0.873,0.079
			c0.266,0.08,0.449,0.186,0.609,0.344c0.185,0.186,0.264,0.344,0.344,0.529s0.08,0.45,0.08,0.715v2.407H197.498z M196.625,81.35
			c-0.186,0-0.344,0-0.609,0c-0.264,0-0.528,0.079-0.793,0.185c-0.264,0.079-0.449,0.186-0.714,0.345
			c-0.186,0.184-0.265,0.449-0.265,0.793c0,0.08,0,0.264,0.079,0.344c0,0.079,0.08,0.265,0.186,0.344
			c0.079,0.08,0.185,0.186,0.265,0.266c0.08,0.078,0.264,0.078,0.449,0.078s0.344,0,0.45-0.078c0.185-0.08,0.265-0.186,0.449-0.266
			c0.08-0.079,0.265-0.185,0.345-0.265c0.079-0.079,0.186-0.185,0.186-0.185V81.35H196.625z"/>
		<path fill="#FFFFFF" d="M201.625,84.074C201.625,84.074,201.625,84.153,201.625,84.074c0,0.079,0,0.185-0.079,0.185
			s-0.186,0.08-0.265,0.08c-0.08,0-0.186,0.079-0.344,0.079c-0.08,0-0.265,0-0.344,0c-0.266,0-0.529-0.079-0.794-0.186
			c-0.186-0.079-0.345-0.265-0.45-0.449c0-0.08-0.078-0.265-0.078-0.344c0-0.186,0-0.345-0.08-0.529c0-0.186,0-0.344,0-0.529
			s0-0.265,0-0.449v-6.217c0-0.08,0-0.08,0.08-0.186l0.607-0.186c0.079,0,0.079,0,0.079,0s0,0,0.08,0c0.079,0,0.079,0,0.079,0.079
			v0.08v6.587c0,0.079,0,0.186,0,0.344c0,0.079,0,0.266,0,0.344c0,0.08,0,0.186,0,0.265c0,0.08,0,0.186,0,0.186
			c0,0.079,0.08,0.185,0.08,0.265c0.078,0.08,0.184,0.186,0.343,0.186c0.186,0,0.265,0,0.45-0.08
			c0.08-0.079,0.186-0.079,0.264-0.079c0.08,0,0.08,0,0.08,0s0,0,0,0.079L201.625,84.074z"/>
		<path fill="#FFFFFF" d="M203.82,84.153c0,0.079-0.078,0.186-0.185,0.186h-0.608c-0.08,0-0.186-0.08-0.186-0.186v-4.999h-0.951
			c-0.08,0-0.187-0.08-0.187-0.187v-0.423c0-0.08,0.08-0.186,0.187-0.186h1.745c0.079,0,0.079,0,0.079,0.08c0,0,0,0.078,0,0.185
			L203.82,84.153z M203.979,76.164c0,0.185-0.079,0.344-0.185,0.529c-0.186,0.185-0.345,0.185-0.529,0.185
			c-0.186,0-0.449-0.079-0.529-0.185c-0.186-0.186-0.186-0.345-0.186-0.529c0-0.186,0.079-0.344,0.186-0.529
			c0.186-0.186,0.344-0.186,0.529-0.186c0.185,0,0.344,0.08,0.529,0.266C203.9,75.82,203.979,76.005,203.979,76.164z"/>
		<path fill="#FFFFFF" d="M208.98,83.889c0,0.079,0,0.079,0,0.079s-0.08,0.08-0.187,0.186c-0.079,0.079-0.264,0.079-0.344,0.186
			c-0.185,0.079-0.343,0.079-0.529,0.185c-0.185,0-0.344,0.08-0.528,0.08c-0.265,0-0.529,0-0.715-0.186
			c-0.186-0.079-0.344-0.186-0.449-0.265c-0.106-0.079-0.186-0.186-0.186-0.345c-0.079-0.078-0.079-0.264-0.079-0.343
			c0-0.08,0-0.265,0-0.344c0-0.08,0-0.265,0-0.345V79.26h-0.952c0,0-0.08,0-0.08-0.08v-0.105v-0.45v-0.079c0,0,0,0,0.08,0h0.952
			v-1.667c0-0.079,0-0.079,0.185-0.185l0.609-0.186l0,0l0,0c0.079,0,0.079,0.08,0.079,0.186v1.931h1.852c0.079,0,0.186,0,0.186,0.08
			l0,0l0,0l-0.186,0.45c0,0.078-0.079,0.078-0.185,0.078h-1.588v3.52c0,0.078,0,0.264,0,0.343c0,0.08,0,0.265,0.079,0.345
			c0,0.079,0.08,0.186,0.187,0.264c0.105,0.08,0.264,0.08,0.449,0.08c0.185,0,0.264,0,0.449-0.08c0.08,0,0.264-0.078,0.344-0.078
			c0.08-0.08,0.186-0.08,0.265-0.08s0.079-0.079,0.186-0.079s0.079,0,0.079,0.079v0.344H208.98z"/>
		<path fill="#FFFFFF" d="M212.762,83.545c-0.078,0.344-0.184,0.714-0.343,1.217s-0.265,0.873-0.53,1.217
			c-0.078,0.266-0.264,0.449-0.528,0.608s-0.528,0.265-0.873,0.265c-0.185,0-0.344,0-0.528-0.079
			c-0.186-0.079-0.345-0.079-0.529-0.186c-0.186-0.079-0.266-0.185-0.344-0.185c-0.08-0.08-0.186-0.08-0.186-0.186c0,0,0,0,0-0.079
			l0.264-0.53l0.08-0.078c0,0,0.079,0,0.186,0.078c0.079,0.08,0.185,0.08,0.264,0.187c0.08,0.079,0.266,0.079,0.344,0.185
			c0.08,0.079,0.266,0.079,0.45,0.079c0.265,0,0.45-0.079,0.528-0.264c0.187-0.187,0.266-0.45,0.345-0.794l0.265-0.794h-0.449
			c-0.08,0-0.08,0-0.08,0s0-0.079-0.08-0.079l-1.93-5.317V78.73v-0.08v-0.105c0,0,0,0,0.078,0l0.529-0.186
			c0.08,0,0.186-0.078,0.186-0.078c0.08,0,0.08,0,0.186,0.078l1.588,4.656c0.078,0.186,0.078,0.344,0.184,0.45
			c0,0.185,0.08,0.265,0.08,0.449l0,0c0-0.185,0.079-0.265,0.079-0.449c0-0.186,0.08-0.265,0.08-0.45l1.217-4.656
			c0-0.078,0.079-0.078,0.185-0.078c0,0,0.08,0,0.186,0.078l0.529,0.186h0.08c0,0,0,0,0,0.079v0.08v0.079L212.762,83.545z"/>
	</g>
</g>
<g>
</g>
<g>
</g>
<g>
</g>
<g>
</g>
<g>
</g>
<g>
</g>
</svg>
