<?xml version="1.0" encoding="utf-8"?>
<!-- Generator: Adobe Illustrator 16.0.0, SVG Export Plug-In . SVG Version: 6.00 Build 0)  -->
<!DOCTYPE svg PUBLIC "-//W3C//DTD SVG 1.1//EN" "http://www.w3.org/Graphics/SVG/1.1/DTD/svg11.dtd">
<svg version="1.1" id="Layer_1" xmlns="http://www.w3.org/2000/svg" xmlns:xlink="http://www.w3.org/1999/xlink" x="0px" y="0px"
	 width="32px" height="32px" viewBox="0 0 32 32" enable-background="new 0 0 32 32" xml:space="preserve">
<g>
	
		<radialGradient id="SVGID_1_" cx="18.7881" cy="24.2188" r="4.1224" fx="17.7155" fy="22.6586" gradientTransform="matrix(1 0 0 1.2066 0 -8.6551)" gradientUnits="userSpaceOnUse">
		<stop  offset="0" style="stop-color:#666767"/>
		<stop  offset="0.416" style="stop-color:#434343"/>
		<stop  offset="0.778" style="stop-color:#2B2B2B"/>
		<stop  offset="1" style="stop-color:#222222"/>
	</radialGradient>
	<path fill="url(#SVGID_1_)" d="M13.605,14.849c3.354,0,3.656,9.128,6.726,9.128c3.068,0,3.122-9.128,6.619-9.128"/>
	<polygon fill="#5C5C5C" points="0.445,15.224 11.451,23.549 31.556,16.538 19.726,8.761 	"/>
	
		<radialGradient id="SVGID_2_" cx="20.1367" cy="84.0195" r="5.4416" fx="20.268" fy="88.5867" gradientTransform="matrix(1 0 0 0.6328 0 -37.8288)" gradientUnits="userSpaceOnUse">
		<stop  offset="0" style="stop-color:#333333"/>
		<stop  offset="0.2182" style="stop-color:#333333"/>
		<stop  offset="0.4499" style="stop-color:#393939"/>
		<stop  offset="0.7463" style="stop-color:#484848"/>
		<stop  offset="1" style="stop-color:#5C5C5C"/>
	</radialGradient>
	<ellipse fill="url(#SVGID_2_)" cx="20.137" cy="15.339" rx="6.532" ry="2.574"/>
	<image overflow="visible" width="14" height="12" xlink:href="D7229A36.png"  transform="matrix(1 0 0 1 3.5 7.5)">
	</image>
	<g>
		<defs>
			<path id="SVGID_3_" d="M20.137,9.032l-5.632,2.986c0,0,0.86,1.936,1.319,3.229c0.461,1.293,1.184,0.658,1.184,0.658
				s4.416-1.593,5.513-0.899c1.035,0.656,2.665-2.574,2.665-2.574L20.137,9.032z"/>
		</defs>
		<clipPath id="SVGID_4_">
			<use xlink:href="#SVGID_3_"  overflow="visible"/>
		</clipPath>
		<g transform="matrix(1 0 0 1 9.536743e-007 4.768372e-007)" clip-path="url(#SVGID_4_)">
			
				<image overflow="visible" width="161" height="87" xlink:href="D7229A3A.png"  transform="matrix(0.107 0 0 0.1634 11.2139 5.9346)">
			</image>
		</g>
	</g>
	<g>
		<defs>
			<path id="SVGID_5_" d="M16.945,17.6c0,0,0.981,0.395,3.676,0.313c1.803-0.055,2.372-0.272,3.685-0.531
				c0.889-0.175,2.802-0.081,2.862-0.218c0.212-0.469,1.5-2.524,1.5-2.524L20.91,9.541l-2.27,0.705L16.945,17.6z"/>
		</defs>
		<clipPath id="SVGID_6_">
			<use xlink:href="#SVGID_5_"  overflow="visible"/>
		</clipPath>
		<g transform="matrix(1 0 0 1 0 4.768372e-007)" clip-path="url(#SVGID_6_)">
			
				<image overflow="visible" width="127" height="119" xlink:href="D7229A3D.png"  transform="matrix(0.107 0 0 0.1634 16.5664 6.5586)">
			</image>
		</g>
	</g>
	<g>
		<defs>
			<ellipse id="SVGID_7_" cx="20.137" cy="15.339" rx="6.532" ry="2.574"/>
		</defs>
		<clipPath id="SVGID_8_">
			<use xlink:href="#SVGID_7_"  overflow="visible"/>
		</clipPath>
		
			<radialGradient id="SVGID_9_" cx="135.7676" cy="96.4189" r="6.3919" fx="135.9218" fy="101.7837" gradientTransform="matrix(0.6609 0 0 0.8217 -72.189 -61.5186)" gradientUnits="userSpaceOnUse">
			<stop  offset="0" style="stop-color:#333333"/>
			<stop  offset="0.81" style="stop-color:#333333;stop-opacity:0.0521"/>
			<stop  offset="0.8545" style="stop-color:#333333;stop-opacity:0"/>
		</radialGradient>
		<path clip-path="url(#SVGID_8_)" fill="url(#SVGID_9_)" d="M22.874,17.709c0,1.848-1.934,3.344-4.317,3.344
			s-6.352-3.146-6.352-4.992c0-1.846,3.968-1.693,6.352-1.693S22.874,15.863,22.874,17.709z"/>
	</g>
</g>
<polyline fill="none" stroke="#FFFFFF" stroke-width="0.5" stroke-linejoin="round" points="7.52,12.852 0.445,15.224 
	11.451,23.549 31.556,16.538 19.726,8.761 13.939,10.7 "/>
</svg>
