<?xml version="1.0" encoding="utf-8"?>
<!-- Generator: Adobe Illustrator 16.0.0, SVG Export Plug-In . SVG Version: 6.00 Build 0)  -->
<!DOCTYPE svg PUBLIC "-//W3C//DTD SVG 1.1//EN" "http://www.w3.org/Graphics/SVG/1.1/DTD/svg11.dtd">
<svg version="1.1" id="Ebene_1" xmlns="http://www.w3.org/2000/svg" xmlns:xlink="http://www.w3.org/1999/xlink" x="0px" y="0px"
	 width="300px" height="100px" viewBox="0 0 300 100" enable-background="new 0 0 300 100" xml:space="preserve">
<g>
	<path fill="#F1F1F4" d="M108.429,57.173c-2.495,0-4.816-0.455-6.927-1.359c-2.126-0.902-3.97-2.147-5.532-3.724
		c-1.569-1.569-2.784-3.434-3.652-5.597c-0.875-2.162-1.315-4.498-1.315-7.014c0-2.545,0.441-4.859,1.315-6.956
		c0.868-2.097,2.083-3.891,3.652-5.365c1.562-1.483,3.406-2.625,5.532-3.435c2.111-0.81,4.432-1.223,6.927-1.223h18.424v6.06
		h-18.424c-1.606,0-3.095,0.275-4.461,0.839c-1.367,0.549-2.545,1.323-3.537,2.307c-0.983,0.991-1.764,2.162-2.313,3.528
		c-0.564,1.367-0.839,2.878-0.839,4.534c0,1.62,0.274,3.132,0.839,4.526c0.549,1.403,1.33,2.604,2.313,3.602
		c0.991,1.004,2.17,1.792,3.537,2.357c1.366,0.577,2.855,0.86,4.461,0.86h18.424v6.059H108.429z"/>
	<path fill="#F1F1F4" d="M162.833,57.173l-9.083-9.631h-12.392v-5.343h13.926c2.269,0,3.983-0.593,5.134-1.786
		c1.156-1.193,1.729-2.914,1.729-5.177c0-2.256-0.602-3.934-1.802-5.025c-1.2-1.099-2.893-1.648-5.061-1.648h-17.629v28.612h-6.211
		V22.501h23.84c2.038,0,3.86,0.297,5.479,0.883c1.613,0.592,2.979,1.431,4.094,2.53c1.121,1.099,1.98,2.43,2.574,3.984
		c0.592,1.555,0.882,3.305,0.882,5.242c0,2.892-0.651,5.321-1.945,7.274c-1.302,1.953-3.116,3.363-5.46,4.223l10.818,10.535H162.833
		z"/>
	<path fill="#F1F1F4" d="M204.294,22.501v19.364c0,1.75-0.218,3.239-0.667,4.483c-0.447,1.235-1.17,2.256-2.168,3.051
		c-1.006,0.796-2.343,1.375-4.027,1.743c-1.604,0.348-3.565,0.527-5.895,0.542c-2.327-0.015-4.295-0.194-5.899-0.542
		c-1.678-0.368-3.021-0.947-4.02-1.743c-1.013-0.795-1.735-1.815-2.178-3.051c-0.44-1.244-0.672-2.734-0.672-4.483V22.501h-6.464
		v19.364c0,2.668,0.361,5.004,1.092,6.985c0.723,1.988,1.857,3.63,3.406,4.932c1.546,1.309,3.542,2.278,6,2.913
		c2.292,0.594,5.033,0.912,8.214,0.947v0.008c0.102,0,0.218,0,0.318-0.008c0.108,0.008,0.218,0.008,0.318,0.008v-0.008
		c3.219-0.035,5.973-0.354,8.272-0.947c2.45-0.635,4.454-1.604,6-2.913c1.549-1.302,2.678-2.943,3.4-4.932
		c0.723-1.981,1.092-4.317,1.092-6.985V22.501H204.294z"/>
	<path fill="#F1F1F4" d="M214.95,57.173v-6.059h25.627c1.678,0,2.964-0.412,3.876-1.237c0.896-0.825,1.352-1.924,1.352-3.29
		c0-1.497-0.455-2.618-1.352-3.363c-0.912-0.744-2.198-1.121-3.876-1.121h-15.199c-1.691,0-3.211-0.246-4.57-0.738
		c-1.373-0.491-2.517-1.179-3.457-2.054c-0.939-0.875-1.662-1.916-2.168-3.123c-0.521-1.208-0.768-2.524-0.768-3.956
		c0-1.403,0.232-2.697,0.71-3.89c0.478-1.186,1.185-2.213,2.125-3.073c0.939-0.86,2.097-1.534,3.486-2.025
		c1.374-0.492,2.95-0.745,4.729-0.745h24.482v6.06h-24.482c-1.447,0-2.562,0.376-3.355,1.121c-0.782,0.745-1.18,1.786-1.18,3.124
		s0.397,2.365,1.208,3.102c0.811,0.731,1.895,1.092,3.282,1.092h15.156c3.65,0,6.42,0.832,8.314,2.48
		c1.896,1.656,2.835,4.165,2.835,7.534c0,1.46-0.232,2.813-0.688,4.058c-0.462,1.235-1.156,2.305-2.074,3.216
		c-0.927,0.904-2.084,1.612-3.479,2.12c-1.402,0.513-3.037,0.766-4.909,0.766H214.95z"/>
	<path fill="#F1F1F4" d="M256.613,57.173V22.501h33.769v6.06h-27.549v22.553h27.593v6.059H256.613z M266.521,42.104V37h22.529v5.105
		H266.521z"/>
</g>
<polygon fill="#F1F1F4" points="16.353,39.472 38.971,21.844 61.596,39.472 38.971,57.102 "/>
<polygon fill="#F1F1F4" points="40.004,21.258 62.623,3.63 85.247,21.258 62.623,38.887 "/>
<polygon fill="#F1F1F4" points="40.004,57.686 62.623,40.058 85.247,57.686 62.623,75.315 "/>
<g id="Ball_2_">
	<defs>
		<path id="SVGID_1_" d="M50.135,39.472c0,6.898,5.596,12.488,12.494,12.488c6.891,0,12.481-5.589,12.481-12.488
			c0-6.898-5.59-12.488-12.481-12.488C55.731,26.984,50.135,32.574,50.135,39.472"/>
	</defs>
	<clipPath id="SVGID_2_">
		<use xlink:href="#SVGID_1_"  overflow="visible"/>
	</clipPath>
	
		<rect x="50.135" y="26.984" clip-path="url(#SVGID_2_)" fill-rule="evenodd" clip-rule="evenodd" fill="#BB4E44" width="24.975" height="24.976"/>
	<radialGradient id="SVGID_3_" cx="58.0522" cy="33.2104" r="4.8953" gradientUnits="userSpaceOnUse">
		<stop  offset="0" style="stop-color:#FFFFFF"/>
		<stop  offset="1" style="stop-color:#BA4F44"/>
	</radialGradient>
	<path clip-path="url(#SVGID_2_)" fill-rule="evenodd" clip-rule="evenodd" fill="url(#SVGID_3_)" d="M53.157,33.218
		c0,2.697,2.184,4.888,4.888,4.888c2.704,0,4.902-2.191,4.902-4.888c0-2.705-2.198-4.903-4.902-4.903
		C55.341,28.315,53.157,30.513,53.157,33.218"/>
</g>
<g>
	<path fill="#BB4E44" d="M118.914,63.954c0.578,0,1.134,0.053,1.677,0.169c0.535,0.108,1.012,0.352,1.424,0.737
		c0.412,0.375,0.746,0.94,0.991,1.67c0.253,0.738,0.376,1.734,0.376,2.992c0,0.992-0.087,1.845-0.246,2.574
		c-0.174,0.73-0.434,1.331-0.811,1.807c-0.369,0.473-0.853,0.834-1.445,1.063c-0.586,0.232-1.302,0.349-2.141,0.349h-1.909
		c-0.13,0-0.202-0.065-0.202-0.202V64.15c0-0.129,0.072-0.196,0.202-0.196H118.914z M119.015,74.15c0.607,0,1.085-0.108,1.46-0.333
		c0.361-0.217,0.658-0.535,0.868-0.947c0.209-0.404,0.354-0.895,0.434-1.482c0.072-0.577,0.116-1.221,0.116-1.929
		c0-0.904-0.065-1.643-0.195-2.213c-0.123-0.573-0.325-1.014-0.571-1.331c-0.253-0.312-0.563-0.521-0.94-0.635
		c-0.369-0.109-0.795-0.169-1.28-0.169h-0.918v9.039H119.015z"/>
	<path fill="#BB4E44" d="M127.229,75.113c0,0.137-0.065,0.202-0.203,0.202h-0.853c-0.131,0-0.203-0.065-0.203-0.202v-6.732h-1.295
		c-0.137,0-0.195-0.064-0.195-0.195v-0.637c0-0.131,0.058-0.194,0.195-0.194h2.336c0.087,0,0.145,0.022,0.174,0.063
		c0.029,0.045,0.043,0.102,0.043,0.182V75.113z M127.533,64.434c0,0.281-0.102,0.513-0.297,0.715
		c-0.196,0.195-0.435,0.296-0.716,0.296c-0.289,0-0.535-0.094-0.723-0.288c-0.196-0.194-0.289-0.435-0.289-0.723
		c0-0.283,0.093-0.528,0.289-0.717c0.188-0.202,0.434-0.296,0.723-0.296c0.282,0,0.521,0.101,0.716,0.296
		C127.431,63.921,127.533,64.158,127.533,64.434z"/>
	<path fill="#BB4E44" d="M135.067,72.112c0,0.229,0.014,0.521,0.021,0.852c0.014,0.341,0.029,0.689,0.043,1.049
		c0.021,0.363,0.029,0.702,0.037,1.035c0.014,0.331,0.021,0.606,0.021,0.831c0,0.376-0.051,0.738-0.138,1.092
		c-0.101,0.355-0.26,0.672-0.484,0.933c-0.225,0.274-0.528,0.492-0.897,0.651s-0.831,0.237-1.396,0.237
		c-0.318,0-0.635-0.027-0.969-0.086c-0.332-0.058-0.629-0.137-0.896-0.225c-0.275-0.101-0.499-0.194-0.666-0.288
		c-0.173-0.104-0.26-0.189-0.26-0.261c0-0.058,0.014-0.131,0.064-0.217l0.268-0.565c0.021-0.063,0.058-0.102,0.116-0.102
		c0.029,0,0.115,0.038,0.245,0.102c0.131,0.073,0.304,0.146,0.506,0.232c0.202,0.078,0.441,0.153,0.694,0.217
		c0.261,0.071,0.535,0.102,0.825,0.102c0.39,0,0.694-0.051,0.926-0.159c0.224-0.102,0.397-0.238,0.521-0.405
		c0.116-0.166,0.195-0.354,0.231-0.578c0.029-0.21,0.043-0.427,0.043-0.651c0-0.42,0-0.781-0.014-1.092
		c-0.021-0.311-0.029-0.513-0.029-0.614c-0.102,0.073-0.217,0.159-0.361,0.268c-0.13,0.102-0.305,0.202-0.492,0.296
		c-0.196,0.087-0.405,0.175-0.637,0.232c-0.231,0.071-0.491,0.102-0.767,0.102c-0.767,0-1.381-0.318-1.851-0.955
		c-0.47-0.637-0.701-1.539-0.701-2.711c0-0.652,0.064-1.243,0.188-1.771c0.123-0.535,0.325-0.985,0.585-1.359
		c0.254-0.376,0.579-0.667,0.969-0.876c0.384-0.202,0.838-0.304,1.374-0.304c0.274,0,0.521,0.03,0.738,0.086
		c0.216,0.065,0.404,0.132,0.571,0.21c0.166,0.073,0.296,0.146,0.412,0.225c0.101,0.079,0.173,0.139,0.231,0.182
		c0.072-0.204,0.159-0.376,0.246-0.507c0.086-0.13,0.159-0.195,0.238-0.195c0.051,0,0.108,0.008,0.152,0.038l0.744,0.46
		c0.037,0.03,0.066,0.067,0.066,0.096c0,0.065-0.029,0.137-0.087,0.21c-0.072,0.072-0.13,0.209-0.202,0.404
		c-0.087,0.21-0.145,0.391-0.173,0.549c-0.037,0.153-0.058,0.378-0.058,0.681V72.112z M133.809,68.663
		c-0.138-0.065-0.347-0.159-0.622-0.275c-0.268-0.116-0.564-0.174-0.897-0.174c-0.637,0-1.099,0.26-1.403,0.78
		c-0.303,0.514-0.462,1.223-0.462,2.127c0,0.882,0.101,1.592,0.304,2.104c0.202,0.521,0.578,0.773,1.142,0.773
		c0.217,0,0.412-0.028,0.607-0.088c0.189-0.056,0.376-0.137,0.535-0.23c0.174-0.088,0.318-0.174,0.449-0.268
		c0.13-0.094,0.252-0.18,0.347-0.247V68.663z"/>
	<path fill="#BB4E44" d="M139.506,75.113c0,0.137-0.072,0.202-0.202,0.202h-0.868c-0.13,0-0.196-0.065-0.196-0.202v-6.732h-1.293
		c-0.13,0-0.203-0.064-0.203-0.195v-0.637c0-0.131,0.072-0.194,0.203-0.194h2.342c0.087,0,0.146,0.022,0.174,0.063
		c0.021,0.045,0.043,0.102,0.043,0.182V75.113z M139.795,64.434c0,0.281-0.094,0.513-0.29,0.715
		c-0.188,0.195-0.433,0.296-0.715,0.296c-0.291,0-0.528-0.094-0.724-0.288c-0.195-0.194-0.296-0.435-0.296-0.723
		c0-0.283,0.101-0.528,0.296-0.717c0.196-0.202,0.434-0.296,0.724-0.296c0.282,0,0.527,0.101,0.715,0.296
		C139.702,63.921,139.795,64.158,139.795,64.434z"/>
	<path fill="#BB4E44" d="M146.578,74.707c0.029,0.088,0.037,0.145,0.037,0.167c0,0.058-0.065,0.123-0.21,0.194
		c-0.13,0.08-0.304,0.153-0.521,0.225c-0.203,0.065-0.44,0.131-0.694,0.18c-0.26,0.045-0.492,0.073-0.709,0.073
		c-0.361,0-0.679-0.059-0.954-0.174c-0.29-0.114-0.493-0.251-0.607-0.405c-0.124-0.137-0.217-0.273-0.283-0.427
		c-0.065-0.144-0.115-0.303-0.145-0.468c-0.021-0.169-0.043-0.333-0.05-0.5c0-0.167,0-0.326,0-0.484v-4.707h-1.243
		c-0.058,0-0.102-0.022-0.102-0.064c-0.014-0.045-0.021-0.088-0.021-0.131v-0.637c0-0.05,0.007-0.101,0.021-0.139
		c0-0.033,0.044-0.056,0.102-0.056h1.243v-2.278c0-0.094,0.058-0.159,0.174-0.195l0.882-0.245c0.022,0,0.043-0.008,0.058-0.008
		c0.014-0.007,0.028-0.015,0.057-0.015c0.058,0,0.087,0.065,0.087,0.188v2.554h2.451c0.124,0,0.182,0.035,0.182,0.116
		c0,0.021,0,0.035-0.008,0.056c-0.007,0.016-0.007,0.038-0.007,0.061l-0.217,0.642c-0.043,0.102-0.115,0.152-0.217,0.152H143.7
		v4.722c0,0.166,0,0.333,0.015,0.49c0.014,0.161,0.043,0.306,0.101,0.435c0.065,0.123,0.159,0.232,0.296,0.304
		c0.13,0.08,0.326,0.115,0.579,0.115c0.196,0,0.384-0.015,0.557-0.063c0.173-0.037,0.332-0.094,0.478-0.153
		c0.137-0.056,0.26-0.116,0.361-0.157c0.101-0.045,0.166-0.073,0.202-0.073c0.072,0,0.116,0.036,0.116,0.102L146.578,74.707z"/>
	<path fill="#BB4E44" d="M152.839,72.698c0,0.258,0,0.476,0,0.637c0.007,0.157,0.015,0.296,0.037,0.404
		c0.021,0.108,0.036,0.217,0.063,0.303c0.03,0.094,0.059,0.195,0.096,0.312c0.035,0.093,0.094,0.209,0.172,0.34
		c0.081,0.122,0.124,0.218,0.124,0.273c0,0.03-0.015,0.059-0.043,0.073c-0.043,0.014-0.073,0.036-0.101,0.059l-0.652,0.396
		c-0.07,0.037-0.108,0.051-0.129,0.051c-0.073,0-0.131-0.051-0.204-0.145c-0.063-0.086-0.13-0.202-0.18-0.318
		c-0.051-0.123-0.108-0.245-0.151-0.376c-0.043-0.129-0.073-0.216-0.102-0.275c-0.059,0.045-0.145,0.131-0.26,0.247
		c-0.131,0.131-0.291,0.253-0.479,0.375c-0.202,0.131-0.441,0.247-0.716,0.341c-0.281,0.101-0.584,0.151-0.932,0.151
		c-0.666,0-1.186-0.202-1.577-0.614c-0.39-0.412-0.578-0.983-0.578-1.729c0-0.462,0.087-0.854,0.246-1.187
		c0.173-0.316,0.383-0.592,0.65-0.802c0.26-0.209,0.564-0.368,0.882-0.484c0.333-0.114,0.658-0.21,0.984-0.268
		c0.324-0.064,0.629-0.094,0.897-0.109c0.28-0.015,0.505-0.021,0.686-0.027v-0.609c0-0.476-0.102-0.844-0.296-1.111
		c-0.202-0.261-0.592-0.392-1.172-0.392c-0.281,0-0.534,0.03-0.766,0.088c-0.23,0.049-0.447,0.116-0.622,0.18
		c-0.173,0.065-0.318,0.124-0.426,0.182c-0.109,0.058-0.181,0.086-0.217,0.086c-0.051,0-0.095-0.028-0.116-0.086l-0.216-0.578
		c-0.037-0.073-0.05-0.146-0.05-0.218c0-0.058,0.086-0.139,0.26-0.225c0.173-0.086,0.383-0.165,0.635-0.245
		c0.26-0.08,0.536-0.137,0.839-0.196c0.304-0.057,0.593-0.079,0.853-0.079c0.478,0,0.882,0.051,1.2,0.167
		c0.333,0.108,0.593,0.268,0.796,0.47c0.189,0.21,0.34,0.455,0.419,0.737c0.101,0.289,0.145,0.6,0.145,0.948V72.698z
		 M151.573,71.354c-0.194,0-0.455,0.006-0.794,0.028c-0.341,0.021-0.688,0.086-1.034,0.202c-0.333,0.108-0.637,0.282-0.883,0.521
		c-0.26,0.237-0.39,0.571-0.39,1.006c0,0.164,0.021,0.325,0.058,0.497c0.057,0.159,0.123,0.318,0.224,0.457
		c0.108,0.137,0.224,0.245,0.383,0.332c0.159,0.08,0.333,0.123,0.55,0.123c0.202,0,0.417-0.043,0.607-0.123
		c0.202-0.087,0.384-0.188,0.548-0.296c0.167-0.124,0.318-0.238,0.442-0.354c0.123-0.115,0.225-0.202,0.288-0.254V71.354z"/>
	<path fill="#BB4E44" d="M158.393,75.012c0.014,0.049,0.029,0.087,0.029,0.114c0,0.051-0.043,0.096-0.131,0.145
		c-0.086,0.053-0.202,0.096-0.339,0.131c-0.139,0.043-0.29,0.071-0.455,0.102c-0.167,0.029-0.333,0.043-0.485,0.043
		c-0.406,0-0.744-0.073-1.005-0.223c-0.269-0.154-0.45-0.341-0.551-0.573c-0.056-0.129-0.101-0.304-0.129-0.521
		c-0.043-0.217-0.058-0.447-0.081-0.672c-0.02-0.238-0.02-0.455-0.02-0.665c0-0.225,0-0.404,0-0.551v-8.603
		c0-0.108,0.035-0.182,0.115-0.197l0.824-0.202c0.072-0.021,0.102-0.027,0.115-0.027c0,0,0.029,0.007,0.087-0.008
		c0.058,0,0.086,0.028,0.101,0.08c0.008,0.043,0.016,0.094,0.016,0.137v8.858c0,0.129,0,0.28,0,0.447c0,0.151,0,0.306,0.008,0.447
		c0.005,0.161,0.005,0.29,0.02,0.414c0,0.122,0.008,0.202,0.016,0.253c0.015,0.086,0.07,0.202,0.159,0.348
		c0.101,0.157,0.268,0.23,0.505,0.23c0.218,0,0.414-0.035,0.564-0.108c0.146-0.073,0.246-0.108,0.305-0.108s0.086,0.007,0.086,0.028
		c0.008,0.029,0.016,0.045,0.028,0.072L158.393,75.012z"/>
	<path fill="#BB4E44" d="M168.306,75.113c0,0.129-0.065,0.202-0.194,0.202h-4.383c-0.13,0-0.203-0.073-0.203-0.202v-0.694
		c0-0.13,0.073-0.204,0.203-0.204h1.513v-9.167h-1.513c-0.13,0-0.203-0.065-0.203-0.202v-0.688c0-0.137,0.073-0.204,0.203-0.204
		h4.383c0.129,0,0.194,0.067,0.194,0.204v0.688c0,0.137-0.065,0.202-0.194,0.202h-1.511v9.167h1.511
		c0.129,0,0.194,0.074,0.194,0.204V75.113z"/>
	<path fill="#BB4E44" d="M170.251,69.429c0-0.188-0.015-0.382-0.029-0.586c0-0.194-0.028-0.39-0.071-0.578
		c-0.043-0.188-0.094-0.318-0.146-0.39c-0.049-0.073-0.071-0.131-0.071-0.174c0-0.036,0.03-0.073,0.086-0.114l0.71-0.399
		c0.014-0.015,0.043-0.027,0.071-0.043c0.03-0.015,0.058-0.022,0.073-0.022c0.072,0,0.131,0.045,0.174,0.131
		c0.058,0.087,0.102,0.188,0.137,0.296c0.035,0.116,0.073,0.232,0.102,0.334c0.022,0.101,0.037,0.172,0.037,0.202
		c0.114-0.102,0.258-0.202,0.425-0.318s0.354-0.218,0.558-0.312c0.195-0.093,0.405-0.166,0.607-0.239
		c0.202-0.063,0.391-0.094,0.563-0.094c0.55,0,0.939,0.079,1.2,0.247c0.26,0.157,0.449,0.404,0.565,0.73
		c0.114-0.088,0.268-0.189,0.433-0.304c0.174-0.108,0.362-0.217,0.55-0.318c0.188-0.095,0.39-0.182,0.6-0.247
		c0.209-0.07,0.406-0.108,0.601-0.108c0.463,0,0.824,0.073,1.084,0.225c0.261,0.145,0.463,0.341,0.594,0.571
		c0.129,0.23,0.217,0.5,0.245,0.796c0.038,0.296,0.059,0.599,0.059,0.895v5.505c0,0.137-0.073,0.202-0.202,0.202h-0.861
		c-0.137,0-0.202-0.065-0.202-0.202V69.56c0-0.174-0.008-0.348-0.036-0.507c-0.03-0.159-0.086-0.304-0.159-0.433
		c-0.073-0.124-0.188-0.225-0.325-0.298s-0.326-0.108-0.542-0.108c-0.391,0-0.724,0.088-0.984,0.253
		c-0.261,0.166-0.47,0.311-0.637,0.427v6.22c0,0.137-0.071,0.202-0.202,0.202h-0.867c-0.131,0-0.188-0.065-0.188-0.202V69.56
		c0-0.174-0.014-0.348-0.043-0.507c-0.028-0.159-0.087-0.304-0.159-0.433c-0.079-0.124-0.188-0.225-0.332-0.298
		c-0.144-0.073-0.333-0.108-0.55-0.108c-0.188,0-0.361,0.03-0.534,0.073c-0.161,0.058-0.313,0.116-0.441,0.187
		c-0.139,0.073-0.253,0.146-0.369,0.232c-0.108,0.086-0.194,0.151-0.26,0.21v6.197c0,0.137-0.073,0.202-0.202,0.202h-0.861
		c-0.137,0-0.195-0.065-0.195-0.202V69.429z"/>
	<path fill="#BB4E44" d="M186.701,72.698c0,0.258,0,0.476,0.008,0.637c0.007,0.157,0.013,0.296,0.028,0.404
		c0.022,0.108,0.043,0.217,0.072,0.303c0.028,0.094,0.057,0.195,0.087,0.312c0.035,0.093,0.093,0.209,0.174,0.34
		c0.086,0.122,0.129,0.218,0.129,0.273c0,0.03-0.015,0.059-0.058,0.073c-0.028,0.014-0.059,0.036-0.094,0.059l-0.643,0.396
		c-0.073,0.037-0.116,0.051-0.139,0.051c-0.065,0-0.131-0.051-0.194-0.145c-0.073-0.086-0.131-0.202-0.189-0.318
		c-0.051-0.123-0.101-0.245-0.144-0.376c-0.043-0.129-0.087-0.216-0.102-0.275c-0.058,0.045-0.145,0.131-0.26,0.247
		c-0.13,0.131-0.291,0.253-0.485,0.375c-0.194,0.131-0.439,0.247-0.715,0.341c-0.275,0.101-0.594,0.151-0.925,0.151
		c-0.667,0-1.188-0.202-1.577-0.614c-0.391-0.412-0.578-0.983-0.578-1.729c0-0.462,0.078-0.854,0.245-1.187
		c0.167-0.316,0.376-0.592,0.651-0.802c0.261-0.209,0.557-0.368,0.882-0.484c0.332-0.114,0.649-0.21,0.983-0.268
		c0.318-0.064,0.621-0.094,0.896-0.109c0.275-0.015,0.506-0.021,0.68-0.027v-0.609c0-0.476-0.101-0.844-0.288-1.111
		c-0.204-0.261-0.608-0.392-1.188-0.392c-0.275,0-0.535,0.03-0.766,0.088c-0.232,0.049-0.435,0.116-0.608,0.18
		c-0.172,0.065-0.318,0.124-0.435,0.182c-0.106,0.058-0.18,0.086-0.215,0.086c-0.051,0-0.088-0.028-0.116-0.086l-0.218-0.578
		c-0.027-0.073-0.043-0.146-0.043-0.218c0-0.058,0.087-0.139,0.261-0.225c0.159-0.086,0.376-0.165,0.637-0.245
		c0.245-0.08,0.533-0.137,0.839-0.196c0.303-0.057,0.586-0.079,0.852-0.079c0.472,0,0.876,0.051,1.202,0.167
		c0.324,0.108,0.584,0.268,0.786,0.47c0.196,0.21,0.341,0.455,0.427,0.737c0.094,0.289,0.139,0.6,0.139,0.948V72.698z
		 M185.436,71.354c-0.188,0-0.449,0.006-0.796,0.028c-0.339,0.021-0.68,0.086-1.025,0.202c-0.341,0.108-0.637,0.282-0.897,0.521
		c-0.253,0.237-0.376,0.571-0.376,1.006c0,0.164,0.015,0.325,0.065,0.497c0.035,0.159,0.116,0.318,0.21,0.457
		c0.101,0.137,0.229,0.245,0.389,0.332c0.154,0.08,0.334,0.123,0.543,0.123c0.21,0,0.412-0.043,0.614-0.123
		c0.202-0.087,0.377-0.188,0.551-0.296c0.159-0.124,0.311-0.238,0.435-0.354c0.129-0.115,0.23-0.202,0.288-0.254V71.354z"/>
	<path fill="#BB4E44" d="M194.69,72.112c0,0.229,0,0.521,0.015,0.852c0.016,0.341,0.028,0.689,0.043,1.049
		c0.016,0.363,0.03,0.702,0.044,1.035c0.015,0.331,0.015,0.606,0.015,0.831c0,0.376-0.043,0.738-0.145,1.092
		c-0.088,0.355-0.247,0.672-0.478,0.933c-0.225,0.274-0.521,0.492-0.896,0.651c-0.361,0.159-0.839,0.237-1.402,0.237
		c-0.306,0-0.622-0.027-0.955-0.086c-0.333-0.058-0.637-0.137-0.912-0.225c-0.272-0.101-0.49-0.194-0.664-0.288
		c-0.167-0.104-0.261-0.189-0.261-0.261c0-0.058,0.03-0.131,0.073-0.217l0.268-0.565c0.021-0.063,0.063-0.102,0.122-0.102
		c0.03,0,0.116,0.038,0.245,0.102c0.131,0.073,0.306,0.146,0.508,0.232c0.202,0.078,0.433,0.153,0.694,0.217
		c0.26,0.071,0.533,0.102,0.824,0.102c0.376,0,0.692-0.051,0.917-0.159c0.225-0.102,0.398-0.238,0.521-0.405
		c0.123-0.166,0.196-0.354,0.232-0.578c0.035-0.21,0.05-0.427,0.05-0.651c0-0.42-0.007-0.781-0.027-1.092
		c-0.016-0.311-0.022-0.513-0.022-0.614c-0.094,0.073-0.21,0.159-0.354,0.268c-0.139,0.102-0.305,0.202-0.5,0.296
		c-0.194,0.087-0.404,0.175-0.644,0.232c-0.23,0.071-0.476,0.102-0.759,0.102c-0.758,0-1.38-0.318-1.844-0.955
		c-0.478-0.637-0.708-1.539-0.708-2.711c0-0.652,0.059-1.243,0.188-1.771c0.131-0.535,0.326-0.985,0.578-1.359
		c0.261-0.376,0.594-0.667,0.976-0.876c0.384-0.202,0.847-0.304,1.375-0.304c0.282,0,0.527,0.03,0.745,0.086
		c0.209,0.065,0.404,0.132,0.563,0.21c0.174,0.073,0.305,0.146,0.406,0.225c0.108,0.079,0.187,0.139,0.245,0.182
		c0.073-0.204,0.159-0.376,0.237-0.507c0.081-0.13,0.167-0.195,0.24-0.195c0.058,0,0.108,0.008,0.151,0.038l0.743,0.46
		c0.045,0.03,0.073,0.067,0.073,0.096c0,0.065-0.035,0.137-0.094,0.21c-0.065,0.072-0.129,0.209-0.21,0.404
		c-0.072,0.21-0.129,0.391-0.166,0.549c-0.036,0.153-0.051,0.378-0.051,0.681V72.112z M193.433,68.663
		c-0.145-0.065-0.347-0.159-0.622-0.275s-0.571-0.174-0.904-0.174c-0.629,0-1.092,0.26-1.41,0.78
		c-0.288,0.514-0.447,1.223-0.447,2.127c0,0.882,0.102,1.592,0.304,2.104c0.194,0.521,0.578,0.773,1.142,0.773
		c0.202,0,0.404-0.028,0.606-0.088c0.189-0.056,0.363-0.137,0.536-0.23c0.159-0.088,0.318-0.174,0.449-0.268
		c0.129-0.094,0.245-0.18,0.347-0.247V68.663z"/>
	<path fill="#BB4E44" d="M199.116,75.113c0,0.137-0.058,0.202-0.196,0.202h-0.859c-0.131,0-0.202-0.065-0.202-0.202v-6.732h-1.288
		c-0.137,0-0.202-0.064-0.202-0.195v-0.637c0-0.131,0.065-0.194,0.202-0.194h2.329c0.086,0,0.151,0.022,0.18,0.063
		c0.022,0.045,0.037,0.102,0.037,0.182V75.113z M199.42,64.434c0,0.281-0.102,0.513-0.29,0.715
		c-0.195,0.195-0.433,0.296-0.723,0.296c-0.289,0-0.536-0.094-0.723-0.288c-0.188-0.194-0.289-0.435-0.289-0.723
		c0-0.283,0.102-0.528,0.289-0.717c0.187-0.202,0.434-0.296,0.723-0.296c0.29,0,0.527,0.101,0.723,0.296
		C199.318,63.921,199.42,64.158,199.42,64.434z"/>
	<path fill="#BB4E44" d="M207.648,75.113c0,0.137-0.073,0.202-0.202,0.202h-0.868c-0.13,0-0.195-0.065-0.195-0.202V69.56
		c0-0.174-0.015-0.348-0.037-0.507c-0.028-0.159-0.086-0.304-0.157-0.433c-0.081-0.124-0.189-0.225-0.333-0.298
		c-0.145-0.073-0.334-0.108-0.551-0.108c-0.266,0-0.506,0.035-0.738,0.108c-0.229,0.073-0.432,0.167-0.606,0.268
		c-0.172,0.102-0.333,0.218-0.478,0.334c-0.144,0.115-0.274,0.217-0.368,0.303v5.887c0,0.137-0.064,0.202-0.195,0.202h-0.868
		c-0.13,0-0.195-0.065-0.195-0.202v-5.72c0-0.275-0.007-0.478-0.007-0.608c-0.014-0.122-0.028-0.253-0.057-0.367
		c-0.073-0.263-0.131-0.427-0.189-0.508c-0.05-0.086-0.078-0.144-0.078-0.194c0-0.028,0.028-0.065,0.078-0.116l0.753-0.412
		c0.021-0.015,0.043-0.027,0.065-0.043c0.021-0.015,0.036-0.022,0.063-0.022c0.073,0,0.146,0.051,0.203,0.151
		c0.065,0.109,0.115,0.232,0.158,0.361c0.044,0.132,0.089,0.263,0.116,0.377c0.03,0.129,0.036,0.202,0.036,0.237
		c0.139-0.108,0.29-0.229,0.472-0.352c0.172-0.131,0.374-0.255,0.592-0.371c0.217-0.116,0.462-0.209,0.723-0.288
		c0.275-0.078,0.565-0.116,0.884-0.116c0.462,0,0.823,0.073,1.084,0.225c0.26,0.145,0.462,0.341,0.594,0.571
		c0.129,0.23,0.215,0.5,0.245,0.796c0.035,0.296,0.058,0.599,0.058,0.895V75.113z"/>
	<path fill="#BB4E44" d="M215.4,72.112c0,0.229,0.015,0.521,0.021,0.852c0.007,0.341,0.022,0.689,0.043,1.049
		c0.015,0.363,0.037,0.702,0.037,1.035c0.015,0.331,0.021,0.606,0.021,0.831c0,0.376-0.051,0.738-0.137,1.092
		c-0.101,0.355-0.26,0.672-0.484,0.933c-0.223,0.274-0.528,0.492-0.897,0.651c-0.368,0.159-0.839,0.237-1.402,0.237
		c-0.311,0-0.629-0.027-0.96-0.086c-0.333-0.058-0.637-0.137-0.904-0.225c-0.268-0.101-0.492-0.194-0.659-0.288
		c-0.172-0.104-0.261-0.189-0.261-0.261c0-0.058,0.016-0.131,0.066-0.217l0.268-0.565c0.022-0.063,0.058-0.102,0.116-0.102
		c0.027,0,0.115,0.038,0.245,0.102c0.129,0.073,0.303,0.146,0.505,0.232c0.204,0.078,0.435,0.153,0.695,0.217
		c0.26,0.071,0.535,0.102,0.823,0.102c0.392,0,0.695-0.051,0.92-0.159c0.223-0.102,0.396-0.238,0.527-0.405
		c0.114-0.166,0.195-0.354,0.23-0.578c0.03-0.21,0.045-0.427,0.045-0.651c0-0.42,0-0.781-0.022-1.092
		c-0.015-0.311-0.022-0.513-0.022-0.614c-0.101,0.073-0.217,0.159-0.361,0.268c-0.129,0.102-0.304,0.202-0.49,0.296
		c-0.197,0.087-0.406,0.175-0.651,0.232c-0.226,0.071-0.478,0.102-0.751,0.102c-0.768,0-1.382-0.318-1.852-0.955
		c-0.471-0.637-0.71-1.539-0.71-2.711c0-0.652,0.065-1.243,0.194-1.771c0.124-0.535,0.326-0.985,0.581-1.359
		c0.258-0.376,0.584-0.667,0.976-0.876c0.384-0.202,0.838-0.304,1.374-0.304c0.273,0,0.521,0.03,0.735,0.086
		c0.218,0.065,0.406,0.132,0.565,0.21c0.173,0.073,0.304,0.146,0.412,0.225c0.108,0.079,0.18,0.139,0.238,0.182
		c0.072-0.204,0.159-0.376,0.247-0.507c0.078-0.13,0.159-0.195,0.237-0.195c0.051,0,0.102,0.008,0.151,0.038l0.738,0.46
		c0.043,0.03,0.073,0.067,0.073,0.096c0,0.065-0.03,0.137-0.089,0.21c-0.07,0.072-0.129,0.209-0.215,0.404
		c-0.073,0.21-0.131,0.391-0.161,0.549c-0.035,0.153-0.056,0.378-0.056,0.681V72.112z M214.142,68.663
		c-0.146-0.065-0.348-0.159-0.621-0.275c-0.268-0.116-0.565-0.174-0.897-0.174c-0.637,0-1.099,0.26-1.402,0.78
		c-0.305,0.514-0.464,1.223-0.464,2.127c0,0.882,0.101,1.592,0.303,2.104c0.197,0.521,0.581,0.773,1.145,0.773
		c0.215,0,0.412-0.028,0.606-0.088c0.189-0.056,0.376-0.137,0.535-0.23c0.175-0.088,0.318-0.174,0.448-0.268
		c0.131-0.094,0.254-0.18,0.348-0.247V68.663z"/>
	<path fill="#BB4E44" d="M228.538,75.083c0,0.102-0.015,0.159-0.051,0.188c-0.03,0.03-0.086,0.045-0.182,0.045h-5.111
		c-0.131,0-0.196-0.065-0.196-0.202V64.15c0-0.129,0.065-0.196,0.196-0.196h5.162c0.086,0,0.146,0.008,0.174,0.03
		s0.043,0.051,0.043,0.065c0,0.028-0.007,0.058-0.015,0.101c-0.013,0.044-0.028,0.087-0.035,0.114l-0.23,0.697
		c-0.022,0.078-0.053,0.129-0.081,0.137c-0.035,0.005-0.101,0.013-0.174,0.013h-3.681v3.681h3.254c0.088,0,0.139,0.016,0.174,0.045
		c0.022,0.028,0.051,0.087,0.051,0.173v0.729c0,0.087-0.028,0.152-0.051,0.175c-0.035,0.028-0.086,0.043-0.174,0.043h-3.254v4.193
		h3.984c0.131,0,0.196,0.064,0.196,0.181V75.083z"/>
	<path fill="#BB4E44" d="M235.769,78.367c0,0.108-0.037,0.173-0.108,0.202l-0.839,0.195c-0.065,0.022-0.101,0.027-0.101,0.027
		c-0.008-0.005-0.043-0.005-0.088,0c-0.057,0-0.102-0.021-0.109-0.072c-0.007-0.049-0.013-0.094-0.013-0.137v-4.005
		c-0.108,0.093-0.217,0.187-0.354,0.296c-0.146,0.108-0.291,0.217-0.465,0.311c-0.159,0.101-0.347,0.188-0.549,0.26
		c-0.202,0.065-0.427,0.102-0.659,0.102c-0.482,0-0.902-0.114-1.25-0.347c-0.347-0.232-0.635-0.551-0.845-0.947
		c-0.217-0.396-0.371-0.861-0.472-1.396c-0.102-0.526-0.151-1.09-0.151-1.691c0-0.507,0.065-1.005,0.182-1.488
		c0.123-0.486,0.303-0.919,0.556-1.303c0.253-0.382,0.571-0.686,0.947-0.91c0.392-0.232,0.847-0.341,1.367-0.341
		c0.253,0,0.484,0.03,0.702,0.086c0.217,0.065,0.411,0.139,0.584,0.218c0.167,0.08,0.318,0.174,0.441,0.268
		c0.116,0.096,0.218,0.167,0.296,0.225c0.038-0.065,0.065-0.145,0.116-0.23c0.043-0.096,0.081-0.182,0.124-0.262
		c0.043-0.079,0.071-0.152,0.129-0.218c0.043-0.056,0.088-0.086,0.131-0.086c0.014,0,0.073,0.022,0.159,0.065l0.586,0.332
		c0.086,0.06,0.13,0.101,0.13,0.146c0,0.057-0.036,0.159-0.109,0.304c-0.071,0.144-0.129,0.288-0.187,0.449
		c-0.059,0.157-0.094,0.318-0.116,0.461c-0.03,0.146-0.036,0.325-0.036,0.55V78.367z M234.511,68.865
		c-0.167-0.101-0.384-0.232-0.665-0.398c-0.275-0.165-0.601-0.253-0.962-0.253s-0.659,0.088-0.882,0.268
		c-0.232,0.182-0.406,0.412-0.536,0.702c-0.131,0.288-0.217,0.606-0.26,0.968c-0.058,0.356-0.08,0.702-0.08,1.049
		c0,0.396,0.022,0.796,0.058,1.18c0.037,0.39,0.116,0.737,0.232,1.041c0.123,0.311,0.28,0.556,0.49,0.753
		c0.21,0.187,0.485,0.272,0.811,0.272c0.377,0,0.702-0.101,0.998-0.318c0.281-0.217,0.557-0.434,0.796-0.644V68.865z"/>
	<path fill="#BB4E44" d="M242.472,67.549c0-0.108,0.035-0.172,0.114-0.194l0.826-0.194c0.07-0.03,0.101-0.038,0.113-0.03
		c0,0.007,0.03,0,0.089-0.008c0.058,0,0.086,0.022,0.101,0.073s0.015,0.094,0.015,0.137v5.909c0,0.187,0.014,0.366,0.028,0.554
		c0.016,0.182,0.065,0.363,0.159,0.536c0.051,0.101,0.116,0.217,0.195,0.348c0.08,0.137,0.115,0.232,0.115,0.288
		c0,0.03-0.021,0.059-0.05,0.073c-0.028,0.014-0.065,0.036-0.102,0.059l-0.644,0.396c-0.064,0.037-0.109,0.051-0.137,0.051
		c-0.059,0-0.124-0.036-0.182-0.102c-0.051-0.065-0.109-0.144-0.152-0.245c-0.058-0.094-0.101-0.194-0.144-0.303
		c-0.043-0.116-0.086-0.218-0.131-0.318c-0.13,0.101-0.267,0.202-0.433,0.318c-0.167,0.108-0.347,0.209-0.551,0.303
		c-0.202,0.102-0.404,0.18-0.635,0.245c-0.225,0.065-0.457,0.102-0.689,0.102c-0.563,0-1.003-0.073-1.321-0.223
		c-0.333-0.154-0.563-0.341-0.723-0.573c-0.159-0.23-0.261-0.498-0.311-0.794c-0.053-0.303-0.066-0.601-0.066-0.896v-5.511
		c0-0.108,0.044-0.172,0.116-0.194l0.832-0.194c0.065-0.03,0.101-0.038,0.108-0.03c0,0.007,0.028,0,0.086-0.008
		c0.058,0,0.086,0.022,0.102,0.073c0.015,0.051,0.015,0.094,0.015,0.137v5.771c0,0.172,0.021,0.348,0.058,0.505
		c0.043,0.159,0.116,0.304,0.218,0.435c0.101,0.132,0.245,0.232,0.419,0.304c0.18,0.065,0.404,0.101,0.665,0.101
		c0.137,0,0.288-0.027,0.478-0.086c0.18-0.058,0.361-0.139,0.548-0.225c0.175-0.086,0.349-0.18,0.508-0.273
		c0.165-0.096,0.281-0.182,0.361-0.262V67.549z"/>
	<path fill="#BB4E44" d="M248.025,75.113c0,0.137-0.066,0.202-0.197,0.202h-0.859c-0.137,0-0.202-0.065-0.202-0.202v-6.732h-1.296
		c-0.129,0-0.194-0.064-0.194-0.195v-0.637c0-0.131,0.065-0.194,0.194-0.194h2.337c0.094,0,0.151,0.022,0.18,0.063
		c0.022,0.045,0.038,0.102,0.038,0.182V75.113z M248.328,64.434c0,0.281-0.101,0.513-0.29,0.715
		c-0.202,0.195-0.433,0.296-0.723,0.296c-0.288,0-0.535-0.094-0.723-0.288c-0.202-0.194-0.288-0.435-0.288-0.723
		c0-0.283,0.086-0.528,0.288-0.717c0.188-0.202,0.435-0.296,0.723-0.296c0.29,0,0.521,0.101,0.723,0.296
		C248.228,63.921,248.328,64.158,248.328,64.434z"/>
	<path fill="#BB4E44" d="M250.814,69.972c0-0.318-0.013-0.601-0.027-0.846c-0.016-0.247-0.073-0.514-0.175-0.81
		c-0.028-0.103-0.086-0.217-0.174-0.341c-0.086-0.123-0.122-0.217-0.122-0.274c0-0.036,0.008-0.059,0.051-0.073
		c0.028-0.021,0.059-0.036,0.102-0.057l0.644-0.398c0.063-0.036,0.108-0.051,0.137-0.051c0.051,0,0.108,0.038,0.174,0.108
		c0.071,0.079,0.13,0.175,0.188,0.275c0.051,0.102,0.102,0.21,0.145,0.318c0.029,0.106,0.058,0.195,0.088,0.261
		c0.101-0.065,0.217-0.154,0.369-0.261c0.151-0.108,0.323-0.217,0.527-0.318c0.202-0.101,0.433-0.196,0.693-0.275
		c0.252-0.07,0.535-0.108,0.846-0.108c0.442,0,0.826,0.108,1.149,0.341c0.334,0.225,0.594,0.528,0.812,0.91
		c0.202,0.384,0.361,0.816,0.47,1.303c0.108,0.483,0.159,0.981,0.159,1.488c0,0.602-0.059,1.165-0.167,1.691
		c-0.116,0.535-0.275,1-0.5,1.396c-0.223,0.396-0.513,0.715-0.859,0.947c-0.361,0.232-0.766,0.347-1.243,0.347
		c-0.507,0-0.927-0.059-1.229-0.174c-0.318-0.114-0.579-0.246-0.796-0.383v3.378c0,0.114-0.043,0.173-0.114,0.202l-0.832,0.195
		c-0.065,0.022-0.103,0.027-0.108,0.022c0,0-0.037,0-0.088,0.005c-0.058,0-0.086-0.021-0.101-0.072
		c-0.016-0.049-0.016-0.094-0.016-0.137V69.972z M252.073,73.898c0.26,0.151,0.535,0.275,0.825,0.391
		c0.273,0.107,0.629,0.157,1.049,0.157c0.354,0,0.635-0.086,0.845-0.272c0.209-0.197,0.368-0.442,0.477-0.753
		c0.102-0.304,0.167-0.651,0.195-1.041c0.022-0.384,0.037-0.783,0.037-1.18c0-0.347-0.015-0.692-0.037-1.049
		c-0.028-0.361-0.094-0.68-0.195-0.968c-0.093-0.29-0.245-0.521-0.434-0.702c-0.195-0.18-0.461-0.268-0.787-0.268
		c-0.427,0-0.817,0.096-1.149,0.282c-0.348,0.195-0.616,0.369-0.825,0.536V73.898z"/>
	<path fill="#BB4E44" d="M258.871,69.429c0-0.188,0-0.382-0.015-0.586c-0.015-0.194-0.043-0.39-0.086-0.578
		c-0.045-0.188-0.088-0.318-0.139-0.39c-0.051-0.073-0.079-0.131-0.079-0.174c0-0.036,0.028-0.073,0.086-0.114l0.716-0.399
		c0.022-0.015,0.051-0.027,0.073-0.043c0.027-0.015,0.05-0.022,0.078-0.022c0.059,0,0.116,0.045,0.174,0.131
		c0.044,0.087,0.087,0.188,0.132,0.296c0.035,0.116,0.071,0.232,0.101,0.334c0.028,0.101,0.043,0.172,0.043,0.202
		c0.102-0.102,0.245-0.202,0.42-0.318c0.174-0.116,0.354-0.218,0.548-0.312c0.203-0.093,0.405-0.166,0.609-0.239
		c0.202-0.063,0.389-0.094,0.578-0.094c0.535,0,0.939,0.079,1.2,0.247c0.26,0.157,0.447,0.404,0.549,0.73
		c0.131-0.088,0.275-0.189,0.449-0.304c0.165-0.108,0.347-0.217,0.549-0.318c0.188-0.095,0.391-0.182,0.593-0.247
		c0.202-0.07,0.405-0.108,0.607-0.108c0.464,0,0.823,0.073,1.086,0.225c0.258,0.145,0.447,0.341,0.576,0.571
		c0.146,0.23,0.232,0.5,0.255,0.796c0.035,0.296,0.051,0.599,0.051,0.895v5.505c0,0.137-0.073,0.202-0.204,0.202h-0.853
		c-0.137,0-0.202-0.065-0.202-0.202V69.56c0-0.174-0.015-0.348-0.043-0.507c-0.03-0.159-0.088-0.304-0.161-0.433
		c-0.071-0.124-0.187-0.225-0.316-0.298c-0.144-0.073-0.318-0.108-0.543-0.108c-0.396,0-0.73,0.088-0.982,0.253
		c-0.268,0.166-0.471,0.311-0.645,0.427v6.22c0,0.137-0.058,0.202-0.194,0.202h-0.861c-0.137,0-0.202-0.065-0.202-0.202V69.56
		c0-0.174-0.016-0.348-0.043-0.507c-0.028-0.159-0.073-0.304-0.159-0.433c-0.073-0.124-0.188-0.225-0.334-0.298
		c-0.137-0.073-0.318-0.108-0.541-0.108c-0.188,0-0.368,0.03-0.527,0.073c-0.175,0.058-0.318,0.116-0.449,0.187
		c-0.13,0.073-0.261,0.146-0.369,0.232s-0.195,0.151-0.266,0.21v6.197c0,0.137-0.061,0.202-0.204,0.202h-0.853
		c-0.131,0-0.202-0.065-0.202-0.202V69.429z"/>
	<path fill="#BB4E44" d="M275.719,74.563c0.015,0.03,0.027,0.043,0.043,0.071c0,0.015,0.015,0.045,0.015,0.06
		c0,0.044-0.088,0.116-0.247,0.21c-0.159,0.086-0.361,0.188-0.606,0.281c-0.261,0.101-0.536,0.188-0.839,0.26
		c-0.311,0.065-0.622,0.102-0.933,0.102c-0.556,0-1.049-0.102-1.476-0.311c-0.427-0.202-0.796-0.493-1.092-0.859
		c-0.303-0.371-0.535-0.812-0.694-1.324c-0.159-0.515-0.237-1.092-0.237-1.713c0-0.614,0.078-1.172,0.223-1.692
		c0.144-0.506,0.361-0.955,0.651-1.33c0.275-0.378,0.622-0.666,1.026-0.884c0.406-0.209,0.868-0.311,1.389-0.311
		c0.695,0,1.236,0.146,1.635,0.442c0.404,0.288,0.7,0.649,0.91,1.076c0.202,0.427,0.333,0.874,0.384,1.354
		c0.058,0.469,0.078,0.888,0.078,1.243c0,0.116,0,0.21-0.013,0.273c-0.022,0.059-0.073,0.086-0.159,0.086h-4.765
		c0,0.263,0.035,0.551,0.093,0.877c0.059,0.325,0.173,0.644,0.339,0.932c0.167,0.296,0.399,0.551,0.695,0.745
		c0.296,0.195,0.687,0.296,1.164,0.296c0.261,0,0.514-0.035,0.753-0.101c0.238-0.071,0.447-0.151,0.629-0.232
		c0.18-0.086,0.332-0.157,0.44-0.237c0.131-0.073,0.188-0.109,0.217-0.109c0.016,0,0.059,0.036,0.102,0.104L275.719,74.563z
		 M274.589,70.571c0-0.21-0.013-0.455-0.058-0.738c-0.051-0.28-0.129-0.548-0.26-0.794c-0.13-0.254-0.304-0.464-0.521-0.636
		c-0.23-0.167-0.521-0.255-0.882-0.255c-0.39,0-0.693,0.088-0.94,0.27c-0.232,0.172-0.419,0.39-0.563,0.635
		c-0.137,0.245-0.232,0.515-0.275,0.788c-0.058,0.275-0.078,0.521-0.078,0.73H274.589z"/>
	<path fill="#BB4E44" d="M283.7,75.113c0,0.137-0.071,0.202-0.202,0.202h-0.853c-0.146,0-0.204-0.065-0.204-0.202V69.56
		c0-0.174-0.013-0.348-0.043-0.507c-0.027-0.159-0.086-0.304-0.159-0.433c-0.086-0.124-0.187-0.225-0.331-0.298
		c-0.146-0.073-0.326-0.108-0.551-0.108c-0.26,0-0.505,0.035-0.737,0.108c-0.225,0.073-0.427,0.167-0.606,0.268
		c-0.175,0.102-0.334,0.218-0.478,0.334c-0.145,0.115-0.261,0.217-0.361,0.303v5.887c0,0.137-0.073,0.202-0.202,0.202h-0.869
		c-0.129,0-0.188-0.065-0.188-0.202v-5.72c0-0.275-0.007-0.478-0.015-0.608c0-0.122-0.028-0.253-0.058-0.367
		c-0.065-0.263-0.13-0.427-0.18-0.508c-0.059-0.086-0.081-0.144-0.081-0.194c0-0.028,0.022-0.065,0.081-0.116l0.743-0.412
		c0.029-0.015,0.045-0.027,0.073-0.043c0.015-0.015,0.043-0.022,0.058-0.022c0.078,0,0.145,0.051,0.21,0.151
		c0.065,0.109,0.108,0.232,0.159,0.361c0.043,0.132,0.078,0.263,0.108,0.377c0.028,0.129,0.043,0.202,0.043,0.237
		c0.131-0.108,0.281-0.229,0.463-0.352c0.174-0.131,0.376-0.255,0.593-0.371c0.218-0.116,0.463-0.209,0.73-0.288
		c0.268-0.078,0.556-0.116,0.882-0.116c0.455,0,0.831,0.073,1.092,0.225c0.26,0.145,0.449,0.341,0.578,0.571
		c0.145,0.23,0.218,0.5,0.261,0.796c0.029,0.296,0.043,0.599,0.043,0.895V75.113z"/>
	<path fill="#BB4E44" d="M290.397,74.707c0.028,0.088,0.028,0.145,0.028,0.167c0,0.058-0.059,0.123-0.203,0.194
		c-0.144,0.08-0.317,0.153-0.521,0.225c-0.204,0.065-0.434,0.131-0.694,0.18c-0.26,0.045-0.492,0.073-0.723,0.073
		c-0.348,0-0.666-0.059-0.939-0.174c-0.291-0.114-0.493-0.251-0.608-0.405c-0.13-0.137-0.216-0.273-0.289-0.427
		c-0.058-0.144-0.101-0.303-0.131-0.468c-0.028-0.169-0.058-0.333-0.058-0.5s0-0.326,0-0.484v-4.707h-1.243
		c-0.059,0-0.087-0.022-0.116-0.064c0-0.045,0-0.088,0-0.131v-0.637c0-0.05,0-0.101,0-0.139c0.029-0.033,0.058-0.056,0.116-0.056
		h1.243v-2.278c0-0.094,0.058-0.159,0.174-0.195l0.882-0.245c0.015,0,0.045-0.008,0.058-0.008c0.016-0.007,0.03-0.015,0.059-0.015
		c0.058,0,0.086,0.065,0.086,0.188v2.554h2.445c0.129,0,0.188,0.035,0.188,0.116c0,0.021,0,0.035-0.016,0.056
		c0,0.016,0,0.038,0,0.061l-0.217,0.642c-0.041,0.102-0.114,0.152-0.216,0.152h-2.185v4.722c0,0.166,0,0.333,0.015,0.49
		c0,0.161,0.043,0.306,0.102,0.435c0.073,0.123,0.159,0.232,0.29,0.304c0.129,0.08,0.331,0.115,0.592,0.115
		c0.189,0,0.376-0.015,0.551-0.063c0.174-0.037,0.318-0.094,0.462-0.153c0.145-0.056,0.275-0.116,0.377-0.157
		c0.101-0.045,0.159-0.073,0.202-0.073c0.072,0,0.115,0.036,0.115,0.102L290.397,74.707z"/>
</g>
<g>
	<path fill="#BB4E44" d="M118.841,63.948c0.578,0,1.127,0.059,1.663,0.167c0.542,0.108,1.012,0.354,1.432,0.737
		c0.419,0.383,0.745,0.94,0.998,1.678c0.247,0.73,0.369,1.727,0.369,2.992c0,0.985-0.08,1.845-0.247,2.567
		c-0.166,0.737-0.441,1.338-0.802,1.809c-0.375,0.478-0.853,0.839-1.446,1.062c-0.592,0.239-1.309,0.355-2.154,0.355h-1.902
		c-0.138,0-0.195-0.073-0.195-0.202v-10.97c0-0.129,0.057-0.195,0.195-0.195H118.841z M118.942,74.15
		c0.593,0,1.084-0.108,1.445-0.333c0.376-0.225,0.666-0.535,0.875-0.947c0.209-0.404,0.355-0.902,0.434-1.482
		c0.08-0.585,0.116-1.221,0.116-1.929c0-0.912-0.065-1.649-0.194-2.221c-0.124-0.571-0.318-1.013-0.572-1.323
		c-0.253-0.318-0.557-0.528-0.932-0.635c-0.376-0.116-0.803-0.177-1.288-0.177h-0.911v9.047H118.942z"/>
	<path fill="#BB4E44" d="M127.156,75.113c0,0.129-0.072,0.202-0.202,0.202h-0.861c-0.137,0-0.202-0.073-0.202-0.202v-6.74h-1.294
		c-0.131,0-0.195-0.057-0.195-0.195v-0.629c0-0.131,0.064-0.202,0.195-0.202h2.342c0.087,0,0.145,0.022,0.174,0.071
		c0.028,0.045,0.043,0.102,0.043,0.174V75.113z M127.452,64.426c0,0.281-0.094,0.521-0.296,0.716
		c-0.188,0.194-0.427,0.296-0.716,0.296c-0.289,0-0.528-0.094-0.723-0.289c-0.196-0.187-0.289-0.434-0.289-0.723
		c0-0.29,0.093-0.521,0.289-0.723c0.195-0.188,0.434-0.29,0.723-0.29c0.29,0,0.528,0.102,0.716,0.304
		C127.358,63.913,127.452,64.15,127.452,64.426z"/>
	<path fill="#BB4E44" d="M135.001,72.112c0,0.229,0.008,0.513,0.022,0.852c0.007,0.341,0.015,0.689,0.036,1.049
		c0.008,0.355,0.029,0.702,0.043,1.035c0.007,0.331,0.015,0.606,0.015,0.831c0,0.376-0.05,0.738-0.138,1.092
		c-0.101,0.355-0.26,0.666-0.484,0.939c-0.225,0.268-0.528,0.485-0.904,0.645c-0.361,0.159-0.831,0.245-1.388,0.245
		c-0.318,0-0.637-0.035-0.969-0.094c-0.333-0.058-0.637-0.137-0.904-0.225c-0.268-0.101-0.492-0.188-0.673-0.288
		c-0.159-0.104-0.245-0.189-0.245-0.261c0-0.058,0.021-0.131,0.064-0.217l0.268-0.565c0.014-0.063,0.058-0.094,0.115-0.094
		c0.03,0,0.116,0.03,0.246,0.094c0.13,0.073,0.304,0.146,0.506,0.232c0.203,0.078,0.434,0.153,0.694,0.217
		c0.26,0.071,0.536,0.102,0.825,0.102c0.391,0,0.694-0.051,0.925-0.159c0.217-0.102,0.398-0.238,0.521-0.405
		c0.115-0.166,0.195-0.361,0.231-0.57c0.029-0.218,0.043-0.435,0.043-0.659c0-0.42,0-0.786-0.029-1.098
		c-0.007-0.305-0.014-0.507-0.014-0.608c-0.101,0.073-0.217,0.159-0.361,0.268c-0.131,0.102-0.304,0.195-0.493,0.296
		c-0.194,0.087-0.404,0.167-0.635,0.232c-0.239,0.071-0.492,0.102-0.767,0.102c-0.767,0-1.381-0.318-1.851-0.955
		c-0.471-0.637-0.708-1.539-0.708-2.711c0-0.659,0.064-1.251,0.187-1.779c0.131-0.527,0.318-0.984,0.579-1.359
		c0.26-0.376,0.593-0.666,0.977-0.876c0.39-0.202,0.846-0.304,1.381-0.304c0.275,0,0.521,0.03,0.737,0.087
		c0.217,0.067,0.405,0.131,0.571,0.209c0.167,0.081,0.297,0.154,0.398,0.225c0.116,0.081,0.195,0.139,0.246,0.182
		c0.08-0.202,0.159-0.376,0.245-0.507c0.081-0.129,0.159-0.195,0.239-0.195c0.052,0,0.109,0.016,0.153,0.038l0.744,0.462
		c0.044,0.036,0.065,0.065,0.065,0.102c0,0.065-0.029,0.137-0.087,0.21c-0.065,0.065-0.13,0.202-0.217,0.404
		c-0.072,0.21-0.13,0.391-0.159,0.543c-0.029,0.159-0.051,0.384-0.051,0.687V72.112z M133.735,68.663
		c-0.144-0.065-0.346-0.159-0.622-0.275c-0.274-0.116-0.563-0.174-0.896-0.174c-0.636,0-1.099,0.253-1.402,0.773
		c-0.304,0.513-0.463,1.223-0.463,2.127c0,0.889,0.102,1.599,0.304,2.111c0.195,0.514,0.579,0.773,1.142,0.773
		c0.209,0,0.413-0.028,0.607-0.088c0.188-0.063,0.376-0.137,0.536-0.23c0.173-0.088,0.318-0.174,0.448-0.275
		c0.13-0.093,0.253-0.172,0.346-0.239V68.663z"/>
	<path fill="#BB4E44" d="M139.434,75.113c0,0.129-0.072,0.202-0.202,0.202h-0.854c-0.144,0-0.202-0.073-0.202-0.202v-6.74h-1.301
		c-0.13,0-0.203-0.057-0.203-0.195v-0.629c0-0.131,0.073-0.202,0.203-0.202h2.342c0.087,0,0.145,0.022,0.173,0.071
		c0.03,0.045,0.044,0.102,0.044,0.174V75.113z M139.73,64.426c0,0.281-0.094,0.521-0.296,0.716
		c-0.188,0.194-0.434,0.296-0.716,0.296c-0.289,0-0.528-0.094-0.715-0.289c-0.203-0.187-0.297-0.434-0.297-0.723
		c0-0.29,0.094-0.521,0.297-0.723c0.188-0.188,0.426-0.29,0.715-0.29c0.283,0,0.528,0.102,0.716,0.304
		C139.636,63.913,139.73,64.15,139.73,64.426z"/>
	<path fill="#BB4E44" d="M146.52,74.707c0.015,0.088,0.029,0.145,0.029,0.167c0,0.05-0.072,0.123-0.202,0.194
		c-0.146,0.08-0.318,0.153-0.536,0.225c-0.202,0.065-0.434,0.131-0.686,0.18c-0.254,0.045-0.499,0.073-0.716,0.073
		c-0.355,0-0.673-0.059-0.955-0.174c-0.282-0.114-0.491-0.251-0.607-0.412c-0.115-0.13-0.216-0.267-0.282-0.42
		c-0.064-0.149-0.108-0.311-0.138-0.468c-0.028-0.174-0.043-0.333-0.057-0.5c0-0.167,0-0.326,0-0.484v-4.715h-1.244
		c-0.058,0-0.086-0.015-0.101-0.057c-0.014-0.052-0.014-0.095-0.014-0.139v-0.629c0-0.058,0-0.101,0.014-0.144
		c0.015-0.036,0.043-0.059,0.101-0.059h1.244v-2.271c0-0.102,0.057-0.167,0.181-0.202l0.875-0.246c0.029,0,0.044,0,0.058-0.007
		c0.022-0.008,0.044-0.008,0.065-0.008c0.05,0,0.08,0.058,0.08,0.18v2.554h2.458c0.115,0,0.181,0.043,0.181,0.116
		c0,0.028-0.008,0.043-0.008,0.057c-0.007,0.022-0.007,0.037-0.007,0.06l-0.216,0.649c-0.044,0.102-0.123,0.145-0.225,0.145h-2.183
		v4.729c0,0.166,0.006,0.333,0.014,0.49c0.015,0.161,0.043,0.306,0.116,0.435c0.058,0.123,0.152,0.232,0.29,0.304
		c0.13,0.08,0.325,0.115,0.579,0.115c0.202,0,0.383-0.022,0.556-0.063c0.167-0.045,0.326-0.094,0.471-0.153
		c0.144-0.063,0.26-0.116,0.361-0.157c0.101-0.053,0.173-0.073,0.202-0.073c0.08,0,0.116,0.036,0.116,0.102L146.52,74.707z"/>
	<path fill="#BB4E44" d="M152.768,72.69c0,0.266,0.008,0.476,0.016,0.645c0,0.157,0.012,0.288,0.027,0.404
		c0.016,0.108,0.043,0.209,0.073,0.303c0.028,0.094,0.056,0.195,0.086,0.312c0.028,0.093,0.086,0.209,0.173,0.34
		c0.088,0.122,0.131,0.218,0.131,0.267c0,0.037-0.023,0.065-0.059,0.08c-0.027,0.014-0.058,0.036-0.094,0.059l-0.656,0.396
		c-0.059,0.037-0.102,0.051-0.132,0.051c-0.058,0-0.131-0.051-0.187-0.145c-0.074-0.086-0.132-0.202-0.189-0.318
		c-0.059-0.123-0.102-0.245-0.145-0.376c-0.051-0.129-0.086-0.216-0.102-0.275c-0.058,0.045-0.144,0.131-0.268,0.247
		c-0.123,0.131-0.282,0.245-0.484,0.375c-0.202,0.131-0.435,0.239-0.708,0.341c-0.275,0.101-0.593,0.151-0.933,0.151
		c-0.658,0-1.185-0.202-1.576-0.614c-0.384-0.412-0.586-0.983-0.586-1.729c0-0.462,0.087-0.861,0.26-1.187
		c0.159-0.324,0.376-0.592,0.644-0.802c0.267-0.209,0.556-0.376,0.889-0.49c0.325-0.116,0.65-0.204,0.976-0.27
		c0.326-0.057,0.629-0.094,0.904-0.102c0.276-0.015,0.506-0.027,0.68-0.035v-0.602c0-0.476-0.102-0.852-0.297-1.111
		c-0.203-0.261-0.593-0.392-1.179-0.392c-0.275,0-0.536,0.03-0.767,0.08c-0.231,0.057-0.433,0.116-0.607,0.18
		c-0.18,0.073-0.325,0.132-0.434,0.189c-0.115,0.051-0.188,0.079-0.217,0.079c-0.057,0-0.101-0.028-0.115-0.079l-0.217-0.578
		c-0.029-0.079-0.043-0.154-0.043-0.218c0-0.065,0.08-0.146,0.245-0.232c0.174-0.086,0.392-0.164,0.644-0.245
		c0.253-0.072,0.535-0.137,0.839-0.188c0.303-0.057,0.586-0.087,0.852-0.087c0.478,0,0.876,0.059,1.21,0.167
		c0.316,0.108,0.584,0.268,0.778,0.47c0.204,0.21,0.349,0.457,0.435,0.738c0.088,0.288,0.131,0.606,0.131,0.955V72.69z
		 M151.51,71.346c-0.189,0-0.449,0.014-0.796,0.036c-0.347,0.021-0.688,0.086-1.026,0.194c-0.348,0.116-0.644,0.29-0.896,0.528
		c-0.261,0.23-0.392,0.571-0.392,0.998c0,0.172,0.029,0.333,0.073,0.498c0.043,0.166,0.115,0.318,0.217,0.457
		c0.102,0.144,0.224,0.252,0.383,0.333c0.151,0.086,0.34,0.129,0.542,0.129c0.217,0,0.419-0.043,0.622-0.129
		c0.194-0.081,0.376-0.182,0.543-0.298c0.165-0.116,0.311-0.23,0.439-0.347c0.131-0.115,0.225-0.202,0.291-0.254V71.346z"/>
	<path fill="#BB4E44" d="M158.328,75.012c0.021,0.042,0.035,0.087,0.035,0.114c0,0.043-0.043,0.096-0.131,0.145
		c-0.101,0.053-0.201,0.096-0.346,0.131c-0.137,0.043-0.289,0.071-0.455,0.102c-0.167,0.029-0.326,0.043-0.478,0.043
		c-0.412,0-0.745-0.079-1.021-0.223c-0.26-0.154-0.447-0.341-0.541-0.573c-0.051-0.137-0.108-0.311-0.139-0.521
		c-0.027-0.217-0.059-0.447-0.071-0.678c-0.015-0.232-0.022-0.449-0.022-0.659c0-0.225,0-0.404,0-0.551v-8.61
		c0-0.108,0.035-0.174,0.116-0.202l0.831-0.196c0.059-0.021,0.102-0.028,0.102-0.021c0.015,0,0.043,0,0.086-0.016
		c0.065,0,0.102,0.028,0.102,0.081c0.015,0.05,0.021,0.094,0.021,0.137v8.865c0,0.129,0,0.273,0,0.447
		c0,0.151,0.008,0.306,0.008,0.447c0,0.153,0.016,0.29,0.023,0.414c0.005,0.122,0.005,0.202,0.02,0.245
		c0.016,0.086,0.059,0.21,0.16,0.355c0.093,0.15,0.26,0.23,0.505,0.23c0.218,0,0.406-0.043,0.558-0.116
		c0.152-0.072,0.253-0.101,0.311-0.101c0.051,0,0.079,0.007,0.087,0.028c0,0.022,0.015,0.045,0.03,0.072L158.328,75.012z"/>
	<path fill="#BB4E44" d="M168.255,75.113c0,0.129-0.072,0.202-0.202,0.202h-4.381c-0.131,0-0.202-0.073-0.202-0.202v-0.694
		c0-0.13,0.071-0.204,0.202-0.204h1.504V65.04h-1.504c-0.131,0-0.202-0.065-0.202-0.202V64.15c0-0.136,0.071-0.202,0.202-0.202
		h4.381c0.13,0,0.202,0.066,0.202,0.202v0.688c0,0.137-0.072,0.202-0.202,0.202h-1.511v9.175h1.511c0.13,0,0.202,0.074,0.202,0.204
		V75.113z"/>
	<path fill="#BB4E44" d="M170.193,69.422c0-0.188-0.008-0.383-0.016-0.579c-0.013-0.202-0.043-0.396-0.086-0.586
		c-0.043-0.188-0.088-0.318-0.144-0.39c-0.045-0.071-0.073-0.131-0.073-0.174c0-0.028,0.028-0.073,0.088-0.114l0.708-0.398
		c0.027-0.008,0.043-0.021,0.071-0.036c0.029-0.022,0.058-0.03,0.08-0.03c0.065,0,0.123,0.046,0.174,0.132s0.094,0.187,0.137,0.303
		c0.028,0.116,0.073,0.225,0.094,0.326c0.03,0.108,0.043,0.172,0.043,0.21c0.108-0.102,0.255-0.21,0.427-0.318
		c0.159-0.116,0.349-0.225,0.551-0.318c0.202-0.086,0.404-0.167,0.606-0.232c0.202-0.071,0.392-0.102,0.571-0.102
		c0.543,0,0.947,0.087,1.208,0.248c0.26,0.157,0.434,0.404,0.55,0.737c0.116-0.088,0.273-0.189,0.44-0.304
		c0.166-0.116,0.354-0.217,0.55-0.318c0.195-0.101,0.397-0.188,0.6-0.254c0.204-0.071,0.406-0.109,0.608-0.109
		c0.463,0,0.824,0.073,1.084,0.226c0.261,0.151,0.455,0.34,0.586,0.57c0.137,0.23,0.21,0.5,0.253,0.796
		c0.028,0.304,0.043,0.6,0.043,0.897v5.51c0,0.129-0.063,0.202-0.194,0.202h-0.861c-0.145,0-0.202-0.073-0.202-0.202V69.56
		c0-0.182-0.016-0.348-0.043-0.507c-0.028-0.159-0.081-0.304-0.159-0.433c-0.071-0.131-0.18-0.232-0.318-0.304
		c-0.145-0.072-0.318-0.103-0.543-0.103c-0.397,0-0.73,0.08-0.989,0.245c-0.262,0.169-0.479,0.311-0.636,0.435v6.22
		c0,0.129-0.065,0.202-0.202,0.202h-0.854c-0.139,0-0.202-0.073-0.202-0.202V69.56c0-0.182-0.015-0.348-0.045-0.507
		c-0.028-0.159-0.078-0.304-0.157-0.433c-0.073-0.131-0.188-0.232-0.333-0.304c-0.146-0.072-0.326-0.103-0.551-0.103
		c-0.18,0-0.361,0.022-0.521,0.073c-0.172,0.05-0.318,0.108-0.447,0.18c-0.137,0.073-0.26,0.153-0.369,0.239
		c-0.108,0.079-0.194,0.145-0.268,0.202v6.205c0,0.129-0.065,0.202-0.202,0.202h-0.867c-0.131,0-0.188-0.073-0.188-0.202V69.422z"/>
	<path fill="#BB4E44" d="M186.65,72.69c0,0.266,0,0.476,0.006,0.645c0.008,0.157,0.022,0.288,0.037,0.404
		c0.016,0.108,0.036,0.209,0.066,0.303c0.027,0.094,0.058,0.195,0.093,0.312c0.028,0.093,0.087,0.209,0.175,0.34
		c0.086,0.122,0.121,0.218,0.121,0.267c0,0.037-0.021,0.065-0.05,0.08c-0.028,0.014-0.071,0.036-0.102,0.059l-0.644,0.396
		c-0.064,0.037-0.109,0.051-0.137,0.051c-0.073,0-0.13-0.051-0.203-0.145c-0.058-0.086-0.115-0.202-0.174-0.318
		c-0.058-0.123-0.101-0.245-0.159-0.376c-0.035-0.129-0.073-0.216-0.094-0.275c-0.05,0.045-0.137,0.131-0.268,0.247
		c-0.116,0.131-0.275,0.245-0.478,0.375c-0.202,0.131-0.433,0.239-0.707,0.341c-0.283,0.101-0.594,0.151-0.94,0.151
		c-0.659,0-1.187-0.202-1.569-0.614c-0.384-0.412-0.586-0.983-0.586-1.729c0-0.462,0.087-0.861,0.253-1.187
		c0.167-0.324,0.384-0.592,0.645-0.802c0.268-0.209,0.563-0.376,0.896-0.49c0.318-0.116,0.649-0.204,0.968-0.27
		c0.334-0.057,0.637-0.094,0.912-0.102c0.273-0.015,0.498-0.027,0.68-0.035v-0.602c0-0.476-0.102-0.852-0.306-1.111
		c-0.194-0.261-0.584-0.392-1.17-0.392c-0.275,0-0.535,0.03-0.766,0.08c-0.232,0.057-0.435,0.116-0.616,0.18
		c-0.18,0.073-0.323,0.132-0.425,0.189c-0.116,0.051-0.189,0.079-0.217,0.079c-0.059,0-0.102-0.028-0.116-0.079l-0.218-0.578
		c-0.035-0.079-0.05-0.154-0.05-0.218c0-0.065,0.078-0.146,0.252-0.232c0.175-0.086,0.39-0.164,0.645-0.245
		c0.253-0.072,0.528-0.137,0.831-0.188c0.304-0.057,0.592-0.087,0.861-0.087c0.468,0,0.874,0.059,1.192,0.167
		c0.332,0.108,0.592,0.268,0.796,0.47c0.202,0.21,0.347,0.457,0.433,0.738c0.088,0.288,0.131,0.606,0.131,0.955V72.69z
		 M185.393,71.346c-0.189,0-0.463,0.014-0.796,0.036c-0.348,0.021-0.687,0.086-1.026,0.194c-0.348,0.116-0.651,0.29-0.896,0.528
		c-0.26,0.23-0.392,0.571-0.392,0.998c0,0.172,0.03,0.333,0.073,0.498c0.043,0.166,0.114,0.318,0.216,0.457
		c0.103,0.144,0.231,0.252,0.378,0.333c0.157,0.086,0.339,0.129,0.549,0.129c0.217,0,0.419-0.043,0.614-0.129
		c0.196-0.081,0.384-0.182,0.543-0.298c0.174-0.116,0.317-0.23,0.447-0.347c0.131-0.115,0.217-0.202,0.29-0.254V71.346z"/>
	<path fill="#BB4E44" d="M194.647,72.112c0,0.229,0.008,0.513,0.015,0.852c0.016,0.341,0.028,0.689,0.043,1.049
		c0.016,0.355,0.028,0.702,0.043,1.035c0.016,0.331,0.016,0.606,0.016,0.831c0,0.376-0.043,0.738-0.146,1.092
		c-0.086,0.355-0.245,0.666-0.476,0.939c-0.231,0.268-0.521,0.485-0.896,0.645c-0.369,0.159-0.839,0.245-1.402,0.245
		c-0.306,0-0.629-0.035-0.963-0.094c-0.333-0.058-0.629-0.137-0.904-0.225c-0.268-0.101-0.492-0.188-0.664-0.288
		c-0.175-0.104-0.253-0.189-0.253-0.261c0-0.058,0.021-0.131,0.065-0.217l0.259-0.565c0.029-0.063,0.065-0.094,0.123-0.094
		c0.037,0,0.108,0.03,0.253,0.094c0.131,0.073,0.298,0.146,0.508,0.232c0.202,0.078,0.432,0.153,0.692,0.217
		c0.262,0.071,0.535,0.102,0.825,0.102c0.383,0,0.68-0.051,0.91-0.159c0.232-0.102,0.406-0.238,0.521-0.405
		c0.131-0.166,0.204-0.361,0.232-0.57c0.043-0.218,0.058-0.435,0.058-0.659c0-0.42-0.015-0.786-0.029-1.098
		c-0.014-0.305-0.028-0.507-0.028-0.608c-0.094,0.073-0.217,0.159-0.347,0.268c-0.146,0.102-0.305,0.195-0.507,0.296
		c-0.188,0.087-0.404,0.167-0.637,0.232c-0.23,0.071-0.483,0.102-0.766,0.102c-0.753,0-1.375-0.318-1.845-0.955
		s-0.702-1.539-0.702-2.711c0-0.659,0.061-1.251,0.189-1.779c0.129-0.527,0.318-0.984,0.578-1.359
		c0.261-0.376,0.586-0.666,0.97-0.876c0.39-0.202,0.853-0.304,1.38-0.304c0.275,0,0.528,0.03,0.738,0.087
		c0.217,0.067,0.404,0.131,0.571,0.209c0.166,0.081,0.303,0.154,0.404,0.225c0.101,0.081,0.188,0.139,0.247,0.182
		c0.071-0.202,0.159-0.376,0.237-0.507c0.081-0.129,0.167-0.195,0.238-0.195c0.06,0,0.103,0.016,0.153,0.038l0.745,0.462
		c0.041,0.036,0.071,0.065,0.071,0.102c0,0.065-0.03,0.137-0.094,0.21c-0.065,0.065-0.131,0.202-0.21,0.404
		c-0.072,0.21-0.131,0.391-0.174,0.543c-0.028,0.159-0.043,0.384-0.043,0.687V72.112z M193.389,68.663
		c-0.144-0.065-0.354-0.159-0.621-0.275c-0.275-0.116-0.578-0.174-0.904-0.174c-0.629,0-1.099,0.253-1.402,0.773
		c-0.311,0.513-0.455,1.223-0.455,2.127c0,0.889,0.102,1.599,0.296,2.111c0.194,0.514,0.578,0.773,1.149,0.773
		c0.202,0,0.404-0.028,0.608-0.088c0.188-0.063,0.359-0.137,0.534-0.23c0.159-0.088,0.311-0.174,0.449-0.275
		c0.129-0.093,0.245-0.172,0.346-0.239V68.663z"/>
	<path fill="#BB4E44" d="M199.079,75.113c0,0.129-0.065,0.202-0.194,0.202h-0.867c-0.131,0-0.202-0.073-0.202-0.202v-6.74h-1.288
		c-0.137,0-0.202-0.057-0.202-0.195v-0.629c0-0.131,0.065-0.202,0.202-0.202h2.329c0.094,0,0.157,0.022,0.18,0.071
		c0.03,0.045,0.043,0.102,0.043,0.174V75.113z M199.377,64.426c0,0.281-0.102,0.521-0.29,0.716
		c-0.202,0.194-0.433,0.296-0.723,0.296c-0.291,0-0.528-0.094-0.723-0.289c-0.189-0.187-0.291-0.434-0.291-0.723
		c0-0.29,0.102-0.521,0.291-0.723c0.194-0.188,0.432-0.29,0.723-0.29c0.29,0,0.521,0.102,0.723,0.304
		C199.275,63.913,199.377,64.15,199.377,64.426z"/>
	<path fill="#BB4E44" d="M207.604,75.113c0,0.129-0.063,0.202-0.202,0.202h-0.859c-0.131,0-0.196-0.073-0.196-0.202V69.56
		c0-0.182-0.014-0.348-0.043-0.507c-0.028-0.159-0.079-0.304-0.159-0.433c-0.071-0.131-0.188-0.232-0.332-0.304
		c-0.144-0.072-0.325-0.103-0.55-0.103c-0.261,0-0.506,0.03-0.738,0.103c-0.229,0.071-0.425,0.165-0.606,0.273
		c-0.174,0.102-0.333,0.21-0.478,0.326c-0.144,0.123-0.26,0.225-0.361,0.311v5.887c0,0.129-0.073,0.202-0.202,0.202h-0.861
		c-0.137,0-0.209-0.073-0.209-0.202v-5.728c0-0.275,0-0.478,0-0.601c0-0.13-0.021-0.253-0.059-0.375
		c-0.063-0.255-0.129-0.427-0.18-0.507c-0.058-0.079-0.08-0.145-0.08-0.188c0-0.036,0.022-0.073,0.08-0.124l0.745-0.411
		c0.014-0.008,0.043-0.021,0.063-0.036c0.022-0.022,0.045-0.03,0.065-0.03c0.081,0,0.145,0.053,0.21,0.159
		c0.065,0.104,0.116,0.226,0.159,0.354c0.043,0.139,0.079,0.262,0.108,0.384c0.03,0.123,0.043,0.202,0.043,0.232
		c0.132-0.109,0.291-0.232,0.463-0.354c0.174-0.131,0.376-0.255,0.594-0.37c0.225-0.114,0.462-0.21,0.729-0.289
		c0.269-0.07,0.557-0.116,0.89-0.116c0.455,0,0.824,0.073,1.084,0.226c0.253,0.151,0.449,0.34,0.586,0.57
		c0.132,0.23,0.21,0.5,0.247,0.796c0.036,0.304,0.049,0.6,0.049,0.897V75.113z"/>
	<path fill="#BB4E44" d="M215.37,72.112c0,0.229,0,0.513,0.015,0.852c0.016,0.341,0.03,0.689,0.043,1.049
		c0.016,0.355,0.028,0.702,0.043,1.035c0.008,0.331,0.016,0.606,0.016,0.831c0,0.376-0.043,0.738-0.145,1.092
		c-0.088,0.355-0.245,0.666-0.478,0.939c-0.231,0.268-0.527,0.485-0.896,0.645s-0.839,0.245-1.402,0.245
		c-0.304,0-0.637-0.035-0.97-0.094c-0.326-0.058-0.622-0.137-0.896-0.225c-0.274-0.101-0.492-0.188-0.666-0.288
		c-0.173-0.104-0.253-0.189-0.253-0.261c0-0.058,0.021-0.131,0.065-0.217l0.261-0.565c0.027-0.063,0.065-0.094,0.114-0.094
		c0.045,0,0.115,0.03,0.254,0.094c0.137,0.073,0.296,0.146,0.498,0.232c0.218,0.078,0.449,0.153,0.71,0.217
		c0.26,0.071,0.526,0.102,0.816,0.102c0.384,0,0.694-0.051,0.919-0.159c0.23-0.102,0.404-0.238,0.521-0.405
		c0.129-0.166,0.202-0.361,0.238-0.57c0.035-0.218,0.05-0.435,0.05-0.659c0-0.42-0.015-0.786-0.027-1.098
		c-0.016-0.305-0.022-0.507-0.022-0.608c-0.102,0.073-0.225,0.159-0.354,0.268c-0.146,0.102-0.303,0.195-0.5,0.296
		c-0.194,0.087-0.411,0.167-0.642,0.232c-0.232,0.071-0.492,0.102-0.768,0.102c-0.759,0-1.375-0.318-1.843-0.955
		c-0.472-0.637-0.702-1.539-0.702-2.711c0-0.659,0.059-1.251,0.188-1.779c0.123-0.527,0.318-0.984,0.578-1.359
		c0.261-0.376,0.579-0.666,0.97-0.876c0.39-0.202,0.854-0.304,1.38-0.304c0.275,0,0.521,0.03,0.738,0.087
		c0.21,0.067,0.406,0.131,0.571,0.209c0.166,0.081,0.303,0.154,0.406,0.225c0.106,0.081,0.187,0.139,0.245,0.182
		c0.071-0.202,0.159-0.376,0.232-0.507c0.086-0.129,0.164-0.195,0.245-0.195c0.058,0,0.101,0.016,0.144,0.038l0.753,0.462
		c0.043,0.036,0.063,0.065,0.063,0.102c0,0.065-0.027,0.137-0.094,0.21c-0.058,0.065-0.129,0.202-0.202,0.404
		c-0.086,0.21-0.131,0.391-0.166,0.543c-0.036,0.159-0.051,0.384-0.051,0.687V72.112z M214.112,68.663
		c-0.145-0.065-0.354-0.159-0.622-0.275c-0.275-0.116-0.578-0.174-0.91-0.174c-0.621,0-1.101,0.253-1.404,0.773
		c-0.303,0.513-0.447,1.223-0.447,2.127c0,0.889,0.086,1.599,0.296,2.111c0.196,0.514,0.571,0.773,1.144,0.773
		c0.21,0,0.412-0.028,0.607-0.088c0.194-0.063,0.368-0.137,0.543-0.23c0.157-0.088,0.311-0.174,0.447-0.275
		c0.129-0.093,0.245-0.172,0.347-0.239V68.663z"/>
	<path fill="#BB4E44" d="M228.516,75.083c0,0.094-0.021,0.159-0.059,0.188c-0.027,0.03-0.086,0.045-0.18,0.045h-5.113
		c-0.129,0-0.194-0.073-0.194-0.202v-10.97c0-0.129,0.065-0.195,0.194-0.195h5.164c0.086,0,0.145,0.014,0.174,0.028
		c0.028,0.03,0.044,0.045,0.044,0.073c0,0.021-0.008,0.051-0.016,0.094c-0.015,0.051-0.028,0.088-0.035,0.121l-0.232,0.697
		c-0.022,0.071-0.051,0.114-0.078,0.129c-0.038,0.013-0.096,0.013-0.175,0.013h-3.681v3.688h3.254c0.086,0,0.137,0.016,0.167,0.045
		c0.035,0.028,0.043,0.087,0.043,0.173v0.729c0,0.087-0.008,0.146-0.043,0.175c-0.03,0.021-0.081,0.035-0.167,0.035h-3.254v4.201
		h3.984c0.129,0,0.202,0.064,0.202,0.181V75.083z"/>
	<path fill="#BB4E44" d="M235.746,78.367c0,0.108-0.043,0.173-0.116,0.202l-0.838,0.195c-0.059,0.022-0.094,0.027-0.094,0.027
		s-0.043-0.005-0.094,0.008c-0.059,0-0.088-0.028-0.102-0.08c-0.015-0.049-0.015-0.094-0.015-0.137v-4.005
		c-0.102,0.086-0.223,0.187-0.361,0.296c-0.137,0.108-0.288,0.209-0.455,0.311c-0.167,0.101-0.354,0.182-0.558,0.255
		c-0.202,0.07-0.42,0.106-0.65,0.106c-0.492,0-0.911-0.114-1.258-0.347c-0.349-0.239-0.637-0.551-0.847-0.955
		c-0.209-0.389-0.368-0.854-0.47-1.389c-0.101-0.534-0.151-1.09-0.151-1.691c0-0.507,0.065-1.005,0.18-1.488
		c0.123-0.492,0.311-0.927,0.551-1.311c0.26-0.382,0.578-0.686,0.954-0.91c0.39-0.225,0.853-0.341,1.375-0.341
		c0.245,0,0.482,0.03,0.7,0.094c0.217,0.061,0.412,0.132,0.578,0.21c0.174,0.088,0.318,0.174,0.44,0.27
		c0.116,0.094,0.217,0.165,0.305,0.223c0.028-0.065,0.073-0.144,0.114-0.23c0.045-0.088,0.088-0.174,0.116-0.262
		c0.045-0.078,0.088-0.149,0.131-0.21c0.043-0.063,0.086-0.094,0.13-0.094c0.022,0,0.072,0.022,0.166,0.066l0.586,0.331
		c0.086,0.06,0.13,0.108,0.13,0.153c0,0.057-0.036,0.151-0.107,0.296c-0.08,0.146-0.139,0.296-0.196,0.449
		c-0.057,0.165-0.086,0.326-0.116,0.463c-0.013,0.144-0.028,0.323-0.028,0.549V78.367z M234.488,68.865
		c-0.174-0.101-0.392-0.237-0.665-0.406c-0.275-0.165-0.601-0.245-0.97-0.245c-0.361,0-0.657,0.088-0.882,0.26
		c-0.23,0.182-0.404,0.42-0.533,0.71c-0.131,0.283-0.218,0.606-0.263,0.961c-0.05,0.355-0.071,0.709-0.071,1.048
		c0,0.404,0.016,0.796,0.051,1.188c0.036,0.39,0.122,0.737,0.238,1.041c0.116,0.311,0.275,0.556,0.484,0.745
		c0.21,0.188,0.485,0.28,0.816,0.28c0.377,0,0.71-0.108,0.985-0.318c0.296-0.225,0.563-0.434,0.809-0.649V68.865z"/>
	<path fill="#BB4E44" d="M242.449,67.549c0-0.116,0.035-0.18,0.108-0.202l0.839-0.194c0.065-0.022,0.102-0.038,0.102-0.03
		c0.015,0.008,0.043,0.008,0.094-0.008c0.05,0,0.095,0.03,0.101,0.073c0.008,0.051,0.015,0.102,0.015,0.145v5.909
		c0,0.187,0.008,0.366,0.022,0.554c0.021,0.182,0.071,0.363,0.159,0.536c0.057,0.101,0.122,0.217,0.202,0.348
		c0.071,0.137,0.116,0.232,0.116,0.281c0,0.037-0.015,0.065-0.052,0.08c-0.036,0.014-0.064,0.036-0.094,0.059l-0.649,0.396
		c-0.066,0.037-0.116,0.051-0.132,0.051c-0.071,0-0.129-0.036-0.187-0.102c-0.059-0.065-0.102-0.144-0.159-0.245
		c-0.043-0.094-0.094-0.202-0.145-0.303c-0.037-0.116-0.08-0.218-0.131-0.318c-0.116,0.101-0.261,0.202-0.427,0.318
		c-0.167,0.101-0.354,0.209-0.557,0.303c-0.188,0.102-0.404,0.18-0.629,0.245s-0.457,0.102-0.688,0.102
		c-0.563,0-1.013-0.079-1.331-0.223c-0.318-0.154-0.563-0.341-0.723-0.573c-0.159-0.23-0.26-0.506-0.303-0.802
		c-0.044-0.295-0.071-0.593-0.071-0.889v-5.511c0-0.116,0.041-0.18,0.121-0.202l0.832-0.194c0.058-0.022,0.101-0.038,0.101-0.03
		c0,0,0.036,0.008,0.096-0.008c0.049,0,0.086,0.03,0.094,0.073c0.013,0.051,0.021,0.102,0.021,0.145v5.771
		c0,0.172,0.022,0.348,0.058,0.505c0.038,0.159,0.108,0.304,0.218,0.435c0.108,0.132,0.239,0.225,0.427,0.304
		c0.172,0.065,0.39,0.101,0.664,0.101c0.132,0,0.291-0.027,0.463-0.086c0.189-0.058,0.369-0.139,0.551-0.225
		c0.187-0.094,0.354-0.18,0.521-0.28c0.159-0.089,0.275-0.175,0.354-0.255V67.549z"/>
	<path fill="#BB4E44" d="M248.01,75.113c0,0.129-0.073,0.202-0.202,0.202h-0.868c-0.13,0-0.195-0.073-0.195-0.202v-6.74h-1.294
		c-0.131,0-0.202-0.057-0.202-0.195v-0.629c0-0.131,0.071-0.202,0.202-0.202h2.343c0.088,0,0.144,0.022,0.174,0.071
		c0.028,0.045,0.043,0.102,0.043,0.174V75.113z M248.299,64.426c0,0.281-0.087,0.521-0.289,0.716
		c-0.188,0.194-0.435,0.296-0.717,0.296c-0.288,0-0.526-0.094-0.723-0.289c-0.195-0.187-0.288-0.434-0.288-0.723
		c0-0.29,0.093-0.521,0.288-0.723c0.196-0.188,0.435-0.29,0.723-0.29c0.282,0,0.528,0.102,0.717,0.304
		C248.212,63.913,248.299,64.15,248.299,64.426z"/>
	<path fill="#BB4E44" d="M250.794,69.972c0-0.325-0.007-0.601-0.022-0.846c-0.015-0.247-0.071-0.521-0.172-0.81
		c-0.045-0.103-0.096-0.217-0.174-0.348c-0.089-0.124-0.132-0.218-0.132-0.275c0-0.028,0.016-0.059,0.051-0.073
		c0.037-0.013,0.065-0.033,0.102-0.056l0.644-0.397c0.073-0.037,0.116-0.053,0.131-0.053c0.057,0,0.114,0.046,0.188,0.116
		c0.065,0.071,0.131,0.167,0.18,0.269c0.06,0.108,0.108,0.209,0.139,0.317c0.043,0.109,0.071,0.195,0.094,0.269
		c0.101-0.073,0.225-0.159,0.369-0.269c0.159-0.108,0.333-0.209,0.535-0.317c0.21-0.102,0.433-0.197,0.694-0.269
		c0.245-0.07,0.536-0.116,0.839-0.116c0.447,0,0.831,0.116,1.157,0.341c0.318,0.225,0.592,0.528,0.809,0.91
		c0.202,0.384,0.361,0.818,0.47,1.311c0.109,0.483,0.152,0.981,0.152,1.488c0,0.602-0.051,1.157-0.159,1.691
		c-0.114,0.535-0.275,1-0.498,1.389c-0.225,0.404-0.515,0.716-0.861,0.955c-0.361,0.232-0.781,0.347-1.243,0.347
		c-0.514,0-0.927-0.059-1.23-0.174c-0.311-0.114-0.576-0.246-0.794-0.383v3.378c0,0.114-0.045,0.173-0.116,0.202l-0.831,0.195
		c-0.065,0.022-0.108,0.027-0.108,0.027s-0.045-0.005-0.094,0.008c-0.053,0-0.096-0.028-0.096-0.08
		c-0.013-0.049-0.021-0.094-0.021-0.137V69.972z M252.06,73.898c0.261,0.144,0.534,0.275,0.816,0.384
		c0.281,0.114,0.629,0.164,1.049,0.164c0.361,0,0.637-0.093,0.854-0.28c0.218-0.189,0.361-0.435,0.463-0.745
		c0.116-0.304,0.18-0.651,0.202-1.041c0.027-0.392,0.043-0.783,0.043-1.188c0-0.339-0.016-0.692-0.043-1.048
		c-0.022-0.354-0.086-0.678-0.189-0.961c-0.101-0.29-0.245-0.528-0.433-0.71c-0.196-0.172-0.462-0.26-0.796-0.26
		c-0.427,0-0.809,0.088-1.149,0.282c-0.341,0.188-0.614,0.369-0.816,0.528V73.898z"/>
	<path fill="#BB4E44" d="M258.856,69.422c0-0.188,0-0.383-0.015-0.579c-0.016-0.202-0.044-0.396-0.087-0.586
		c-0.045-0.188-0.088-0.318-0.146-0.39c-0.043-0.071-0.063-0.131-0.063-0.174c0-0.028,0.021-0.073,0.078-0.114l0.71-0.398
		c0.027-0.008,0.051-0.021,0.078-0.036c0.022-0.022,0.051-0.03,0.081-0.03c0.056,0,0.116,0.046,0.172,0.132
		c0.045,0.086,0.088,0.187,0.131,0.303c0.028,0.116,0.071,0.225,0.102,0.326c0.028,0.108,0.043,0.172,0.043,0.21
		c0.101-0.102,0.245-0.21,0.419-0.318c0.175-0.116,0.361-0.225,0.557-0.318c0.196-0.086,0.398-0.167,0.601-0.232
		c0.21-0.071,0.397-0.102,0.579-0.102c0.535,0,0.939,0.087,1.2,0.248c0.26,0.157,0.447,0.404,0.556,0.737
		c0.124-0.088,0.268-0.189,0.442-0.304c0.174-0.116,0.346-0.217,0.55-0.318c0.188-0.101,0.39-0.188,0.592-0.254
		c0.202-0.071,0.404-0.109,0.606-0.109c0.465,0,0.826,0.073,1.086,0.226c0.261,0.151,0.455,0.34,0.592,0.57
		c0.131,0.23,0.21,0.5,0.247,0.796c0.028,0.304,0.051,0.6,0.051,0.897v5.51c0,0.129-0.065,0.202-0.196,0.202h-0.867
		c-0.129,0-0.202-0.073-0.202-0.202V69.56c0-0.182-0.015-0.348-0.028-0.507c-0.037-0.159-0.088-0.304-0.167-0.433
		c-0.08-0.131-0.188-0.232-0.325-0.304c-0.129-0.072-0.318-0.103-0.535-0.103c-0.405,0-0.73,0.08-0.991,0.245
		c-0.26,0.169-0.47,0.311-0.644,0.435v6.22c0,0.129-0.057,0.202-0.195,0.202h-0.861c-0.129,0-0.202-0.073-0.202-0.202V69.56
		c0-0.182-0.013-0.348-0.043-0.507c-0.021-0.159-0.071-0.304-0.151-0.433c-0.079-0.131-0.194-0.232-0.333-0.304
		c-0.145-0.072-0.324-0.103-0.541-0.103c-0.202,0-0.377,0.022-0.536,0.073c-0.166,0.05-0.318,0.108-0.447,0.18
		c-0.131,0.073-0.262,0.153-0.363,0.239c-0.114,0.079-0.202,0.145-0.273,0.202v6.205c0,0.129-0.058,0.202-0.188,0.202h-0.867
		c-0.131,0-0.202-0.073-0.202-0.202V69.422z"/>
	<path fill="#BB4E44" d="M275.719,74.563c0.007,0.022,0.015,0.043,0.027,0.071c0.016,0.015,0.016,0.037,0.016,0.06
		c0,0.044-0.081,0.116-0.246,0.203c-0.158,0.101-0.362,0.187-0.608,0.288c-0.245,0.101-0.533,0.182-0.839,0.255
		c-0.303,0.07-0.621,0.106-0.925,0.106c-0.548,0-1.048-0.102-1.475-0.304c-0.435-0.209-0.796-0.5-1.1-0.866
		c-0.296-0.371-0.528-0.812-0.687-1.332c-0.167-0.513-0.238-1.084-0.238-1.713c0-0.606,0.071-1.172,0.217-1.685
		c0.157-0.514,0.367-0.963,0.65-1.33c0.282-0.378,0.621-0.674,1.027-0.884c0.404-0.209,0.867-0.318,1.388-0.318
		c0.694,0,1.243,0.146,1.642,0.442c0.397,0.296,0.7,0.651,0.902,1.076c0.204,0.428,0.334,0.875,0.392,1.354
		c0.059,0.476,0.086,0.887,0.086,1.243c0,0.123-0.013,0.217-0.027,0.273c-0.016,0.065-0.073,0.093-0.159,0.093h-4.758
		c0,0.255,0.028,0.551,0.086,0.877c0.065,0.325,0.174,0.644,0.349,0.932c0.157,0.296,0.39,0.543,0.692,0.745
		c0.298,0.195,0.68,0.296,1.157,0.296c0.26,0,0.521-0.035,0.753-0.101c0.245-0.071,0.455-0.151,0.637-0.238
		c0.18-0.08,0.331-0.159,0.447-0.231c0.116-0.073,0.188-0.109,0.21-0.109c0.022,0,0.05,0.036,0.093,0.104L275.719,74.563z
		 M274.589,70.563c0-0.21-0.027-0.455-0.07-0.737c-0.043-0.281-0.132-0.541-0.261-0.794c-0.123-0.247-0.298-0.457-0.521-0.629
		c-0.217-0.175-0.507-0.263-0.884-0.263c-0.382,0-0.692,0.096-0.939,0.27c-0.23,0.18-0.42,0.39-0.557,0.643
		c-0.137,0.245-0.23,0.507-0.282,0.78c-0.043,0.283-0.071,0.521-0.071,0.73H274.589z"/>
	<path fill="#BB4E44" d="M283.687,75.113c0,0.129-0.058,0.202-0.188,0.202h-0.867c-0.131,0-0.189-0.073-0.189-0.202V69.56
		c0-0.182-0.027-0.348-0.058-0.507c-0.028-0.159-0.071-0.304-0.145-0.433c-0.086-0.131-0.202-0.232-0.331-0.304
		c-0.146-0.072-0.333-0.103-0.551-0.103c-0.268,0-0.513,0.03-0.737,0.103c-0.232,0.071-0.435,0.165-0.606,0.273
		c-0.182,0.102-0.334,0.21-0.485,0.326c-0.144,0.123-0.268,0.225-0.369,0.311v5.887c0,0.129-0.058,0.202-0.187,0.202h-0.869
		c-0.129,0-0.202-0.073-0.202-0.202v-5.728c0-0.275,0-0.478-0.008-0.601c-0.007-0.13-0.021-0.253-0.058-0.375
		c-0.065-0.255-0.122-0.427-0.18-0.507c-0.059-0.079-0.088-0.145-0.088-0.188c0-0.036,0.029-0.073,0.088-0.124l0.743-0.411
		c0.022-0.008,0.037-0.021,0.065-0.036c0.03-0.022,0.043-0.03,0.073-0.03c0.071,0,0.145,0.053,0.202,0.159
		c0.058,0.104,0.116,0.226,0.159,0.354c0.043,0.139,0.08,0.262,0.108,0.384c0.021,0.123,0.051,0.202,0.051,0.232
		c0.123-0.109,0.275-0.232,0.455-0.354c0.182-0.131,0.376-0.255,0.601-0.37c0.218-0.114,0.463-0.21,0.723-0.289
		c0.268-0.07,0.563-0.116,0.882-0.116c0.463,0,0.826,0.073,1.084,0.226c0.263,0.151,0.465,0.34,0.594,0.57
		c0.131,0.23,0.218,0.5,0.245,0.796c0.045,0.304,0.045,0.6,0.045,0.897V75.113z"/>
	<path fill="#BB4E44" d="M290.397,74.707c0.028,0.088,0.028,0.145,0.028,0.167c0,0.05-0.059,0.123-0.203,0.194
		c-0.144,0.08-0.317,0.153-0.521,0.225c-0.204,0.065-0.449,0.131-0.694,0.18c-0.26,0.045-0.492,0.073-0.723,0.073
		c-0.348,0-0.666-0.059-0.955-0.174c-0.275-0.114-0.478-0.251-0.606-0.412c-0.116-0.13-0.202-0.267-0.275-0.42
		c-0.072-0.149-0.116-0.311-0.144-0.468c-0.016-0.174-0.045-0.333-0.045-0.5s-0.014-0.326-0.014-0.484v-4.715h-1.245
		c-0.056,0-0.086-0.015-0.101-0.057c0-0.052-0.014-0.095-0.014-0.139v-0.629c0-0.058,0.014-0.101,0.014-0.144
		c0.015-0.036,0.045-0.059,0.101-0.059h1.245v-2.271c0-0.102,0.071-0.167,0.188-0.202l0.882-0.246c0.015,0,0.045,0,0.058-0.007
		c0.016-0.008,0.03-0.008,0.059-0.008c0.043,0,0.073,0.058,0.073,0.18v2.554h2.458c0.129,0,0.188,0.043,0.188,0.116
		c0,0.028,0,0.043-0.016,0.057c0,0.022,0,0.037,0,0.06l-0.217,0.649c-0.041,0.102-0.114,0.145-0.216,0.145h-2.197v4.729
		c0,0.166,0.013,0.333,0.027,0.49c0,0.161,0.043,0.306,0.102,0.435c0.058,0.123,0.159,0.232,0.29,0.304
		c0.129,0.08,0.331,0.115,0.578,0.115c0.203,0,0.39-0.022,0.564-0.063c0.174-0.045,0.318-0.094,0.462-0.153
		c0.145-0.063,0.275-0.116,0.377-0.157c0.086-0.053,0.159-0.073,0.202-0.073c0.072,0,0.115,0.036,0.115,0.102L290.397,74.707z"/>
</g>
<g>
	<path fill="#F1F1F4" d="M179.918,92.972c-0.006,0.045-0.021,0.088-0.035,0.131c-0.016,0.043-0.051,0.058-0.102,0.058h-1.143
		c-0.072,0-0.115-0.015-0.131-0.05c-0.015-0.038-0.028-0.079-0.028-0.139l-1.938-10.281c-0.015-0.088-0.03-0.151-0.03-0.189
		c0-0.056,0.022-0.086,0.073-0.101c0.043-0.008,0.081-0.015,0.102-0.028l0.773-0.189c0.029-0.013,0.065-0.021,0.108-0.035
		c0.043-0.006,0.073-0.013,0.086-0.013c0.053,0,0.08,0.027,0.096,0.086c0.021,0.056,0.028,0.123,0.035,0.194l1.345,7.688
		c0.015,0.071,0.022,0.18,0.029,0.324c0.016,0.145,0.028,0.298,0.036,0.455c0.008,0.167,0.022,0.326,0.035,0.492
		c0,0.167,0.016,0.298,0.03,0.399h0.028c0.022-0.306,0.043-0.602,0.072-0.892c0.023-0.288,0.066-0.577,0.116-0.874l1.519-7.57
		c0-0.052,0.021-0.101,0.036-0.139c0.022-0.035,0.05-0.056,0.108-0.056h0.982c0.059,0,0.089,0.021,0.116,0.056
		c0.021,0.038,0.036,0.087,0.043,0.139l1.316,7.787c0.028,0.202,0.065,0.447,0.102,0.723c0.035,0.275,0.058,0.557,0.058,0.826h0.028
		c0.022-0.263,0.03-0.536,0.03-0.818c0.013-0.283,0.043-0.528,0.078-0.745l1.44-7.795c0.015-0.071,0.035-0.139,0.043-0.194
		c0.015-0.059,0.043-0.086,0.08-0.086c0.021,0,0.049,0.007,0.094,0.013c0.043,0.015,0.086,0.022,0.129,0.035l0.753,0.189
		c0.116,0.028,0.174,0.073,0.174,0.129c0,0.038-0.007,0.102-0.029,0.189l-2.169,10.281c0,0.045-0.015,0.088-0.029,0.131
		c-0.016,0.043-0.059,0.058-0.116,0.058h-1.186c-0.101,0-0.151-0.058-0.159-0.188l-1.331-8.72h-0.028L179.918,92.972z"/>
	<path fill="#F1F1F4" d="M192.825,92.342c0.014,0.022,0.021,0.038,0.028,0.066c0.016,0.015,0.022,0.035,0.022,0.058
		c0,0.045-0.08,0.108-0.232,0.194c-0.151,0.088-0.346,0.182-0.584,0.27c-0.231,0.102-0.5,0.181-0.796,0.244
		c-0.29,0.067-0.586,0.101-0.882,0.101c-0.535,0-0.999-0.101-1.404-0.288c-0.411-0.202-0.758-0.47-1.041-0.824
		c-0.288-0.355-0.505-0.772-0.656-1.266c-0.152-0.482-0.226-1.033-0.226-1.627c0-0.578,0.073-1.114,0.203-1.604
		c0.144-0.492,0.354-0.912,0.621-1.273c0.275-0.354,0.594-0.636,0.983-0.831c0.376-0.202,0.817-0.303,1.315-0.303
		c0.652,0,1.188,0.137,1.563,0.419c0.375,0.281,0.665,0.622,0.853,1.026c0.202,0.404,0.318,0.831,0.376,1.288
		c0.051,0.447,0.079,0.846,0.079,1.178c0,0.116-0.006,0.202-0.021,0.26c-0.015,0.059-0.072,0.086-0.151,0.086h-4.534
		c0,0.247,0.029,0.521,0.088,0.839c0.058,0.312,0.174,0.608,0.323,0.884c0.161,0.289,0.384,0.521,0.667,0.708
		c0.281,0.194,0.649,0.288,1.106,0.288c0.245,0,0.49-0.035,0.715-0.101c0.225-0.071,0.428-0.145,0.602-0.223
		c0.172-0.081,0.318-0.152,0.427-0.226c0.106-0.065,0.165-0.101,0.194-0.101c0.021,0,0.057,0.035,0.094,0.101L192.825,92.342z
		 M191.755,88.54c0-0.195-0.021-0.433-0.059-0.702c-0.05-0.267-0.129-0.521-0.245-0.759c-0.129-0.237-0.29-0.433-0.506-0.601
		c-0.203-0.157-0.484-0.246-0.838-0.246c-0.361,0-0.659,0.089-0.882,0.261c-0.232,0.167-0.407,0.369-0.536,0.606
		c-0.139,0.232-0.225,0.487-0.275,0.745c-0.043,0.268-0.072,0.5-0.072,0.695H191.755z"/>
	<path fill="#F1F1F4" d="M202.247,92.77c0.021,0.045,0.035,0.08,0.035,0.108c0,0.045-0.043,0.086-0.129,0.139
		c-0.088,0.043-0.189,0.086-0.325,0.129c-0.132,0.028-0.275,0.065-0.435,0.088c-0.152,0.028-0.312,0.041-0.455,0.041
		c-0.392,0-0.71-0.071-0.97-0.215c-0.245-0.137-0.42-0.318-0.506-0.543c-0.058-0.122-0.102-0.29-0.131-0.5
		c-0.036-0.202-0.057-0.418-0.071-0.635c-0.015-0.218-0.03-0.435-0.03-0.629c0-0.21,0-0.384,0-0.528v-8.186
		c0-0.102,0.045-0.167,0.116-0.188l0.781-0.189c0.072-0.021,0.101-0.027,0.101-0.027s0.043,0.007,0.096-0.008
		c0.051,0,0.078,0.028,0.094,0.073c0.015,0.051,0.015,0.094,0.015,0.137v8.423c0,0.124,0,0.269,0,0.428c0,0.146,0,0.288,0.014,0.434
		c0,0.145,0,0.273,0.015,0.39c0,0.116,0,0.189,0.021,0.232c0.008,0.086,0.06,0.202,0.153,0.341c0.086,0.143,0.245,0.21,0.476,0.21
		c0.204,0,0.392-0.03,0.528-0.102c0.146-0.067,0.239-0.101,0.298-0.101c0.043,0,0.078,0.013,0.086,0.027
		c0,0.028,0.008,0.043,0.022,0.065L202.247,92.77z"/>
	<path fill="#F1F1F4" d="M209.066,89.219c0,0.559-0.059,1.079-0.189,1.569c-0.116,0.492-0.304,0.918-0.571,1.288
		c-0.268,0.367-0.599,0.665-1.005,0.875c-0.404,0.217-0.896,0.323-1.476,0.323c-0.534,0-0.996-0.101-1.372-0.311
		c-0.392-0.202-0.71-0.483-0.955-0.831c-0.245-0.354-0.427-0.773-0.549-1.259c-0.108-0.482-0.167-1.011-0.167-1.576
		c0-0.549,0.063-1.069,0.18-1.554c0.116-0.491,0.312-0.918,0.571-1.286c0.255-0.369,0.586-0.657,0.99-0.875
		c0.406-0.217,0.897-0.325,1.463-0.325c0.533,0,0.996,0.108,1.387,0.311c0.392,0.202,0.71,0.482,0.961,0.839
		c0.255,0.346,0.441,0.766,0.558,1.25C209.008,88.143,209.066,88.663,209.066,89.219z M205.941,92.294
		c0.348,0,0.637-0.073,0.876-0.225c0.237-0.154,0.427-0.369,0.571-0.645c0.137-0.268,0.237-0.592,0.296-0.978
		c0.05-0.374,0.08-0.786,0.08-1.243c0-0.39-0.03-0.766-0.08-1.119c-0.059-0.361-0.159-0.675-0.296-0.948
		c-0.145-0.274-0.334-0.49-0.571-0.658c-0.239-0.157-0.535-0.246-0.892-0.246c-0.359,0-0.657,0.089-0.895,0.246
		c-0.232,0.153-0.427,0.363-0.565,0.636c-0.145,0.269-0.245,0.579-0.304,0.926c-0.058,0.355-0.086,0.725-0.086,1.115
		c0,0.453,0.028,0.873,0.086,1.259c0.059,0.382,0.159,0.715,0.304,0.988c0.139,0.282,0.333,0.5,0.565,0.659
		C205.269,92.221,205.566,92.294,205.941,92.294z"/>
	<path fill="#F1F1F4" d="M213.723,93.023c-0.03,0.049-0.045,0.094-0.065,0.109c-0.022,0.021-0.065,0.027-0.137,0.027h-0.622
		c-0.073,0-0.116-0.007-0.131-0.035c-0.015-0.022-0.035-0.061-0.058-0.102l-2.646-7.195c0-0.021-0.015-0.043-0.022-0.058
		c-0.007-0.015-0.015-0.03-0.015-0.051c0-0.043,0.051-0.08,0.139-0.116l0.78-0.202c0.014,0,0.044-0.007,0.071-0.013
		c0.022-0.008,0.051-0.016,0.088-0.016c0.028,0,0.044,0.008,0.059,0.036c0.013,0.028,0.028,0.058,0.043,0.086l1.756,5.128
		c0.051,0.165,0.102,0.339,0.152,0.514c0.043,0.172,0.088,0.331,0.131,0.482h0.028c0.045-0.194,0.088-0.354,0.123-0.49
		c0.036-0.139,0.094-0.296,0.167-0.484l1.864-5.149c0.016-0.028,0.028-0.058,0.043-0.086c0.008-0.028,0.03-0.036,0.059-0.036
		c0.035,0,0.065,0.008,0.088,0.016c0.028,0.006,0.057,0.013,0.071,0.013l0.78,0.202c0.088,0.036,0.139,0.073,0.139,0.116
		c0,0.021-0.007,0.036-0.015,0.051s-0.015,0.037-0.015,0.058L213.723,93.023z"/>
	<path fill="#F1F1F4" d="M222.992,92.342c0.013,0.022,0.028,0.038,0.035,0.066c0.008,0.015,0.008,0.035,0.008,0.058
		c0,0.045-0.065,0.108-0.217,0.194c-0.159,0.088-0.347,0.182-0.586,0.27c-0.238,0.102-0.498,0.181-0.804,0.244
		c-0.288,0.067-0.592,0.101-0.882,0.101c-0.521,0-0.99-0.101-1.402-0.288c-0.404-0.202-0.753-0.47-1.041-0.824
		c-0.28-0.355-0.498-0.772-0.651-1.266c-0.157-0.482-0.23-1.033-0.23-1.627c0-0.578,0.073-1.114,0.218-1.604
		c0.136-0.492,0.346-0.912,0.606-1.273c0.275-0.354,0.593-0.636,0.982-0.831c0.384-0.202,0.826-0.303,1.316-0.303
		c0.665,0,1.186,0.137,1.563,0.419c0.374,0.281,0.665,0.622,0.859,1.026s0.318,0.831,0.369,1.288
		c0.058,0.447,0.078,0.846,0.078,1.178c0,0.116-0.007,0.202-0.021,0.26c-0.015,0.059-0.065,0.086-0.159,0.086h-4.527
		c0,0.247,0.038,0.521,0.094,0.839c0.06,0.312,0.167,0.608,0.326,0.884c0.159,0.289,0.376,0.521,0.666,0.708
		c0.281,0.194,0.65,0.288,1.1,0.288c0.245,0,0.49-0.035,0.723-0.101c0.217-0.071,0.419-0.145,0.593-0.223
		c0.173-0.081,0.317-0.152,0.433-0.226c0.102-0.065,0.175-0.101,0.189-0.101c0.028,0,0.057,0.035,0.102,0.101L222.992,92.342z
		 M221.921,88.54c0-0.195-0.013-0.433-0.058-0.702c-0.043-0.267-0.129-0.521-0.245-0.759c-0.124-0.237-0.29-0.433-0.5-0.601
		c-0.21-0.157-0.483-0.246-0.831-0.246c-0.375,0-0.665,0.089-0.896,0.261c-0.225,0.167-0.406,0.369-0.535,0.606
		c-0.131,0.232-0.218,0.487-0.261,0.745c-0.058,0.268-0.088,0.5-0.088,0.695H221.921z"/>
	<path fill="#F1F1F4" d="M230.757,92.862c0,0.132-0.057,0.189-0.188,0.189h-0.816c-0.123,0-0.196-0.058-0.196-0.189v-5.407
		c0-0.151-0.014-0.341-0.043-0.565c-0.028-0.223-0.102-0.439-0.218-0.635c-0.115-0.204-0.172-0.333-0.172-0.398
		c0-0.049,0.021-0.086,0.043-0.108c0.021-0.021,0.043-0.036,0.059-0.049l0.591-0.363c0.073-0.051,0.124-0.078,0.154-0.078
		c0.078,0,0.137,0.05,0.209,0.159c0.057,0.106,0.13,0.229,0.18,0.368c0.059,0.145,0.109,0.289,0.137,0.447
		c0.043,0.145,0.073,0.269,0.088,0.347c0.109-0.101,0.218-0.23,0.347-0.382c0.116-0.151,0.261-0.296,0.412-0.441
		c0.159-0.145,0.326-0.261,0.513-0.354c0.189-0.094,0.392-0.144,0.624-0.144c0.18,0,0.346,0.027,0.521,0.078
		c0.172,0.059,0.26,0.116,0.26,0.188c0,0.022-0.015,0.045-0.022,0.067c-0.007,0.021-0.021,0.041-0.035,0.063l-0.341,0.804
		c-0.016,0.021-0.021,0.043-0.036,0.072c-0.007,0.028-0.027,0.036-0.058,0.036c-0.043,0-0.102-0.022-0.188-0.073
		c-0.073-0.043-0.188-0.063-0.333-0.063s-0.275,0.041-0.412,0.137c-0.139,0.086-0.268,0.187-0.396,0.318
		c-0.124,0.129-0.247,0.26-0.363,0.404c-0.116,0.137-0.218,0.26-0.318,0.368V92.862z"/>
	<path fill="#F1F1F4" d="M239.188,92.342c0.016,0.022,0.016,0.038,0.03,0.066c0.013,0.015,0.013,0.035,0.013,0.058
		c0,0.045-0.071,0.108-0.23,0.194c-0.144,0.088-0.346,0.182-0.578,0.27c-0.232,0.102-0.506,0.181-0.796,0.244
		c-0.296,0.067-0.594,0.101-0.882,0.101c-0.535,0-0.998-0.101-1.409-0.288c-0.412-0.202-0.759-0.47-1.034-0.824
		c-0.29-0.355-0.507-0.772-0.664-1.266c-0.146-0.482-0.225-1.033-0.225-1.627c0-0.578,0.07-1.114,0.209-1.604
		c0.145-0.492,0.347-0.912,0.622-1.273c0.268-0.354,0.592-0.636,0.976-0.831c0.384-0.202,0.817-0.303,1.309-0.303
		c0.666,0,1.187,0.137,1.576,0.419c0.376,0.281,0.659,0.622,0.854,1.026c0.195,0.404,0.318,0.831,0.377,1.288
		c0.043,0.447,0.071,0.846,0.071,1.178c0,0.116-0.008,0.202-0.021,0.26c-0.016,0.059-0.066,0.086-0.154,0.086h-4.525
		c0,0.247,0.028,0.521,0.087,0.839c0.058,0.312,0.166,0.608,0.317,0.884c0.159,0.289,0.384,0.521,0.665,0.708
		c0.29,0.194,0.651,0.288,1.108,0.288c0.251,0,0.49-0.035,0.715-0.101c0.23-0.071,0.435-0.145,0.607-0.223
		c0.174-0.081,0.311-0.152,0.419-0.226c0.116-0.065,0.174-0.101,0.202-0.101c0.016,0,0.051,0.035,0.088,0.101L239.188,92.342z
		 M238.118,88.54c0-0.195-0.029-0.433-0.065-0.702c-0.05-0.267-0.121-0.521-0.245-0.759c-0.123-0.237-0.296-0.433-0.5-0.601
		c-0.202-0.157-0.49-0.246-0.839-0.246c-0.361,0-0.664,0.089-0.889,0.261c-0.225,0.167-0.404,0.369-0.536,0.606
		c-0.137,0.232-0.223,0.487-0.266,0.745c-0.045,0.268-0.073,0.5-0.073,0.695H238.118z"/>
	<path fill="#F1F1F4" d="M245.956,90.556c0,0.255,0,0.465,0.008,0.608c0.007,0.159,0.015,0.291,0.035,0.392
		c0.015,0.102,0.03,0.202,0.059,0.288c0.029,0.094,0.058,0.188,0.086,0.296c0.029,0.094,0.088,0.202,0.166,0.326
		c0.081,0.116,0.124,0.202,0.124,0.26c0,0.028-0.021,0.051-0.051,0.066c-0.035,0.022-0.065,0.035-0.094,0.058l-0.621,0.384
		c-0.059,0.028-0.102,0.041-0.131,0.041c-0.059,0-0.116-0.041-0.18-0.129c-0.066-0.094-0.124-0.194-0.175-0.311
		c-0.051-0.114-0.101-0.238-0.137-0.354c-0.045-0.123-0.08-0.209-0.101-0.26c-0.061,0.043-0.139,0.114-0.247,0.23
		c-0.116,0.116-0.273,0.239-0.463,0.363c-0.189,0.115-0.419,0.223-0.68,0.318c-0.26,0.101-0.556,0.142-0.882,0.142
		c-0.637,0-1.129-0.194-1.496-0.584c-0.37-0.384-0.558-0.933-0.558-1.642c0-0.44,0.073-0.816,0.239-1.128
		c0.157-0.313,0.354-0.563,0.614-0.766c0.253-0.204,0.535-0.355,0.847-0.464c0.311-0.116,0.614-0.195,0.933-0.253
		c0.303-0.058,0.591-0.094,0.854-0.102c0.266-0.007,0.476-0.021,0.649-0.035v-0.565c0-0.461-0.101-0.809-0.282-1.062
		c-0.195-0.253-0.571-0.369-1.12-0.369c-0.26,0-0.506,0.022-0.723,0.071c-0.225,0.06-0.419,0.116-0.594,0.174
		c-0.159,0.066-0.303,0.124-0.404,0.175c-0.101,0.056-0.174,0.078-0.204,0.078c-0.056,0-0.094-0.022-0.114-0.078l-0.202-0.551
		c-0.03-0.071-0.043-0.137-0.043-0.202c0-0.058,0.071-0.131,0.238-0.217c0.166-0.079,0.368-0.157,0.613-0.232
		c0.24-0.071,0.508-0.135,0.796-0.188c0.288-0.051,0.557-0.078,0.809-0.078c0.45,0,0.834,0.05,1.145,0.159
		c0.311,0.106,0.563,0.252,0.751,0.447c0.188,0.194,0.318,0.427,0.406,0.702c0.086,0.275,0.129,0.578,0.129,0.904V90.556z
		 M244.756,89.285c-0.174,0-0.435,0.007-0.751,0.027c-0.333,0.022-0.659,0.087-0.984,0.189c-0.333,0.106-0.606,0.275-0.854,0.498
		c-0.246,0.225-0.361,0.543-0.361,0.955c0,0.159,0.022,0.318,0.058,0.47c0.045,0.159,0.116,0.304,0.202,0.435
		c0.102,0.137,0.225,0.237,0.363,0.318c0.157,0.078,0.331,0.116,0.533,0.116c0.189,0,0.392-0.038,0.579-0.116
		c0.188-0.081,0.361-0.175,0.521-0.283s0.298-0.223,0.419-0.331c0.116-0.108,0.218-0.189,0.275-0.247V89.285z"/>
	<path fill="#F1F1F4" d="M251.241,92.77c0.022,0.045,0.03,0.08,0.03,0.108c0,0.045-0.037,0.086-0.123,0.139
		c-0.087,0.043-0.189,0.086-0.334,0.129c-0.129,0.028-0.268,0.065-0.425,0.088c-0.153,0.028-0.311,0.041-0.457,0.041
		c-0.39,0-0.707-0.071-0.968-0.215c-0.247-0.137-0.419-0.318-0.515-0.543c-0.049-0.122-0.094-0.29-0.129-0.5
		c-0.028-0.202-0.051-0.418-0.066-0.635c-0.027-0.218-0.027-0.435-0.027-0.629c0-0.21,0-0.384,0-0.528v-8.186
		c0-0.102,0.035-0.167,0.114-0.188l0.782-0.189c0.063-0.021,0.102-0.027,0.102-0.027c0.015,0.007,0.043,0.007,0.086-0.008
		c0.058,0,0.086,0.028,0.101,0.073c0.008,0.051,0.016,0.094,0.016,0.137v8.423c0,0.124,0,0.269,0,0.428c0,0.146,0,0.288,0.015,0.434
		c0,0.145,0,0.273,0,0.39c0.013,0.116,0.021,0.189,0.028,0.232c0.015,0.086,0.065,0.202,0.151,0.341
		c0.094,0.143,0.253,0.21,0.485,0.21c0.209,0,0.391-0.03,0.527-0.102c0.137-0.067,0.238-0.101,0.296-0.101
		c0.043,0,0.073,0.013,0.081,0.027c0.007,0.028,0.013,0.043,0.021,0.065L251.241,92.77z"/>
	<path fill="#F1F1F4" d="M253.968,92.862c0,0.132-0.058,0.189-0.188,0.189h-0.818c-0.121,0-0.187-0.058-0.187-0.189v-6.404h-1.236
		c-0.123,0-0.188-0.066-0.188-0.189v-0.6c0-0.123,0.065-0.187,0.188-0.187h2.227c0.086,0,0.145,0.021,0.159,0.063
		c0.035,0.037,0.043,0.094,0.043,0.174V92.862z M254.258,82.703c0,0.263-0.101,0.493-0.275,0.682
		c-0.188,0.188-0.419,0.281-0.694,0.281c-0.268,0-0.506-0.094-0.68-0.273c-0.188-0.189-0.275-0.412-0.275-0.689
		c0-0.272,0.088-0.505,0.275-0.685c0.174-0.182,0.412-0.275,0.68-0.275c0.275,0,0.506,0.094,0.694,0.282
		C254.157,82.213,254.258,82.438,254.258,82.703z"/>
	<path fill="#F1F1F4" d="M260.706,92.48c0.022,0.087,0.037,0.137,0.037,0.159c0,0.051-0.065,0.114-0.194,0.188
		c-0.131,0.073-0.305,0.137-0.508,0.204c-0.194,0.071-0.419,0.129-0.656,0.172c-0.24,0.051-0.471,0.071-0.68,0.071
		c-0.341,0-0.63-0.056-0.904-0.164c-0.275-0.109-0.463-0.24-0.579-0.385c-0.116-0.129-0.202-0.26-0.268-0.404
		c-0.065-0.144-0.108-0.29-0.137-0.447c-0.022-0.161-0.043-0.318-0.043-0.479c-0.008-0.157-0.015-0.311-0.015-0.455v-4.481h-1.18
		c-0.051,0-0.079-0.021-0.094-0.066c-0.016-0.035-0.016-0.078-0.016-0.123v-0.6c0-0.05,0-0.101,0.016-0.131
		c0.015-0.043,0.043-0.056,0.094-0.056h1.18v-2.163c0-0.096,0.063-0.159,0.18-0.196l0.831-0.23c0.03,0,0.045,0,0.058-0.008
		c0.016-0.007,0.03-0.007,0.059-0.007c0.05,0,0.072,0.058,0.072,0.174v2.431h2.343c0.116,0,0.174,0.035,0.174,0.108
		c0,0.021-0.007,0.041-0.015,0.056c0,0.016,0,0.038,0,0.053l-0.21,0.622c-0.035,0.086-0.108,0.137-0.21,0.137h-2.082v4.497
		c0,0.151,0.016,0.311,0.021,0.462c0.007,0.152,0.045,0.296,0.101,0.412c0.06,0.124,0.153,0.218,0.27,0.29
		c0.129,0.079,0.316,0.114,0.563,0.114c0.188,0,0.361-0.021,0.521-0.063c0.159-0.037,0.318-0.094,0.455-0.153
		c0.139-0.057,0.253-0.102,0.349-0.143c0.094-0.045,0.149-0.067,0.188-0.067c0.078,0,0.108,0.037,0.108,0.096L260.706,92.48z"/>
	<path fill="#F1F1F4" d="M265.537,92.076c-0.124,0.44-0.273,0.955-0.455,1.516c-0.182,0.581-0.392,1.116-0.629,1.622
		c-0.159,0.34-0.405,0.613-0.724,0.831c-0.317,0.217-0.702,0.325-1.144,0.325c-0.215,0-0.447-0.029-0.686-0.086
		c-0.239-0.06-0.457-0.131-0.644-0.217c-0.195-0.086-0.354-0.176-0.478-0.263c-0.116-0.086-0.182-0.164-0.182-0.229
		c0-0.015,0.008-0.052,0.037-0.09l0.304-0.636c0.03-0.049,0.065-0.079,0.116-0.079c0.043,0,0.116,0.037,0.202,0.094
		c0.086,0.067,0.202,0.139,0.333,0.217c0.129,0.079,0.273,0.146,0.447,0.21c0.167,0.067,0.347,0.094,0.536,0.094
		c0.288,0,0.533-0.127,0.723-0.382c0.188-0.263,0.346-0.577,0.478-0.955l0.333-0.997h-0.581c-0.063,0-0.113-0.008-0.129-0.028
		c-0.028-0.022-0.043-0.06-0.065-0.108l-2.451-6.869c-0.007-0.036-0.013-0.073-0.027-0.104c-0.016-0.021-0.016-0.063,0-0.114
		c0-0.043,0.015-0.072,0.043-0.08c0.021-0.008,0.043-0.028,0.086-0.049l0.659-0.27c0.106-0.035,0.18-0.057,0.223-0.057
		c0.088,0,0.146,0.036,0.174,0.122l1.981,5.967c0.088,0.23,0.151,0.433,0.196,0.614c0.035,0.18,0.079,0.354,0.122,0.521h0.027
		c0.038-0.188,0.073-0.376,0.109-0.55c0.037-0.181,0.08-0.362,0.138-0.551l1.577-6.001c0.015-0.086,0.071-0.122,0.172-0.122
		c0.045,0,0.116,0.021,0.218,0.057l0.666,0.27c0.028,0.021,0.057,0.041,0.086,0.049c0.028,0.008,0.043,0.037,0.043,0.08
		c0,0.051-0.015,0.094-0.015,0.114c0,0.03-0.013,0.067-0.028,0.104L265.537,92.076z"/>
</g>
</svg>
