<?xml version="1.0" encoding="utf-8"?>
<!-- Generator: Adobe Illustrator 18.1.1, SVG Export Plug-In . SVG Version: 6.00 Build 0)  -->
<svg version="1.1" id="Ebene_2" xmlns="http://www.w3.org/2000/svg" xmlns:xlink="http://www.w3.org/1999/xlink" x="0px" y="0px"
	 viewBox="0 0 850.4 283.5" enable-background="new 0 0 850.4 283.5" xml:space="preserve">
<g>
	
		<linearGradient id="SVGID_1_" gradientUnits="userSpaceOnUse" x1="36.3403" y1="-1269.4707" x2="46.0793" y2="-1269.4707" gradientTransform="matrix(2.3617 4.889685e-02 4.889685e-02 -2.3617 747.0654 -2740.7595)">
		<stop  offset="0" style="stop-color:#901E21"/>
		<stop  offset="0.6691" style="stop-color:#CC1E24"/>
		<stop  offset="1" style="stop-color:#ED1C24"/>
	</linearGradient>
	<path fill="url(#SVGID_1_)" d="M793,254.4c0.5,0.7,0.5,1.7,0.9,2.6c-9.9-3.1-18,3.8-23.1,8c-0.5-4.3,3.5-5.9,6.9-7.8
		C782.1,254.4,787,252.5,793,254.4z"/>
	<path fill="#BF1E2D" d="M792,261.2c-1.7,0.9-5,0.2-5.9,1.9c-0.2-0.5-0.5-0.7-0.5-1.4C787.3,261,789.9,260.7,792,261.2z"/>
	<path fill="#BF1E2D" d="M788.7,265.5c-0.2,0.5-0.7,0.7-0.5,1.7c-4-4,3.8-3.8,6.4-4.7C799.3,265,790.8,264.8,788.7,265.5z"/>
	<path fill="#BF1E2D" d="M814.2,267.4c0,0.7,0.2,1.2,0.2,1.7c-0.5-0.7-1.9-0.2-2.4-0.9C812.1,267.1,813.5,267.6,814.2,267.4z"/>
	
		<radialGradient id="SVGID_2_" cx="48.2531" cy="-1266.413" r="10.1156" gradientTransform="matrix(2.3617 4.889685e-02 4.889685e-02 -2.3617 747.0654 -2740.7595)" gradientUnits="userSpaceOnUse">
		<stop  offset="0" style="stop-color:#ED1C24"/>
		<stop  offset="1" style="stop-color:#901E21"/>
	</radialGradient>
	<path fill="url(#SVGID_2_)" d="M806.7,253.4c-0.2-0.9-0.5-1.7-0.7-2.6c-4.7,0.7-8.7-2.1-13.7-2.1c-0.2-0.9-0.2-1.9-0.5-2.8
		c5,0.2,8.3,2.8,13.5,2.4c0.2-0.7-0.2-1.9-0.5-2.6c-5.2,0.7-8.3-2.1-13-2.4c-0.2-0.7,0-2.1-0.5-2.8c4.3,0,8,3.8,12.8,2.6
		c0-0.9-0.2-1.9-0.5-2.6c-5.2,1.4-8-2.4-12.5-2.8c-0.2-0.7-0.2-1.9-0.2-2.6c4.5,0.2,7.6,4.7,12.3,2.4c0-1.2-0.2-1.9-0.2-2.8
		c6.1-1.7,9.4,5.2,15.4,4.3c0.5,0.5,0.5,1.4,0.5,2.4c-6.1,1.4-9.2-5.7-15.4-3.8c0,0.9,0.2,1.4,0.2,2.4c5.7-2.4,9.4,4.7,15.6,3.8
		c0.2,0.7,0.2,1.7,0.5,2.6c-5.7,0.9-10.6-6.6-15.6-3.1c0.2,0.7,0.2,1.4,0.5,2.1c4.5-3.1,9.7,3.5,15.4,3.3c0.2,0.7,0.5,1.4,0.5,2.4
		c-5.2,0.7-10.9-6.4-15.4-2.4c0.2,0.7,0.5,1.4,0.5,2.4c4.5-4,9.4,2.8,15.6,2.6c0,0.9,0.5,1.4,0.5,2.4
		C816.3,256,811.4,249.6,806.7,253.4c0.2,0.7,0.5,1.4,0.7,2.4c3.8-3.5,9.7,2.4,15.4,2.4c0.2,0.9,0.5,1.4,0.7,2.4
		c-5.2,0.9-11.1-6.1-15.1-1.7c0.2,0.7,0.5,1.4,0.5,2.1c4-4.3,10.2,2.8,15.6,1.9c0.2,0.9,0.9,1.7,0.7,2.6c-5.4,0.5-11.1-6.1-15.1-1.7
		c0,0.9,0.5,1.2,0.5,1.9c5.2-3.5,10.4,3.3,15.8,1.7c0,0.9,1.2,1.7,0.9,2.4c-5.2,1.9-10.4-4.7-15.6-1.2c0.2,1.4,2.8,0.5,3.1,1.9
		c-4,0.5-8-0.9-12.3-0.7c-2.4,0-4.5,0.9-6.6,0.9c-3.1,0.2-8-0.7-6.4-4c5.7,3.1,15.1-1.2,21.7,1.7c0.2-0.5-0.5-1.4-0.5-1.9
		c-4-1.4-9.9-1.4-14.4-0.7c-0.9-0.2,0.9-0.5,0.5-1.2c-0.9-2.1-3.3-3.1-5.9-3.1c-8.7-0.5-14.4,6.6-20.1,9.9c0.2-0.9,0.2-1.9,0.5-3.1
		c5.2-4.5,13.9-12,23.9-8c0-0.9-0.7-1.4-0.7-2.6c4.5,0.2,9.4,0.2,13.7,1.4c0.5-0.5-0.5-1.4-0.5-2.1c-4.7-0.5-8.7-1.9-14.2-1.9
		c0-0.7-0.5-1.2-0.5-2.1c-9.2-3.3-17.2,3.1-22,6.9c0-0.9,0-1.9,0-3.1c4.7-4.5,12-8.5,21.3-6.4c0.2,0.5,0.2,1.4,0.5,1.9
		C797.7,251.8,801.7,252.9,806.7,253.4z M795.1,259.6c0.2,1.2,0.7,1.9,0.9,2.6c4.3-0.9,9.9,0,13.5,0.7c-0.5-0.5-0.5-1.7-0.9-2.1
		C804.5,259.8,800,259.3,795.1,259.6z"/>
	<g>
		<g>
			
				<radialGradient id="SVGID_3_" cx="33.0179" cy="-1340.1666" r="4.6859" gradientTransform="matrix(2.3617 4.889685e-02 4.889685e-02 -2.3617 768.3273 -2925.0271)" gradientUnits="userSpaceOnUse">
				<stop  offset="0.1703" style="stop-color:#2E3192"/>
				<stop  offset="0.5819" style="stop-color:#282780"/>
				<stop  offset="1" style="stop-color:#211E71"/>
			</radialGradient>
			<path fill="url(#SVGID_3_)" d="M790.4,231.9c-6.4-3.1-16.1-0.9-20.1,2.6c0.5,5.9,0.7,12,0.9,18.2c4.7-4,11.8-7.6,20.6-5.7
				C791.3,242.1,790.6,237.1,790.4,231.9z M788.2,232.2h0.5l0.5-0.5v0.5l0.5,0.2l-0.5,0.2v0.5l-0.5-0.5h-0.5l0.2-0.5L788.2,232.2z
				 M788.2,235.2h0.5l0.5-0.5v0.5l0.5,0.2l-0.5,0.2v0.5l-0.5-0.5h-0.5l0.2-0.5L788.2,235.2z M786.3,236.4h0.5l0.2-0.5l0.2,0.5
				l0.5,0.2l-0.5,0.2v0.5l-0.5-0.2l-0.5,0.2l0.2-0.5L786.3,236.4z M786.8,233.3l0.2-0.5l0.2,0.5l0.5,0.2l-0.5,0.2v0.5l-0.5-0.2
				l-0.5,0.2l0.2-0.5l-0.2-0.5L786.8,233.3z M784.9,231.9l0.2-0.5l0.2,0.5h0.5l-0.5,0.2v0.5l-0.5-0.2l-0.5,0.2l0.2-0.5l-0.2-0.5
				L784.9,231.9z M784.9,234.8l0.2-0.5l0.2,0.5h0.5l-0.5,0.2v0.5l-0.5-0.2l-0.5,0.2l0.2-0.5l-0.2-0.5L784.9,234.8z M784.4,240.7
				l-0.5-0.2l-0.5,0.2v-0.5L783,240h0.5l0.2-0.5l0.2,0.5h0.5l-0.5,0.5L784.4,240.7z M784.2,237.4l-0.5-0.2l-0.5,0.2v-0.5l-0.5-0.2
				h0.5l0.2-0.5l0.2,0.5h0.5l-0.5,0.5L784.2,237.4z M783.3,233.3l0.2-0.5l0.2,0.5h0.5l-0.5,0.5v0.5l-0.5-0.2l-0.5,0.2v-0.5l-0.5-0.2
				L783.3,233.3z M782.3,235.7l-0.5-0.2l-0.5,0.2v-0.5l-0.5-0.2l0.5-0.2l0.2-0.5l0.2,0.5h0.5l-0.2,0.5L782.3,235.7z M781.1,240.9
				l-0.5-0.2l-0.5,0.2v-0.5l-0.5-0.2l0.5-0.2l0.2-0.5l0.2,0.5h0.5l-0.2,0.5L781.1,240.9z M781.6,231.9l0.2-0.5l0.2,0.5h0.5l-0.2,0.5
				l0.2,0.5l-0.5-0.2l-0.5,0.2v-0.5l-0.5-0.2L781.6,231.9z M780.9,237.6l-0.5-0.2l-0.5,0.2v-0.5l-0.5-0.2l0.5-0.2l0.2-0.5l0.2,0.5
				h0.5l-0.2,0.5L780.9,237.6z M779.7,233.6l0.2-0.5l0.2,0.5h0.5l-0.2,0.5l0.2,0.5l-0.5-0.2l-0.5,0.2v-0.5l-0.5-0.2L779.7,233.6z
				 M779.3,239.7l-0.5-0.2l-0.5,0.2v-0.5l-0.5-0.2l0.5-0.2l0.2-0.5l0.2,0.5h0.5l-0.2,0.5L779.3,239.7z M779.3,236.4l-0.5-0.2
				l-0.5,0.2v-0.5l-0.5-0.2l0.5-0.2l0.2-0.5l0.2,0.5h0.5l-0.2,0.5L779.3,236.4z M778.1,232.4l0.2-0.5l0.2,0.5h0.5l-0.2,0.5l0.2,0.5
				l-0.5-0.2l-0.5,0.2v-0.5l-0.5-0.2L778.1,232.4z M777.6,238.5h-0.5l-0.5,0.5v-0.5l-0.5-0.2l0.5-0.2v-0.5l0.2,0.5h0.5l-0.2,0.5
				L777.6,238.5z M776.4,234.5v-0.5l0.2,0.5h0.5l-0.2,0.5l0.2,0.5h-0.5l-0.5,0.5v-0.5l-0.5-0.2L776.4,234.5z M775.9,237.6h-0.5
				l-0.2,0.5v-0.5l-0.5-0.2l0.5-0.2v-0.5l0.5,0.5h0.5L775.9,237.6L775.9,237.6z M774.3,240h-0.5l-0.2,0.5l-0.2-0.5l-0.5-0.2l0.5-0.2
				V239l0.5,0.2l0.5-0.2l-0.2,0.5L774.3,240z M773.6,242.8v-0.5l0.5,0.2l0.5-0.2l-0.2,0.5l0.2,0.5h-0.5l-0.2,0.5l-0.2-0.5l-0.5-0.2
				L773.6,242.8z M774.5,233.3v-0.5l0.5,0.5h0.5l-0.2,0.5l0.2,0.5H775l-0.2,0.5v-0.5l-0.5-0.2L774.5,233.3z M773.3,235.7v-0.5
				l0.5,0.2l0.5-0.2l-0.2,0.5l0.2,0.5h-0.5l-0.2,0.5l-0.2-0.5l-0.5-0.2L773.3,235.7z M771.2,234.5l0.5,0.2l0.5-0.2l-0.2,0.5l0.2,0.5
				h-0.5l-0.2,0.5v-0.5l-0.5-0.2l0.5-0.2L771.2,234.5z M771.7,238.5v-0.5l0.5,0.2l0.5-0.2l-0.2,0.5l0.2,0.5h-0.5l-0.2,0.5l-0.2-0.5
				h-0.5L771.7,238.5z M771.7,242.1v-0.5l0.5,0.2l0.5-0.2l-0.2,0.5l0.2,0.5h-0.5l-0.2,0.5l-0.2-0.5h-0.2L771.7,242.1z M771.9,245.4
				l0.5,0.2l0.5-0.2l-0.2,0.5l0.2,0.5h-0.5l-0.2,0.5l-0.2-0.5l-0.5-0.2l0.5-0.2V245.4z M772.6,249.6l-0.2,0.5l-0.2-0.5h-0.5l0.5-0.2
				v-0.5l0.5,0.2l0.5-0.2l-0.2,0.5l0.2,0.5L772.6,249.6z M774.1,247l-0.2,0.5l-0.2-0.5l-0.5-0.2l0.5-0.2v-0.5l0.5,0.2l0.5-0.2
				l-0.2,0.5l0.2,0.5L774.1,247z M775,240.2v-0.5l0.5,0.5h0.5l-0.2,0.5l0.2,0.5h-0.5l-0.2,0.5v-0.5l-0.5-0.2L775,240.2z
				 M775.2,243.7v-0.5l0.5,0.5h0.5l-0.2,0.5l0.2,0.5h-0.5l-0.2,0.5v-0.5l-0.5-0.2L775.2,243.7z M775.9,247.8l-0.2,0.5v-0.5l-0.5-0.2
				l0.5-0.2v-0.5l0.5,0.5h0.5l-0.5,0l0.2,0.5H775.9z M776.9,241.1v-0.5l0.5,0.5h0.5l-0.2,0.5l0.2,0.5h-0.5l-0.5,0.5v-0.5l-0.5-0.2
				L776.9,241.1z M777.8,245.2h-0.5l-0.5,0.5v-0.5l-0.5-0.2l0.5-0.2v-0.5l0.5,0.5h0.5l-0.2,0.5L777.8,245.2z M778.5,242.3l0.2-0.5
				l0.2,0.5h0.5l-0.2,0.5l0.2,0.5L779,243l-0.5,0.2v-0.5l-0.5-0.2L778.5,242.3z M779.7,246.1h-0.5l-0.5,0.5v-0.5l-0.5-0.2l0.5-0.2
				v-0.5l0.2,0.5h0.5l-0.2,0.5L779.7,246.1z M781.1,244.2l-0.5-0.2l-0.5,0.2v-0.5l-0.5-0.2l0.5-0.2l0.2-0.5l0.2,0.5h0.5l-0.2,0.5
				L781.1,244.2z M781.9,238.3l0.2-0.5l0.2,0.5h0.5l-0.2,0.5l0.2,0.5l-0.5-0.2l-0.5,0.2v-0.5l-0.5-0.2L781.9,238.3z M782.1,241.6
				l0.2-0.5l0.2,0.5h0.5l-0.2,0.5l0.2,0.5l-0.5-0.2l-0.5,0.2v-0.5l-0.5-0.2L782.1,241.6z M783,245.4l-0.5-0.2l-0.5,0.2v-0.5
				l-0.5-0.2l0.5-0.2l0.2-0.5l0.2,0.5h0.5l-0.2,0.5L783,245.4z M784.4,243.7l-0.5-0.2l-0.5,0.2v-0.5L783,243h0.5l0.2-0.5l0.2,0.5
				h0.5l-0.5,0.5L784.4,243.7z M784.7,238.1h0.5l0.2-0.5l0.2,0.5h0.5l-0.5,0.2v0.5l-0.5-0.2l-0.5,0.2l0.2-0.5L784.7,238.1z
				 M785.4,241.1l0.2-0.5l0.2,0.5h0.5l-0.5,0.2v0.5l-0.5-0.2l-0.5,0.2v-0.5l-0.5-0.5L785.4,241.1z M786.3,245.4l-0.5-0.2l-0.5,0.2
				v-0.5l-0.5-0.5h0.5l0.2-0.5l0.2,0.5h0.5l-0.5,0.2L786.3,245.4z M786.6,239.7h0.5l0.2-0.5l0.2,0.5l0.5,0.2l-0.5,0.2v0.5l-0.5-0.2
				l-0.5,0.2l0.2-0.5L786.6,239.7z M788,244l-0.5-0.2L787,244v-0.5l-0.5-0.5h0.5l0.2-0.5l0.2,0.5h0.5l-0.5,0.5L788,244z
				 M788.2,238.3h0.5l0.5-0.5v0.5l0.5,0.2l-0.5,0.2v0.5l-0.5-0.5h-0.5l0.2-0.5L788.2,238.3z M788.9,241.6l0.2-0.5l0.2,0.5l0.5,0.2
				l-0.5,0.2v0.5l-0.5-0.2l-0.5,0.2l0.2-0.5l-0.2-0.5L788.9,241.6z M789.6,245.4l-0.5-0.2l-0.5,0.2v-0.5l-0.2-0.5h0.5l0.2-0.5
				l0.2,0.5h0.5l-0.5,0.2L789.6,245.4z"/>
		</g>
	</g>
</g>
<g>
	<g>
		<path d="M287.5,164.8c-7.3,0-14.3-1.3-20.6-4c-6.3-2.7-11.6-6.3-16.2-10.9c-4.6-4.6-8.3-10.3-10.9-16.6c-2.7-6.3-4-13.3-4-20.6
			c0-7.6,1.3-14.3,4-20.6s6.3-11.6,10.9-15.9c4.6-4.3,9.9-7.6,16.2-10.3c6.3-2.3,13.3-3.6,20.6-3.6h54.4v17.9h-54.4
			c-4.6,0-9.3,0.7-13.3,2.3c-4,1.7-7.6,4-10.3,7c-3,3-5.3,6.3-7,10.3c-1.7,4-2.3,8.6-2.3,13.3s0.7,9.3,2.3,13.3c1.7,4,4,7.6,7,10.6
			c3,3,6.3,5.3,10.3,7c4,1.7,8.3,2.7,13.3,2.7h54.4v17.9h-54.4V164.8z"/>
		<path d="M447.9,164.8l-26.8-28.5h-36.5v-15.9h41.1c6.6,0,11.6-1.7,15.2-5.3c3.3-3.6,5-8.6,5-15.2s-1.7-11.6-5.3-14.9
			c-3.6-3.3-8.6-5-14.9-5h-52v84.5h-18.2V62.7h70.3c6,0,11.3,1,16.2,2.7c4.6,1.7,8.9,4.3,11.9,7.3c3.3,3.3,6,7.3,7.6,11.6
			c1.7,4.6,2.7,9.6,2.7,15.6c0,8.6-2,15.6-5.6,21.5c-4,5.6-9.3,9.9-16.2,12.6l31.8,31.2h-26.2V164.8z"/>
		<path d="M570.2,62.7v57c0,5.3-0.7,9.6-2,13.3c-1.3,3.6-3.3,6.6-6.3,8.9c-3,2.3-7,4-11.9,5c-4.6,1-10.6,1.7-17.6,1.7
			s-12.6-0.7-17.6-1.7c-5-1-8.9-2.7-11.9-5c-3-2.3-5-5.3-6.3-8.9c-1.3-3.6-2-8-2-13.3v-57h-19.2v57c0,8,1,14.6,3.3,20.6
			c2,6,5.6,10.6,9.9,14.6c4.6,4,10.6,6.6,17.6,8.6c6.6,1.7,14.9,2.7,24.2,2.7l0,0c0.3,0,0.7,0,1,0c0.3,0,0.7,0,1,0l0,0
			c9.6,0,17.6-1,24.5-2.7c7.3-2,13.3-4.6,17.6-8.6c4.6-4,8-8.6,9.9-14.6c2.3-6,3.3-12.6,3.3-20.6v-57H570.2z"/>
		<path d="M601.7,164.8v-17.9h75.6c5,0,8.6-1.3,11.3-3.6c2.7-2.3,4-5.6,4-9.6c0-4.3-1.3-7.6-4-9.9c-2.7-2.3-6.3-3.3-11.3-3.3h-44.7
			c-5,0-9.6-0.7-13.6-2.3c-4-1.3-7.3-3.3-10.3-6c-2.7-2.7-5-5.6-6.3-9.3c-1.7-3.6-2.3-7.6-2.3-11.6s0.7-8,2-11.6
			c1.3-3.6,3.6-6.6,6.3-8.9c2.7-2.7,6.3-4.6,10.3-6c4-1.3,8.6-2.3,13.9-2.3h72.3v17.9h-72.3c-4.3,0-7.6,1-9.9,3.3
			c-2.3,2.3-3.6,5.3-3.6,9.3c0,4,1.3,7,3.6,9.3c2.3,2,5.6,3.3,9.6,3.3h45.1c10.6,0,18.9,2.3,24.5,7.3c5.6,5,8.3,12.3,8.3,22.2
			c0,4.3-0.7,8.3-2,11.9c-1.3,3.6-3.3,7-6,9.6c-2.7,2.7-6.3,4.6-10.3,6.3s-8.9,2.3-14.6,2.3h-75.6V164.8z"/>
		<path d="M724.7,164.8V62.7h99.8v17.9h-81.2v66.6h81.5v17.9H724.7V164.8z M753.9,120.4v-14.9h66.3v14.9H753.9z"/>
	</g>
	<polygon points="16,112.7 82.6,60.7 149.3,112.7 82.6,164.8 	"/>
	<polygon points="85.6,59 152.6,7 219.2,59 152.6,110.8 	"/>
	<polygon points="85.6,166.4 152.6,114.4 219.2,166.4 152.6,218.5 	"/>
	<g id="Ball_1_">
		<g>
			<g>
				<defs>
					<path id="SVGID_4_" d="M115.4,112.7c0,20.2,16.6,36.8,36.8,36.8S189,133,189,112.7s-16.6-36.8-36.8-36.8
						S115.4,92.2,115.4,112.7"/>
				</defs>
				<clipPath id="SVGID_5_">
					<use xlink:href="#SVGID_4_"  overflow="visible"/>
				</clipPath>
				<rect x="115.4" y="75.9" clip-path="url(#SVGID_5_)" fill="#FF0000" width="73.6" height="73.6"/>
			</g>
		</g>
		<g>
			<g>
				<defs>
					<path id="SVGID_6_" d="M115.4,112.7c0,20.2,16.6,36.8,36.8,36.8S189,133,189,112.7s-16.6-36.8-36.8-36.8
						S115.4,92.2,115.4,112.7"/>
				</defs>
				<clipPath id="SVGID_7_">
					<use xlink:href="#SVGID_6_"  overflow="visible"/>
				</clipPath>
				
					<radialGradient id="SVGID_8_" cx="-164.733" cy="-559.5195" r="6.1152" gradientTransform="matrix(2.3622 0 0 2.3622 528.039 1415.8557)" gradientUnits="userSpaceOnUse">
					<stop  offset="0" style="stop-color:#FFFFFF"/>
					<stop  offset="1" style="stop-color:#FF0000"/>
				</radialGradient>
				<path clip-path="url(#SVGID_7_)" fill="url(#SVGID_8_)" d="M124.4,94.2c0,8,6.6,14.6,14.6,14.6c8,0,14.6-6.3,14.6-14.6
					s-6.6-14.6-14.6-14.6C131,79.6,124.4,86.2,124.4,94.2"/>
			</g>
		</g>
	</g>
	<g>
		<path fill="#FF0000" d="M318.6,185c1.7,0,3.3,0,5,0.3c1.7,0.3,3,1,4.3,2.3c1.3,1,2.3,2.7,3,5c0.7,2,1,5,1,8.9c0,3-0.3,5.3-0.7,7.6
			c-0.3,2-1.3,4-2.3,5.3c-1,1.3-2.7,2.3-4.3,3c-1.7,0.7-4,1-6.3,1h-5.6c-0.3,0-0.7-0.3-0.7-0.7v-32.5c0-0.3,0.3-0.7,0.7-0.7
			L318.6,185L318.6,185z M318.6,214.8c1.7,0,3.3-0.3,4.3-1c1-0.7,2-1.7,2.7-2.7c0.7-1.3,1-2.7,1.3-4.3c0.3-1.7,0.3-3.6,0.3-5.6
			c0-2.7-0.3-5-0.7-6.6c-0.3-1.7-1-3-1.7-4c-0.7-1-1.7-1.7-2.7-2c-1-0.3-2.3-0.3-3.6-0.3H316v26.5L318.6,214.8L318.6,214.8z"/>
		<path fill="#FF0000" d="M343.2,217.8c0,0.3-0.3,0.7-0.7,0.7h-2.7c-0.3,0-0.7-0.3-0.7-0.7v-19.9h-4c-0.3,0-0.7-0.3-0.7-0.7v-2
			c0-0.3,0.3-0.7,0.7-0.7h7c0.3,0,0.3,0,0.7,0.3c0,0,0,0.3,0,0.7L343.2,217.8L343.2,217.8z M343.8,186.3c0,0.7-0.3,1.7-1,2
			c-0.7,0.7-1.3,1-2,1c-0.7,0-1.7-0.3-2-1c-0.7-0.7-1-1.3-1-2c0-1,0.3-1.7,1-2c0.7-0.7,1.3-1,2-1c1,0,1.7,0.3,2,1
			C343.5,184.7,343.8,185.3,343.8,186.3z"/>
		<path fill="#FF0000" d="M366,208.9c0,0.7,0,1.7,0,2.7s0,2,0,3c0,1,0,2,0,3c0,1,0,1.7,0,2.3c0,1,0,2.3-0.3,3.3
			c-0.3,1-0.7,2-1.3,2.7c-0.7,0.7-1.7,1.3-2.7,2c-1,0.3-2.3,0.7-4,0.7c-1,0-2,0-3-0.3c-1-0.3-2-0.3-2.7-0.7c-0.7-0.3-1.3-0.7-2-1
			c-0.7-0.3-0.7-0.7-0.7-0.7s0-0.3,0.3-0.7l0.7-1.7c0-0.3,0.3-0.3,0.3-0.3s0.3,0,0.7,0.3c0.3,0.3,1,0.3,1.3,0.7
			c0.7,0.3,1.3,0.3,2,0.7c0.7,0.3,1.7,0.3,2.3,0.3c1,0,2,0,2.7-0.3c0.7-0.3,1.3-0.7,1.7-1.3c0.3-0.3,0.7-1,0.7-1.7c0-0.7,0-1.3,0-2
			c0-1.3,0-2.3,0-3.3c0-1,0-1.7,0-1.7c-0.3,0.3-0.7,0.3-1,0.7c-0.3,0.3-1,0.7-1.3,1c-0.7,0.3-1.3,0.7-2,0.7
			c-0.7,0.3-1.3,0.3-2.3,0.3c-2.3,0-4-1-5.3-2.7c-1.3-2-2-4.6-2-8c0-2,0.3-3.6,0.7-5.3c0.3-1.7,1-3,1.7-4c0.7-1,1.7-2,3-2.7
			c1-0.7,2.7-1,4-1c0.7,0,1.7,0,2.3,0.3c0.7,0,1.3,0.3,1.7,0.7c0.3,0.3,1,0.3,1.3,0.7c0.3,0.3,0.7,0.3,0.7,0.7
			c0.3-0.7,0.3-1,0.7-1.7c0.3-0.3,0.3-0.7,0.7-0.7c0.3,0,0.3,0,0.3,0l2.3,1.3l0.3,0.3c0,0.3,0,0.3-0.3,0.7c-0.3,0.3-0.3,0.7-0.7,1.3
			c-0.3,0.7-0.3,1-0.3,1.7c0,0.3,0,1,0,2L366,208.9L366,208.9z M362.4,198.6c-0.3-0.3-1-0.3-2-0.7c-0.7-0.3-1.7-0.7-2.7-0.7
			c-2,0-3.3,0.7-4.3,2.3c-1,1.7-1.3,3.6-1.3,6.3c0,2.7,0.3,4.6,1,6.3s1.7,2.3,3.3,2.3c0.7,0,1.3,0,1.7-0.3c0.3-0.3,1-0.3,1.7-0.7
			c0.7-0.3,1-0.7,1.3-0.7c0.3-0.3,0.7-0.7,1-0.7L362.4,198.6L362.4,198.6z"/>
		<path fill="#FF0000" d="M379.3,217.8c0,0.3-0.3,0.7-0.7,0.7H376c-0.3,0-0.7-0.3-0.7-0.7v-19.9h-3.6c-0.3,0-0.7-0.3-0.7-0.7v-2
			c0-0.3,0.3-0.7,0.7-0.7h7c0.3,0,0.3,0,0.7,0.3c0,0,0,0.3,0,0.7V217.8z M380,186.3c0,0.7-0.3,1.7-1,2c-0.7,0.7-1.3,1-2,1
			c-1,0-1.7-0.3-2-1c-0.7-0.7-1-1.3-1-2c0-1,0.3-1.7,1-2c0.7-0.7,1.3-1,2-1c1,0,1.7,0.3,2,1C380,184.7,380,185.3,380,186.3z"/>
		<path fill="#FF0000" d="M400.2,216.5c0,0.3,0,0.3,0,0.3c0,0.3-0.3,0.3-0.7,0.7c-0.3,0.3-1,0.3-1.7,0.7c-0.7,0.3-1.3,0.3-2,0.7
			c-0.7,0-1.3,0.3-2,0.3c-1,0-2-0.3-3-0.7c-1-0.3-1.3-0.7-1.7-1.3c-0.3-0.3-0.7-0.7-1-1.3c-0.3-0.3-0.3-1-0.3-1.3c0-0.3,0-1,0-1.3
			c0-0.3,0-1,0-1.3v-13.9h-3.6c0,0-0.3,0-0.3-0.3v-0.3v-2c0-0.3,0-0.3,0-0.3s0-0.3,0.3-0.3h3.6V188c0-0.3,0.3-0.3,0.7-0.7l2.7-0.7
			c0,0,0,0,0.3,0c0,0,0,0,0.3,0c0.3,0,0.3,0.3,0.3,0.7v7.6h7.3c0.3,0,0.7,0,0.7,0.3c0,0,0,0,0,0.3l0,0l-0.7,2c0,0.3-0.3,0.3-0.7,0.3
			h-6.3v13.9c0,0.3,0,1,0,1.3c0,0.3,0,1,0.3,1.3c0.3,0.3,0.3,0.7,1,1c0.3,0.3,1,0.3,1.7,0.3s1,0,1.7-0.3c0.3,0,1-0.3,1.3-0.3
			c0.3-0.3,0.7-0.3,1-0.3s0.3-0.3,0.7-0.3c0.3,0,0.3,0,0.3,0.3L400.2,216.5z"/>
		<path fill="#FF0000" d="M418.4,210.5c0,0.7,0,1.3,0,2c0,0.3,0,1,0,1.3c0,0.3,0,0.7,0.3,1c0,0.3,0.3,0.7,0.3,1s0.3,0.7,0.7,1
			c0.3,0.3,0.3,0.7,0.3,0.7v0.3c0,0-0.3,0-0.3,0.3l-2,1.3c-0.3,0-0.3,0-0.3,0c-0.3,0-0.3,0-0.7-0.3c-0.3-0.3-0.3-0.7-0.7-1
			c-0.3-0.3-0.3-0.7-0.3-1c0-0.3-0.3-0.7-0.3-0.7c-0.3,0-0.3,0.3-0.7,0.7c-0.3,0.3-0.7,0.7-1.3,1s-1.3,0.7-2,1s-1.7,0.3-2.7,0.3
			c-2,0-3.6-0.7-4.6-1.7c-1-1.3-1.7-3-1.7-5c0-1.3,0.3-2.7,0.7-3.3c0.3-1,1-1.7,2-2.3c0.7-0.7,1.7-1,2.7-1.3c1-0.3,2-0.7,3-0.7
			c1,0,2-0.3,2.7-0.3s1.7,0,2,0v-3c0-1.3-0.3-2.7-1-3.3c-0.7-0.7-1.7-1-3.3-1c-0.7,0-1.7,0-2.3,0.3s-1.3,0.3-1.7,0.7
			c-0.7,0.3-1,0.3-1.3,0.7c-0.3,0.3-0.7,0.3-0.7,0.3s-0.3,0-0.3-0.3l-0.7-1.7c0-0.3,0-0.3,0-0.7c0-0.3,0.3-0.3,0.7-0.7
			c0.7-0.3,1-0.7,2-0.7c0.7-0.3,1.7-0.3,2.7-0.7c1,0,1.7-0.3,2.7-0.3c1.3,0,2.7,0,3.6,0.3c1,0.3,1.7,0.7,2.3,1.3
			c0.7,0.7,1,1.3,1.3,2.3c0.3,1,0.3,1.7,0.3,2.7L418.4,210.5L418.4,210.5z M414.8,206.5c-0.7,0-1.3,0-2.3,0c-1,0-2,0.3-3,0.7
			c-1,0.3-2,0.7-2.7,1.7c-0.7,0.7-1,1.7-1,3c0,0.3,0,1,0.3,1.3c0,0.3,0.3,1,0.7,1.3c0.3,0.3,0.7,0.7,1,1c0.3,0.3,1,0.3,1.7,0.3
			s1.3,0,1.7-0.3c0.7-0.3,1-0.7,1.7-1c0.3-0.3,1-0.7,1.3-1c0.3-0.3,0.7-0.7,1-0.7L414.8,206.5L414.8,206.5z"/>
		<path fill="#FF0000" d="M435,217.5v0.3c0,0,0,0.3-0.3,0.3c-0.3,0-0.7,0.3-1,0.3c-0.3,0-1,0.3-1.3,0.3c-0.3,0-1,0-1.3,0
			c-1.3,0-2.3-0.3-3-0.7c-0.7-0.3-1.3-1-1.7-1.7c0-0.3-0.3-1-0.3-1.7c0-0.7-0.3-1.3-0.3-2c0-0.7,0-1.3,0-2c0-0.7,0-1.3,0-1.7v-25.5
			c0-0.3,0-0.7,0.3-0.7l2.3-0.7c0.3,0,0.3,0,0.3,0s0,0,0.3,0c0.3,0,0.3,0,0.3,0.3v0.3v26.2c0,0.3,0,1,0,1.3c0,0.3,0,1,0,1.3
			c0,0.3,0,1,0,1.3c0,0.3,0,0.7,0,0.7c0,0.3,0.3,0.7,0.3,1c0.3,0.3,0.7,0.7,1.3,0.7s1.3,0,1.7-0.3c0.3-0.3,0.7-0.3,1-0.3
			c0.3,0,0.3,0,0.3,0s0,0,0,0.3L435,217.5z"/>
		<path fill="#FF0000" d="M464.2,217.8c0,0.3-0.3,0.7-0.7,0.7h-12.9c-0.3,0-0.7-0.3-0.7-0.7v-2c0-0.3,0.3-0.7,0.7-0.7h4.3V188h-4.3
			c-0.3,0-0.7-0.3-0.7-0.7v-2c0-0.3,0.3-0.7,0.7-0.7h12.9c0.3,0,0.7,0.3,0.7,0.7v2c0,0.3-0.3,0.7-0.7,0.7h-4.3v27.2h4.3
			c0.3,0,0.7,0.3,0.7,0.7V217.8z"/>
		<path fill="#FF0000" d="M469.8,200.9c0-0.7,0-1,0-1.7c0-0.7,0-1-0.3-1.7c0-0.7-0.3-1-0.3-1c-0.3-0.3-0.3-0.3-0.3-0.7
			c0,0,0-0.3,0.3-0.3l2-1.3c0,0,0,0,0.3,0c0,0,0,0,0.3,0c0.3,0,0.3,0,0.7,0.3c0,0.3,0.3,0.7,0.3,1s0.3,0.7,0.3,1s0,0.7,0,0.7
			c0.3-0.3,0.7-0.7,1.3-1s1-0.7,1.7-1s1.3-0.7,1.7-0.7c0.7-0.3,1.3-0.3,1.7-0.3c1.7,0,2.7,0.3,3.6,0.7c0.7,0.3,1.3,1.3,1.7,2.3
			c0.3-0.3,0.7-0.7,1.3-1s1-0.7,1.7-1s1-0.7,1.7-0.7c0.7-0.3,1.3-0.3,1.7-0.3c1.3,0,2.3,0.3,3.3,0.7c0.7,0.3,1.3,1,1.7,1.7
			c0.3,0.7,0.7,1.3,0.7,2.3c0,1,0,1.7,0,2.7v16.2c0,0.3-0.3,0.7-0.7,0.7h-2.7c-0.3,0-0.7-0.3-0.7-0.7v-16.2c0-0.7,0-1,0-1.7
			c0-0.3-0.3-1-0.3-1.3c-0.3-0.3-0.7-0.7-1-1c-0.3-0.3-1-0.3-1.7-0.3c-1.3,0-2,0.3-3,0.7c-0.7,0.3-1.3,1-2,1.3v18.2
			c0,0.3-0.3,0.7-0.7,0.7h-2.7c-0.3,0-0.7-0.3-0.7-0.7v-16.2c0-0.7,0-1,0-1.7c0-0.3-0.3-1-0.3-1.3c-0.3-0.3-0.7-0.7-1-1
			c-0.3-0.3-1-0.3-1.7-0.3s-1,0-1.7,0.3c-0.3,0-1,0.3-1.3,0.7c-0.3,0.3-0.7,0.3-1,0.7c-0.3,0.3-0.7,0.3-0.7,0.7v18.2
			c0,0.3-0.3,0.7-0.7,0.7h-2.7c-0.3,0-0.7-0.3-0.7-0.7L469.8,200.9L469.8,200.9z"/>
		<path fill="#FF0000" d="M518.5,210.5c0,0.7,0,1.3,0,2c0,0.3,0,1,0,1.3c0,0.3,0,0.7,0.3,1c0,0.3,0.3,0.7,0.3,1s0.3,0.7,0.7,1
			c0.3,0.3,0.3,0.7,0.3,0.7v0.3c0,0-0.3,0-0.3,0.3l-2,1.3c-0.3,0-0.3,0-0.3,0c-0.3,0-0.3,0-0.7-0.3c-0.3-0.3-0.3-0.7-0.7-1
			c0-0.3-0.3-0.7-0.3-1c0-0.3-0.3-0.7-0.3-0.7s-0.3,0.3-0.7,0.7c-0.3,0.3-1,0.7-1.3,1c-0.7,0.3-1.3,0.7-2,1
			c-0.7,0.3-1.7,0.3-2.7,0.3c-2,0-3.6-0.7-4.6-1.7c-1-1.3-1.7-3-1.7-5c0-1.3,0.3-2.7,0.7-3.3c0.3-1,1-1.7,2-2.3
			c0.7-0.7,1.7-1,2.7-1.3c1-0.3,2-0.7,3-0.7c1-0.3,2-0.3,2.7-0.3c0.7,0,1.3,0,2,0v-3c0-1.3-0.3-2.7-1-3.3c-0.7-0.7-1.7-1-3.6-1
			c-0.7,0-1.7,0-2.3,0.3c-0.7,0.3-1.3,0.3-1.7,0.7c-0.7,0.3-1,0.3-1.3,0.7c-0.3,0.3-0.7,0.3-0.7,0.3c-0.3,0-0.3,0-0.3-0.3l-0.7-1.7
			c0-0.3,0-0.3,0-0.7c0-0.3,0.3-0.3,0.7-0.7c0.7-0.3,1-0.7,2-0.7c0.7-0.3,1.7-0.3,2.3-0.7c1,0,1.7-0.3,2.7-0.3c1.3,0,2.7,0,3.6,0.3
			c1,0.3,1.7,0.7,2.3,1.3c0.7,0.7,1,1.3,1.3,2.3c0.3,1,0.3,1.7,0.3,2.7L518.5,210.5L518.5,210.5z M514.9,206.5c-0.7,0-1.3,0-2.3,0
			s-2,0.3-3,0.7c-1,0.3-2,0.7-2.7,1.7c-0.7,0.7-1,1.7-1,3c0,0.3,0,1,0.3,1.3c0,0.3,0.3,1,0.7,1.3c0.3,0.3,0.7,0.7,1,1
			c0.3,0.3,1,0.3,1.7,0.3s1.3,0,2-0.3c0.7-0.3,1-0.7,1.7-1c0.3-0.3,1-0.7,1.3-1c0.3-0.3,0.7-0.7,1-0.7L514.9,206.5z"/>
		<path fill="#FF0000" d="M542,208.9c0,0.7,0,1.7,0,2.7s0,2,0,3c0,1,0,2,0,3c0,1,0,1.7,0,2.3c0,1,0,2.3-0.3,3.3
			c-0.3,1-0.7,2-1.3,2.7c-0.7,0.7-1.7,1.3-2.7,2c-1,0.3-2.3,0.7-4,0.7c-1,0-2,0-3-0.3c-1-0.3-2-0.3-2.7-0.7c-0.7-0.3-1.3-0.7-2-1
			c-0.7-0.3-0.7-0.7-0.7-0.7s0-0.3,0.3-0.7l0.7-1.7c0-0.3,0.3-0.3,0.3-0.3s0.3,0,0.7,0.3c0.3,0.3,1,0.3,1.7,0.7
			c0.7,0.3,1.3,0.3,2,0.7c0.7,0.3,1.7,0.3,2.3,0.3c1,0,2,0,2.7-0.3c0.7-0.3,1.3-0.7,1.7-1.3c0.3-0.3,0.7-1,0.7-1.7c0-0.7,0-1.3,0-2
			c0-1.3,0-2.3,0-3.3c0-1,0-1.7,0-1.7c-0.3,0.3-0.7,0.3-1,0.7c-0.3,0.3-1,0.7-1.3,1c-0.7,0.3-1.3,0.7-2,0.7
			c-0.7,0.3-1.3,0.3-2.3,0.3c-2.3,0-4-1-5.3-2.7c-1.3-2-2-4.6-2-8c0-2,0.3-3.6,0.7-5.3s1-3,1.7-4c0.7-1,1.7-2,3-2.7c1-0.7,2.7-1,4-1
			c0.7,0,1.7,0,2.3,0.3c0.7,0,1.3,0.3,1.7,0.7c0.3,0.3,1,0.3,1.3,0.7c0.3,0.3,0.7,0.3,0.7,0.7c0.3-0.7,0.3-1,0.7-1.7
			c0.3-0.3,0.3-0.7,0.7-0.7c0.3,0,0.3,0,0.3,0l2.3,1.3l0.3,0.3c0,0.3,0,0.3-0.3,0.7c-0.3,0.3-0.3,0.7-0.7,1.3
			c-0.3,0.7-0.3,1-0.3,1.7c0,0.3,0,1,0,2L542,208.9L542,208.9z M538.4,198.6c-0.3-0.3-1-0.3-2-0.7c-0.7-0.3-1.7-0.7-2.7-0.7
			c-2,0-3.3,0.7-4,2.3c-1,1.7-1.3,3.6-1.3,6.3c0,2.7,0.3,4.6,1,6.3c0.7,1.7,1.7,2.3,3.3,2.3c0.7,0,1.3,0,1.7-0.3
			c0.7-0.3,1-0.3,1.7-0.7c0.3-0.3,1-0.7,1.3-0.7c0.3-0.3,0.7-0.7,1-0.7V198.6L538.4,198.6z"/>
		<path fill="#FF0000" d="M555,217.8c0,0.3-0.3,0.7-0.7,0.7h-2.7c-0.3,0-0.7-0.3-0.7-0.7v-19.9h-4c-0.3,0-0.7-0.3-0.7-0.7v-2
			c0-0.3,0.3-0.7,0.7-0.7h7c0.3,0,0.3,0,0.7,0.3c0,0,0,0.3,0,0.7L555,217.8z M556,186.3c0,0.7-0.3,1.7-1,2c-0.7,0.7-1.3,1-2,1
			c-1,0-1.7-0.3-2-1c-0.7-0.7-1-1.3-1-2c0-1,0.3-1.7,1-2c0.7-0.7,1.3-1,2-1c1,0,1.7,0.3,2,1C555.6,184.7,556,185.3,556,186.3z"/>
		<path fill="#FF0000" d="M580.2,217.8c0,0.3-0.3,0.7-0.7,0.7h-2.7c-0.3,0-0.7-0.3-0.7-0.7v-16.2c0-0.7,0-1,0-1.7
			c0-0.3-0.3-1-0.3-1.3c-0.3-0.3-0.7-0.7-1-1s-1-0.3-1.7-0.3c-0.7,0-1.7,0-2.3,0.3c-0.7,0.3-1.3,0.3-1.7,0.7c-0.7,0.3-1,0.7-1.3,1
			s-0.7,0.7-1,1v17.2c0,0.3-0.3,0.7-0.7,0.7h-2.7c-0.3,0-0.7-0.3-0.7-0.7v-16.9c0-0.7,0-1.3,0-1.7s0-0.7-0.3-1
			c-0.3-0.7-0.3-1.3-0.7-1.3c0-0.3-0.3-0.3-0.3-0.7c0-0.3,0-0.3,0.3-0.3l2.3-1.3c0,0,0,0,0.3,0c0,0,0,0,0.3,0s0.3,0,0.7,0.3
			c0.3,0.3,0.3,0.7,0.3,1s0.3,0.7,0.3,1c0,0.3,0,0.7,0,0.7c0.3-0.3,1-0.7,1.3-1c0.7-0.3,1-0.7,1.7-1c0.7-0.3,1.3-0.7,2.3-1
			c0.7-0.3,1.7-0.3,2.7-0.3c1.3,0,2.3,0.3,3.3,0.7c0.7,0.3,1.3,1,1.7,1.7c0.3,0.7,0.7,1.3,0.7,2.3c0,1,0,1.7,0,2.7L580.2,217.8z"/>
		<path fill="#FF0000" d="M603,208.9c0,0.7,0,1.7,0,2.7s0,2,0,3c0,1,0,2,0,3c0,1,0,1.7,0,2.3c0,1,0,2.3-0.3,3.3
			c-0.3,1-0.7,2-1.3,2.7c-0.7,0.7-1.7,1.3-2.7,2c-1,0.3-2.3,0.7-4,0.7c-1,0-2,0-3-0.3c-1-0.3-2-0.3-2.7-0.7c-0.7-0.3-1.3-0.7-2-1
			c-0.7-0.3-0.7-0.7-0.7-0.7s0-0.3,0.3-0.7l0.7-1.7c0-0.3,0.3-0.3,0.3-0.3s0.3,0,0.7,0.3c0.3,0.3,1,0.3,1.3,0.7
			c0.7,0.3,1.3,0.3,2,0.7c0.7,0.3,1.7,0.3,2.3,0.3c1,0,2,0,2.7-0.3c0.7-0.3,1.3-0.7,1.7-1.3c0.3-0.3,0.7-1,0.7-1.7c0-0.7,0-1.3,0-2
			c0-1.3,0-2.3,0-3.3c0-1,0-1.7,0-1.7c-0.3,0.3-0.7,0.3-1,0.7c-0.3,0.3-1,0.7-1.3,1c-0.7,0.3-1.3,0.7-2,0.7
			c-0.7,0.3-1.3,0.3-2.3,0.3c-2.3,0-4-1-5.3-2.7c-1.3-2-2-4.6-2-8c0-2,0.3-3.6,0.7-5.3s1-3,1.7-4c0.7-1,1.7-2,3-2.7c1-0.7,2.7-1,4-1
			c0.7,0,1.7,0,2.3,0.3c0.7,0,1.3,0.3,1.7,0.7c0.3,0.3,1,0.3,1.3,0.7c0.3,0.3,0.7,0.3,0.7,0.7c0.3-0.7,0.3-1,0.7-1.7
			c0.3-0.3,0.3-0.7,0.7-0.7h0.3l2.3,1.3l0.3,0.3c0,0.3,0,0.3-0.3,0.7c-0.3,0.3-0.3,0.7-0.7,1.3c-0.3,0.7-0.3,1-0.3,1.7
			c0,0.3,0,1,0,2L603,208.9L603,208.9z M599.4,198.6c-0.3-0.3-1-0.3-2-0.7c-0.7-0.3-1.7-0.7-2.7-0.7c-2,0-3.3,0.7-4.3,2.3
			c-1,1.7-1.3,3.6-1.3,6.3c0,2.7,0.3,4.6,1,6.3c0.7,1.7,1.7,2.3,3.3,2.3c0.7,0,1.3,0,1.7-0.3c0.7-0.3,1-0.3,1.7-0.7
			c0.3-0.3,1-0.7,1.3-0.7c0.3-0.3,0.7-0.7,1-0.7L599.4,198.6L599.4,198.6z"/>
		<path fill="#FF0000" d="M641.8,217.8c0,0.3,0,0.3,0,0.7c0,0-0.3,0-0.7,0h-15.2c-0.3,0-0.7-0.3-0.7-0.7v-32.5
			c0-0.3,0.3-0.7,0.7-0.7h15.2c0.3,0,0.3,0,0.7,0c0,0,0,0,0,0.3c0,0,0,0,0,0.3v0.3l-0.7,2c0,0.3,0,0.3-0.3,0.3c0,0-0.3,0-0.7,0
			h-10.9v10.9h9.6c0.3,0,0.3,0,0.7,0c0,0,0,0.3,0,0.7v2c0,0.3,0,0.3,0,0.7c0,0-0.3,0-0.7,0h-9.6v12.3h11.6c0.3,0,0.7,0.3,0.7,0.7
			L641.8,217.8z"/>
		<path fill="#FF0000" d="M663.4,227.4c0,0.3,0,0.7-0.3,0.7l-2.3,0.7c-0.3,0-0.3,0-0.3,0s0,0-0.3,0c0,0-0.3,0-0.3-0.3v-0.3v-11.9
			c-0.3,0.3-0.7,0.7-1,1s-1,0.7-1.3,1s-1,0.7-1.7,0.7c-0.7,0.3-1.3,0.3-2,0.3c-1.3,0-2.7-0.3-3.6-1c-1-0.7-2-1.7-2.7-2.7
			c-0.7-1.3-1-2.7-1.3-4c-0.3-1.7-0.3-3.3-0.3-5s0.3-3,0.7-4.3c0.3-1.3,1-2.7,1.7-4c0.7-1,1.7-2,3-2.7c1-0.7,2.3-1,4-1
			c0.7,0,1.3,0,2,0.3s1.3,0.3,1.7,0.7c0.7,0.3,1,0.7,1.3,0.7c0.3,0.3,0.7,0.7,1,0.7c0-0.3,0.3-0.3,0.3-0.7c0-0.3,0.3-0.3,0.3-0.7
			c0-0.3,0.3-0.3,0.3-0.7c0-0.3,0.3-0.3,0.3-0.3s0.3,0,0.7,0.3l1.7,1c0.3,0.3,0.3,0.3,0.3,0.3s0,0.3-0.3,1c-0.3,0.3-0.3,1-0.7,1.3
			c0,0.3-0.3,1-0.3,1.3c0,0.3,0,1,0,1.7L663.4,227.4L663.4,227.4z M659.4,199.3c-0.3-0.3-1-0.7-2-1.3c-0.7-0.7-1.7-0.7-3-0.7
			c-1.3,0-2,0.3-2.7,0.7c-0.7,0.7-1.3,1.3-1.7,2c-0.3,1-0.7,1.7-0.7,3c0,1-0.3,2-0.3,3c0,1.3,0,2.3,0.3,3.6c0,1,0.3,2.3,0.7,3
			c0.3,1,0.7,1.7,1.3,2.3c0.7,0.7,1.3,1,2.3,1c1,0,2-0.3,3-1c1-0.7,1.7-1.3,2.3-2v-13.6H659.4z"/>
		<path fill="#FF0000" d="M682.9,195.6c0-0.3,0-0.7,0.3-0.7l2.3-0.7c0.3,0,0.3,0,0.3,0s0,0,0.3,0c0,0,0.3,0,0.3,0.3v0.3v17.6
			c0,0.7,0,1,0,1.7c0,0.7,0.3,1,0.3,1.7c0,0.3,0.3,0.7,0.7,1c0.3,0.3,0.3,0.7,0.3,0.7v0.3c0,0-0.3,0-0.3,0.3l-2,1.3
			c-0.3,0-0.3,0-0.3,0c-0.3,0-0.3,0-0.7-0.3c0-0.3-0.3-0.3-0.3-0.7c0-0.3-0.3-0.7-0.3-1c0-0.3-0.3-0.7-0.3-1c-0.3,0.3-0.7,0.7-1.3,1
			c-0.3,0.3-1,0.7-1.7,1s-1.3,0.7-2,0.7c-0.7,0.3-1.3,0.3-2,0.3c-1.7,0-3-0.3-4-0.7c-1-0.3-1.7-1-2-1.7c-0.3-0.7-0.7-1.3-1-2.3
			c0-1-0.3-1.7-0.3-2.7v-16.2c0-0.3,0-0.7,0.3-0.7l2.3-0.7c0.3,0,0.3,0,0.3,0s0,0,0.3,0c0.3,0,0.3,0,0.3,0.3v0.3v16.9
			c0,0.7,0,1,0.3,1.7c0.3,0.7,0.3,1,0.7,1.3c0.3,0.3,0.7,0.7,1.3,1s1.3,0.3,2,0.3c0.3,0,1,0,1.3-0.3c0.7-0.3,1-0.3,1.7-0.7
			c0.7-0.3,1-0.7,1.7-0.7c0.3-0.3,0.7-0.7,1-0.7V195.6L682.9,195.6z"/>
		<path fill="#FF0000" d="M699.5,217.8c0,0.3-0.3,0.7-0.7,0.7h-2.7c-0.3,0-0.7-0.3-0.7-0.7v-19.9h-3.6c-0.3,0-0.7-0.3-0.7-0.7v-2
			c0-0.3,0.3-0.7,0.7-0.7h7c0.3,0,0.3,0,0.7,0.3c0,0,0,0.3,0,0.7V217.8L699.5,217.8z M700.2,186.3c0,0.7-0.3,1.7-1,2
			c-0.7,0.7-1.3,1-2,1c-1,0-1.7-0.3-2-1c-0.7-0.7-1-1.3-1-2c0-1,0.3-1.7,1-2c0.7-0.7,1.3-1,2-1c1,0,1.7,0.3,2,1
			C699.8,184.7,700.2,185.3,700.2,186.3z"/>
		<path fill="#FF0000" d="M707.5,202.6c0-1,0-1.7,0-2.7c0-0.7-0.3-1.7-0.7-2.3c0-0.3-0.3-0.7-0.7-1s-0.3-0.7-0.3-0.7s0,0,0-0.3
			c0,0,0.3,0,0.3-0.3l2-1.3c0.3,0,0.3,0,0.3,0s0.3,0,0.7,0.3c0.3,0.3,0.3,0.3,0.7,0.7c0,0.3,0.3,0.7,0.3,1c0,0.3,0.3,0.7,0.3,0.7
			c0.3-0.3,0.7-0.3,1-0.7c0.3-0.3,1-0.7,1.7-1c0.7-0.3,1.3-0.7,2-0.7c0.7-0.3,1.7-0.3,2.7-0.3c1.3,0,2.3,0.3,3.3,1s1.7,1.7,2.3,2.7
			c0.7,1,1,2.3,1.3,4c0.3,1.3,0.3,3,0.3,4.3c0,1.7-0.3,3.3-0.3,5c-0.3,1.7-0.7,3-1.3,4c-0.7,1.3-1.7,2-2.7,2.7c-1,0.7-2.3,1-3.6,1
			c-1.3,0-2.7-0.3-3.6-0.7c-1-0.3-1.7-0.7-2.3-1v9.9c0,0.3,0,0.7-0.3,0.7l-2.3,0.7c-0.3,0-0.3,0-0.3,0s0,0-0.3,0c0,0-0.3,0-0.3-0.3
			v-0.3L707.5,202.6z M711.4,214.2c0.7,0.3,1.7,0.7,2.3,1c1,0.3,2,0.3,3,0.3c1,0,2-0.3,2.7-1s1-1.3,1.3-2.3c0.3-1,0.3-2,0.7-3
			c0-1,0-2.3,0-3.6c0-1,0-2,0-3c0-1-0.3-2-0.7-3c-0.3-1-0.7-1.7-1.3-2c-0.7-0.7-1.3-0.7-2.3-0.7c-1.3,0-2.3,0.3-3.3,1
			c-1,0.7-1.7,1-2.3,1.7V214.2L711.4,214.2z"/>
		<path fill="#FF0000" d="M731.3,200.9c0-0.7,0-1,0-1.7c0-0.7,0-1-0.3-1.7c0-0.7-0.3-1-0.3-1c0-0.3-0.3-0.3-0.3-0.7
			c0,0,0-0.3,0.3-0.3l2-1.3c0,0,0,0,0.3,0c0,0,0,0,0.3,0s0.3,0,0.3,0.3s0.3,0.7,0.3,1s0.3,0.7,0.3,1s0,0.7,0,0.7
			c0.3-0.3,0.7-0.7,1.3-1c0.7-0.3,1-0.7,1.7-1c0.7-0.3,1.3-0.7,1.7-0.7s1.3-0.3,1.7-0.3c1.7,0,2.7,0.3,3.6,0.7
			c0.7,0.3,1.3,1.3,1.7,2.3c0.3-0.3,0.7-0.7,1.3-1c0.7-0.3,1-0.7,1.7-1c0.7-0.3,1.3-0.7,1.7-0.7c0.7-0.3,1.3-0.3,1.7-0.3
			c1.3,0,2.3,0.3,3.3,0.7c0.7,0.3,1.3,1,1.7,1.7c0.3,0.7,0.7,1.3,0.7,2.3c0,1,0,1.7,0,2.7v16.2c0,0.3-0.3,0.7-0.7,0.7h-2.7
			c-0.3,0-0.7-0.3-0.7-0.7v-16.2c0-0.7,0-1,0-1.7c0-0.3-0.3-1-0.3-1.3c-0.3-0.3-0.7-0.7-1-1s-1-0.3-1.7-0.3c-1.3,0-2,0.3-3,0.7
			c-0.7,0.3-1.3,1-2,1.3v18.2c0,0.3-0.3,0.7-0.7,0.7h-1.7c-0.3,0-0.7-0.3-0.7-0.7v-16.2c0-0.7,0-1,0-1.7c0-0.3-0.3-1-0.3-1.3
			c-0.3-0.3-0.7-0.7-1-1s-1-0.3-1.7-0.3c-0.7,0-1,0-1.7,0.3c-0.3,0-1,0.3-1.3,0.7c-0.3,0.3-0.7,0.3-1,0.7c-0.3,0.3-0.7,0.3-0.7,0.7
			v18.2c0,0.3-0.3,0.7-0.7,0.7H732c-0.3,0-0.7-0.3-0.7-0.7V200.9L731.3,200.9z"/>
		<path fill="#FF0000" d="M781,216.2L781,216.2c0,0.3,0,0.3,0,0.3s-0.3,0.3-0.7,0.7c-0.3,0.3-1,0.7-2,1c-0.7,0.3-1.7,0.7-2.3,0.7
			c-1,0.3-2,0.3-2.7,0.3c-1.7,0-3-0.3-4.3-1c-1.3-0.7-2.3-1.3-3.3-2.7c-1-1-1.7-2.3-2-4s-0.7-3.3-0.7-5s0.3-3.3,0.7-5s1-3,2-4
			c0.7-1,2-2,3-2.7c1.3-0.7,2.7-1,4-1c2,0,3.6,0.3,5,1.3c1.3,1,2,2,2.7,3.3c0.7,1.3,1,2.7,1,4c0.3,1.3,0.3,2.7,0.3,3.6
			c0,0.3,0,0.7,0,0.7c0,0.3-0.3,0.3-0.3,0.3h-13.9c0,0.7,0,1.7,0.3,2.7s0.7,2,1,2.7c0.7,1,1.3,1.7,2,2.3c1,0.7,2,1,3.3,1
			c0.7,0,1.7,0,2.3-0.3c0.7-0.3,1.3-0.3,2-0.7c0.7-0.3,1-0.3,1.3-0.7c0.3-0.3,0.7-0.3,0.7-0.3s0.3,0,0.3,0.3L781,216.2z
			 M777.7,204.2c0-0.7,0-1.3-0.3-2.3c0-0.7-0.3-1.7-0.7-2.3c-0.3-0.7-1-1.3-1.7-2c-0.7-0.7-1.7-0.7-2.7-0.7s-2,0.3-2.7,0.7
			c-0.7,0.7-1.3,1-1.7,2c-0.3,0.7-0.7,1.7-1,2.3c0,0.7-0.3,1.7-0.3,2h10.9V204.2z"/>
		<path fill="#FF0000" d="M804.6,217.8c0,0.3-0.3,0.7-0.7,0.7h-2.7c-0.3,0-0.7-0.3-0.7-0.7v-16.2c0-0.7,0-1,0-1.7
			c0-0.3-0.3-1-0.3-1.3c-0.3-0.3-0.7-0.7-1-1c-0.3-0.3-1-0.3-1.7-0.3s-1.7,0-2.3,0.3s-1.3,0.3-1.7,0.7c-0.7,0.3-1,0.7-1.3,1
			c-0.3,0.3-0.7,0.7-1,1v17.2c0,0.3-0.3,0.7-0.7,0.7H788c-0.3,0-0.7-0.3-0.7-0.7v-16.9c0-0.7,0-1.3,0-1.7s0-0.7-0.3-1
			c-0.3-0.7-0.3-1.3-0.7-1.3c0-0.3-0.3-0.3-0.3-0.7c0-0.3,0-0.3,0.3-0.3l2.3-1.3c0,0,0,0,0.3,0c0,0,0,0,0.3,0c0.3,0,0.3,0,0.7,0.3
			s0.3,0.7,0.3,1s0.3,0.7,0.3,1c0,0.3,0,0.7,0,0.7c0.3-0.3,1-0.7,1.3-1c0.7-0.3,1-0.7,1.7-1c0.7-0.3,1.3-0.7,2-1
			c0.7-0.3,1.7-0.3,2.7-0.3c1.3,0,2.3,0.3,3.3,0.7c0.7,0.3,1.3,1,1.7,1.7c0.3,0.7,0.7,1.3,0.7,2.3c0,1,0,1.7,0,2.7L804.6,217.8z"/>
		<path fill="#FF0000" d="M824.5,216.5c0,0.3,0,0.3,0,0.3c0,0.3-0.3,0.3-0.7,0.7c-0.3,0.3-1,0.3-1.7,0.7c-0.7,0.3-1.3,0.3-2,0.7
			c-0.7,0-1.3,0.3-2,0.3c-1,0-2-0.3-3-0.7c-1-0.3-1.3-0.7-1.7-1.3c-0.3-0.3-0.7-0.7-1-1.3c-0.3-0.3-0.3-1-0.3-1.3c0-0.3,0-1,0-1.3
			c0-0.3,0-1,0-1.3v-13.9h-3.6c0,0-0.3,0-0.3-0.3v-0.3v-2c0-0.3,0-0.3,0-0.3s0-0.3,0.3-0.3h3.6V188c0-0.3,0.3-0.3,0.7-0.7l2.7-0.7
			c0,0,0,0,0.3,0c0,0,0,0,0.3,0c0,0,0.3,0.3,0.3,0.7v7.6h7.3c0.3,0,0.7,0,0.7,0.3c0,0,0,0,0,0.3l0,0l-0.7,2c0,0.3-0.3,0.3-0.7,0.3
			h-6.6v13.9c0,0.3,0,1,0,1.3c0,0.3,0,1,0.3,1.3c0.3,0.3,0.3,0.7,1,1c0.3,0.3,1,0.3,1.7,0.3s1,0,1.7-0.3c0.7,0,1-0.3,1.3-0.3
			c0.3-0.3,0.7-0.3,1-0.3c0.3,0,0.3-0.3,0.7-0.3s0.3,0,0.3,0.3V216.5z"/>
	</g>
	<g>
		<path fill="#FF0000" d="M318.3,185c1.7,0,3.3,0.3,5,0.3c1.7,0.3,3,1,4.3,2.3c1.3,1,2.3,2.7,3,5c0.7,2.3,1,5,1,8.9
			c0,3-0.3,5.3-0.7,7.6c-0.3,2-1.3,4-2.3,5.3c-1,1.3-2.7,2.3-4.3,3c-1.7,0.7-4,1-6.3,1h-5.6c-0.3,0-0.7-0.3-0.7-0.7v-32.5
			c0-0.3,0.3-0.7,0.7-0.7L318.3,185L318.3,185z M318.6,214.8c1.7,0,3.3-0.3,4.3-1c1-0.7,2-1.7,2.7-2.7c0.7-1.3,1-2.7,1.3-4.3
			c0.3-1.7,0.3-3.6,0.3-5.6c0-2.7-0.3-5-0.7-6.6c-0.3-1.7-1-3-1.7-4c-0.7-1-1.7-1.7-2.7-2c-1-0.3-2.3-0.3-3.6-0.3H316v26.8
			L318.6,214.8L318.6,214.8z"/>
		<path fill="#FF0000" d="M342.8,217.8c0,0.3-0.3,0.7-0.7,0.7h-2.7c-0.3,0-0.7-0.3-0.7-0.7v-19.9h-4c-0.3,0-0.7-0.3-0.7-0.7v-2
			c0-0.3,0.3-0.7,0.7-0.7h7c0.3,0,0.3,0,0.7,0.3c0,0,0,0.3,0,0.7L342.8,217.8z M343.5,186.3c0,0.7-0.3,1.7-1,2c-0.7,0.7-1.3,1-2,1
			c-1,0-1.7-0.3-2-1c-0.7-0.7-1-1.3-1-2c0-1,0.3-1.7,1-2c0.7-0.7,1.3-1,2-1c1,0,1.7,0.3,2,1C343.5,184.7,343.5,185.3,343.5,186.3z"
			/>
		<path fill="#FF0000" d="M366,208.9c0,0.7,0,1.7,0,2.7s0,2,0,3c0,1,0,2,0,3c0,1,0,1.7,0,2.3c0,1,0,2.3-0.3,3.3
			c-0.3,1-0.7,2-1.3,2.7c-0.7,0.7-1.7,1.3-2.7,2c-1,0.3-2.3,0.7-4,0.7c-1,0-2,0-3-0.3c-1-0.3-2-0.3-2.7-0.7c-0.7-0.3-1.3-0.7-2-1
			c-0.7-0.3-0.7-0.7-0.7-0.7s0-0.3,0.3-0.7l0.7-1.7c0-0.3,0.3-0.3,0.3-0.3s0.3,0,0.7,0.3c0.3,0.3,1,0.3,1.7,0.7
			c0.7,0.3,1.3,0.3,2,0.7c0.7,0.3,1.7,0.3,2.3,0.3c1,0,2,0,2.7-0.3c0.7-0.3,1.3-0.7,1.7-1.3c0.3-0.3,0.7-1,0.7-1.7c0-0.7,0-1.3,0-2
			c0-1.3,0-2.3,0-3.3c0-1,0-1.7,0-1.7c-0.3,0.3-0.7,0.3-1,0.7c-0.3,0.3-1,0.7-1.3,1c-0.7,0.3-1.3,0.7-2,0.7
			c-0.7,0.3-1.3,0.3-2.3,0.3c-2.3,0-4-1-5.3-2.7c-1.3-2-2-4.6-2-8c0-2,0.3-3.6,0.7-5.3c0.3-1.7,1-3,1.7-4c0.7-1,1.7-2,3-2.7
			c1-0.7,2.7-1,4-1c0.7,0,1.7,0,2.3,0.3c0.7,0,1.3,0.3,1.7,0.7c0.3,0.3,1,0.3,1.3,0.7c0.3,0.3,0.7,0.3,0.7,0.7
			c0.3-0.7,0.3-1,0.7-1.7c0.3-0.3,0.3-0.7,0.7-0.7h0.3l2.3,1.3l0.3,0.3c0,0.3,0,0.3-0.3,0.7c-0.3,0.3-0.3,0.7-0.7,1.3
			c-0.3,0.7-0.3,1-0.3,1.7c0,0.3,0,1,0,2L366,208.9L366,208.9z M362.1,198.6c-0.3-0.3-1-0.3-2-0.7c-0.7-0.3-1.7-0.7-2.7-0.7
			c-2,0-3.3,0.7-4,2.3c-1,1.7-1.3,3.6-1.3,6.3c0,2.7,0.3,4.6,1,6.3s1.7,2.3,3.3,2.3c0.7,0,1.3,0,1.7-0.3c0.7-0.3,1-0.3,1.7-0.7
			c0.3-0.3,1-0.7,1.3-0.7c0.3-0.3,0.7-0.7,1-0.7V198.6L362.1,198.6z"/>
		<path fill="#FF0000" d="M379,217.8c0,0.3-0.3,0.7-0.7,0.7h-2.7c-0.3,0-0.7-0.3-0.7-0.7v-19.9h-3.6c-0.3,0-0.7-0.3-0.7-0.7v-2
			c0-0.3,0.3-0.7,0.7-0.7h7c0.3,0,0.3,0,0.7,0.3c0,0,0,0.3,0,0.7V217.8L379,217.8z M380,186.3c0,0.7-0.3,1.7-1,2c-0.7,0.7-1.3,1-2,1
			c-1,0-1.7-0.3-2-1c-0.7-0.7-1-1.3-1-2c0-1,0.3-1.7,1-2c0.7-0.7,1.3-1,2-1c1,0,1.7,0.3,2,1C379.6,184.7,380,185.3,380,186.3z"/>
		<path fill="#FF0000" d="M399.8,216.5c0,0.3,0,0.3,0,0.3c0,0.3-0.3,0.3-0.7,0.7c-0.3,0.3-1,0.3-1.7,0.7c-0.7,0.3-1.3,0.3-2,0.7
			c-0.7,0-1.3,0.3-2,0.3c-1,0-2-0.3-2.7-0.7c-1-0.3-1.3-0.7-1.7-1.3c-0.3-0.3-0.7-0.7-1-1.3c-0.3-0.3-0.3-1-0.3-1.3c0-0.3,0-1,0-1.3
			c0-0.3,0-1,0-1.3v-13.9h-3.6c-0.3,0-0.3,0-0.3-0.3v-0.3v-2c0-0.3,0-0.3,0-0.3s0,0,0.3,0h3.6v-6.6c0-0.3,0-0.3,0.7-0.7l2.7-0.7
			c0,0,0,0,0.3,0c0,0,0,0,0.3,0c0.3,0,0.3,0.3,0.3,0.7v7.6h7.3c0.3,0,0.7,0,0.7,0.3c0,0,0,0,0,0.3c0,0,0,0,0,0.3l-0.7,2
			c0,0.3-0.3,0.3-0.7,0.3h-6.6v13.9c0,0.3,0,1,0,1.3c0,0.3,0,1,0.3,1.3c0.3,0.3,0.3,0.7,1,1c0.3,0.3,1,0.3,1.7,0.3s1,0,1.7-0.3
			c0.7,0,1-0.3,1.3-0.3c0.3-0.3,0.7-0.3,1-0.3c0.3,0,0.3-0.3,0.7-0.3c0.3,0,0.3,0,0.3,0.3L399.8,216.5z"/>
		<path fill="#FF0000" d="M418.4,210.5c0,0.7,0,1.3,0,2c0,0.3,0,1,0,1.3c0,0.3,0,0.7,0.3,1c0,0.3,0.3,0.7,0.3,1s0.3,0.7,0.7,1
			c0.3,0.3,0.3,0.7,0.3,0.7v0.3c0,0-0.3,0-0.3,0.3l-2,1.3c-0.3,0-0.3,0-0.3,0c-0.3,0-0.3,0-0.7-0.3c-0.3-0.3-0.3-0.7-0.7-1
			c-0.3-0.3-0.3-0.7-0.3-1c0-0.3-0.3-0.7-0.3-0.7s-0.3,0.3-0.7,0.7c-0.3,0.3-0.7,0.7-1.3,1s-1.3,0.7-2,1s-1.7,0.3-2.7,0.3
			c-2,0-3.6-0.7-4.6-1.7c-1-1.3-1.7-3-1.7-5c0-1.3,0.3-2.7,0.7-3.6c0.3-1,1-1.7,2-2.3c0.7-0.7,1.7-1,2.7-1.3c1-0.3,2-0.7,3-0.7
			c1-0.3,2-0.3,2.7-0.3s1.3,0,2,0v-2.7c0-1.3-0.3-2.7-1-3.3c-0.7-0.7-1.7-1-3.3-1c-0.7,0-1.7,0-2.3,0.3c-0.7,0-1.3,0.3-1.7,0.7
			c-0.7,0.3-1,0.3-1.3,0.7c-0.3,0.3-0.7,0.3-0.7,0.3s-0.3,0-0.3-0.3l-0.7-1.7c0-0.3,0-0.3,0-0.7c0-0.3,0.3-0.3,0.7-0.7
			c0.7-0.3,1-0.3,2-0.7c0.7-0.3,1.7-0.3,2.3-0.7c1-0.3,1.7-0.3,2.7-0.3c1.3,0,2.7,0,3.6,0.3s1.7,0.7,2.3,1.3c0.7,0.7,1,1.3,1.3,2.3
			c0.3,1,0.3,1.7,0.3,2.7v9.3H418.4z M414.8,206.5c-0.7,0-1.3,0-2.3,0c-1,0-2,0.3-3,0.7c-1,0.3-2,1-2.7,1.7c-0.7,0.7-1,1.7-1,3
			c0,0.3,0,1,0.3,1.3c0,0.3,0.3,1,0.7,1.3c0.3,0.3,0.7,0.7,1,1c0.3,0.3,1,0.3,1.7,0.3s1.3,0,1.7-0.3c0.7-0.3,1-0.7,1.7-1
			c0.3-0.3,1-0.7,1.3-1c0.3-0.3,0.7-0.7,1-0.7L414.8,206.5L414.8,206.5z"/>
		<path fill="#FF0000" d="M434.7,217.5v0.3c0,0,0,0.3-0.3,0.3s-0.7,0.3-1,0.3c-0.3,0-1,0.3-1.3,0.3c-0.3,0-1,0-1.3,0
			c-1.3,0-2.3-0.3-3-0.7c-0.7-0.3-1.3-1-1.7-1.7c-0.3-0.3-0.3-1-0.3-1.7c0-0.7-0.3-1.3-0.3-2c0-0.7,0-1.3,0-2c0-0.7,0-1.3,0-1.7
			v-25.5c0-0.3,0-0.7,0.3-0.7l2.3-0.7c0.3,0,0.3,0,0.3,0s0,0,0.3,0c0,0,0.3,0,0.3,0.3v0.3v26.2c0,0.3,0,1,0,1.3c0,0.3,0,1,0,1.3
			c0,0.3,0,1,0,1.3c0,0.3,0,0.7,0,0.7c0,0.3,0.3,0.7,0.3,1c0.3,0.3,0.7,0.7,1.3,0.7s1.3,0,1.7-0.3c0.3-0.3,0.7-0.3,1-0.3
			s0.3,0,0.3,0s0,0,0,0.3L434.7,217.5z"/>
		<path fill="#FF0000" d="M464.2,217.8c0,0.3-0.3,0.7-0.7,0.7h-12.9c-0.3,0-0.7-0.3-0.7-0.7v-2c0-0.3,0.3-0.7,0.7-0.7h4.3V188h-4.3
			c-0.3,0-0.7-0.3-0.7-0.7v-2c0-0.3,0.3-0.7,0.7-0.7h12.9c0.3,0,0.7,0.3,0.7,0.7v2c0,0.3-0.3,0.7-0.7,0.7h-4.3v27.2h4.3
			c0.3,0,0.7,0.3,0.7,0.7V217.8z"/>
		<path fill="#FF0000" d="M469.8,200.9c0-0.7,0-1,0-1.7c0-0.7,0-1-0.3-1.7c0-0.7-0.3-1-0.3-1c0-0.3-0.3-0.3-0.3-0.7
			c0,0,0-0.3,0.3-0.3l2-1.3c0,0,0,0,0.3,0c0,0,0,0,0.3,0c0.3,0,0.3,0,0.7,0.3c0,0.3,0.3,0.7,0.3,1s0.3,0.7,0.3,1s0,0.7,0,0.7
			c0.3-0.3,0.7-0.7,1.3-1c0.3-0.3,1-0.7,1.7-1s1.3-0.7,1.7-0.7c0.7-0.3,1.3-0.3,1.7-0.3c1.7,0,2.7,0.3,3.6,0.7
			c0.7,0.3,1.3,1.3,1.7,2.3c0.3-0.3,0.7-0.7,1.3-1c0.3-0.3,1-0.7,1.7-1s1-0.7,1.7-0.7c0.7-0.3,1.3-0.3,1.7-0.3
			c1.3,0,2.3,0.3,3.3,0.7c0.7,0.3,1.3,1,1.7,1.7c0.3,0.7,0.7,1.3,0.7,2.3c0,1,0,1.7,0,2.7v16.2c0,0.3-0.3,0.7-0.7,0.7h-2.7
			c-0.3,0-0.7-0.3-0.7-0.7v-16.2c0-0.7,0-1,0-1.7c0-0.3-0.3-1-0.3-1.3c-0.3-0.3-0.7-0.7-1-1c-0.3-0.3-1-0.3-1.7-0.3
			c-1.3,0-2,0.3-3,0.7c-0.7,0.3-1.3,1-2,1.3v18.2c0,0.3-0.3,0.7-0.7,0.7h-2.7c-0.3,0-0.7-0.3-0.7-0.7v-16.2c0-0.7,0-1,0-1.7
			c0-0.3-0.3-1-0.3-1.3c-0.3-0.3-0.7-0.7-1-1c-0.3-0.3-1-0.3-1.7-0.3s-1,0-1.7,0.3c-0.3,0-1,0.3-1.3,0.7c-0.3,0.3-0.7,0.3-1,0.7
			c-0.3,0.3-0.7,0.3-0.7,0.7v18.2c0,0.3-0.3,0.7-0.7,0.7h-2.7c-0.3,0-0.7-0.3-0.7-0.7L469.8,200.9L469.8,200.9z"/>
		<path fill="#FF0000" d="M518.2,210.5c0,0.7,0,1.3,0,2c0,0.3,0,1,0,1.3c0,0.3,0,0.7,0.3,1c0,0.3,0.3,0.7,0.3,1s0.3,0.7,0.7,1
			c0.3,0.3,0.3,0.7,0.3,0.7v0.3c0,0-0.3,0-0.3,0.3l-2,1.3c-0.3,0-0.3,0-0.3,0c-0.3,0-0.3,0-0.7-0.3c-0.3-0.3-0.3-0.7-0.7-1
			c0-0.3-0.3-0.7-0.3-1c0-0.3-0.3-0.7-0.3-0.7s-0.3,0.3-0.7,0.7c-0.3,0.3-1,0.7-1.3,1c-0.7,0.3-1.3,0.7-2,1
			c-0.7,0.3-1.7,0.3-2.7,0.3c-2,0-3.6-0.7-4.6-1.7c-1.3-1.3-1.7-3-1.7-5c0-1.3,0.3-2.7,0.7-3.6c0.7-1,1-1.7,2-2.3
			c0.7-0.7,1.7-1,2.7-1.3c1-0.3,2-0.7,3-0.7c1-0.3,2-0.3,2.7-0.3c0.7,0,1.7,0,2,0v-2.7c0-1.3-0.3-2.7-1-3.3c-0.7-0.7-1.7-1-3.6-1
			c-0.7,0-1.7,0-2.3,0.3c-0.7,0-1.3,0.3-2,0.7c-0.7,0.3-1,0.3-1.3,0.7c-0.3,0.3-0.7,0.3-0.7,0.3s-0.3,0-0.3-0.3l-0.7-1.7
			c0-0.3,0-0.3,0-0.7c0-0.3,0.3-0.3,0.7-0.7c0.7-0.3,1-0.3,2-0.7c0.7-0.3,1.7-0.3,2.3-0.7c1-0.3,1.7-0.3,2.7-0.3
			c1.3,0,2.7,0,3.6,0.3c1,0.3,1.7,0.7,2.3,1.3c0.7,0.7,1,1.3,1.3,2.3c0.3,1,0.3,1.7,0.3,2.7L518.2,210.5L518.2,210.5z M514.5,206.5
			c-0.7,0-1.3,0-2.3,0c-1,0-2,0.3-3,0.7c-1,0.3-2,1-2.7,1.7c-0.7,0.7-1,1.7-1,3c0,0.3,0,1,0.3,1.3c0,0.3,0.3,1,0.7,1.3
			c0.3,0.3,0.7,0.7,1,1s1,0.3,1.7,0.3s1.3,0,2-0.3s1-0.7,1.7-1c0.3-0.3,1-0.7,1.3-1c0.3-0.3,0.7-0.7,1-0.7L514.5,206.5L514.5,206.5z
			"/>
		<path fill="#FF0000" d="M542,208.9c0,0.7,0,1.7,0,2.7s0,2,0,3c0,1,0,2,0,3c0,1,0,1.7,0,2.3c0,1,0,2.3-0.3,3.3
			c-0.3,1-0.7,2-1.3,2.7c-0.7,0.7-1.7,1.3-2.7,2c-1,0.3-2.3,0.7-4,0.7c-1,0-2,0-3-0.3c-1-0.3-2-0.3-2.7-0.7c-0.7-0.3-1.3-0.7-2-1
			c-0.7-0.3-0.7-0.7-0.7-0.7s0-0.3,0.3-0.7l0.7-1.7c0-0.3,0.3-0.3,0.3-0.3s0.3,0,0.7,0.3c0.3,0.3,1,0.3,1.7,0.7
			c0.7,0.3,1.3,0.3,2,0.7c0.7,0.3,1.7,0.3,2.3,0.3c1,0,2,0,2.7-0.3c0.7-0.3,1.3-0.7,1.7-1.3c0.3-0.3,0.7-1,0.7-1.7c0-0.7,0-1.3,0-2
			c0-1.3,0-2.3,0-3.3c0-1,0-1.7,0-1.7c-0.3,0.3-0.7,0.3-1,0.7c-0.3,0.3-1,0.7-1.3,1c-0.7,0.3-1.3,0.7-2,0.7
			c-0.7,0.3-1.3,0.3-2.3,0.3c-2.3,0-4-1-5.3-2.7c-1.3-2-2-4.6-2-8c0-2,0.3-3.6,0.7-5.3s1-3,1.7-4c0.7-1,1.7-2,3-2.7c1-0.7,2.7-1,4-1
			c0.7,0,1.7,0,2.3,0.3c0.7,0,1.3,0.3,1.7,0.7c0.3,0.3,1,0.3,1.3,0.7c0.3,0.3,0.7,0.3,0.7,0.7c0.3-0.7,0.3-1,0.7-1.7
			c0.3-0.3,0.3-0.7,0.7-0.7c0.3,0,0.3,0,0.3,0l2.3,1.3l0.3,0.3c0,0.3,0,0.3-0.3,0.7c-0.3,0.3-0.3,0.7-0.7,1.3
			c-0.3,0.7-0.3,1-0.3,1.7c0,0.3,0,1,0,2L542,208.9L542,208.9z M538.1,198.6c-0.3-0.3-1-0.3-2-0.7c-0.7-0.3-1.7-0.7-2.7-0.7
			c-2,0-3.3,0.7-4,2.3c-1,1.7-1.3,3.6-1.3,6.3c0,2.7,0.3,4.6,1,6.3c0.7,1.7,1.7,2.3,3.3,2.3c0.7,0,1.3,0,1.7-0.3
			c0.7-0.3,1-0.3,1.7-0.7c0.3-0.3,1-0.7,1.3-0.7c0.3-0.3,0.7-0.7,1-0.7V198.6L538.1,198.6z"/>
		<path fill="#FF0000" d="M555,217.8c0,0.3-0.3,0.7-0.7,0.7h-2.7c-0.3,0-0.7-0.3-0.7-0.7v-19.9h-4c-0.3,0-0.7-0.3-0.7-0.7v-2
			c0-0.3,0.3-0.7,0.7-0.7h7c0.3,0,0.3,0,0.7,0.3c0,0,0,0.3,0,0.7v22.2H555z M556,186.3c0,0.7-0.3,1.7-1,2c-0.7,0.7-1.3,1-2,1
			c-1,0-1.7-0.3-2-1c-0.7-0.7-1-1.3-1-2c0-1,0.3-1.7,1-2c0.7-0.7,1.3-1,2-1c1,0,1.7,0.3,2,1C555.6,184.7,556,185.3,556,186.3z"/>
		<path fill="#FF0000" d="M580.2,217.8c0,0.3-0.3,0.7-0.7,0.7h-2.7c-0.3,0-0.7-0.3-0.7-0.7v-16.2c0-0.7,0-1,0-1.7
			c0-0.3-0.3-1-0.3-1.3c-0.3-0.3-0.7-0.7-1-1s-1-0.3-1.7-0.3c-0.7,0-1.7,0-2.3,0.3c-0.7,0.3-1.3,0.3-1.7,0.7c-0.7,0.3-1,0.7-1.3,1
			s-0.7,0.7-1,1v17.2c0,0.3-0.3,0.7-0.7,0.7h-2.7c-0.3,0-0.7-0.3-0.7-0.7v-16.9c0-0.7,0-1.3,0-1.7s0-0.7-0.3-1
			c-0.3-0.7-0.3-1.3-0.7-1.7s-0.3-0.3-0.3-0.7c0,0,0-0.3,0.3-0.3l2.3-1.3c0,0,0,0,0.3,0c0,0,0,0,0.3,0s0.3,0,0.7,0.3
			c0.3,0.3,0.3,0.7,0.3,1s0.3,0.7,0.3,1s0,0.7,0,0.7c0.3-0.3,1-0.7,1.3-1c0.7-0.3,1-0.7,1.7-1c0.7-0.3,1.3-0.7,2.3-1
			c0.7-0.3,1.7-0.3,2.7-0.3c1.3,0,2.3,0.3,3.3,0.7c0.7,0.3,1.3,1,1.7,1.7c0.3,0.7,0.7,1.3,0.7,2.3s0,1.7,0,2.7L580.2,217.8
			L580.2,217.8z"/>
		<path fill="#FF0000" d="M603,208.9c0,0.7,0,1.7,0,2.7s0,2,0,3c0,1,0,2,0,3c0,1,0,1.7,0,2.3c0,1,0,2.3-0.3,3.3
			c-0.3,1-0.7,2-1.3,2.7c-0.7,0.7-1.7,1.3-2.7,2c-1,0.3-2.3,0.7-4,0.7c-1,0-2,0-3-0.3c-1-0.3-2-0.3-2.7-0.7c-0.7-0.3-1.3-0.7-2-1
			c-0.7-0.3-0.7-0.7-0.7-0.7s0-0.3,0.3-0.7l0.7-1.7c0-0.3,0.3-0.3,0.3-0.3s0.3,0,0.7,0.3c0.3,0.3,1,0.3,1.7,0.7
			c0.7,0.3,1.3,0.3,2,0.7c0.7,0.3,1.7,0.3,2.3,0.3c1,0,2,0,2.7-0.3c0.7-0.3,1.3-0.7,1.7-1.3c0.3-0.3,0.7-1,0.7-1.7c0-0.7,0-1.3,0-2
			c0-1.3,0-2.3,0-3.3c0-1,0-1.7,0-1.7c-0.3,0.3-0.7,0.3-1,0.7c-0.3,0.3-1,0.7-1.3,1c-0.7,0.3-1.3,0.7-2,0.7
			c-0.7,0.3-1.3,0.3-2.3,0.3c-2.3,0-4-1-5.3-2.7c-1.3-2-2-4.6-2-8c0-2,0.3-3.6,0.7-5.3s1-3,1.7-4c0.7-1,1.7-2,3-2.7c1-0.7,2.7-1,4-1
			c0.7,0,1.7,0,2.3,0.3c0.7,0,1.3,0.3,1.7,0.7c0.3,0.3,1,0.3,1.3,0.7c0.3,0.3,0.7,0.3,0.7,0.7c0.3-0.7,0.3-1,0.7-1.7
			c0.3-0.3,0.3-0.7,0.7-0.7s0.3,0,0.3,0l2.3,1.3l0.3,0.3c0,0.3,0,0.3-0.3,0.7c-0.3,0.3-0.3,0.7-0.7,1.3c-0.3,0.7-0.3,1-0.3,1.7
			c0,0.3,0,1,0,2L603,208.9L603,208.9z M599.4,198.6c-0.3-0.3-1-0.3-2-0.7c-0.7-0.3-1.7-0.7-2.7-0.7c-2,0-3.3,0.7-4,2.3
			c-1,1.7-1.3,3.6-1.3,6.3c0,2.7,0.3,4.6,1,6.3c0.7,1.7,1.7,2.3,3.3,2.3c0.7,0,1.3,0,1.7-0.3c0.7-0.3,1-0.3,1.7-0.7
			c0.3-0.3,1-0.7,1.3-0.7c0.3-0.3,0.7-0.7,1-0.7V198.6L599.4,198.6z"/>
		<path fill="#FF0000" d="M641.8,217.8c0,0.3,0,0.3,0,0.7c0,0-0.3,0-0.7,0h-14.9c-0.3,0-0.7-0.3-0.7-0.7v-32.5
			c0-0.3,0.3-0.7,0.7-0.7h15.2c0.3,0,0.3,0,0.7,0c0,0,0,0,0,0.3c0,0,0,0,0,0.3v0.3l-0.7,2c0,0.3,0,0.3-0.3,0.3h-0.3h-10.9v10.9h9.6
			c0.3,0,0.3,0,0.7,0c0,0,0,0.3,0,0.7v2c0,0.3,0,0.3,0,0.7c0,0-0.3,0-0.7,0h-9.6v12.3h11.6c0.3,0,0.7,0.3,0.7,0.7L641.8,217.8
			L641.8,217.8z"/>
		<path fill="#FF0000" d="M663,227.4c0,0.3,0,0.7-0.3,0.7l-2.3,0.7c-0.3,0-0.3,0-0.3,0s0,0-0.3,0s-0.3,0-0.3-0.3v-0.3v-11.9
			c-0.3,0.3-0.7,0.7-1,1c-0.3,0.3-1,0.7-1.3,1s-1,0.7-1.7,0.7c-0.7,0.3-1.3,0.3-2,0.3c-1.3,0-2.7-0.3-3.6-1c-1-0.7-2-1.7-2.7-2.7
			c-0.7-1-1-2.7-1.3-4c-0.3-1.7-0.3-3.3-0.3-5s0.3-3,0.7-4.3c0.3-1.3,1-2.7,1.7-4c0.7-1,1.7-2,2.7-2.7c1-0.7,2.7-1,4-1
			c0.7,0,1.3,0,2,0.3c0.7,0.3,1.3,0.3,1.7,0.7c0.7,0.3,1,0.7,1.3,0.7c0.3,0.3,0.7,0.3,1,0.7c0-0.3,0.3-0.3,0.3-0.7
			c0-0.3,0.3-0.7,0.3-0.7c0-0.3,0.3-0.3,0.3-0.7c0-0.3,0.3-0.3,0.3-0.3s0.3,0,0.3,0.3l1.7,1c0.3,0.3,0.3,0.3,0.3,0.3s0,0.3-0.3,1
			c-0.3,0.3-0.3,1-0.7,1.3c-0.3,0.3-0.3,1-0.3,1.3c0,0.3,0,1,0,1.7L663,227.4L663,227.4z M659.4,199.3c-0.7-0.3-1-0.7-2-1.3
			c-1-0.7-1.7-0.7-3-0.7c-1,0-2,0.3-2.7,0.7c-0.7,0.7-1.3,1.3-1.7,2c-0.3,1-0.7,1.7-0.7,3c0,1-0.3,2-0.3,3c0,1.3,0,2.3,0.3,3.3
			c0,1,0.3,2.3,0.7,3c0.3,1,0.7,1.7,1.3,2.3c0.7,0.7,1.3,1,2.3,1c1,0,2-0.3,3-1c1-0.7,1.7-1.3,2.3-2L659.4,199.3L659.4,199.3z"/>
		<path fill="#FF0000" d="M682.9,195.6c0-0.3,0-0.7,0.3-0.7l2.3-0.7c0.3,0,0.3,0,0.3,0s0,0,0.3,0c0.3,0,0.3,0,0.3,0.3v0.3v17.6
			c0,0.7,0,1,0,1.7c0,0.7,0.3,1,0.3,1.7c0.3,0.3,0.3,0.7,0.7,1c0.3,0.3,0.3,0.7,0.3,0.7v0.3c0,0-0.3,0-0.3,0.3l-2,1.3
			c-0.3,0-0.3,0-0.3,0c-0.3,0-0.3,0-0.7-0.3c0-0.3-0.3-0.3-0.3-0.7c0-0.3-0.3-0.7-0.3-1c0-0.3-0.3-0.7-0.3-1c-0.3,0.3-0.7,0.7-1.3,1
			c-0.3,0.3-1,0.7-1.7,1s-1.3,0.7-2,0.7c-0.7,0.3-1.3,0.3-2,0.3c-1.7,0-3-0.3-4-0.7c-1-0.3-1.7-1-2-1.7c-0.3-0.7-0.7-1.3-1-2.3
			c0-1-0.3-1.7-0.3-2.7v-16.2c0-0.3,0-0.7,0.3-0.7l2.3-0.7c0.3,0,0.3,0,0.3,0s0,0,0.3,0c0,0,0.3,0,0.3,0.3v0.3v16.9
			c0,0.7,0,1,0.3,1.7c0,0.3,0.3,1,0.7,1.3c0.3,0.3,0.7,0.7,1.3,1s1.3,0.3,2,0.3c0.3,0,1,0,1.3-0.3c0.7-0.3,1-0.3,1.7-0.7
			c0.7-0.3,1-0.7,1.7-0.7c0.3-0.3,0.7-0.7,1-0.7V195.6L682.9,195.6z"/>
		<path fill="#FF0000" d="M699.2,217.8c0,0.3-0.3,0.7-0.7,0.7h-2.7c-0.3,0-0.7-0.3-0.7-0.7v-19.9h-4c-0.3,0-0.7-0.3-0.7-0.7v-2
			c0-0.3,0.3-0.7,0.7-0.7h7c0.3,0,0.3,0,0.7,0.3c0,0,0,0.3,0,0.7L699.2,217.8z M700.2,186.3c0,0.7-0.3,1.7-1,2c-0.7,0.7-1.3,1-2,1
			c-1,0-1.7-0.3-2-1c-0.7-0.7-1-1.3-1-2c0-1,0.3-1.7,1-2c0.7-0.7,1.3-1,2-1c1,0,1.7,0.3,2,1C699.8,184.7,700.2,185.3,700.2,186.3z"
			/>
		<path fill="#FF0000" d="M707.5,202.6c0-1,0-1.7,0-2.7c0-0.7-0.3-1.7-0.7-2.3c0-0.3-0.3-0.7-0.3-1c-0.3-0.3-0.3-0.7-0.3-0.7
			s0,0,0-0.3c0,0,0.3,0,0.3-0.3l2-1.3c0.3,0,0.3,0,0.3,0c0.3,0,0.3,0,0.7,0.3c0.3,0.3,0.3,0.7,0.7,0.7c0.3,0.3,0.3,0.7,0.3,1
			c0,0.3,0.3,0.7,0.3,0.7c0.3-0.3,0.7-0.3,1-0.7c0.3-0.3,1-0.7,1.7-1c0.7-0.3,1.3-0.7,2-0.7c0.7-0.3,1.7-0.3,2.7-0.3
			c1.3,0,2.3,0.3,3.3,1s1.7,1.7,2.3,2.7c0.7,1,1,2.3,1.3,4c0.3,1.3,0.3,3,0.3,4.3c0,1.7,0,3.3-0.3,5s-0.7,3-1.3,4
			c-0.7,1.3-1.3,2-2.7,2.7c-1,0.7-2.3,1-3.6,1c-1.7,0-2.7-0.3-3.6-0.7c-1-0.3-1.7-0.7-2.3-1v9.9c0,0.3,0,0.7-0.3,0.7l-2.3,0.7
			c-0.3,0-0.3,0-0.3,0s0,0-0.3,0c0,0-0.3,0-0.3-0.3v-0.3L707.5,202.6z M711.1,214.2c0.7,0.3,1.7,0.7,2.3,1c0.7,0.3,2,0.3,3,0.3
			s2-0.3,2.7-1s1-1.3,1.3-2.3c0.3-1,0.7-2,0.7-3c0-1,0-2.3,0-3.3c0-1,0-2,0-3c0-1-0.3-2-0.7-3c-0.3-1-0.7-1.7-1.3-2
			c-0.7-0.7-1.3-0.7-2.3-0.7c-1.3,0-2.3,0.3-3.3,1c-1,0.7-1.7,1-2.3,1.7V214.2L711.1,214.2z"/>
		<path fill="#FF0000" d="M731.3,200.9c0-0.7,0-1,0-1.7c0-0.7,0-1-0.3-1.7c0-0.7-0.3-1-0.3-1c0-0.3-0.3-0.3-0.3-0.7
			c0,0,0-0.3,0.3-0.3l2-1.3c0,0,0,0,0.3,0h0.3c0.3,0,0.3,0,0.7,0.3c0,0.3,0.3,0.7,0.3,1s0.3,0.7,0.3,1s0,0.7,0,0.7
			c0.3-0.3,0.7-0.7,1.3-1s1-0.7,1.7-1c0.7-0.3,1.3-0.7,1.7-0.7c0.7-0.3,1.3-0.3,1.7-0.3c1.7,0,2.7,0.3,3.6,0.7
			c0.7,0.3,1.3,1.3,1.7,2.3c0.3-0.3,0.7-0.7,1.3-1c0.3-0.3,1-0.7,1.7-1c0.7-0.3,1-0.7,1.7-0.7c0.7-0.3,1.3-0.3,1.7-0.3
			c1.3,0,2.3,0.3,3.3,0.7c0.7,0.3,1.3,1,1.7,1.7c0.3,0.7,0.7,1.3,0.7,2.3c0,1,0,1.7,0,2.7v16.2c0,0.3-0.3,0.7-0.7,0.7h-2.7
			c-0.3,0-0.7-0.3-0.7-0.7v-16.2c0-0.7,0-1,0-1.7c0-0.3-0.3-1-0.3-1.3c-0.3-0.3-0.7-0.7-1-1s-1-0.3-1.7-0.3c-1.3,0-2.3,0.3-3,0.7
			c-0.7,0.3-1.3,1-2,1.3v18.2c0,0.3-0.3,0.7-0.7,0.7h-2c-0.3,0-0.7-0.3-0.7-0.7v-16.2c0-0.7,0-1,0-1.7c0-0.3-0.3-1-0.3-1.3
			c-0.3-0.3-0.7-0.7-1-1s-1-0.3-1.7-0.3c-0.7,0-1,0-1.7,0.3c-0.3,0-1,0.3-1.3,0.7c-0.3,0.3-0.7,0.3-1,0.7c-0.3,0.3-0.7,0.3-0.7,0.7
			v18.2c0,0.3-0.3,0.7-0.7,0.7H732c-0.3,0-0.7-0.3-0.7-0.7V200.9L731.3,200.9z"/>
		<path fill="#FF0000" d="M781,216.2L781,216.2c0,0.3,0,0.3,0,0.3s-0.3,0.3-0.7,0.7c-0.3,0.3-1,0.7-1.7,1c-0.7,0.3-1.7,0.7-2.3,0.7
			c-1,0.3-2,0.3-2.7,0.3c-1.7,0-3-0.3-4.3-1c-1.3-0.7-2.3-1.3-3.3-2.7c-1-1-1.7-2.3-2-4s-0.7-3.3-0.7-5s0.3-3.3,0.7-5s1-3,2-4
			c0.7-1,2-2,3-2.7c1.3-0.7,2.7-1,4-1c2,0,3.6,0.3,5,1.3c1.3,1,2,2,2.7,3.3s1,2.7,1,4s0.3,2.7,0.3,3.6c0,0.3,0,0.7,0,0.7
			c0,0.3-0.3,0.3-0.3,0.3h-13.9c0,0.7,0,1.7,0.3,2.7s0.7,2,1,2.7c0.3,1,1.3,1.7,2,2.3c1,0.7,2,1,3.3,1c0.7,0,1.7,0,2.3-0.3
			c0.7-0.3,1.3-0.3,2-0.7c0.7-0.3,1-0.3,1.3-0.7c0.3-0.3,0.7-0.3,0.7-0.3s0.3,0,0.3,0.3V216.2z M777.7,204.2c0-0.7,0-1.3-0.3-2.3
			c0-0.7-0.3-1.7-0.7-2.3c-0.3-0.7-1-1.3-1.7-2c-0.7-0.7-1.7-0.7-2.7-0.7s-2,0.3-2.7,0.7c-0.7,0.7-1.3,1-1.7,2
			c-0.3,0.7-0.7,1.7-1,2.3c0,0.7-0.3,1.7-0.3,2.3H777.7z"/>
		<path fill="#FF0000" d="M804.6,217.8c0,0.3-0.3,0.7-0.7,0.7h-2.7c-0.3,0-0.7-0.3-0.7-0.7v-16.2c0-0.7,0-1,0-1.7
			c0-0.3-0.3-1-0.3-1.3c-0.3-0.3-0.7-0.7-1-1c-0.3-0.3-1-0.3-1.7-0.3s-1.7,0-2.3,0.3s-1.3,0.3-1.7,0.7c-0.3,0.3-1,0.7-1.3,1
			c-0.3,0.3-0.7,0.7-1,1v17.2c0,0.3-0.3,0.7-0.7,0.7H788c-0.3,0-0.7-0.3-0.7-0.7v-16.9c0-0.7,0-1.3,0-1.7s0-0.7-0.3-1
			c-0.3-0.7-0.3-1.3-0.7-1.7s-0.3-0.3-0.3-0.7c0,0,0-0.3,0.3-0.3l2.3-1.3c0,0,0,0,0.3,0c0,0,0,0,0.3,0c0.3,0,0.3,0,0.7,0.3
			s0.3,0.7,0.3,1s0.3,0.7,0.3,1s0,0.7,0,0.7c0.3-0.3,1-0.7,1.3-1c0.7-0.3,1-0.7,1.7-1c0.7-0.3,1.3-0.7,2-1c0.7-0.3,1.7-0.3,2.7-0.3
			c1.3,0,2.3,0.3,3.3,0.7c0.7,0.3,1.3,1,1.7,1.7c0.3,0.7,0.7,1.3,0.7,2.3s0,1.7,0,2.7L804.6,217.8L804.6,217.8z"/>
		<path fill="#FF0000" d="M824.5,216.5c0,0.3,0,0.3,0,0.3c0,0.3-0.3,0.3-0.7,0.7c-0.3,0.3-1,0.3-1.7,0.7c-0.7,0.3-1.3,0.3-2,0.7
			c-0.7,0-1.3,0.3-2,0.3c-1,0-2-0.3-2.7-0.7c-1-0.3-1.3-0.7-1.7-1.3c-0.3-0.3-0.7-0.7-0.7-1.3c-0.3-0.3-0.3-1-0.3-1.3
			c0-0.3,0-1,0-1.3c0-0.3,0-1,0-1.3v-13.9h-3.6c-0.3,0-0.3,0-0.3-0.3v-0.3v-2c0-0.3,0-0.3,0-0.3s0,0,0.3,0h3.6v-6.6
			c0-0.3,0.3-0.3,0.7-0.7l2.7-0.7c0,0,0,0,0.3,0c0,0,0,0,0.3,0c0,0,0.3,0.3,0.3,0.7v7.6h7.3c0.3,0,0.7,0,0.7,0.3c0,0,0,0,0,0.3
			c0,0,0,0,0,0.3l-0.7,2c0,0.3-0.3,0.3-0.7,0.3h-6.3v13.9c0,0.3,0,1,0,1.3c0,0.3,0,1,0.3,1.3c0.3,0.3,0.3,0.7,1,1
			c0.3,0.3,1,0.3,1.7,0.3c0.7,0,1,0,1.7-0.3c0.7,0,1-0.3,1.3-0.3c0.3-0.3,0.7-0.3,1-0.3s0.3-0.3,0.7-0.3c0.3,0,0.3,0,0.3,0.3
			L824.5,216.5z"/>
	</g>
	<g>
		<path d="M498.3,270.5v0.3c0,0,0,0.3-0.3,0.3h-3.3c-0.3,0-0.3,0-0.3,0v-0.3l-5.6-30.5c0-0.3,0-0.3,0-0.7c0,0,0-0.3,0.3-0.3h0.3
			l2.3-0.7h0.3h0.3c0,0,0.3,0,0.3,0.3c0,0,0,0.3,0,0.7l4,22.5c0,0.3,0,0.7,0,1c0,0.3,0,1,0,1.3c0,0.3,0,1,0,1.3c0,0.3,0,1,0,1.3l0,0
			c0-1,0-1.7,0.3-2.7c0-1,0.3-1.7,0.3-2.7l4.3-22.2v-0.3c0,0,0,0,0.3,0h3h0.3v0.3l4,22.9c0,0.7,0.3,1.3,0.3,2c0,0.7,0.3,1.7,0.3,2.3
			l0,0c0-0.7,0-1.7,0-2.3c0-1,0-1.7,0.3-2.3l4.3-22.9c0-0.3,0-0.3,0-0.7c0-0.3,0-0.3,0.3-0.3c0,0,0,0,0.3,0h0.3l2.3,0.7
			c0.3,0,0.7,0.3,0.7,0.3s0,0.3,0,0.7l-6.3,30.5v0.3c0,0,0,0.3-0.3,0.3h-3.6c-0.3,0-0.3-0.3-0.3-0.7l-4-25.9l0,0L498.3,270.5z"/>
		<path d="M536.4,268.5C536.4,268.5,536.7,268.9,536.4,268.5c0,0.3,0,0.3,0,0.3s-0.3,0.3-0.7,0.7c-0.3,0.3-1,0.7-1.7,0.7
			c-0.7,0.3-1.7,0.7-2.3,0.7c-1,0.3-1.7,0.3-2.7,0.3c-1.7,0-3-0.3-4-1c-1.3-0.7-2.3-1.3-3-2.3c-1-1-1.7-2.3-2-3.6
			c-0.3-1.3-0.7-3-0.7-5c0-1.7,0.3-3.3,0.7-4.6s1-2.7,2-3.6c0.7-1,1.7-2,3-2.3c1-0.7,2.3-1,4-1c2,0,3.6,0.3,4.6,1.3c1,0.7,2,2,2.7,3
			c0.7,1.3,1,2.3,1,3.6c0.3,1.3,0.3,2.7,0.3,3.3c0,0.3,0,0.7,0,0.7c0,0.3-0.3,0.3-0.3,0.3h-13.3c0,0.7,0,1.7,0.3,2.3
			c0.3,1,0.3,1.7,1,2.7c0.3,1,1,1.7,2,2c1,0.7,2,1,3.3,1c0.7,0,1.3,0,2-0.3c0.7-0.3,1.3-0.3,1.7-0.7c0.7-0.3,1-0.3,1.3-0.7
			c0.3-0.3,0.7-0.3,0.7-0.3s0,0,0.3,0.3L536.4,268.5z M533.4,257.3c0-0.7,0-1.3-0.3-2c0-0.7-0.3-1.7-0.7-2.3c-0.3-0.7-1-1.3-1.3-1.7
			c-0.7-0.3-1.3-0.7-2.3-0.7s-2,0.3-2.7,0.7c-0.7,0.7-1.3,1-1.7,1.7c-0.3,0.7-0.7,1.3-0.7,2.3c0,0.7-0.3,1.3-0.3,2H533.4z"/>
		<path d="M564.3,269.9C564.3,269.9,564.3,270.2,564.3,269.9c0,0.3,0,0.7-0.3,0.7s-0.7,0.3-1,0.3s-0.7,0.3-1.3,0.3c-0.3,0-1,0-1.3,0
			c-1,0-2-0.3-3-0.7c-0.7-0.3-1.3-1-1.7-1.7c0-0.3-0.3-1-0.3-1.3c0-0.7,0-1.3-0.3-2c0-0.7,0-1.3,0-2c0-0.7,0-1,0-1.7v-23.5
			c0-0.3,0-0.3,0.3-0.7l2.3-0.7c0.3,0,0.3,0,0.3,0s0,0,0.3,0c0,0,0.3,0,0.3,0.3v0.3v24.9c0,0.3,0,0.7,0,1.3c0,0.3,0,1,0,1.3
			c0,0.3,0,0.7,0,1c0,0.3,0,0.7,0,0.7c0,0.3,0.3,0.7,0.3,1c0.3,0.3,0.7,0.7,1.3,0.7c0.7,0,1,0,1.7-0.3c0.3-0.3,0.7-0.3,1-0.3h0.3
			c0,0,0,0,0,0.3L564.3,269.9z"/>
		<path d="M584.5,259.3c0,1.7-0.3,3.3-0.7,4.6c-0.3,1.3-1,2.7-1.7,3.6c-0.7,1-1.7,2-3,2.7c-1.3,0.7-2.7,1-4.3,1c-1.7,0-3-0.3-4-1
			c-1-0.7-2-1.3-2.7-2.3s-1.3-2.3-1.7-3.6c-0.3-1.3-0.7-3-0.7-4.6c0-1.7,0.3-3,0.7-4.6c0.3-1.3,1-2.7,1.7-3.6c0.7-1,1.7-2,3-2.7
			c1.3-0.7,2.7-1,4.3-1c1.7,0,3,0.3,4,1c1,0.7,2,1.3,3,2.3c0.7,1,1.3,2.3,1.7,3.6C584.1,256.3,584.5,257.9,584.5,259.3z
			 M575.2,268.5c1,0,2-0.3,2.7-0.7c0.7-0.3,1.3-1,1.7-2c0.3-0.7,0.7-1.7,1-3c0-1,0.3-2.3,0.3-3.6c0-1,0-2.3-0.3-3.3
			c-0.3-1-0.3-2-1-2.7c-0.3-0.7-1-1.3-1.7-2c-0.7-0.3-1.7-0.7-2.7-0.7c-1,0-2,0.3-2.7,0.7c-0.7,0.3-1.3,1-1.7,2
			c-0.3,0.7-0.7,1.7-1,2.7c-0.3,1-0.3,2-0.3,3.3c0,1.3,0,2.7,0.3,3.6c0.3,1,0.3,2,1,3c0.3,0.7,1,1.3,1.7,2
			C573.2,268.2,574.2,268.5,575.2,268.5z"/>
		<path d="M598.1,270.5c0,0,0,0.3-0.3,0.3h-0.3h-1.7c-0.3,0-0.3,0-0.3,0v-0.3l-8-21.2c0,0,0,0,0-0.3l0,0c0,0,0-0.3,0.3-0.3l2.3-0.7
			c0,0,0,0,0.3,0c0,0,0,0,0.3,0c0,0,0,0,0.3,0c0,0,0,0,0,0.3l5.3,15.2c0,0.3,0.3,1,0.3,1.7c0,0.7,0.3,1,0.3,1.3l0,0
			c0-0.7,0.3-1,0.3-1.3c0-0.3,0.3-1,0.3-1.3l5.6-15.2v-0.3c0,0,0,0,0.3,0h0.3c0,0,0,0,0.3,0l2.3,0.7c0.3,0,0.3,0.3,0.3,0.3l0,0
			c0,0,0,0,0,0.3L598.1,270.5z"/>
		<path d="M625.6,268.5C625.6,268.5,625.6,268.9,625.6,268.5c0,0.3,0,0.3,0,0.3s-0.3,0.3-0.7,0.7c-0.3,0.3-1,0.7-1.7,0.7
			c-0.7,0.3-1.3,0.7-2.3,0.7c-1,0.3-1.7,0.3-2.7,0.3c-1.7,0-3-0.3-4-1c-1.3-0.7-2.3-1.3-3-2.3s-1.3-2.3-2-3.6c-0.3-1.3-0.7-3-0.7-5
			c0-1.7,0.3-3.3,0.7-4.6c0.3-1.3,1-2.7,1.7-3.6c0.7-1,1.7-2,3-2.3c1-0.7,2.3-1,4-1c2,0,3.3,0.3,4.6,1.3c1,0.7,2,2,2.7,3
			c0.7,1.3,1,2.3,1,3.6c0.3,1.3,0.3,2.7,0.3,3.3c0,0.3,0,0.7,0,0.7c0,0.3-0.3,0.3-0.3,0.3H613c0,0.7,0,1.7,0.3,2.3
			c0,1,0.3,1.7,1,2.7c0.3,1,1,1.7,2,2c1,0.7,2,1,3.3,1c0.7,0,1.3,0,2-0.3c0.7-0.3,1.3-0.3,1.7-0.7c0.3-0.3,1-0.3,1.3-0.7
			c0.3-0.3,0.7-0.3,0.7-0.3s0.3,0,0.3,0.3L625.6,268.5z M622.3,257.3c0-0.7,0-1.3-0.3-2c0-0.7-0.3-1.7-0.7-2.3
			c-0.3-0.7-1-1.3-1.3-1.7c-0.7-0.3-1.3-0.7-2.3-0.7c-1,0-2,0.3-2.7,0.7c-0.7,0.7-1.3,1-1.7,1.7c-0.3,0.7-0.7,1.3-0.7,2.3
			c0,0.7-0.3,1.3-0.3,2H622.3z"/>
		<path d="M648.5,270.2c0,0.3-0.3,0.7-0.7,0.7h-2.3c-0.3,0-0.7-0.3-0.7-0.7v-15.9c0-0.3,0-1,0-1.7c0-0.7-0.3-1.3-0.7-2
			c-0.3-0.7-0.7-1-0.7-1.3V249c0,0,0,0,0.3,0l1.7-1c0.3,0,0.3-0.3,0.3-0.3c0.3,0,0.3,0.3,0.7,0.3c0.3,0.3,0.3,0.7,0.7,1
			c0.3,0.3,0.3,1,0.3,1.3c0,0.3,0.3,0.7,0.3,1c0.3-0.3,0.7-0.7,1-1c0.3-0.3,0.7-1,1.3-1.3c0.3-0.3,1-0.7,1.7-1
			c0.7-0.3,1.3-0.3,2-0.3c0.7,0,1,0,1.7,0.3c0.7,0,0.7,0.3,0.7,0.7c0,0,0,0,0,0.3l0,0l-1,2.3c0,0,0,0,0,0.3c0,0,0,0-0.3,0
			c0,0-0.3,0-0.7-0.3c-0.3,0-0.7-0.3-1-0.3s-0.7,0-1.3,0.3c-0.3,0.3-0.7,0.7-1.3,1c-0.3,0.3-0.7,0.7-1,1.3c-0.3,0.3-0.7,0.7-1,1
			V270.2L648.5,270.2z"/>
		<path d="M673.3,268.5C673.3,268.5,673.3,268.9,673.3,268.5c0,0.3,0,0.3,0,0.3s-0.3,0.3-0.7,0.7c-0.3,0.3-1,0.7-1.7,0.7
			c-0.7,0.3-1.3,0.7-2.3,0.7c-1,0.3-1.7,0.3-2.7,0.3c-1.7,0-3-0.3-4.3-1c-1.3-0.7-2.3-1.3-3-2.3c-1-1-1.7-2.3-2-3.6
			c-0.3-1.3-0.7-3-0.7-5c0-1.7,0.3-3.3,0.7-4.6s1-2.7,2-3.6c0.7-1,1.7-2,3-2.3c1-0.7,2.3-1,4-1c2,0,3.6,0.3,4.6,1.3c1,0.7,2,2,2.7,3
			c0.7,1.3,1,2.3,1,3.6c0.3,1.3,0.3,2.7,0.3,3.3c0,0.3,0,0.7,0,0.7c0,0.3-0.3,0.3-0.3,0.3h-13.3c0,0.7,0,1.7,0.3,2.3
			c0.3,1,0.7,1.7,1,2.7c0.3,1,1,1.7,2,2c1,0.7,2,1,3.3,1c0.7,0,1.3,0,2-0.3c0.7-0.3,1.3-0.3,1.7-0.7c0.7-0.3,1-0.3,1.3-0.7
			c0.3-0.3,0.7-0.3,0.7-0.3s0,0,0.3,0.3V268.5z M670,257.3c0-0.7,0-1.3-0.3-2c0-0.7-0.3-1.7-0.7-2.3c-0.3-0.7-1-1.3-1.3-1.7
			c-0.7-0.3-1.3-0.7-2.3-0.7c-1,0-2,0.3-2.7,0.7c-0.7,0.7-1.3,1-1.7,1.7c-0.3,0.7-0.7,1.3-0.7,2.3c0,0.7-0.3,1.3-0.3,2H670z"/>
		<path d="M693.2,263.2c0,0.7,0,1.3,0,1.7s0,1,0,1c0,0.3,0,0.7,0.3,1c0,0.3,0.3,0.7,0.3,1s0.3,0.7,0.3,1c0.3,0.3,0.3,0.7,0.3,0.7
			s0,0,0,0.3c0,0-0.3,0-0.3,0.3l-1.7,1c-0.3,0-0.3,0-0.3,0c-0.3,0-0.3,0-0.7-0.3c-0.3-0.3-0.3-0.7-0.7-1c0-0.3-0.3-0.7-0.3-1
			s-0.3-0.7-0.3-0.7c-0.3,0-0.3,0.3-0.7,0.7c-0.3,0.3-0.7,0.7-1.3,1s-1.3,0.7-2,1c-0.7,0.3-1.7,0.3-2.7,0.3c-2,0-3.3-0.7-4.3-1.7
			c-1-1-1.7-2.7-1.7-5c0-1.3,0.3-2.3,0.7-3.3c0.3-1,1-1.7,1.7-2.3c0.7-0.7,1.7-1,2.7-1.3c1-0.3,2-0.7,2.7-0.7c1-0.3,1.7-0.3,2.7-0.3
			c0.7,0,1.3,0,2,0v-1.7c0-1.3-0.3-2.3-1-3c-0.7-0.7-1.7-1-3.3-1c-0.7,0-1.7,0-2,0.3c-0.7,0.3-1.3,0.3-1.7,0.7
			c-0.7,0.3-1,0.3-1.3,0.7c-0.3,0-0.7,0.3-0.7,0.3s-0.3,0-0.3-0.3l-0.7-1.7c0-0.3,0-0.3,0-0.7c0-0.3,0.3-0.3,0.7-0.7
			c0.3-0.3,1-0.3,1.7-0.7c0.7-0.3,1.3-0.3,2.3-0.7c1,0,1.7-0.3,2.3-0.3c1.3,0,2.3,0.3,3.3,0.3c1,0.3,1.7,0.7,2.3,1.3
			c0.7,0.7,1,1.3,1.3,2c0.3,0.7,0.3,1.7,0.3,2.7V263.2L693.2,263.2z M689.9,259.6c-0.7,0-1.3,0-2.3,0c-1,0-2,0.3-3,0.7
			c-1,0.3-1.7,0.7-2.7,1.3c-0.7,0.7-1,1.7-1,3c0,0.3,0,1,0.3,1.3c0,0.3,0.3,1,0.7,1.3c0.3,0.3,0.7,0.7,1,1s1,0.3,1.7,0.3
			c0.7,0,1.3,0,1.7-0.3c0.7-0.3,1-0.7,1.7-1c0.3-0.3,1-0.7,1.3-1c0.3-0.3,0.7-0.7,0.7-0.7V259.6L689.9,259.6z"/>
		<path d="M708.8,269.9C708.8,269.9,708.8,270.2,708.8,269.9c0,0.3,0,0.7-0.3,0.7s-0.7,0.3-1,0.3c-0.3,0-0.7,0.3-1.3,0.3
			c-0.3,0-1,0-1.3,0c-1,0-2-0.3-3-0.7c-0.7-0.3-1.3-1-1.7-1.7c0-0.3-0.3-1-0.3-1.3c0-0.7,0-1.3-0.3-2c0-0.7,0-1.3,0-2
			c0-0.7,0-1,0-1.7v-23.5c0-0.3,0-0.3,0.3-0.7l2.3-0.7c0.3,0,0.3,0,0.3,0s0,0,0.3,0s0.3,0,0.3,0.3v0.3v24.9c0,0.3,0,0.7,0,1.3
			c0,0.3,0,1,0,1.3c0,0.3,0,0.7,0,1c0,0.3,0,0.7,0,0.7c0,0.3,0.3,0.7,0.3,1c0.3,0.3,0.7,0.7,1.3,0.7c0.7,0,1,0,1.7-0.3
			c0.3-0.3,0.7-0.3,1-0.3s0.3,0,0.3,0s0,0,0,0.3L708.8,269.9z"/>
		<path d="M717.1,270.2c0,0.3-0.3,0.7-0.7,0.7h-2.3c-0.3,0-0.7-0.3-0.7-0.7v-18.9h-3.6c-0.3,0-0.7-0.3-0.7-0.7V249
			c0-0.3,0.3-0.7,0.7-0.7h6.6c0.3,0,0.3,0,0.3,0.3c0,0,0,0.3,0,0.7L717.1,270.2z M717.7,240c0,0.7-0.3,1.3-0.7,2
			c-0.7,0.7-1.3,0.7-2,0.7s-1.7-0.3-2-0.7c-0.7-0.7-0.7-1.3-0.7-2c0-0.7,0.3-1.3,0.7-2c0.7-0.7,1.3-0.7,2-0.7s1.3,0.3,2,1
			C717.4,238.7,717.7,239.4,717.7,240z"/>
		<path d="M736.6,269.2c0,0.3,0,0.3,0,0.3s-0.3,0.3-0.7,0.7c-0.3,0.3-1,0.3-1.3,0.7c-0.7,0.3-1.3,0.3-2,0.7c-0.7,0-1.3,0.3-2,0.3
			c-1,0-2,0-2.7-0.7c-0.7-0.3-1.3-0.7-1.7-1s-0.7-0.7-0.7-1.3c-0.3-0.3-0.3-1-0.3-1.3c0-0.3,0-1,0-1.3c0-0.3,0-1,0-1.3v-13.3h-3.6
			c0,0-0.3,0-0.3-0.3V251v-1.7V249c0,0,0,0,0.3,0h3.6v-6.3c0-0.3,0-0.3,0.7-0.7l2.3-0.7l0,0l0,0c0.3,0,0.3,0.3,0.3,0.7v7.3h7
			c0.3,0,0.7,0,0.7,0.3l0,0l0,0l-0.7,1.7c0,0.3-0.3,0.3-0.7,0.3h-6v13.3c0,0.3,0,1,0,1.3c0,0.3,0,1,0.3,1.3c0,0.3,0.3,0.7,0.7,1
			s1,0.3,1.7,0.3c0.7,0,1,0,1.7-0.3c0.3,0,1-0.3,1.3-0.3c0.3-0.3,0.7-0.3,1-0.3c0.3,0,0.3-0.3,0.7-0.3s0.3,0,0.3,0.3V269.2z"/>
		<path d="M750.9,267.9c-0.3,1.3-0.7,2.7-1.3,4.6s-1,3.3-2,4.6c-0.3,1-1,1.7-2,2.3s-2,1-3.3,1c-0.7,0-1.3,0-2-0.3
			c-0.7-0.3-1.3-0.3-2-0.7c-0.7-0.3-1-0.7-1.3-0.7c-0.3-0.3-0.7-0.3-0.7-0.7c0,0,0,0,0-0.3l1-2l0.3-0.3c0,0,0.3,0,0.7,0.3
			c0.3,0.3,0.7,0.3,1,0.7c0.3,0.3,1,0.3,1.3,0.7c0.3,0.3,1,0.3,1.7,0.3c1,0,1.7-0.3,2-1c0.7-0.7,1-1.7,1.3-3l1-3h-1.7
			c-0.3,0-0.3,0-0.3,0s0-0.3-0.3-0.3L737,250v-0.3v-0.3V249c0,0,0,0,0.3,0l2-0.7c0.3,0,0.7-0.3,0.7-0.3c0.3,0,0.3,0,0.7,0.3l6,17.6
			c0.3,0.7,0.3,1.3,0.7,1.7c0,0.7,0.3,1,0.3,1.7l0,0c0-0.7,0.3-1,0.3-1.7s0.3-1,0.3-1.7l4.6-17.6c0-0.3,0.3-0.3,0.7-0.3
			c0,0,0.3,0,0.7,0.3l2,0.7h0.3c0,0,0,0,0,0.3v0.3v0.3L750.9,267.9z"/>
	</g>
</g>
</svg>
