<?xml version="1.0" encoding="utf-8"?>
<!-- Generator: Adobe Illustrator 16.0.0, SVG Export Plug-In . SVG Version: 6.00 Build 0)  -->
<!DOCTYPE svg PUBLIC "-//W3C//DTD SVG 1.1//EN" "http://www.w3.org/Graphics/SVG/1.1/DTD/svg11.dtd">
<svg version="1.1" id="Layer_1" xmlns="http://www.w3.org/2000/svg" xmlns:xlink="http://www.w3.org/1999/xlink" x="0px" y="0px"
	 width="32px" height="32px" viewBox="0 0 32 32" enable-background="new 0 0 32 32" xml:space="preserve">
<linearGradient id="SVGID_1_" gradientUnits="userSpaceOnUse" x1="0.2788" y1="16.6816" x2="31.624" y2="16.6816">
	<stop  offset="0" style="stop-color:#FFFFFF;stop-opacity:0.5"/>
	<stop  offset="1" style="stop-color:#FFFFFF;stop-opacity:0"/>
</linearGradient>
<polygon fill="url(#SVGID_1_)" stroke="#FFFFFF" stroke-width="0.5" stroke-linecap="round" stroke-linejoin="round" points="
	13.875,11.185 19.704,9.231 31.624,17.066 11.368,24.131 0.279,15.742 7.407,13.354 "/>
<g>
	<g>
		<line fill="none" stroke="#FFFFFF" x1="11.059" y1="20.6" x2="11.059" y2="15.368"/>
		<polygon fill="#FFFFFF" points="14.56,16.39 11.069,10.344 7.58,16.39 		"/>
	</g>
</g>
<g>
	<g>
		<line fill="none" stroke="#FFFFFF" x1="20.361" y1="11.717" x2="20.361" y2="16.949"/>
		<polygon fill="#FFFFFF" points="16.86,15.928 20.351,21.973 23.841,15.928 		"/>
	</g>
</g>
<path fill="none" stroke="#FFFFFF" stroke-width="0.4915" stroke-linecap="round" stroke-linejoin="round" stroke-dasharray="2,2" d="
	M0.279,15.748h3.954c3.6,0,3.6-7.293,7.197-7.293c3.599,0,5.096,15.813,8.694,15.813c3.598,0,3.598-7.233,7.195-7.233h4.305"/>
</svg>
